<?xml version="1.0" encoding="UTF-8"?>
<svg id="_ëîé_1" data-name="—ëîé_1" xmlns="http://www.w3.org/2000/svg" viewBox="0 0 186.4 166.69">
  <defs>
    <style>
      .cls-1 {
        stroke-width: 0px;
      }
    </style>
  </defs>
  <g>
    <path class="cls-1" d="m21.43,12.73c1.93-.38,3.69-.56,5.39-.56,5.17,0,10.24,1.81,15.63,5.79,1.36-1.01,2.57-2.23,2.44-3.32-.3-2.38-4.3-2.15-4.3-2.15,0,0,4.02-5.47,1.74-7.61-2.28-2.14-6.83,2.33-6.83,2.33,0,0,4.69-7.7-1.7-7.18-6.38.52-13.09,8.52-13.09,8.52,0,0-1.32-4.9-4.8-.44-2.14,2.73-3.57,6.56-4.48,9.8,2.52-2.48,5.86-4.35,10-5.16Z"/>
    <path class="cls-1" d="m62.93,160.2s10.16-20.05,11.17-24.51c-.32-.25-.64-.5-.96-.76-5.84-4.74-9.26-10.59-11.17-15.01-3.46-.63-6.64-1.47-9.55-2.44-.84,1.66-1.99,5.77,1.57,12.68,3.93,7.65,11.07,11.91,11.07,11.91l-5.51,22.14-18.4,2.49h20.09s5.78-8.98,11.82-9.51c-4.09-1.96-10.13,3.02-10.13,3.02Z"/>
  </g>
  <path class="cls-1" d="m11.48,41.34s-4.99,16.83,5.03,15.23c10.01-1.6.92-13.46-.37-14.55-1.3-1.09-4.65-.68-4.65-.68Z"/>
  <g>
    <path class="cls-1" d="m70.01,84.9l-.13-.08c-.23-.14-.46-.28-.67-.46l-.63-.5-.85-.83-.76-.9.94.7.99.6.21.1c-.27-.26-.54-.53-.79-.81-.86-.92-1.62-1.92-2.14-2.69-.52-.77-.82-1.31-.82-1.31,0,0,.42.46,1.09,1.09.68.63,1.62,1.4,2.62,2.07.22.15.44.29.66.43-.14-.22-.29-.43-.45-.65-.69-.97-1.48-1.88-2.12-2.53-.64-.65-1.1-1.05-1.1-1.05,0,0,.54.28,1.33.77.78.49,1.8,1.22,2.74,2.05.28.24.56.5.82.75l-.1-.19-.62-.96-.72-.91.92.73.85.82.51.61c.18.2.33.42.48.65l.08.13s.04-.01.06-.02c.05-.14.09-.28.15-.43-.56-1.27-1.57-2.77-3.06-4.25-2.4-2.4-5.99-2.94-7.22-3.05.12,1.23.65,4.83,3.05,7.22,1.49,1.49,2.98,2.5,4.25,3.06.14-.06.28-.1.41-.15Z"/>
    <path class="cls-1" d="m91.32,105.1c.34-.03.68-.06,1-.17.4-.14.34-.48-.05-.58-.88-.2-1.82-.02-2.69.11-.62.11-1.23.23-1.85.34,1.14.15,2.28.32,3.43.31.03,0,.14,0,.16,0Z"/>
    <path class="cls-1" d="m95.86,91.07s0,.05,0,.08c0,.02,0,0,0-.08Z"/>
    <path class="cls-1" d="m90.99,94.45c-.23.07-.49.34-.18.51.35.19.9.17,1.25.17,1.19-.06,2.33-.31,3.49-.55-.62-.07-1.25-.14-1.87-.21-.88-.08-1.83-.19-2.69.07Z"/>
    <path class="cls-1" d="m91.32,105.1s-.06,0-.09,0c.08,0,.09,0,.09,0Z"/>
    <path class="cls-1" d="m72.43,88.44l-.08.13c-.14.23-.28.46-.46.67l-.5.63-.83.85-.9.76.7-.94.6-.99.1-.2c-.26.27-.53.54-.81.79-.92.86-1.92,1.62-2.69,2.14-.77.52-1.31.82-1.31.82,0,0,.46-.42,1.09-1.09.63-.68,1.4-1.62,2.07-2.62.15-.22.29-.44.42-.66-.22.14-.43.29-.65.45-.97.69-1.88,1.48-2.53,2.12-.65.64-1.04,1.1-1.04,1.1,0,0,.28-.54.77-1.33.49-.78,1.22-1.8,2.05-2.74.24-.28.5-.56.75-.82l-.19.1-.96.62-.9.72.73-.92.82-.85.61-.52c.2-.18.42-.33.65-.48l.19-.12c-.17-.05-.33-.11-.5-.18-1.27.56-2.77,1.57-4.25,3.05-2.4,2.4-2.94,5.99-3.05,7.23,1.23-.11,4.83-.65,7.23-3.05,1.48-1.49,2.5-2.98,3.05-4.25-.06-.14-.11-.27-.15-.41Z"/>
    <path class="cls-1" d="m87.85,100.2c-.08-.23-.37-.45-.52-.12-.38.83-.08,2.01.05,2.87.11.62.23,1.23.34,1.85.16-1.16.36-2.38.31-3.51-.02-.37-.06-.74-.18-1.09Z"/>
    <path class="cls-1" d="m87.59,109.36c.07.23.34.49.52.18.19-.35.17-.9.17-1.25-.07-1.18-.31-2.33-.55-3.49-.07.62-.14,1.25-.21,1.87-.08.88-.19,1.83.07,2.69Z"/>
    <path class="cls-1" d="m83.16,104.66c-.23.07-.49.34-.18.52.35.19.9.17,1.25.17,1.18-.06,2.33-.31,3.49-.55-.62-.07-1.25-.14-1.87-.21-.88-.08-1.83-.19-2.69.07Z"/>
    <path class="cls-1" d="m91.23,105.1s-.05,0-.08,0c-.02,0,0,0,.08,0Z"/>
    <path class="cls-1" d="m95.86,91.07c-.03-.39-.04-.9-.26-1.24-.2-.3-.45-.02-.5.21-.2.88-.02,1.82.11,2.69.11.62.23,1.24.34,1.85.15-1.14.31-2.28.3-3.43,0-.04-.01-.3,0-.08Z"/>
    <path class="cls-1" d="m104.2,100.76c-.03-.39-.04-.91-.26-1.25-.19-.3-.45-.02-.5.21-.21.88-.02,1.82.11,2.69.11.62.22,1.24.34,1.85.15-1.14.32-2.28.31-3.44,0-.04-.02-.3,0-.07Z"/>
    <path class="cls-1" d="m108.49,104.4c.23-.08.45-.37.12-.52-.83-.37-2.01-.08-2.86.06-.62.11-1.24.23-1.85.34,1.16.15,2.37.36,3.51.31.36-.02.74-.06,1.08-.18Z"/>
    <path class="cls-1" d="m99.33,104.14c-.23.07-.49.34-.18.52.35.19.9.17,1.25.17,1.18-.06,2.33-.31,3.49-.55-.62-.07-1.25-.14-1.87-.21-.88-.08-1.83-.19-2.69.07Z"/>
    <path class="cls-1" d="m104.2,100.76s0,.05,0,.08c0,.01,0,0,0-.08Z"/>
    <path class="cls-1" d="m100.15,94.7c.4-.14.34-.48-.05-.57-.88-.2-1.82-.02-2.69.11-.62.11-1.24.23-1.85.34,1.16.16,2.37.33,3.51.31.37-.03.74-.06,1.09-.18Z"/>
    <path class="cls-1" d="m95.42,99.14c.07.23.34.49.51.18.19-.35.17-.9.17-1.25-.06-1.18-.32-2.33-.55-3.49-.07.63-.14,1.25-.21,1.87-.08.88-.19,1.83.08,2.69Z"/>
    <path class="cls-1" d="m104.44,107.68s0,.05,0,.08c0-.08,0-.09,0-.08Z"/>
    <path class="cls-1" d="m103.72,108.68c.04.18.2.67.48.44.3-.25.24-1.02.24-1.36,0,.22,0-.03,0-.08-.07-1.15-.31-2.28-.54-3.41-.07.62-.15,1.25-.21,1.87-.07.84-.16,1.7.03,2.53Z"/>
    <path class="cls-1" d="m72.9,92.22c-.58.82-1.27,1.62-2.06,2.41-.2.2-.43.41-.69.62.55,2.59,2.11,4.67,2.76,5.45.65-.78,2.21-2.86,2.75-5.45-.27-.22-.49-.42-.69-.62-.78-.78-1.47-1.59-2.06-2.41Z"/>
    <path class="cls-1" d="m103.69,82.06s0,.06,0,.09c0-.08,0-.1,0-.09Z"/>
    <path class="cls-1" d="m114.6,85.91c-.23.07-.49.34-.18.52.35.19.9.17,1.25.17,1.18-.06,2.33-.31,3.49-.55-.62-.07-1.25-.14-1.87-.21-.88-.08-1.83-.19-2.69.07Z"/>
    <path class="cls-1" d="m103.7,82.15s0,.05,0,.08c0,.02,0,0,0-.08Z"/>
    <path class="cls-1" d="m103.69,82.06c-.03-.34-.06-.68-.17-1-.08-.23-.37-.45-.52-.13-.38.83-.08,2.02.05,2.87.11.62.23,1.24.34,1.85.15-1.14.32-2.28.3-3.44,0-.03,0-.14,0-.16Z"/>
    <path class="cls-1" d="m118.99,90.45c.04.18.2.67.49.44.3-.25.24-1.02.24-1.36,0,.22,0-.03,0-.07-.07-1.15-.31-2.28-.54-3.41-.07.62-.14,1.24-.21,1.86-.09.83-.16,1.71.03,2.54Z"/>
    <path class="cls-1" d="m119.29,81.45c-.14-.4-.48-.34-.58.05-.2.88-.03,1.82.11,2.69.11.62.22,1.24.34,1.85.16-1.16.36-2.37.31-3.51-.02-.36-.06-.74-.18-1.08Z"/>
    <path class="cls-1" d="m119.71,89.45s0,.05,0,.07c0-.08,0-.09,0-.07Z"/>
    <path class="cls-1" d="m122.68,86.35s-.05,0-.07,0c-.02,0,0,0,.07,0Z"/>
    <path class="cls-1" d="m122.68,86.35c.39-.03.91-.04,1.25-.26.3-.19.02-.45-.22-.5-.88-.2-1.82-.02-2.69.11-.62.11-1.24.22-1.85.34,1.14.15,2.28.32,3.44.31.04,0,.3-.01.07,0Z"/>
    <path class="cls-1" d="m103.26,90.22c.07.23.34.49.52.18.19-.35.17-.9.17-1.25-.07-1.18-.32-2.33-.55-3.49-.07.62-.14,1.25-.21,1.87-.08.88-.19,1.83.07,2.69Z"/>
    <path class="cls-1" d="m75.98,86.02l.13.08c.23.14.46.28.67.46l.63.5.86.84.76.9-.94-.7-.99-.6-.21-.1c.27.26.54.53.79.81.86.92,1.62,1.92,2.14,2.69.52.77.82,1.31.82,1.31,0,0-.42-.46-1.09-1.09-.67-.63-1.62-1.4-2.62-2.07-.22-.15-.44-.29-.66-.43.14.22.29.44.45.65.69.97,1.48,1.88,2.12,2.52.64.65,1.1,1.05,1.1,1.05,0,0-.54-.28-1.33-.77-.78-.49-1.79-1.22-2.74-2.04-.28-.24-.56-.5-.82-.76l.1.2.62.96.72.91-.92-.73-.85-.82-.52-.61c-.18-.2-.33-.42-.48-.65l-.12-.19c-.05.17-.11.33-.17.5.56,1.27,1.57,2.76,3.05,4.25,2.4,2.4,5.99,2.93,7.22,3.05-.12-1.23-.65-4.82-3.05-7.22-1.49-1.49-2.98-2.5-4.25-3.06-.14.06-.28.1-.41.15Z"/>
    <path class="cls-1" d="m72.97,78.82c.59-.82,1.28-1.63,2.06-2.41.21-.2.43-.41.69-.62-.55-2.58-2.11-4.67-2.76-5.45-.65.78-2.2,2.87-2.75,5.45.26.22.49.42.69.62.78.78,1.48,1.59,2.06,2.41Z"/>
    <path class="cls-1" d="m66.23,85.55c-.83-.59-1.63-1.28-2.41-2.06-.2-.2-.4-.42-.62-.69-2.58.55-4.67,2.11-5.45,2.75.78.64,2.87,2.21,5.45,2.76.21-.26.42-.49.62-.69.79-.79,1.6-1.48,2.41-2.06Z"/>
    <path class="cls-1" d="m73.64,82.34c.14-.23.28-.46.46-.67l.5-.64.84-.86.9-.76-.7.94-.6.99-.09.21c.26-.27.53-.54.81-.79.92-.86,1.92-1.62,2.69-2.14.78-.52,1.31-.82,1.31-.82,0,0-.46.42-1.08,1.09-.63.68-1.4,1.62-2.07,2.62-.15.22-.29.44-.42.66.22-.14.43-.29.65-.45.97-.69,1.88-1.48,2.53-2.12.65-.64,1.05-1.1,1.05-1.1,0,0-.28.54-.77,1.33-.49.78-1.22,1.8-2.05,2.74-.24.28-.5.56-.75.82l.19-.1.96-.62.91-.72-.73.92-.82.86-.61.51c-.2.18-.42.33-.65.48l-.19.12c.17.05.33.11.5.18,1.27-.56,2.77-1.57,4.25-3.05,2.4-2.4,2.93-5.99,3.05-7.22-1.23.11-4.83.65-7.22,3.05-1.48,1.49-2.5,2.98-3.05,4.25.05.14.1.28.15.41l.08-.13Z"/>
    <path class="cls-1" d="m106.91,85.97c.39-.03.91-.04,1.25-.26.3-.19.02-.45-.22-.5-.87-.2-1.83-.04-2.7.11-.61.11-1.23.22-1.84.33,1.14.15,2.28.32,3.43.31.04,0,.3-.01.08,0Z"/>
    <path class="cls-1" d="m71.31,86.93c.92.92,2.41.92,3.33,0,.91-.92.91-2.41,0-3.32-.92-.92-2.41-.92-3.32,0-.92.91-.92,2.4,0,3.32Zm.94-2.39c.4-.4,1.05-.4,1.45,0,.4.4.4,1.05,0,1.45-.4.4-1.05.4-1.45,0-.4-.4-.4-1.05,0-1.45Z"/>
    <path class="cls-1" d="m106.91,85.97s-.05,0-.08,0c-.01,0,0,0,.08,0Z"/>
    <path class="cls-1" d="m98.83,85.52c-.23.07-.49.34-.18.52.35.19.9.17,1.25.17,1.19-.06,2.34-.31,3.49-.55-.62-.07-1.25-.14-1.87-.21-.88-.08-1.83-.19-2.69.07Z"/>
    <path class="cls-1" d="m79.63,85.49c.82.59,1.63,1.28,2.41,2.06.2.2.41.43.62.7,2.58-.55,4.67-2.11,5.45-2.76-.78-.64-2.86-2.2-5.45-2.76-.22.26-.42.48-.62.69-.79.79-1.6,1.48-2.41,2.06Z"/>
    <path class="cls-1" d="m107.6,94.94s-.05,0-.08,0c.08,0,.09,0,.08,0Z"/>
    <path class="cls-1" d="m115.31,101.79c-.18.04-.67.2-.43.48.25.3,1.02.24,1.36.24-.22,0,.03,0,.08,0,1.15-.07,2.28-.31,3.41-.54-.62-.07-1.25-.14-1.87-.21-.84-.07-1.7-.16-2.53.03Z"/>
    <path class="cls-1" d="m119.54,106.37c.04.18.2.67.49.43.3-.25.24-1.02.24-1.36,0,.22,0-.03,0-.08-.07-1.15-.31-2.28-.54-3.41-.07.62-.15,1.25-.21,1.87-.07.84-.16,1.7.03,2.53Z"/>
    <path class="cls-1" d="m131.27,93.79s-.05,0-.08,0c-.02,0,0,0,.08,0Z"/>
    <path class="cls-1" d="m111.3,90.8c-.03-.33-.06-.68-.17-.99-.08-.23-.37-.45-.52-.12-.37.83-.08,2.02.05,2.87.11.62.23,1.23.34,1.85.15-1.14.32-2.28.31-3.44,0-.03,0-.15,0-.16Z"/>
    <path class="cls-1" d="m115.6,94.52c.23-.08.45-.37.12-.52-.83-.37-2.01-.08-2.86.05-.62.11-1.24.23-1.85.34,1.16.15,2.37.36,3.51.31.36-.02.74-.06,1.09-.18Z"/>
    <path class="cls-1" d="m120.26,105.37s0,.05,0,.08c0-.08,0-.09,0-.08Z"/>
    <path class="cls-1" d="m128.06,89.88s0,.06,0,.09c0-.08,0-.1,0-.09Z"/>
    <path class="cls-1" d="m111.55,97.8s0,.05,0,.08c0-.08,0-.09,0-.08Z"/>
    <path class="cls-1" d="m110.83,98.8c.04.18.2.67.48.44.3-.25.24-1.02.24-1.36,0,.22,0-.03,0-.08-.07-1.15-.31-2.28-.54-3.41-.07.62-.14,1.25-.21,1.87-.07.84-.16,1.7.03,2.53Z"/>
    <path class="cls-1" d="m128.06,89.88c-.03-.34-.06-.68-.18-1-.08-.23-.37-.45-.51-.12-.34.75-.11,1.86.02,2.64.11.7.25,1.39.38,2.08.15-1.14.31-2.28.31-3.44,0-.03-.01-.14,0-.16Z"/>
    <path class="cls-1" d="m123.19,93.35c-.22.07-.49.34-.18.52.35.19.9.17,1.25.17,1.18-.07,2.33-.32,3.49-.55-.63-.07-1.25-.14-1.87-.21-.88-.08-1.83-.19-2.69.07Z"/>
    <path class="cls-1" d="m124.31,102.09c.23-.08.45-.37.12-.52-.83-.38-2.02-.08-2.86.05-.62.11-1.24.23-1.85.34,1.16.15,2.37.33,3.51.31.37-.03.74-.06,1.09-.18Z"/>
    <path class="cls-1" d="m127.63,98.05c.07.23.34.49.52.18.19-.35.17-.9.17-1.25-.06-1.18-.31-2.33-.55-3.49-.07.62-.14,1.25-.21,1.87-.07.88-.19,1.83.07,2.69Z"/>
    <path class="cls-1" d="m116.31,102.51s-.05,0-.08,0c.08,0,.09,0,.08,0Z"/>
    <path class="cls-1" d="m162.11,74.45c-.8-.92-24.46,7.68-38.87,5.45-28.66-4.44-43.55-13.42-52.16-15.82-17.15-4.79-27.35,23.04-10.38,36.96,24.02,19.72,55.32,13.85,78.51-1.04,5.29-3.4-2.89-1.77-2.89-1.77,0,0,11.44-3.8,12.8-6.52.54-1.08-.44-1.3-1.83-1.17-2.61.91-5.26,1.71-7.93,2.43-1.28.35-2.57.68-3.87.98,2.31-.74,4.63-1.54,6.92-2.42,1.27-.96,6.8-5.23,9.24-8.06-3.49.71-7.01,1.21-10.55,1.57-1.32.14-2.65.26-3.97.35,5.87-.89,11.81-2.08,17.38-4.19,4.5-2.62,8.3-5.94,7.61-6.75Zm-47.47,10.88c1.47-.31,3.18.1,4.52.71-.7-1.3-1.23-2.97-1.02-4.46.08-.6.59-1.29,1.26-.88.57.35.54,1.25.54,1.83-.06,1.21-.31,2.39-.78,3.52,1.3-.7,2.97-1.23,4.47-1.02.6.08,1.28.58.88,1.26-.34.57-1.25.54-1.83.54-1.21-.06-2.39-.31-3.52-.78.54,1.09.91,2.25,1.02,3.45.05.57.13,1.48-.41,1.86-.64.45-1.19-.2-1.32-.79-.32-1.48.1-3.18.71-4.52-1.09.54-2.26.92-3.47,1.02-.57.05-1.47.13-1.85-.41-.46-.65.2-1.19.79-1.32Zm-15.77-.38c1.47-.31,3.18.1,4.52.71-.7-1.3-1.23-2.97-1.02-4.46.08-.6.59-1.29,1.26-.88.57.35.55,1.25.54,1.83-.03,1.21-.31,2.39-.78,3.52,1.3-.7,2.97-1.23,4.46-1.02.6.09,1.29.59.88,1.26-.34.57-1.25.54-1.83.54-1.21-.06-2.39-.31-3.51-.78.54,1.09.92,2.26,1.02,3.46.05.57.13,1.47-.41,1.85-.75.53-1.26-.36-1.35-.99-.21-1.44.16-3.01.75-4.32-1.09.54-2.26.92-3.47,1.02-.57.05-1.47.13-1.85-.42-.45-.64.2-1.19.79-1.32Zm-9.59.54l-.3.28c-.11.11-2.78,2.61-6.4,3.29l-.23.04-.15-.19c-.26-.32-.48-.58-.72-.81-.9-.9-1.83-1.67-2.76-2.29l-.49-.33.49-.33c.93-.61,1.86-1.39,2.76-2.29.23-.23.46-.49.72-.81l.15-.18.23.05c3.61.68,6.28,3.18,6.4,3.28l.3.28Zm-4.14,5.33c-.33.33-.86.33-1.19,0-.33-.33-.33-.86,0-1.19.33-.33.86-.33,1.2,0,.33.33.33.86,0,1.19Zm0-10.73c.33.33.33.86,0,1.19-.33.33-.86.33-1.19,0-.33-.33-.33-.86,0-1.19.33-.33.86-.33,1.2,0Zm-7.97-6.77c.33-.33.86-.33,1.19,0,.33.33.33.86,0,1.19-.33.33-.86.33-1.19,0-.33-.33-.33-.86,0-1.19Zm-7.78,2.55c.68-3.61,3.18-6.28,3.28-6.39l.28-.3.29.3c.1.11,2.61,2.78,3.28,6.4l.04.23-.18.15c-.32.25-.58.48-.81.72-.9.9-1.67,1.83-2.29,2.76l-.33.49-.33-.49c-.62-.94-1.39-1.87-2.29-2.76-.23-.23-.49-.46-.81-.72l-.18-.15.05-.23Zm-1.77-2.55c.33-.33.86-.33,1.2,0,.33.33.33.86,0,1.19-.33.33-.86.33-1.19,0-.33-.33-.33-.87,0-1.19Zm-6.77,6.77c.33-.33.86-.33,1.19,0,.33.33.33.86,0,1.19-.33.33-.86.33-1.19,0-.33-.33-.33-.86,0-1.19Zm-3.97,5.74l-.3-.28.3-.28c.11-.11,2.78-2.61,6.39-3.28l.23-.04.15.18c.27.34.49.59.72.81.89.89,1.82,1.66,2.77,2.29l.49.33-.49.33c-.93.62-1.86,1.39-2.77,2.29-.23.23-.47.5-.71.81l-.15.19-.23-.04c-3.62-.68-6.29-3.18-6.4-3.29Zm3.97,4.99c-.33-.33-.33-.86,0-1.19.33-.33.86-.33,1.19,0,.33.33.33.86,0,1.19-.33.33-.86.33-1.19,0Zm.62,6.15v-.41c.02-.21.17-5.05,3.32-8.19,1.28-1.28,2.63-2.27,3.89-2.92-1.25-.65-2.6-1.64-3.89-2.92-3.14-3.14-3.3-7.99-3.31-8.19v-.41s.4.01.4.01c.2,0,5.04.16,8.19,3.31,1.28,1.28,2.27,2.63,2.92,3.89.65-1.26,1.64-2.61,2.92-3.89,3.15-3.15,7.99-3.3,8.19-3.31h.41s-.01.4-.01.4c0,.2-.16,5.04-3.31,8.19-1.28,1.28-2.63,2.27-3.89,2.92,1.26.65,2.61,1.64,3.89,2.92,3.14,3.14,3.3,7.98,3.31,8.19v.41s-.4-.01-.4-.01c-.2,0-5.05-.17-8.19-3.31-1.28-1.28-2.27-2.63-2.92-3.89-.65,1.26-1.64,2.61-2.92,3.89-3.15,3.14-7.98,3.3-8.19,3.31h-.41Zm7.34.62c-.33.33-.86.33-1.19,0-.33-.33-.33-.86,0-1.2.33-.33.86-.33,1.19,0,.33.33.33.86,0,1.19Zm7.65-2.42c-.68,3.61-3.18,6.28-3.28,6.39l-.28.3-.28-.3c-.11-.11-2.61-2.78-3.29-6.4l-.05-.23.19-.15c.32-.25.58-.48.81-.71.9-.9,1.67-1.83,2.29-2.77l.32-.49.33.49c.63.94,1.4,1.87,2.29,2.77.23.23.48.45.81.72l.18.15-.04.23Zm1.89,2.42c-.33.33-.86.33-1.19,0-.33-.33-.33-.86,0-1.19.33-.33.86-.33,1.19,0,.33.33.33.86,0,1.19Zm14.7,7.43c-.34.57-1.25.55-1.83.54-1.21-.03-2.39-.31-3.52-.78.54,1.08.92,2.26,1.02,3.46.05.57.13,1.46-.41,1.85-.75.53-1.26-.36-1.35-.99-.21-1.44.16-3.01.75-4.32-1.09.54-2.26.92-3.46,1.02-.57.05-1.47.13-1.85-.42-.45-.64.2-1.19.79-1.32,1.47-.32,3.18.1,4.52.71-.7-1.3-1.23-2.97-1.02-4.46.08-.6.59-1.29,1.26-.88.57.35.54,1.25.54,1.83-.06,1.21-.31,2.39-.78,3.52,1.3-.7,2.97-1.23,4.46-1.02.6.08,1.29.58.88,1.26Zm3.1-5.14c-.65.45-1.19-.2-1.32-.79-.32-1.47.1-3.18.71-4.52-1.09.54-2.26.92-3.47,1.02-.57.05-1.47.13-1.85-.41-.46-.64.2-1.19.79-1.32,1.47-.31,3.18.1,4.53.71-.7-1.3-1.23-2.97-1.02-4.46.08-.6.59-1.29,1.26-.88.57.34.55,1.25.54,1.83-.03,1.21-.31,2.39-.78,3.52,1.3-.7,2.97-1.23,4.46-1.02.6.08,1.29.58.88,1.26-.34.57-1.25.54-1.83.54-1.21-.06-2.39-.31-3.52-.78.54,1.09.92,2.26,1.02,3.47.05.57.13,1.47-.41,1.85Zm13.07,4.62c-.34.57-1.25.54-1.83.54-1.21-.06-2.39-.31-3.52-.78.54,1.09.91,2.25,1.02,3.45.05.54.12,1.33-.3,1.76-.52.54-1.2.1-1.38-.48-.46-1.49.04-3.36.66-4.73-1.09.54-2.26.92-3.47,1.02-.57.05-1.47.13-1.85-.42-.45-.64.2-1.19.79-1.32,1.47-.31,3.18.11,4.52.71-.7-1.3-1.23-2.97-1.02-4.46.09-.6.59-1.29,1.26-.88.57.35.54,1.25.54,1.83-.06,1.21-.31,2.39-.78,3.52,1.3-.7,2.97-1.23,4.46-1.02.6.08,1.29.58.88,1.26Zm2.49-4.9c-.61.63-1.3-.05-1.43-.69-.31-1.48.1-3.17.71-4.52-1.09.54-2.25.88-3.45,1.02-.54.04-1.34.12-1.76-.3-.53-.52-.09-1.2.48-1.38,1.49-.46,3.35.04,4.73.66-.7-1.3-1.23-2.97-1.02-4.46.08-.6.58-1.29,1.26-.88.57.34.54,1.25.54,1.83-.06,1.21-.31,2.39-.78,3.52,1.3-.7,2.97-1.23,4.46-1.02.6.08,1.29.58.88,1.26-.34.57-1.25.54-1.83.54-1.21-.06-2.4-.31-3.52-.78.54,1.09.88,2.25,1.02,3.45.03.54.12,1.33-.3,1.76Zm13.33,2.59c-.34.57-1.25.54-1.83.54-1.21-.06-2.39-.31-3.51-.78.54,1.09.88,2.25,1.02,3.45.03.54.12,1.33-.3,1.76-.52.53-1.19.09-1.38-.49-.44-1.49.04-3.36.66-4.73-1.09.54-2.25.91-3.46,1.02-.54.05-1.33.12-1.76-.3-.53-.52-.1-1.2.48-1.38,1.49-.46,3.35.04,4.73.66-.7-1.3-1.24-2.97-1.02-4.46.08-.6.59-1.29,1.26-.88.57.35.54,1.25.54,1.83-.06,1.21-.31,2.39-.78,3.52,1.3-.7,2.97-1.23,4.46-1.02.6.09,1.29.59.88,1.26Zm8.05-8.48c-.34.57-1.25.55-1.83.54-1.21-.03-2.39-.31-3.52-.78.54,1.09.92,2.26,1.02,3.47.05.57.13,1.47-.42,1.85-.64.45-1.19-.2-1.31-.79-.32-1.47.1-3.18.71-4.52-1.09.54-2.26.92-3.47,1.02-.57.05-1.47.13-1.85-.42-.45-.64.2-1.19.79-1.31,1.47-.32,3.18.1,4.52.71-.7-1.3-1.23-2.97-1.02-4.46.08-.6.58-1.29,1.26-.88.57.35.55,1.25.54,1.83-.03,1.21-.31,2.39-.78,3.52,1.3-.7,2.97-1.23,4.46-1.02.6.08,1.29.58.88,1.26Z"/>
    <path class="cls-1" d="m106.6,94.22c-.17.04-.67.2-.43.48.25.3,1.02.24,1.36.24-.22,0,.03-.01.08,0,1.15-.07,2.28-.31,3.41-.54-.62-.07-1.25-.14-1.87-.21-.84-.07-1.7-.16-2.53.03Z"/>
    <path class="cls-1" d="m131.27,93.79c.39-.03.91-.04,1.24-.26.3-.2.02-.45-.21-.5-.88-.2-1.82-.02-2.69.11-.62.11-1.24.23-1.85.34,1.14.15,2.28.32,3.43.31.04,0,.3-.02.08,0Z"/>
    <path class="cls-1" d="m119.84,97.37c-.08-.23-.37-.45-.52-.12-.34.75-.11,1.86.02,2.64.11.7.25,1.39.38,2.08.15-1.16.35-2.37.31-3.51-.02-.36-.06-.74-.18-1.09Z"/>
    <path class="cls-1" d="m111.31,90.88s0,.05,0,.08c0,.01,0,0,0-.08Z"/>
    <path class="cls-1" d="m128.07,89.97s0,.05,0,.08c0,.01,0,0,0-.08Z"/>
    <path class="cls-1" d="m111.3,90.8s0,.06.01.09c0-.08-.01-.09-.01-.09Z"/>
  </g>
  <g>
    <path class="cls-1" d="m128.41,45.59c.92.89.95,2.37.05,3.3-.56.58-1.36.83-2.15.66-.43-.09-.82-.3-1.14-.6-.09-.08-.16-.18-.23-.27,0,.54-.04,1.08-.13,1.6.37.25.79.43,1.23.52,1.23.26,2.48-.12,3.34-1.02,1.22-1.27,1.33-3.2.35-4.59-.53.11-1.06.18-1.6.19.1.06.19.14.27.21Z"/>
    <path class="cls-1" d="m35.85,43.03c-.51-.37-1.01-.81-1.49-1.29-.13-.13-.25-.26-.38-.42-1.56.35-2.83,1.25-3.4,1.7.57.45,1.84,1.36,3.4,1.71.13-.15.25-.29.38-.41.48-.49.98-.92,1.49-1.29Z"/>
    <path class="cls-1" d="m41.44,41.02c.09-.15.18-.29.29-.42l.32-.42.36-.38c.23-.26.52-.47.77-.7-.21.28-.44.54-.61.84l-.27.43-.17.35c.22-.23.45-.47.69-.7.6-.57,1.25-1.09,1.76-1.44.51-.35.86-.55.86-.55,0,0-.31.27-.73.71-.42.44-.94,1.06-1.4,1.72-.15.21-.28.42-.41.62.2-.14.41-.28.61-.43.64-.47,1.24-1,1.67-1.42.42-.43.68-.74.68-.74,0,0-.19.36-.52.87-.33.52-.82,1.17-1.38,1.79-.22.25-.45.48-.68.7l.34-.18.42-.28c.29-.17.53-.41.81-.62-.22.26-.42.55-.67.79l-.37.37-.41.33c-.13.12-.28.22-.43.31.06.04.14.07.22.1.87-.39,1.86-1.09,2.75-1.98,1.49-1.49,1.88-3.69,1.98-4.59-.91.1-3.1.49-4.59,1.98-.95.95-1.61,1.91-1.98,2.74.02.06.05.13.07.19Z"/>
    <path class="cls-1" d="m125.94,48.14c.16.16.37.27.59.32.41.09.84-.04,1.13-.35.47-.48.45-1.26-.03-1.72-.47-.46-1.27-.44-1.73.03-.23.23-.35.54-.34.87,0,.33.14.63.37.86Z"/>
    <path class="cls-1" d="m125.12,45.64c.2-.21.43-.37.68-.49-.52-.11-1.03-.28-1.52-.48-.03.03-.05.05-.08.08-.03.03-.05.06-.08.09.22.49.4.99.53,1.51.11-.26.26-.5.46-.71Z"/>
    <path class="cls-1" d="m43.03,43.56c.15.09.3.18.43.29l.42.33.38.36c.27.23.47.52.7.77-.28-.21-.53-.44-.84-.61l-.43-.27-.35-.17c.23.22.47.45.7.69.57.6,1.09,1.26,1.43,1.76.35.51.55.86.55.86,0,0-.27-.3-.71-.73-.44-.42-1.06-.94-1.72-1.4-.21-.15-.42-.28-.63-.41.14.21.28.41.42.62.47.64,1,1.24,1.43,1.67.43.42.74.68.74.68,0,0-.36-.19-.87-.52-.51-.33-1.17-.83-1.79-1.38-.25-.22-.48-.45-.7-.67l.18.34.28.42c.17.29.41.53.62.81l-.4-.33c-.14-.11-.27-.22-.39-.35l-.37-.37-.33-.41c-.12-.13-.22-.28-.31-.43-.04.05-.07.13-.1.22.4.89,1.09,1.86,1.98,2.75,1.49,1.49,3.69,1.88,4.59,1.98-.1-.91-.49-3.11-1.98-4.6-.89-.89-1.88-1.59-2.75-1.98-.06.03-.12.05-.18.07Z"/>
    <path class="cls-1" d="m131.05,51.38c1.1-1.14,1.69-2.64,1.66-4.22-.02-.98-.27-1.92-.73-2.76-.37.18-.74.34-1.12.47,1.04,1.78.83,4.11-.67,5.67-1.14,1.18-2.77,1.67-4.37,1.34-.45-.1-.88-.26-1.28-.48-.12.39-.26.76-.43,1.13.46.23.95.42,1.46.52,2.01.42,4.06-.21,5.49-1.68Z"/>
    <path class="cls-1" d="m42.2,41.97c-.29-.3-.68-.46-1.1-.46s-.81.16-1.1.46c-.61.61-.61,1.6,0,2.21.59.59,1.62.59,2.2,0,.61-.61.61-1.6,0-2.21Z"/>
    <path class="cls-1" d="m46,43.07c.51.37,1.01.81,1.49,1.29.12.12.24.26.38.42,1.56-.35,2.84-1.25,3.4-1.7-.57-.45-1.84-1.36-3.4-1.71-.13.16-.26.3-.38.42-.48.48-.98.92-1.49,1.29Z"/>
    <path class="cls-1" d="m38.91,42.62c-.15-.08-.3-.18-.43-.29l-.42-.33-.38-.36c-.26-.23-.47-.52-.7-.77.28.2.54.44.84.61l.43.27.35.17c-.23-.22-.47-.45-.7-.69-.57-.6-1.09-1.26-1.44-1.76-.35-.51-.55-.86-.55-.86,0,0,.27.31.72.73.44.42,1.06.94,1.72,1.39.21.14.41.28.62.41-.14-.21-.27-.41-.43-.62-.47-.64-1-1.24-1.42-1.66-.43-.42-.73-.69-.73-.69,0,0,.35.19.87.52.51.33,1.18.82,1.79,1.38.24.22.48.45.7.67l-.17-.34-.42-.63-.48-.6.6.49.56.55.33.41c.12.13.22.28.31.43.04-.06.07-.15.1-.23-.37-.82-1.03-1.79-1.98-2.74-1.49-1.49-3.69-1.88-4.59-1.98.1.91.49,3.11,1.98,4.6.89.89,1.88,1.59,2.75,1.98.06-.02.12-.04.18-.07Z"/>
    <path class="cls-1" d="m40.95,48.12c-.37.51-.81,1.01-1.29,1.49-.12.12-.26.24-.41.38.35,1.56,1.25,2.84,1.71,3.4.45-.57,1.36-1.84,1.71-3.4-.13-.11-.27-.23-.41-.38-.48-.49-.92-.99-1.29-1.49Z"/>
    <path class="cls-1" d="m40.21,45.59l-.33.42-.37.38c-.23.27-.52.47-.77.7.2-.28.44-.54.61-.84l.27-.43.17-.35c-.22.23-.45.47-.69.7-.6.57-1.26,1.09-1.77,1.44-.51.35-.86.55-.86.55,0,0,.31-.27.73-.72.42-.44.94-1.06,1.4-1.72.15-.21.28-.42.41-.62-.21.14-.41.27-.61.43-.64.47-1.24.99-1.66,1.42-.42.43-.68.74-.68.74,0,0,.19-.36.52-.87.33-.52.83-1.18,1.38-1.79.22-.25.45-.48.67-.7l-.34.17-.42.28c-.29.17-.53.41-.8.62.22-.26.42-.55.67-.79l.37-.37.41-.33c.14-.12.28-.22.43-.31-.06-.04-.14-.07-.22-.1-.87.39-1.86,1.09-2.75,1.98-1.49,1.49-1.88,3.69-1.98,4.59.91-.1,3.1-.49,4.59-1.98.89-.89,1.58-1.86,1.98-2.75-.03-.06-.05-.12-.07-.18-.09.15-.18.3-.29.43Z"/>
    <path class="cls-1" d="m125.08,55.36c2.8.59,5.66-.29,7.65-2.35,2.63-2.72,3.01-6.79,1.2-9.91-.31.27-.64.52-.99.75.55,1,.86,2.12.88,3.29.03,1.88-.67,3.66-1.97,5.01-1.69,1.75-4.13,2.49-6.51,1.99-.61-.13-1.2-.34-1.75-.62-.35.58-.78,1.15-1.28,1.66.2-.21.38-.42.56-.64.69.37,1.43.65,2.21.81Z"/>
    <path class="cls-1" d="m16,44.28c-.31.02-.61.04-.92.08,4.39.34,7.17,1.57,7.97,5.12.6,2.67.3,6.75-.28,10.67-1.97,4.23-3.13,8.91-3.31,13.8l5.75-10.8-.37,3.96c0,.08-.65,7.76,4.12,11.73.28-8.64,2.87-12.14,2.98-12.29l.83-1.08.55,1.25s1.84,4.12,5.55,5.72c-.27-4.49,3.35-10.35,3.52-10.62l.48-.78.71.59c.16.14,3.6,3.04,5.42,5.75,3.04-4.43,2.21-8.4.82-12.05l-.97-2.55,2.2,1.63c2.33,1.73,6.14,2.39,8.26,2.64-1.19-1.89-3.28-5.21-4.11-6.44l-.76-1.12,1.34-.13c2.93-.27,7.01-2.28,8.43-3.01C43.75,16.26,32.97,12.64,21.84,14.82c-10.62,2.09-14.61,11.39-13.84,18.51,2.21.2,4.46.83,6.38,1.84,2.59,1.36,4.31,3.51,5,6.35-.91-2.58-2.64-4.44-5.16-5.53-1.98-.84-4.29-1.25-6.49-1.2-2.28,2.35-7.73,9.74-7.73,9.74,4.19-.07,7.92-.27,11.09-.3,1.63-.15,3.28-.18,4.91.03Zm-5.46-12.43c-.43,0-.74-.29-.77-.67-.02-.33-.03-.67-.03-1.02,0-.23,0-.45.02-.68.02-.4.36-.71.75-.69.4.02.71.35.69.75,0,.21-.02.41-.02.61,0,.31.01.62.03.92.03.4-.27.74-.67.77Zm2.93-8.88c-.6.79-1.09,1.68-1.46,2.62-.11.29-.38.46-.67.46-.09,0-.17-.01-.26-.05-.37-.14-.55-.56-.41-.93.42-1.07.97-2.07,1.65-2.97.24-.32.69-.39,1.01-.14.32.24.38.69.15,1.01Zm9.58,3.78c-1.27,1.46-1.62,3.15-1.51,5.03-1.2-3.11.51-6.64,3.67-7.73,2.85-.99,6.02.03,7.36,2.85-.95-1-1.87-1.62-3.18-2.08-.74-.26-1.9-.28-2.57-.15-1.45.27-2.8.96-3.77,2.08Zm5.42,1c-.62-1.14-1.96-1.64-3.15-1.25.03-.02.06-.04.09-.06,2.09-1.13,4.62-.49,5.66,1.42.29.54.43,1.13.44,1.72-.94.09-1.96.3-3.01.6.37-.74.39-1.65-.04-2.43Zm-2.91,1.33c-.4.22-.9.07-1.12-.33-.22-.4-.07-.9.33-1.12.4-.22.9-.07,1.12.33.22.4.07.9-.33,1.12Zm-2.04,2.88c-.66-1.21-.56-2.65.14-3.83-.24.68-.21,1.45.16,2.14.32.58.82.99,1.39,1.2-.52.26-1.02.53-1.48.82-.07-.11-.14-.22-.2-.33Zm4.66.73c-1.4.51-2.81,1.05-4.27,1.37,2.01-2.05,5.6-3.38,8.45-2.91-1.36.6-2.79,1.06-4.18,1.55Zm1.59,10.61l-.28-.27.28-.27c.08-.07,1.87-1.75,4.3-2.21l.22-.04.14.17c.17.21.32.38.47.53.59.59,1.2,1.1,1.82,1.51l.47.31-.47.31c-.62.41-1.23.92-1.82,1.51-.15.15-.3.32-.47.53l-.14.17-.22-.04c-2.43-.45-4.22-2.14-4.3-2.21Zm13.67,6.62c-.46,2.43-2.14,4.22-2.21,4.3l-.27.28-.27-.28c-.07-.08-1.75-1.87-2.21-4.3l-.04-.22.17-.14c.22-.17.39-.32.53-.47.59-.58,1.09-1.2,1.5-1.82l.31-.46.31.46c.41.61.91,1.23,1.51,1.82.18.18.38.35.53.47l.17.14-.04.22Zm14.3-9.13c.33-.23.78-.15,1.01.17.6.86,1.21,1.74,1.83,2.65.22.33.14.78-.19,1.01-.12.08-.27.12-.41.12-.23,0-.46-.11-.6-.32-.62-.9-1.22-1.78-1.82-2.63-.23-.32-.15-.78.17-1.01Zm-4.5-5.99c.32-.25.77-.19,1.02.12.65.83,1.32,1.69,1.97,2.56.24.32.17.77-.15,1.01-.13.1-.28.14-.43.14-.22,0-.43-.1-.58-.29-.64-.86-1.3-1.71-1.94-2.53-.25-.31-.19-.77.12-1.01Zm-.84,8.27l-.28.27c-.08.07-1.87,1.75-4.3,2.21l-.22.04-.14-.17c-.17-.22-.32-.39-.47-.53-.59-.59-1.2-1.09-1.82-1.51l-.46-.31.46-.31c.62-.41,1.23-.92,1.82-1.5.15-.15.29-.31.47-.53l.14-.17.22.04c2.43.46,4.22,2.14,4.3,2.21l.28.27Zm-4.04-13.95c.29-.27.75-.25,1.02.04.7.76,1.42,1.58,2.15,2.42.26.3.22.76-.08,1.02-.14.12-.3.17-.47.17-.2,0-.41-.09-.55-.25-.71-.83-1.42-1.64-2.11-2.38-.27-.3-.25-.75.04-1.02Zm0,6.23h.39s-.01.38-.01.38c0,.14-.11,3.39-2.23,5.51-.78.78-1.62,1.42-2.42,1.86.81.44,1.65,1.08,2.42,1.86,2.12,2.12,2.23,5.38,2.23,5.51v.39s-.38-.01-.38-.01c-.14,0-3.39-.11-5.51-2.23-.77-.77-1.41-1.61-1.86-2.42-.45.81-1.09,1.65-1.86,2.42-2.12,2.12-5.37,2.23-5.51,2.23h-.39s.01-.38.01-.38c0-.14.11-3.39,2.23-5.51.78-.78,1.62-1.42,2.42-1.86-.8-.44-1.65-1.08-2.42-1.86-2.12-2.12-2.22-5.37-2.23-5.51v-.39s.38.01.38.01c.14,0,3.39.11,5.51,2.23.8.8,1.42,1.63,1.86,2.41.43-.78,1.06-1.61,1.86-2.41,2.12-2.12,5.37-2.22,5.51-2.23Zm-5.41-11.4c.26-.3.72-.33,1.02-.07.79.68,1.59,1.42,2.4,2.19.28.28.29.73.02,1.02-.14.14-.33.22-.52.22s-.36-.07-.5-.2c-.78-.76-1.57-1.48-2.34-2.14-.3-.26-.33-.72-.08-1.02Zm-1.76,7.94c.07.08,1.75,1.87,2.21,4.3l.04.22-.17.14c-.21.17-.38.31-.53.46-.59.59-1.09,1.2-1.5,1.82l-.31.47-.31-.47c-.41-.61-.91-1.23-1.51-1.82-.15-.15-.32-.3-.53-.47l-.17-.14.04-.22c.45-2.43,2.14-4.22,2.21-4.3l.27-.28.27.28Zm-4.39-12.2c.2-.35.64-.47.98-.27.91.52,1.84,1.11,2.76,1.77.33.23.4.68.17,1.01-.14.2-.36.31-.59.31-.14,0-.29-.04-.42-.13-.89-.63-1.78-1.2-2.64-1.69-.35-.2-.47-.64-.27-.99Zm-7.02-2.51c.08-.39.46-.64.85-.56,1.06.22,2.13.53,3.18.93.37.14.57.55.43.93-.11.29-.38.47-.68.47-.08,0-.17-.01-.25-.05-.99-.37-1.99-.66-2.97-.86-.39-.08-.64-.47-.56-.86Zm-6.85-.71c1.14-.18,2.22-.27,3.3-.28.4,0,.73.32.73.72,0,.4-.32.73-.71.73-1.01.01-2.02.1-3.09.27-.04,0-.07,0-.11,0-.35,0-.66-.25-.71-.61-.06-.39.21-.76.6-.83Zm1.35,5.17c.17-1.85,2.52-2.36,3.51-1.08,1.52-1.41,2.74-.9,3.6,1.03,2.12-.13,1.79,2.96,1.72,3.51-.06-.15-.13-.3-.21-.44-.78-1.43-2.07-2.42-3.54-2.87-.06-.02-.13-.04-.19-.06-.34-.1-.69-.17-1.07-.19-1.27-.13-2.59.11-3.81.77-1.67.9-2.79,2.42-3.23,4.08-.76-3.5,1.49-5.47,3.2-4.74Zm-5.13-2.72c-.99.37-1.91.83-2.73,1.36-.12.08-.26.11-.39.11-.24,0-.47-.12-.61-.33-.22-.33-.12-.78.22-1,.9-.58,1.91-1.08,3.01-1.49.37-.14.79.05.93.42.14.37-.05.79-.43.93Zm-12.43,20.35s1.5-3.25,2.67-2.87c2.67.87-2.67,2.87-2.67,2.87Z"/>
    <path class="cls-1" d="m112.87,58.31c.2-.2.43-.37.68-.48-.62-.14-1.22-.33-1.8-.59.09.04.19.07.28.11-.03.03-.06.05-.08.08-.03.03-.05.06-.08.09-.04-.09-.08-.18-.12-.27.28.58.49,1.18.65,1.79.11-.26.26-.51.47-.72Z"/>
    <path class="cls-1" d="m121.69,55.77c-.32.27-.65.52-.99.75.56,1,.86,2.12.88,3.29.03,1.88-.67,3.66-1.98,5.01-1.69,1.75-4.13,2.49-6.51,1.99-.61-.13-1.2-.34-1.75-.62-.22.35-.45.69-.72,1.02.69.37,1.43.64,2.21.81,2.81.59,5.66-.29,7.65-2.35,1.54-1.59,2.36-3.68,2.33-5.89-.02-1.44-.42-2.81-1.12-4.02Z"/>
    <path class="cls-1" d="m39.62,36.48c.49.49.92.99,1.29,1.49.38-.51.81-1.01,1.29-1.49.13-.13.26-.25.42-.38-.35-1.56-1.25-2.83-1.71-3.4-.45.57-1.36,1.84-1.71,3.4.16.13.29.25.42.38Z"/>
    <path class="cls-1" d="m162.09,21.08s7.74-.42,7.31-3.86c-.43-3.44-26.76,3.05-37.15,10.25-10.39,7.2-19.9,25.39-24.08,29.05-6.12,5.36-16.47,7.07-23.54,6.25-7.74-.89-15.27-8.02-20.73-14.48-1.65.8-4.29,1.96-6.67,2.45,1.53,2.36,5.11,8.08,5.11,8.08l-1.51-.06c-.24-.01-5.04-.22-8.79-1.97,1.07,3.69,1.21,7.93-2.46,12.52l-.78.98-.56-1.12c-1-2-3.66-4.53-4.95-5.69-1.08,1.93-3.53,6.84-2.64,9.91l.39,1.34-1.35-.34c-3.72-.93-6.03-3.91-7.11-5.68-.79,1.73-2.03,5.42-2.03,11.66v1.4l-1.21-.72c-4.49-2.67-5.73-7.64-6.03-10.9l-3.82,7.16c.05.86.12,1.72.23,2.58,1.13,9.07,5.46,16.92,11.66,22.46,4.94,4.98,15.12,12.82,32.14,15.65,1.7,4.27,4.99,10.39,10.99,15.26,10.31,8.35,16.89,9.78,16.89,9.78l-5.16,20.98-18.76,2.67h20.09s5.78-8,11.82-8.53c-4.09-1.96-10.14,3.02-10.14,3.02,0,0,8.89-18.14,8.53-20.45-.36-2.31-3.2-3.55-3.2-8.18,0-2.85,1.15-11.19,2.03-17.16.22-.06.45-.13.67-.19-.35,0-.7.02-1.05.02-13.79,0-26.09-4.35-36.56-12.95-4.35-3.57-7.32-8.28-8.6-13.62-1.13-4.76-.86-9.88.76-14.43,2.72-7.58,8.6-12.3,15.37-12.3,1.41,0,2.85.21,4.3.61,2.52.7,5.43,1.9,9.12,3.41,8.94,3.67,22.46,9.21,42.86,12.38,1.51.23,3.21.35,5.07.35,1.16,0,2.36-.05,3.57-.13.05-.95.04-1.67.03-2.08,6.88-3.77,15.05-8.56,14.89-9.89-.28-2.29-12.64.67-12.64.67,0,0,30.11-11.44,29.54-14.59-.57-3.15-12.7.14-12.7.14,0,0,14.65-4.68,14.63-7.73-.02-3.04-10.1-1.97-10.1-1.97,0,0,19.52-2.96,20.14-6.62.35-2.05-3.7-2.93-7.34-3.32,6.59.15,16.89-.38,17.78-4.97,1.31-6.79-24.26-7.11-24.26-7.11Zm-76.35,116.46c-.13.23-.38.36-.62.36-.12,0-.25-.03-.36-.1-.93-.54-1.85-1.14-2.75-1.77-.33-.23-.4-.68-.17-1.01.23-.33.68-.4,1.01-.17.87.61,1.76,1.18,2.65,1.71.34.2.46.65.26.99Zm6.89,2.89c-.1.31-.38.51-.69.51-.07,0-.15-.01-.22-.03-1.03-.32-2.07-.71-3.08-1.14-.37-.16-.54-.58-.38-.95.16-.37.58-.54.95-.38.97.41,1.96.78,2.94,1.09.38.12.6.52.48.91Zm-11.22-23.23s10.32,1.13,11.58-.22l-2.14,15.68s-7.78-2.31-10-5.76c3.71,1.58,7.84,1.12,7.84,1.12,0,0-6.97-1.3-9.21-4.21,3.19,1.23,9.92.57,9.92.57,0,0-10.27-2.21-11.84-5.74,5.45,1.34,12.55,2.1,12.55,2.1l-8.7-3.54Zm-5.21,12.86c.28-.28.74-.28,1.02,0,.75.75,1.52,1.48,2.3,2.17.3.26.33.72.07,1.02-.14.16-.34.25-.54.25-.17,0-.34-.06-.47-.18-.81-.7-1.61-1.46-2.38-2.23-.28-.28-.28-.74,0-1.02Zm-4.8-5.76c.32-.24.77-.17,1.01.15.63.85,1.29,1.69,1.96,2.49.26.31.22.76-.09,1.02-.14.11-.3.17-.46.17-.21,0-.41-.09-.55-.26-.69-.82-1.37-1.68-2.02-2.56-.24-.32-.17-.77.15-1.01Zm-3.9-6.41c.36-.17.79-.03.97.33,0,.01.53,1.09,1.56,2.73.21.34.11.79-.23,1-.12.07-.25.11-.38.11-.24,0-.48-.12-.61-.34-1.07-1.72-1.61-2.82-1.63-2.86-.18-.36-.03-.79.33-.97Zm-16.1-17.81c.13,1.6-.51,6.87-.36,7.67.43-1.63,1.44-4.08,2.4-5.43-.03,2.02.2,4.37.2,6.8.73-1.04,1.2-1.87,2.37-3.33-.23,2.03-.27,5.83,1.3,8.27-8.49.27-33.85-16-32.42-31.11.21,1.77,2.33,4.78,3.44,6.06,1.09-2.77,2.31-4.48,4.73-6.15-1.38,2.8-2.14,5.64-2.41,8.83,1.61-1.82,3.24-3.39,4.84-4.74-1.2,2.82-2.17,5.85-2.85,9.08,1.72-2.89,3.56-5.32,5.4-7.35-1.26,3.19-2.22,6.69-2.74,10.49,1.26-2.11,2.58-3.94,3.91-5.52-.4,2.6-.56,5.31-.43,8.1,1.26-2.32,2.61-4.29,3.97-5.94-.49,2.32-.81,4.85-.87,7.57,1.42-2.88,3.01-5.21,4.6-7.04-.41,2.46-.61,5.19-.44,8.2.22-.56,1.48-2.32,2.45-4.02.07,1.56-.33,6.23-.33,6.23,0,0,2.36-5.29,3.24-6.67ZM126.74,35.43c-.24.47-.17,1.06.23,1.44.16.16.37.27.6.32.41.09.84-.04,1.13-.35.23-.23.35-.54.34-.87,0-.32-.14-.63-.37-.86-.41-.39-1.06-.43-1.52-.14.39-.43.78-.85,1.18-1.26.42.09.8.3,1.11.6.45.43.7,1.02.71,1.64.01.62-.22,1.21-.65,1.66-.56.58-1.37.83-2.16.66-.43-.09-.82-.3-1.14-.61-.28-.27-.46-.6-.58-.94.37-.44.75-.87,1.12-1.3Zm-2.03,2.38c.16.28.35.54.59.78.49.47,1.1.8,1.76.94,1.23.26,2.48-.13,3.35-1.02.67-.69,1.03-1.61,1.01-2.57-.02-.97-.41-1.87-1.1-2.54-.3-.29-.64-.51-1.01-.68.28-.28.57-.55.85-.81.33.19.65.42.93.69.91.88,1.42,2.05,1.44,3.32.02,1.26-.45,2.45-1.33,3.36-1.14,1.18-2.77,1.68-4.37,1.34-.87-.18-1.67-.61-2.31-1.23-.21-.2-.4-.42-.56-.66.24-.31.49-.61.74-.92Zm-1.51,1.89c.15.19.32.37.49.55.8.78,1.8,1.31,2.9,1.54,2.01.42,4.06-.21,5.48-1.68,1.1-1.14,1.69-2.64,1.67-4.22-.03-1.58-.67-3.06-1.81-4.16-.26-.25-.55-.47-.84-.66.3-.26.6-.5.9-.74.25.19.49.39.72.61,1.35,1.31,2.11,3.06,2.15,4.94.03,1.88-.67,3.66-1.98,5.01-1.69,1.75-4.13,2.5-6.51,1.99-1.29-.27-2.48-.9-3.44-1.83-.15-.14-.28-.29-.41-.44.23-.3.46-.61.69-.9Zm-7.25,10.11c.18-.06.35-.16.49-.31.23-.23.35-.54.34-.87.25-.4.52-.78.78-1.16.2.34.33.73.33,1.14.01.62-.22,1.21-.65,1.66-.54.56-1.31.81-2.07.67.26-.37.52-.75.78-1.14Zm-1.56,2.26c.14.05.28.09.43.12,1.22.26,2.47-.12,3.34-1.02.67-.69,1.03-1.61,1.02-2.57-.02-.83-.31-1.62-.83-2.25.21-.31.43-.62.65-.93.81.86,1.27,1.97,1.29,3.16.02,1.26-.45,2.46-1.33,3.36-1.14,1.17-2.77,1.67-4.37,1.34-.29-.06-.58-.16-.85-.28.21-.3.43-.61.65-.93Zm-1.37,1.93c.42.2.86.36,1.32.46,2.01.42,4.06-.21,5.48-1.68,2.26-2.34,2.21-6.08-.12-8.36.22-.3.43-.61.65-.91.03.03.07.06.1.09,2.79,2.7,2.86,7.16.17,9.95-1.69,1.75-4.13,2.5-6.51,1.99-.62-.13-1.21-.34-1.77-.63.22-.29.45-.6.68-.92Zm-10.41,8.3c.14.1.29.18.46.22.41.09.84-.04,1.13-.35.2-.21.31-.47.33-.73.36-.18.72-.37,1.08-.57.14.73-.06,1.51-.6,2.08-.56.58-1.37.83-2.16.66-.43-.09-.82-.3-1.14-.61-.08-.08-.15-.17-.22-.26.38-.14.75-.29,1.13-.44Zm-2.37.88c.16.27.34.52.57.75.49.48,1.1.8,1.76.94,1.23.26,2.48-.13,3.34-1.02.67-.69,1.03-1.61,1.01-2.57,0-.37-.07-.73-.18-1.07.33-.2.64-.41.95-.63.21.53.33,1.1.34,1.68.02,1.26-.45,2.45-1.33,3.36-1.14,1.17-2.77,1.68-4.37,1.34-.87-.18-1.67-.61-2.31-1.23-.37-.36-.67-.77-.9-1.2.37-.11.73-.22,1.1-.34Zm-2.28.66c.3.65.72,1.24,1.24,1.75.81.78,1.81,1.31,2.9,1.54,2.01.42,4.06-.21,5.48-1.68,1.1-1.14,1.69-2.64,1.67-4.22-.02-.84-.21-1.65-.55-2.39.3-.23.6-.47.88-.72.49.95.77,2,.78,3.09.03,1.88-.67,3.66-1.98,5.01-1.69,1.75-4.13,2.49-6.51,1.99-1.29-.27-2.48-.9-3.44-1.83-.68-.66-1.22-1.44-1.58-2.29.37-.08.74-.17,1.11-.26Zm14.65,5.27c-.97-.2-1.89-.57-2.75-1.06.07-.07.14-.13.21-.2-2.26,2.33-5.5,3.33-8.68,2.66-1.73-.36-3.31-1.2-4.59-2.44-1.05-1.02-1.81-2.23-2.28-3.52.37-.06.74-.13,1.11-.2.42,1.07,1.06,2.07,1.94,2.92,1.12,1.08,2.52,1.83,4.04,2.15,2.8.59,5.67-.29,7.66-2.35,2.62-2.71,3-6.75,1.21-9.86.35-.39.73-.83,1.12-1.32.71.39,1.47.69,2.27.86,2.8.59,5.67-.29,7.65-2.35,1.54-1.59,2.36-3.68,2.33-5.89-.03-2.07-.83-4.01-2.24-5.51-.1-.09-.21-.18-.31-.28-.08-.07-.14-.15-.21-.22.22-.3.45-.61.67-.91.13.12.23.21.33.31.1.1.19.2.28.3,1.07.93,2.35,1.58,3.73,1.87,2.81.59,5.67-.29,7.66-2.34,1.53-1.59,2.36-3.68,2.32-5.89-.04-2.21-.93-4.27-2.52-5.81-.18-.17-.37-.33-.56-.49.15-.11.3-.23.46-.34.15-.11.32-.21.48-.32.13.11.27.23.39.35,1.8,1.74,2.82,4.08,2.86,6.59.04,2.41-.83,4.69-2.45,6.47,2.22,3.57,1.84,8.32-1.21,11.48-2.26,2.33-5.5,3.33-8.68,2.66-.65-.14-1.28-.35-1.89-.62.6,1.22.93,2.55.96,3.95.04,2.51-.9,4.88-2.64,6.68-2.25,2.33-5.5,3.33-8.68,2.66Zm29.22-8.01c-1.49.99-3.15,1.75-4.79,2.48-3.44,1.52-6.99,2.82-10.56,4.03.84,0,1.78.25,2.59.44.74.17,1.62.35,2.22.86,1.55,1.31-1.58,2.5-2.45,2.82-3.49,1.27-7.29,1.87-10.97,2.25,3.04-.65,6.09-1.34,9.04-2.36.86-.3,1.71-.62,2.52-1.03.2-.1,1.54-.77,1.22-.98-.75-.49-1.83-.58-2.7-.7-.91-.13-1.82-.22-2.73-.29-.55-.04-2.2.19-2.16-.7.01-.33.26-.48.53-.58.75-.27,7.02-2.52,9.38-3.42,1.78-.69,3.56-1.41,5.3-2.19.87-.39,1.74-.81,2.57-1.28.55-.32,1.28-.68,1.62-1.24.35-.87-1.67-1.04-2.1-1.06-1.1-.05-2.21.08-3.3.23-2.28.32-4.53.85-6.76,1.43,1.98-.78,4.02-1.43,6.09-1.92,1.78-.43,4.09-.99,5.87-.3.71.27,1.27.93,1.19,1.72-.13.82-1,1.39-1.64,1.81Zm13.79-30.98c-2.29,1.48-4.79,2.64-7.29,3.7,1.98-.08,4.09-.16,5.99.49,1.34.46,2.47,1.65,1.8,3.13-.73,1.63-2.66,2.66-4.16,3.46-1.8.97-3.68,1.74-5.59,2.45,1.16.11,2.32.26,3.46.55.96.24,2.04.57,2.75,1.3,1.42,1.46-.45,2.88-1.65,3.63-1.83,1.13-3.82,1.95-5.82,2.73-2.11.83-4.27,1.57-6.44,2.22,3.6-1.38,7.22-2.87,10.57-4.78.78-.44,1.56-.92,2.23-1.51.31-.27.82-.7.78-1.16-.08-.71-1.13-1.06-1.69-1.23-.79-.25-1.61-.39-2.44-.49-.96-.12-1.92-.18-2.89-.21-.46-.02-.92-.03-1.39-.03-.35,0-.75.07-.96-.28-.49-.81.92-1.06,1.38-1.23.85-.31,1.69-.63,2.53-.98,1.72-.71,3.44-1.47,5.06-2.4.77-.44,1.53-.92,2.2-1.52.38-.34.98-.89.93-1.46-.16-.32-.21-.49-.55-.69-.35-.2-.75-.32-1.15-.41-.84-.2-1.72-.27-2.58-.3-1.86-.07-3.74.05-5.59.26-.54.06-1.94.45-1.84-.56.07-.7,1.36-.87,1.89-1.07,1.74-.64,3.46-1.34,5.16-2.11,1.64-.74,3.26-1.55,4.79-2.5,1.26-.78,3.08-1.87,3.52-3.4.91-3.14-6.82-1.44-8.1-1.17-3.65.78-7.24,1.87-10.77,3.1,3.44-1.48,7-2.77,10.62-3.71,1.77-.46,3.61-.86,5.45-.9,1.3-.03,3.42.15,3.74,1.76.61,2.3-2.36,4.28-3.97,5.32Zm22.61.1c-2.22.7-4.61.89-6.93.99-3.19.13-6.43.07-9.6-.35,2.93-.17,5.86-.35,8.77-.63,1.84-.18,3.69-.4,5.5-.79.9-.2,1.83-.42,2.67-.81.5-.23,1.19-.57,1.28-1.16.21-1.32-2.58-1.78-3.44-1.96-1.8-.37-3.66-.5-5.49-.6-2.86-.15-5.72-.17-8.58-.18,3.13-.58,6.36-.83,9.55-.82,1.91,0,3.86.09,5.73.52,1.6.37,3.25,1.04,3.62,2.78.03,1.75-1.66,2.57-3.08,3.02Z"/>
    <path class="cls-1" d="m117.94,63.22c-1.14,1.17-2.77,1.67-4.37,1.34-.45-.1-.88-.26-1.28-.48-.11.37-.26.76-.43,1.13.46.24.95.42,1.46.52,2.01.42,4.06-.21,5.49-1.68,1.1-1.14,1.69-2.64,1.66-4.22-.02-.98-.27-1.92-.73-2.76-.36.18-.74.34-1.13.47,1.05,1.78.83,4.11-.67,5.67Z"/>
    <path class="cls-1" d="m116.16,58.26c.45.43.7,1.01.71,1.64.01.62-.22,1.21-.65,1.66-.56.58-1.37.83-2.16.66-.43-.09-.82-.3-1.14-.61-.09-.08-.16-.18-.23-.27,0,.54-.05,1.07-.14,1.61.38.25.8.43,1.24.53,1.22.26,2.47-.12,3.34-1.02,1.22-1.27,1.34-3.2.35-4.59-.52.11-1.06.17-1.6.19.1.06.19.13.27.21Z"/>
    <path class="cls-1" d="m113.7,60.81c.17.16.37.27.6.32.41.09.83-.04,1.13-.35.23-.23.35-.54.34-.87,0-.32-.14-.63-.37-.85-.47-.46-1.27-.44-1.72.03-.47.48-.45,1.26.03,1.72Z"/>
  </g>
</svg>