<?xml version="1.0" encoding="UTF-8"?>
<svg id="_ëîé_1" data-name="—ëîé_1" xmlns="http://www.w3.org/2000/svg" viewBox="0 0 100.25 196.18">
  <defs>
    <style>
      .cls-1 {
        stroke-width: 0px;
      }
    </style>
  </defs>
  <path class="cls-1" d="m94.79,162.01c.53,3.48.49,6.92-.06,10.17,3.85-3.95,5.66-11.61,5.52-12.61-.18-1.26-2.34.54-2.34.54,0,0,.54-10.59-.72-11.85-1.26-1.26-2.51,2.87-2.51,2.15s-3.05-4.31-5.21-6.64c-.96-1.04-1.49.55-1.79,2.64,3.59,4.08,6.17,9.5,7.11,15.61Z"/>
  <path class="cls-1" d="m59.26,188.15c-.38-.46-.77-.87-1.15-1.23-3.73.3-7.14.96-8.32,1.91-2.75,2.2-2.44,4.82-.54,6.16.4-1.47,1.19-2.83,2.33-3.83-.71,1.39-.93,3.04-.6,4.58.14.03.28.07.42.09.41.06,1.19.11,2.25.15.3-1.77,1.16-3.45,2.51-4.63-.72,1.43-.93,3.11-.57,4.68,1.6.03,3.53.04,5.64.05.35-2.01.35-5.12-1.97-7.93Z"/>
  <path class="cls-1" d="m13.08,117.44c-2.12-.42-7.32-.85-9,4.41-2.13,6.67-1.35,16.07,1.43,18.76.14.14.28.26.42.38-.16-1.51-.26-3.02-.17-4.53.35,1.91,1.02,3.77,1.72,5.59.66.34,1.29.5,1.87.54-.23-1.88-.42-3.79-.31-5.68.34,1.9,1,3.73,1.69,5.53.94-.27,1.71-.83,2.24-1.35-1.36-1.31-2.32-3.23-2.43-5.73-.26-5.54.39-12.8,2.53-17.93Z"/>
  <path class="cls-1" d="m23.96,31.51v-.07s0,.03,0,.07Z"/>
  <path class="cls-1" d="m20.58,44.15c-.05-.09-.1-.18-.15-.27.07.23.13.33.15.27Z"/>
  <g>
    <path class="cls-1" d="m20.58,44.15c-.05-.09-.1-.18-.15-.27.07.23.13.33.15.27Z"/>
    <path class="cls-1" d="m24.01,1.26C20.78-2.78,6.5,3.68,7.85,26.04c1.01,16.67,18.86,41.75,18.86,41.75l4.04-2.69S27.24,5.3,24.01,1.26Zm-1.21,53.92c-1.34-1.75-2.59-4.91-3.96-8.82-2.2-6.28-3.4-14.82-3.39-14.75,1.34,4.77,3.03,8.87,4.98,12.27-.69-2.13-3.29-15.7-2.82-20.6.8,7.32,4.31,19.85,4.46,19.46-.57-4.26-1.01-8.82-1.33-13.66.84,4.92,1.92,9.31,3.2,13.17,0-2.89,0-5.81.02-8.72-.04-.44-.8-8.87-1.17-12.64-.37-3.72-.71-7.5-1.59-11.14-.29-1.2-1.08-4.93-2.96-3.61-.84.59-1.47,1.56-2.02,2.4-.59.89-1.1,1.82-1.58,2.76-1.58,3.09-2.73,6.39-3.96,9.62.06-2.97.71-5.94,1.8-8.69.66-1.67,1.5-3.3,2.6-4.72.88-1.14,2.24-2.82,3.78-2.96,1.63-.17,2.48,1.64,2.92,2.91.58,1.67.87,3.44,1.12,5.18.54,3.77.79,7.59,1.05,11.4.4,5.86.7,11.74,1.21,17.6.39,2.73.84,5.37,1.27,7.01.2,1,.77,2.95.82,4.69-1.54.43-3.02,1.05-4.45,1.84Z"/>
  </g>
  <path class="cls-1" d="m34.75,39.5c-.02-.08-.04-.17-.06-.26.01.21.03.3.06.26Z"/>
  <g>
    <path class="cls-1" d="m34.39,40.72c-.02-.08-.04-.17-.06-.26,0,.2.03.3.06.26Z"/>
    <path class="cls-1" d="m38.11.45c-5.34,2.28-8.31,10.05-9.33,13.94.58,4.83,1.23,11.33,1.96,20.12.62,7.52,1.15,14.96,1.53,20.6,1.34-.29,2.69-.44,4.05-.44.73,0,1.45.06,2.16.14,1.2-7.8,5.41-35.33,5.87-42.24.54-8.08-1.07-14.33-6.24-12.12Zm3.85,12.22c-.1,1.92-.26,3.83-.47,5.74-.42,3.79-.96,7.56-1.49,11.34-.53,3.77-1.08,7.54-1.59,11.31-.13,1.7-.25,3.35-.35,4.7-.06.86-.12,2.57-.48,4.02-1.24.1-2.11.16-3.38.38-2.38-11.89-1.09-21.08-1.1-21.02.05,4.28.47,8.06,1.23,11.33-.09-1.93.65-13.82,1.93-17.8-.83,6.28-.71,17.5-.53,17.21.41-3.68.97-7.58,1.67-11.68-.34,4.29-.4,8.19-.23,11.69.23-1.01.48-2.04.71-3.06.16-1.83.34-3.67.53-5.49.39-3.76.85-7.51,1.28-11.27.4-3.71.89-7.46.77-11.19-.03-.89,0-3.81-1.33-3.89-1.41-.09-2.88,1.51-3.74,2.44-1.72,1.85-3.13,4.04-4.38,6.23,1-2.78,2.34-5.61,4.35-7.82.95-1.05,2.39-2.35,3.92-2.22,1.72.14,2.29,2.03,2.52,3.46.3,1.84.25,3.74.16,5.6Z"/>
  </g>
  <g>
    <path class="cls-1" d="m14.47,196.18c.2-1.98-.07-4.65-2.08-7.09-.87-1.05-1.75-1.82-2.6-2.4-3.44.08-6.54.46-7.68,1.28-2.75,2-2.63,5.38-.62,7.02.39-1.49,1.19-2.88,2.35-3.89-.73,1.44-.94,3.16-.56,4.74.46.1,1.37.17,2.61.22.28-1.82,1.15-3.57,2.53-4.78-.75,1.48-.95,3.23-.53,4.85,1.87.04,4.14.06,6.59.05Z"/>
    <path class="cls-1" d="m27.99,184.5c-2.47-1.86-4.82-4.28-6.69-6.73-5.6-7.33-6.9-16.3-6.36-25.2-4.04,4.49-6.31,10.89-5.73,17.77.59,6.96,3.95,12.94,8.76,16.69-1.71-.19-3.75-.31-5.79-.34.46.42.91.9,1.36,1.45,2.29,2.77,2.64,5.78,2.43,8.05,10.22-.04,22.71-.34,22.71-.34,0,0,2.86-1.2,3.81-3.72-5.33-1.29-10.18-4.35-14.51-7.62Z"/>
  </g>
  <g>
    <path class="cls-1" d="m29.09,146.11c.04-.42-.78-.39-1.06-.4-1.13-.04-2.26.21-3.37.35,1.05.17,2.16.39,3.19.37.23,0,1.19.01,1.24-.32Z"/>
    <path class="cls-1" d="m47.24,119.58c-.41,1.03-.27,2.18.39,3.07.91,1.26,2.59,1.65,3.95,1-.02-.47,0-.95.07-1.42-.07.08-.15.14-.23.2-.44.32-.99.46-1.53.37-.54-.09-1.02-.38-1.34-.82-.42-.58-.51-1.32-.25-1.98.14-.36.39-.67.7-.9.09-.06.18-.11.28-.16-.47-.08-.93-.21-1.38-.36-.27.29-.5.63-.65,1Z"/>
    <path class="cls-1" d="m46.93,118.17c-.31-.16-.62-.34-.92-.55-.28.37-.51.77-.68,1.2-.67,1.69-.43,3.57.63,5.03.82,1.13,2.04,1.87,3.42,2.09.86.13,1.72.06,2.52-.22-.1-.35-.18-.7-.24-1.05-1.71.64-3.71.1-4.84-1.45-.85-1.17-1.04-2.67-.5-4.01.15-.38.36-.73.61-1.04Z"/>
    <path class="cls-1" d="m24.71,150.49c.33-.04.31-1.04.32-1.23-.02-1.08-.21-2.14-.37-3.21-.14,1.12-.39,2.24-.35,3.37.02.27-.02,1.11.4,1.06Z"/>
    <path class="cls-1" d="m20.23,146.11c.05.33,1.03.31,1.23.32,1.08-.02,2.14-.21,3.21-.37-1.11-.14-2.24-.39-3.38-.35-.27.01-1.09-.02-1.06.4Z"/>
    <path class="cls-1" d="m44.29,125.08c1.15,1.58,2.85,2.62,4.78,2.92,1.26.2,2.52.06,3.68-.37-.19-.32-.35-.64-.5-.98-.95.33-1.98.43-3.01.27-1.64-.26-3.09-1.14-4.07-2.48-1.27-1.74-1.55-3.98-.75-5.98.2-.51.48-.99.81-1.43-.28-.24-.54-.5-.78-.78-.43.55-.78,1.15-1.04,1.8-.94,2.36-.61,4.98.88,7.03Z"/>
    <path class="cls-1" d="m24.71,141.63c-.42-.05-.39.79-.4,1.06-.04,1.13.21,2.26.35,3.37.17-1.06.36-2.16.37-3.2-.01-.23,0-1.2-.32-1.24Z"/>
    <path class="cls-1" d="m27.12,154.01c.04.32,1.04.31,1.23.32,1.08-.02,2.14-.21,3.2-.37-1.11-.14-2.24-.39-3.37-.35-.27.02-1.09-.02-1.06.4Z"/>
    <path class="cls-1" d="m51.87,119.55c.15.21.25.43.32.67.21-.52.47-1.02.78-1.48-.55.15-1.1.25-1.66.29.21.14.4.31.56.52Z"/>
    <path class="cls-1" d="m31.61,158.39c.33-.04.31-1.04.32-1.22-.02-1.08-.21-2.14-.37-3.21-.14,1.12-.39,2.24-.35,3.37.01.27-.02,1.1.4,1.06Z"/>
    <path class="cls-1" d="m49.33,121.4c.17.23.42.38.7.43.28.05.57-.02.8-.19.47-.34.57-1.04.23-1.51-.35-.48-1.03-.59-1.51-.24-.16.12-.29.28-.36.47-.14.35-.09.73.13,1.04Z"/>
    <path class="cls-1" d="m28.51,163.09c.03-.42-.79-.39-1.06-.4-1.13-.04-2.26.21-3.37.35,1.05.17,2.16.39,3.2.37.22,0,1.19,0,1.24-.32Z"/>
    <path class="cls-1" d="m18.6,141.04c.11-2,.28-4.03.76-5.97-.01,1.9.29,3.79.63,5.66,1.5-.56,2.73-1.85,3.08-3.84.94-5.52,2.42-11.32,2.42-11.32,0,0,8.49,9.43,19.67,10.64,2.55.28,4.54-.25,6.08-1.26-.3-1.54-.16-3.16.44-4.68.22-.55.5-1.07.83-1.55-1.15.34-2.37.43-3.59.23-2.19-.34-4.11-1.52-5.42-3.31-1.69-2.32-2.07-5.3-1-7.97.32-.81.78-1.57,1.34-2.23.05.07.09.14.14.21-1.69-2.32-2.07-5.3-1-7.97.32-.8.76-1.54,1.31-2.2-2.87-.84-5.59-2.11-7.99-4.02-2.31-1.75-4.23-4.06-5.65-6.57-1.11-1.97-2.07-4.2-2.42-6.45.44,2.11,1.43,4.17,2.56,6,1.46,2.37,3.37,4.49,5.63,6.12,1.68,1.22,3.47,2.13,5.34,2.82-.45-.64-.8-1.36-.98-2.1-.49-2.08-.05-4.36,1.19-6.11-.93,1.77-1.16,3.99-.42,5.85.61,1.54,1.87,2.5,3.26,3.26.79.18,1.58.35,2.39.45,2.33.31,4.45.35,5.98-1.6,5.32.07,5.93-3.3,4.58-4.78-1.7-1.87-4.11-10.91-3.3-15.49.81-4.58,3.23-8.35-1.61-16.16-4.85-7.81-15.63-14.01-27.21-6.46-11.58,7.54-22.18,28.2-14.1,47.59,1.27,3.05,2.4,5.66,3.4,7.89,1.12-1.77,2.79-3.44,4.95-3.48,3-.05,5.72.93,8.32,2.41,1.88,1.07,3.65,2.33,5.43,3.57,1.62,1.13,3.36,2.49,5.34,2.9-4.04-.27-12.07-8.67-19.12-7.81-5.53.67-7.54,13.2-7.14,21.95.1,2.2,1.01,3.77,2.25,4.71.11-1.72.29-3.45.71-5.11-.01,1.96.31,3.93.67,5.87.74.27,1.51.37,2.27.31Zm34.33-63.88c0,1.05-.1,2.11-.33,3.35-.06.35-.37.6-.72.6-.04,0-.09,0-.13-.01-.4-.07-.66-.45-.59-.85.2-1.15.3-2.13.3-3.1,0-.4.33-.73.73-.73.4,0,.73.33.73.73Zm-1.34,10.65c.02.4-.28.75-.69.77-.43,0-.75-.3-.77-.69-.02-.38-.03-.75-.03-1.11,0-.83.06-1.59.17-2.23.07-.39.45-.68.85-.62.4.07.67.42.6.81v.06c-.11.57-.16,1.23-.16,1.98,0,.33,0,.68.03,1.03Zm-.31,3.61c.4-.08.78.18.86.58.21,1.05.46,2.09.75,3.09.11.39-.11.79-.5.9-.07.02-.14.03-.2.03-.32,0-.61-.21-.7-.53-.3-1.04-.56-2.12-.78-3.21-.08-.4.18-.78.57-.86Zm-1.23-22.19c.36-.18.8-.03.98.33.52,1.06.94,2.11,1.24,3.12.11.39-.1.79-.49.91-.07.02-.14.03-.21.03-.32,0-.61-.21-.7-.52-.28-.94-.67-1.92-1.15-2.9-.18-.36-.03-.8.33-.98Zm7.23,30.41c.07,1.55-1.55,2.9-4.78,2.15-3.23-.74-3.77-4.11-3.77-4.11,2.63.4,8.49.4,8.55,1.95Zm-11.78-36.42c.28-.29.74-.29,1.03-.01.77.75,1.51,1.6,2.19,2.55.24.32.16.78-.16,1.02-.13.1-.28.14-.43.14-.23,0-.45-.1-.59-.3-.64-.88-1.32-1.67-2.03-2.36-.29-.28-.29-.74-.01-1.03Zm-6.94,20.73c-.11.1-.23.19-.35.27-.39-.5-.81-.99-1.26-1.47.7,0,1.4-.24,1.97-.74.67-.59,1.01-1.4,1.03-2.23.27,1.54-.19,3.12-1.38,4.17Zm-4.66-3.92c-1-.74-2.01-1.35-2.99-1.82.24-.63.62-1.21,1.16-1.68,1.88-1.65,4.86-1.32,6.65.73.03.03.05.06.08.1-1.13-.89-2.76-.89-3.88.09-.77.67-1.11,1.64-1.02,2.58Zm5.03-1.24c.34.39.3.99-.09,1.33-.4.34-.99.3-1.33-.09-.35-.39-.31-.99.09-1.33.39-.35.99-.31,1.33.09Zm-.15-18.85c.09-.39.48-.64.87-.56,1.11.24,2.19.63,3.22,1.16.36.18.5.62.32.98-.13.25-.39.4-.65.4-.11,0-.23-.03-.33-.08-.91-.47-1.88-.82-2.86-1.03-.39-.09-.64-.48-.56-.87Zm-4.56,9.71c1.7-1.73,3.22-1.79,4.29.33,1.57-.98,3.9.51,3.34,2.57,2.13-.1,3.77,2.91,1.56,6.37.19-1.97-.41-4.04-1.84-5.68-1.04-1.19-2.38-1.97-3.78-2.34-.41-.12-.82-.19-1.21-.22-.08,0-.16,0-.24,0-1.77-.1-3.55.44-4.95,1.67-.14.12-.27.26-.4.39.14-.62,1.02-4.07,3.24-3.08Zm1.98,3.44c1.34.13,2.59.78,3.61,1.62,1.33,1.09,2.34,2.75,2.56,4.46.26,2.03-.27,3.84-1.62,5.38.39-.89.74-1.74.84-2.71.12-1.11-.07-2.24-.45-3.27-.61-1.65-1.79-2.84-3.24-3.77-.7-.33-1.88-.87-2.82-.86-.78-.03-1.47.03-2.23.16-.72.12-1.37.5-2.02.81,1.49-1.45,3.3-2.01,5.36-1.81Zm-2.1,8.75c1.3,1.1,2.57,2.59,3.19,4.2-2.79-1.97-5.07-4.63-7.92-6.5,1.73.06,3.45,1.22,4.73,2.3Zm-13.47,22.39c-2.11,1.44-3.25,4.24-3.25,4.24,0,0-3.14-1.58-4.68-8.11-2.7-11.49.59-18.04,2.31-19.9,1.59-1.72,3.38-.8,5.49.36-2.23-.13-3.6.39-5.43,1.53,2.98-.11,4.77.15,7.6.98-3.05.33-5.32,1.09-8.01,2.24,1.54-.09,2.44-.01,3.95.17-1.59.46-3.52,1.26-4.97,1.96,3.39-.14,7.12.2,10.25,1.41-3.48-.19-7.11.6-10.23,1.68,1.96.05,4.15.08,5.98.64-1.99.3-4.06,1.13-5.85,1.87,2.68-.37,5.55-.53,8.2.11-2.59.43-5.84,1.59-7.97,2.73,1.73-.07,4.33-.22,6.01.17-1.48.49-4.2,1.58-5.46,2.31,1.66.13,4.63.04,6.18.64-1.65.44-4.5,1.55-5.85,2.33,2.16-.16,5.72-.35,7.9.4-1.96.37-5.04,1.52-6.53,2.39,1,0,3.36-.36,4.37-.14Zm8.42,6.07c-.52.34-1.03-.08-1.17-.59-.38-1.38.14-3.07.77-4.3-1.01.47-2.09.78-3.2.84-.53.03-1.36.07-1.69-.44-.34-.52.08-1.03.59-1.17,1.38-.38,3.07.14,4.3.77-.63-1.23-1.15-2.92-.77-4.3.14-.5.65-.93,1.17-.59.52.34.46,1.17.44,1.7-.09,1.1-.36,2.18-.84,3.18,1.23-.63,2.92-1.15,4.3-.77.5.14.93.65.58,1.17-.34.52-1.17.48-1.7.44-1.11-.07-2.18-.37-3.18-.84.47,1,.78,2.09.84,3.19.03.53.07,1.36-.44,1.69Zm8.14,5.13c.03.53.07,1.36-.44,1.69-.52.34-1.03-.08-1.17-.59-.38-1.38.14-3.07.77-4.3-1,.47-2.09.78-3.2.84-.53.03-1.36.07-1.69-.44-.34-.52.09-1.03.59-1.17,1.38-.38,3.07.14,4.3.77-.63-1.23-1.15-2.92-.77-4.3.14-.5.65-.93,1.17-.59.52.33.48,1.17.44,1.7-.07,1.11-.36,2.18-.84,3.18,1.23-.63,2.92-1.15,4.3-.77.5.14.93.65.59,1.17-.34.51-1.17.47-1.7.44-1.11-.07-2.18-.37-3.18-.84.47,1,.78,2.09.84,3.2Z"/>
    <path class="cls-1" d="m27.45,171.33c.05.33,1.04.31,1.23.32,1.08-.02,2.14-.21,3.21-.38-1.11-.14-2.24-.38-3.37-.35-.27.01-1.1-.02-1.06.4Z"/>
    <path class="cls-1" d="m31.94,166.84c-.42-.04-.39.79-.4,1.06-.04,1.13.21,2.26.35,3.37.17-1.05.39-2.16.37-3.19,0-.22,0-1.19-.32-1.24Z"/>
    <path class="cls-1" d="m31.94,112.31c.05.33,1.04.31,1.23.32,1.08.01,2.14-.2,3.21-.37-1.11-.14-2.24-.39-3.37-.35-.27.02-1.09-.02-1.06.4Z"/>
    <path class="cls-1" d="m36.42,107.82c-.42-.04-.39.79-.4,1.06-.04,1.13.21,2.26.35,3.37.17-1.05.39-2.16.37-3.19,0-.22,0-1.19-.32-1.24Z"/>
    <path class="cls-1" d="m24.13,158.6c-.42-.04-.39.79-.4,1.06-.04,1.13.21,2.26.35,3.37.17-1.06.36-2.16.37-3.2-.01-.23,0-1.19-.32-1.24Z"/>
    <path class="cls-1" d="m19.65,163.09c.04.33,1.04.31,1.22.32,1.08-.02,2.14-.21,3.21-.37-1.11-.14-2.24-.39-3.37-.35-.27.02-1.11-.01-1.06.4Z"/>
    <path class="cls-1" d="m24.13,167.46c.33-.04.31-1.04.32-1.23-.02-1.08-.21-2.14-.37-3.2-.14,1.11-.39,2.24-.35,3.37.02.27-.02,1.09.4,1.06Z"/>
    <path class="cls-1" d="m40.8,112.31c.03-.42-.79-.39-1.06-.4-1.13-.04-2.26.21-3.37.35,1.05.17,2.16.39,3.2.37.23,0,1.19,0,1.24-.32Z"/>
    <path class="cls-1" d="m31.61,149.52c-.42-.04-.39.79-.4,1.06-.04,1.13.21,2.26.35,3.37.17-1.05.39-2.16.37-3.19,0-.22,0-1.2-.32-1.24Z"/>
    <path class="cls-1" d="m53.47,137.67c1.97,2.7,5.46,3.65,8.45,2.55-.19-.32-.35-.64-.5-.97-.95.33-1.98.43-3.01.26-1.64-.26-3.08-1.14-4.06-2.48-1.27-1.74-1.55-3.97-.75-5.98.21-.51.48-.99.81-1.43-.46-.4-.88-.85-1.26-1.36.15.2.31.4.47.59-.43.55-.78,1.15-1.04,1.8-.94,2.35-.61,4.98.88,7.02Z"/>
    <path class="cls-1" d="m59.7,124.43c.28.04.57-.02.8-.2.47-.34.58-1.04.24-1.51-.35-.48-1.03-.58-1.51-.23-.17.12-.29.28-.37.47-.14.35-.09.74.13,1.04.17.23.42.39.7.43Z"/>
    <path class="cls-1" d="m38.91,167.01c.33-.04.32-1.04.32-1.23,0-1.08-.2-2.14-.37-3.21-.14,1.12-.39,2.24-.35,3.37.02.27-.02,1.11.4,1.06Z"/>
    <path class="cls-1" d="m43.29,162.63c.05-.42-.79-.38-1.06-.4-1.13-.04-2.26.21-3.37.35,1.05.17,2.16.39,3.19.37.23,0,1.2,0,1.24-.32Z"/>
    <path class="cls-1" d="m38.91,158.14c-.42-.04-.39.79-.4,1.06-.04,1.13.21,2.26.35,3.37.17-1.05.39-2.16.37-3.19,0-.22,0-1.19-.32-1.24Z"/>
    <path class="cls-1" d="m41.23,154.33c.04.33,1.04.31,1.22.32,1.08-.02,2.14-.21,3.21-.37-1.11-.14-2.24-.39-3.37-.35-.27.02-1.1-.02-1.06.4Z"/>
    <path class="cls-1" d="m45.72,149.84c-.42-.04-.39.79-.4,1.06-.04,1.13.21,2.26.35,3.37.17-1.05.36-2.16.38-3.2-.01-.23,0-1.2-.32-1.24Z"/>
    <path class="cls-1" d="m50.09,154.33c.03-.42-.79-.39-1.06-.4-1.13-.04-2.26.21-3.37.35,1.05.16,2.16.39,3.19.37.22,0,1.19,0,1.24-.32Z"/>
    <path class="cls-1" d="m39.05,141.63c-.42-.05-.39.79-.4,1.06-.04,1.13.21,2.26.35,3.37.16-1.06.39-2.16.37-3.2,0-.23,0-1.2-.32-1.24Z"/>
    <path class="cls-1" d="m45.72,158.71c.33-.04.31-1.04.32-1.23-.02-1.08-.21-2.14-.38-3.21-.14,1.12-.39,2.24-.35,3.37.01.27-.02,1.11.4,1.06Z"/>
    <path class="cls-1" d="m34.43,162.63c.05.33,1.04.31,1.23.32,1.08-.02,2.14-.21,3.21-.37-1.11-.14-2.24-.38-3.37-.35-.27.02-1.09-.02-1.06.4Z"/>
    <path class="cls-1" d="m43.42,146.11c.03-.42-.79-.39-1.06-.4-1.13-.04-2.26.21-3.37.35,1.05.16,2.16.39,3.2.37.23,0,1.19,0,1.24-.32Z"/>
    <path class="cls-1" d="m56.11,130.77c-.32-.16-.62-.35-.92-.55-.28.37-.51.77-.68,1.2-.67,1.69-.44,3.57.63,5.03.82,1.13,2.04,1.87,3.42,2.09.86.13,1.72.06,2.52-.22-.1-.35-.18-.7-.24-1.05-1.71.64-3.71.1-4.84-1.45-.85-1.17-1.04-2.67-.5-4.01.15-.38.36-.73.61-1.04Z"/>
    <path class="cls-1" d="m35.98,154.01c.03-.42-.79-.39-1.06-.4-1.13-.04-2.26.21-3.37.35,1.05.17,2.16.39,3.19.37.23,0,1.19.01,1.24-.32Z"/>
    <path class="cls-1" d="m56.8,135.24c.91,1.26,2.59,1.65,3.95,1-.02-.47,0-.95.08-1.42-.07.08-.15.15-.22.2-.92.67-2.21.47-2.88-.45-.42-.58-.51-1.32-.25-1.98.14-.36.39-.67.7-.9.09-.06.18-.11.27-.16.05,0,.09.02.14.03-.52-.08-1.03-.21-1.52-.39-.27.29-.5.62-.65,1-.41,1.03-.26,2.17.39,3.07Z"/>
    <path class="cls-1" d="m36.31,171.33c.05-.42-.79-.39-1.06-.4-1.13-.04-2.26.21-3.37.35,1.05.17,2.16.39,3.19.37.23,0,1.2.01,1.24-.32Z"/>
    <path class="cls-1" d="m39.05,150.49c.33-.04.31-1.04.32-1.23-.02-1.08-.21-2.14-.37-3.21-.14,1.12-.39,2.24-.35,3.37.02.27-.02,1.11.41,1.06Z"/>
    <path class="cls-1" d="m61.05,132.15c.15.21.26.43.32.66.18-.44.4-.85.65-1.25-.02-.03-.03-.05-.05-.08-.02-.03-.04-.05-.07-.08-.46.12-.92.2-1.4.24.21.14.4.31.54.51Z"/>
    <path class="cls-1" d="m34.56,146.11c.05.33,1.04.31,1.22.32,1.08-.02,2.14-.21,3.21-.37-1.12-.14-2.24-.39-3.37-.35-.27.02-1.09-.02-1.06.4Z"/>
    <path class="cls-1" d="m58.51,134c.35.48,1.03.59,1.51.24.47-.34.57-1.04.23-1.51-.17-.24-.42-.39-.7-.43-.29-.05-.57.02-.8.19-.16.12-.29.28-.36.47-.14.35-.09.73.13,1.04Z"/>
    <path class="cls-1" d="m36.42,116.68c.33-.04.31-1.04.32-1.23-.02-1.08-.21-2.14-.37-3.21-.14,1.12-.39,2.24-.35,3.37.02.27-.02,1.09.4,1.06Z"/>
    <path class="cls-1" d="m41.62,171.45c.05.33,1.04.31,1.22.32,1.08-.02,2.14-.21,3.21-.38-1.11-.14-2.24-.38-3.37-.35-.27.02-1.09-.02-1.06.4Z"/>
    <path class="cls-1" d="m73.9,157.21c.59-.83,1.29-1.65,2.09-2.44.21-.21.44-.41.7-.63-.56-2.62-2.14-4.73-2.79-5.52-.65.79-2.23,2.9-2.79,5.52.27.22.49.43.7.63.79.79,1.49,1.61,2.09,2.44Z"/>
    <path class="cls-1" d="m67.09,164.02c-.84-.6-1.66-1.3-2.44-2.09-.21-.2-.41-.43-.63-.7-2.61.56-4.73,2.13-5.52,2.79.79.65,2.9,2.23,5.52,2.79.22-.26.42-.49.63-.7.8-.8,1.62-1.5,2.44-2.09Z"/>
    <path class="cls-1" d="m24.23,105.48c.05.33,1.04.32,1.23.32,1.08.01,2.14-.21,3.21-.37-1.11-.14-2.25-.39-3.37-.35-.27.01-1.1-.02-1.06.4Z"/>
    <path class="cls-1" d="m50.48,171.45c.04-.42-.79-.39-1.06-.4-1.13-.04-2.26.21-3.37.35,1.05.17,2.16.4,3.2.38.23,0,1.19,0,1.24-.32Z"/>
    <path class="cls-1" d="m28.72,100.99c-.42-.05-.39.79-.4,1.06-.04,1.13.21,2.26.35,3.37.17-1.06.39-2.16.37-3.19,0-.22,0-1.2-.32-1.24Z"/>
    <path class="cls-1" d="m46.11,166.96c-.42-.04-.39.79-.4,1.06-.04,1.13.21,2.26.34,3.37.17-1.05.39-2.16.37-3.19,0-.23,0-1.2-.32-1.24Z"/>
    <path class="cls-1" d="m73.84,170.78c-.59.83-1.29,1.64-2.09,2.44-.21.21-.44.41-.7.63.56,2.62,2.14,4.73,2.79,5.52.65-.79,2.23-2.9,2.79-5.52-.27-.23-.49-.43-.7-.63-.79-.79-1.49-1.61-2.09-2.44Z"/>
    <path class="cls-1" d="m83.1,161.87c-.79.8-1.61,1.5-2.44,2.09.83.59,1.65,1.29,2.44,2.09.21.21.41.43.63.7,2.61-.56,4.73-2.14,5.52-2.79-.79-.65-2.9-2.23-5.52-2.79-.22.26-.42.49-.63.7Z"/>
    <path class="cls-1" d="m77.38,164.35c-.14.05-.28.1-.42.15l.14.08c.23.14.47.28.68.46l.64.5.87.85.77.91-.96-.71-1.01-.61-.21-.1c.27.26.54.54.8.82.87.93,1.64,1.94,2.17,2.72.53.78.83,1.33.83,1.33,0,0-.42-.46-1.11-1.1-.68-.64-1.64-1.42-2.66-2.09-.23-.15-.45-.29-.67-.43.14.22.29.44.46.66.7.98,1.5,1.9,2.14,2.56.64.66,1.11,1.06,1.11,1.06,0,0-.55-.28-1.34-.78-.79-.5-1.82-1.23-2.77-2.07-.29-.24-.57-.51-.83-.77l.1.2.62.97.72.92-.93-.74-.86-.83-.52-.62c-.18-.2-.34-.43-.48-.66l-.12-.19c-.05.17-.11.34-.18.51.56,1.29,1.59,2.8,3.09,4.3,2.43,2.43,6.07,2.97,7.32,3.09-.12-1.25-.66-4.89-3.09-7.32-1.51-1.51-3.02-2.53-4.31-3.09Z"/>
    <path class="cls-1" d="m93.19,162.25c-1.82-11.9-10.09-20.82-19.48-21.88-4.27-9.36-9.58-17.17-14.95-23.82-2.28-2.82-6.59-7.41-9.44-10-1.42-.2-2.83-.47-4.21-.83.04.07.08.14.12.21-.56.63-1.02,1.34-1.34,2.13-.94,2.36-.61,4.98.88,7.03,2.31,3.16,6.69,3.92,9.92,1.8.1-.07.19-.15.28-.22.1-.07.21-.14.31-.2.11-.09.22-.2.33-.3.24.28.48.55.71.82-.15.09-.31.17-.45.27-.1.08-.19.15-.29.23-.1.07-.2.13-.3.2-.98.79-1.74,1.81-2.2,2.97-.94,2.35-.61,4.98.88,7.03,1.15,1.58,2.85,2.62,4.78,2.92,1.81.29,3.62-.12,5.14-1.11.1-.08.19-.15.29-.23.1-.07.21-.13.31-.2.14-.12.27-.25.4-.37.2.31.4.61.59.92-.14.08-.28.16-.41.25-.1.08-.19.15-.29.23-.1.07-.21.13-.31.2-.97.79-1.73,1.81-2.19,2.97-.94,2.35-.61,4.98.88,7.03,1.15,1.58,2.85,2.62,4.78,2.92,1.68.26,3.36-.06,4.81-.9.23.12.48.2.75.23.19.02.37.05.56.08-.03.02-.06.05-.1.07-1.79,1.31-3.98,1.84-6.18,1.49-2.1-.33-3.96-1.44-5.26-3.12-3.44,1.39-7.53.34-9.82-2.8-.53-.73-.93-1.53-1.2-2.36-.73.49-1.54.87-2.45,1.13-1.77.49-3.52.42-5.31.19-1.88-.24-3.75-.71-5.52-1.38-4.24-1.59-8.3-4.01-11.73-7.06-.44,2.02-.86,4.04-1.26,6.07-.34,1.72-.52,3.6-1.54,5.08-1.22,1.77-3.21,2.72-5.26,2.8-2.06,11.13-2.53,23.59,4.2,33.16,1.95,2.77,4.58,5.54,7.32,7.54,3.16,2.31,6.44,4.66,10.23,5.79,2.26.68,4.58,1.05,6.93,1.26.39-1.13,1.05-2.19,1.91-2.88,1.84-1.49,4.6-1.69,6.87-1.88,1.38-.12,2.77-.17,4.15-.18-5.3-4.51-8.23-11.57-8.53-18.48-.27-6.13,1.1-12.21,4.81-17.21-2.97,5.06-4.28,11.64-3.23,18.52,1.06,6.94,4.31,12.87,8.71,16.81l11.8,1.59s-12.26-.02-13.5.03c.11.13.23.25.34.39,2.59,3.13,2.69,6.57,2.33,8.89,10.33,0,23.76-.24,23.76-.24,0,0,5.52-4.53.23-10.83,5.14-5.24,7.82-13.73,6.45-22.75Zm-44.42-52.25c.09-.24.23-.45.4-.63.23.22.47.45.71.69-.08.09-.15.19-.2.3-.14.35-.09.74.13,1.04.35.48,1.03.59,1.51.24.02-.02.04-.04.06-.06.23.23.46.47.69.71-.06.05-.11.1-.17.14-.92.67-2.21.46-2.88-.45-.42-.58-.51-1.32-.25-1.98Zm-.42-1.41c-.27.29-.49.62-.64.99-.41,1.03-.27,2.18.39,3.07.5.69,1.24,1.14,2.09,1.27.84.13,1.68-.07,2.38-.57.1-.07.19-.16.28-.24.22.24.45.48.67.72-.12.11-.24.22-.37.32-.9.66-2.01.93-3.11.75-1.1-.17-2.07-.77-2.73-1.67-.85-1.17-1.04-2.67-.5-4.01.19-.48.48-.91.83-1.29.23.21.47.43.72.67Zm6,7.21c-1.34.98-2.99,1.38-4.63,1.12-1.64-.26-3.09-1.14-4.07-2.48-1.27-1.74-1.55-3.97-.75-5.98.27-.67.66-1.28,1.14-1.81.18.1.45.3.79.58-.43.47-.78,1-1.02,1.59-.67,1.69-.44,3.57.63,5.03.83,1.13,2.04,1.87,3.42,2.09,1.38.22,2.77-.12,3.9-.94.16-.12.32-.26.47-.39.22.24.44.49.66.73-.17.16-.35.32-.54.46Zm7.43,8.31c-.15.38-.39.69-.71.92-.44.32-.99.46-1.53.37-.54-.09-1.02-.38-1.35-.82-.42-.57-.51-1.31-.25-1.98.14-.36.39-.67.7-.9.33-.24.71-.36,1.09-.38.7.93,1.39,1.86,2.05,2.79Zm-2.81-3.8c-.35.1-.68.26-.99.48-.49.35-.86.84-1.09,1.4-.41,1.03-.27,2.17.39,3.07.5.69,1.24,1.14,2.09,1.27.84.13,1.69-.07,2.38-.57.3-.22.56-.49.76-.8.2.28.4.57.59.85-.23.28-.48.53-.77.74-.9.66-2.01.93-3.11.75-1.1-.17-2.07-.77-2.73-1.67-.85-1.17-1.04-2.67-.5-4.01.29-.73.78-1.36,1.42-1.83.29-.21.6-.37.92-.5.21.27.43.55.64.82Zm4.56,8.09c-2.78,2.02-6.68,1.41-8.7-1.36-1.27-1.74-1.55-3.98-.75-5.98.43-1.09,1.16-2.03,2.12-2.72.27-.19.54-.35.83-.5.02.02.04.05.05.07.19.24.37.48.56.72-.3.14-.59.31-.87.51-.8.58-1.42,1.37-1.78,2.29-.67,1.69-.44,3.57.63,5.04,1.7,2.34,4.99,2.85,7.33,1.15.28-.2.53-.44.76-.7.19.28.37.57.55.85-.23.23-.47.45-.74.64Zm4.3,5.9c.09-.07.19-.12.29-.17.16.28.32.57.48.85-.07.03-.13.07-.19.11-.16.12-.29.28-.36.47-.14.35-.09.73.13,1.04.17.23.42.39.7.43.26.04.51-.01.72-.15.15.29.3.58.45.87-.4.23-.86.32-1.33.25-.54-.09-1.02-.38-1.35-.82-.42-.57-.52-1.31-.25-1.98.14-.36.39-.67.7-.9Zm-.75-2.02c.17.29.33.58.49.86-.14.07-.28.15-.41.24-.49.35-.86.84-1.08,1.39-.41,1.03-.27,2.18.39,3.07.5.69,1.24,1.14,2.08,1.27.7.11,1.4-.02,2.01-.36.15.3.28.6.43.9-.79.42-1.69.57-2.59.43-1.1-.17-2.07-.76-2.73-1.67-.85-1.17-1.04-2.67-.5-4.01.29-.73.78-1.36,1.41-1.82.16-.12.33-.22.5-.31Zm1,9.83c-1.64-.26-3.09-1.14-4.07-2.48-1.27-1.74-1.55-3.98-.75-5.98.43-1.09,1.16-2.03,2.11-2.72.21-.15.42-.28.64-.4.17.28.34.56.51.84-.2.11-.39.22-.57.36-.8.58-1.42,1.37-1.78,2.29-.67,1.69-.44,3.57.63,5.04.82,1.13,2.04,1.87,3.42,2.09,1.11.18,2.22-.01,3.21-.52.1.22.21.43.31.65.04.08.08.16.12.23-1.16.6-2.48.82-3.79.61Zm-23.2,7.86c.14-.5.65-.93,1.17-.59.52.34.48,1.17.45,1.7-.07,1.1-.37,2.18-.84,3.18,1.23-.63,2.91-1.12,4.3-.77.5.15.93.65.59,1.17-.34.52-1.17.48-1.7.44-1.1-.07-2.18-.37-3.18-.84.47,1,.78,2.09.84,3.2.03.53.07,1.36-.44,1.69-.52.34-1.03-.08-1.17-.59-.38-1.38.14-3.07.77-4.3-1.01.47-2.09.78-3.2.84-.53.03-1.36.07-1.69-.45-.34-.52.09-1.03.59-1.17,1.38-.38,3.07.14,4.3.77-.63-1.23-1.15-2.92-.78-4.3Zm-5.19,15.8c.03.53.07,1.36-.44,1.69-.52.34-1.03-.08-1.17-.59-.38-1.38.14-3.07.77-4.3-1.01.47-2.09.78-3.19.84-.53.03-1.36.07-1.69-.44-.34-.52.08-1.03.59-1.17,1.38-.38,3.07.14,4.3.77-.63-1.23-1.15-2.92-.77-4.3.14-.5.65-.93,1.17-.59.52.34.46,1.17.44,1.7-.09,1.1-.37,2.18-.84,3.18,1.23-.63,2.91-1.12,4.3-.77.5.15.93.65.59,1.17-.34.52-1.17.48-1.7.44-1.1-.07-2.18-.37-3.18-.84.47,1.01.78,2.09.84,3.2Zm-5.01-20.49c1.38-.38,3.07.15,4.3.77-.63-1.23-1.15-2.92-.77-4.3.14-.5.65-.93,1.17-.59.52.34.48,1.17.44,1.7-.07,1.11-.37,2.18-.84,3.18,1.23-.63,2.92-1.15,4.3-.77.5.14.93.65.59,1.17-.34.52-1.17.48-1.7.44-1.11-.07-2.18-.37-3.18-.84.47,1,.78,2.09.84,3.19.03.53.07,1.35-.44,1.69-.52.34-1.03-.08-1.17-.59-.38-1.38.14-3.07.77-4.3-1.01.47-2.09.78-3.2.84-.53.03-1.36.07-1.7-.45-.34-.52.09-1.03.59-1.17Zm-3.91,4.37c.14-.5.65-.93,1.17-.59.52.34.46,1.17.44,1.7-.1,1.1-.37,2.18-.84,3.18,1.23-.63,2.92-1.15,4.3-.77.5.14.93.65.59,1.17-.34.51-1.17.48-1.7.44-1.11-.07-2.18-.37-3.18-.84.47,1,.78,2.09.84,3.2.03.53.07,1.36-.45,1.69-.52.34-1.03-.08-1.17-.59-.38-1.38.14-3.07.77-4.3-1.01.47-2.09.78-3.19.84-.53.03-1.35.07-1.69-.44-.34-.52.08-1.03.58-1.17,1.38-.38,3.07.14,4.3.77-.63-1.23-1.15-2.92-.77-4.3Zm-10.43-4.37c1.38-.38,3.07.14,4.3.77-.63-1.23-1.15-2.92-.77-4.3.14-.5.65-.93,1.17-.59.52.34.48,1.17.44,1.7-.07,1.11-.36,2.18-.84,3.18,1.23-.63,2.92-1.15,4.3-.77.51.14.93.65.59,1.17-.34.52-1.17.46-1.7.44-1.1-.1-2.18-.37-3.18-.84.47,1,.78,2.09.84,3.19.03.5.07,1.22-.33,1.6-.5.48-1.13.06-1.28-.5-.38-1.38.14-3.07.77-4.3-1,.47-2.09.79-3.19.84-.53.03-1.36.07-1.69-.45-.34-.52.08-1.04.58-1.17Zm4.57,20.94c.03.53.07,1.36-.44,1.69-.52.34-1.03-.08-1.17-.59-.38-1.38.14-3.07.77-4.3-1.01.47-2.09.79-3.2.84-.53.03-1.35.07-1.69-.45-.34-.52.08-1.02.59-1.17,1.39-.35,3.07.14,4.3.77-.63-1.23-1.13-2.92-.77-4.3.15-.5.65-.93,1.17-.59.52.34.46,1.17.44,1.7-.1,1.1-.37,2.18-.84,3.18,1.23-.63,2.92-1.13,4.3-.77.5.15.92.65.58,1.17-.34.52-1.17.48-1.7.44-1.11-.07-2.18-.37-3.18-.84.47,1,.79,2.09.84,3.19Zm7.36,9.94c-.52.34-1.03-.09-1.17-.59-.38-1.38.14-3.07.77-4.3-1.01.48-2.09.78-3.2.84-.53.03-1.35.07-1.69-.44-.34-.52.08-1.03.59-1.17,1.38-.38,3.07.14,4.3.77-.63-1.23-1.15-2.92-.77-4.3.14-.51.65-.93,1.17-.59.51.34.46,1.17.44,1.7-.1,1.1-.37,2.18-.84,3.18,1.23-.63,2.92-1.15,4.3-.77.5.14.93.65.58,1.17-.34.52-1.17.48-1.7.44-1.1-.07-2.18-.37-3.18-.84.47,1,.78,2.09.84,3.2.03.53.07,1.36-.45,1.69Zm11.91,3.25c-.34.52-1.17.48-1.7.44-1.11-.07-2.18-.37-3.19-.84.47,1,.79,2.09.84,3.19.03.53.07,1.35-.44,1.69-.52.34-1.03-.08-1.17-.58-.38-1.38.14-3.07.77-4.3-1.01.47-2.09.78-3.19.84-.53.03-1.36.07-1.69-.45-.34-.52.09-1.03.59-1.17,1.38-.38,3.07.14,4.3.77-.63-1.23-1.15-2.92-.77-4.3.14-.5.65-.93,1.17-.59.52.34.46,1.17.45,1.7-.1,1.1-.37,2.18-.84,3.18,1.23-.63,2.92-1.15,4.3-.77.5.14.92.65.58,1.17Zm6.75-7.63c-.34.52-1.17.48-1.71.44-1.1-.07-2.18-.37-3.18-.84.47,1,.78,2.09.84,3.2.03.53.07,1.35-.44,1.69-.52.34-1.03-.08-1.17-.59-.38-1.38.14-3.07.77-4.3-1,.48-2.09.79-3.2.84-.53.03-1.36.07-1.69-.45-.34-.52.09-1.03.59-1.17,1.38-.38,3.07.14,4.3.77-.63-1.23-1.15-2.92-.77-4.3.15-.55.78-.98,1.28-.49.4.38.36,1.11.33,1.62-.07,1.1-.37,2.18-.84,3.18,1.23-.63,2.92-1.15,4.3-.77.5.14.92.65.58,1.17Zm35.3-13.3c.34.33.33.88,0,1.21-.33.33-.87.33-1.21,0-.34-.33-.34-.88,0-1.21.34-.33.88-.33,1.21,0Zm-8.07-6.86c.33-.33.87-.33,1.21,0s.33.88,0,1.21c-.33.33-.88.33-1.21,0-.33-.33-.33-.87,0-1.21Zm-7.88,2.58c.68-3.66,3.22-6.36,3.33-6.48l.29-.3.29.3c.11.11,2.64,2.82,3.33,6.48l.04.24-.19.15c-.32.26-.58.49-.82.73-.91.91-1.69,1.85-2.32,2.8l-.33.5-.33-.5c-.63-.95-1.41-1.89-2.32-2.8-.23-.23-.49-.46-.83-.73l-.18-.15.04-.24Zm-1.79-2.59c.34-.33.88-.33,1.21,0,.33.33.33.88,0,1.21-.33.33-.87.33-1.21,0-.33-.33-.33-.88,0-1.21Zm-6.86,6.86c.34-.33.88-.33,1.21,0,.33.33.33.87,0,1.21-.34.33-.87.33-1.21,0-.33-.33-.34-.87,0-1.21Zm-4.02,5.82l-.3-.29.3-.29c.11-.11,2.82-2.64,6.48-3.33l.23-.04.15.19c.27.34.5.6.72.82.9.9,1.85,1.68,2.8,2.32l.5.33-.5.33c-.95.63-1.89,1.41-2.8,2.32-.23.24-.47.5-.72.82l-.15.19-.23-.04c-3.66-.69-6.36-3.22-6.48-3.33Zm4.02,5.05c-.33-.34-.33-.88,0-1.21.33-.33.87-.34,1.21,0,.33.33.33.88,0,1.21-.33.33-.87.33-1.21,0Zm8.07,6.86c-.33.33-.87.33-1.21,0-.33-.33-.33-.87,0-1.21.33-.33.88-.33,1.21,0,.33.33.33.87,0,1.21Zm7.74-2.46c-.69,3.66-3.22,6.36-3.33,6.48l-.28.3-.29-.3c-.11-.11-2.64-2.82-3.33-6.48l-.04-.23.19-.15c.32-.25.59-.49.82-.72.91-.91,1.69-1.85,2.32-2.8l.33-.5.33.5c.64.96,1.41,1.9,2.32,2.8.23.23.48.45.82.73l.19.15-.04.23Zm1.92,2.46c-.33.33-.88.33-1.21,0-.33-.33-.33-.87,0-1.21.33-.33.87-.33,1.21,0,.33.33.33.88,0,1.21Zm5.81-.64c-.21,0-5.11-.17-8.29-3.35-1.3-1.3-2.3-2.67-2.96-3.94-.65,1.27-1.66,2.64-2.95,3.94-3.19,3.18-8.09,3.35-8.29,3.35h-.42s.01-.4.01-.4c0-.21.17-5.11,3.35-8.29,1.3-1.3,2.66-2.3,3.94-2.96-1.27-.65-2.64-1.66-3.94-2.96-3.18-3.19-3.35-8.09-3.35-8.29v-.42s.41.01.41.01c.21,0,5.11.17,8.29,3.35,1.3,1.3,2.3,2.66,2.95,3.94.66-1.27,1.66-2.64,2.96-3.94,3.18-3.18,8.09-3.35,8.29-3.35h.42s-.01.4-.01.4c0,.21-.17,5.11-3.35,8.29-1.3,1.3-2.66,2.3-3.94,2.96,1.27.66,2.64,1.66,3.94,2.96,3.18,3.18,3.34,8.09,3.35,8.29v.42s-.41-.01-.41-.01Zm1.04-6.22c-.33.33-.87.33-1.21,0-.33-.34-.34-.88,0-1.21.33-.34.87-.34,1.21,0,.33.33.33.87,0,1.21Zm-2.59-1.79l-.23.04-.15-.19c-.26-.33-.49-.59-.72-.82-.91-.91-1.85-1.69-2.8-2.32l-.5-.33.5-.33c.94-.62,1.89-1.4,2.8-2.32.23-.24.47-.5.72-.82l.15-.19.24.04c3.66.69,6.36,3.22,6.48,3.33l.3.29-.3.29c-.12.11-2.82,2.64-6.48,3.32Z"/>
    <path class="cls-1" d="m75.6,162.05c-.93-.93-2.44-.93-3.36,0-.93.93-.93,2.44,0,3.36.93.93,2.44.93,3.37,0,.93-.93.93-2.44,0-3.36Zm-.95,2.41c-.4.4-1.06.41-1.47,0-.41-.4-.4-1.06,0-1.47.41-.4,1.06-.4,1.47,0,.41.4.41,1.06,0,1.47Z"/>
    <path class="cls-1" d="m70.91,163.36l-.14-.08c-.24-.14-.47-.29-.68-.46l-.64-.51-.86-.85-.77-.91.96.71,1,.6.21.1c-.27-.26-.55-.54-.8-.82-.87-.93-1.64-1.94-2.17-2.73-.53-.78-.83-1.33-.83-1.33,0,0,.42.46,1.11,1.1.68.63,1.64,1.42,2.66,2.09.22.15.45.29.67.43-.14-.22-.29-.44-.45-.66-.7-.98-1.5-1.9-2.14-2.56-.65-.65-1.11-1.06-1.11-1.06,0,0,.55.28,1.34.78.79.5,1.82,1.23,2.77,2.07.28.24.56.51.83.76l-.1-.2-.62-.97-.72-.92.93.74.86.83.52.62c.18.2.34.43.48.66l.08.13s.04-.01.07-.02c.04-.14.09-.29.15-.43-.56-1.29-1.59-2.8-3.09-4.3-2.43-2.43-6.07-2.98-7.31-3.09.11,1.25.66,4.89,3.09,7.32,1.51,1.51,3.02,2.53,4.31,3.09.14-.05.28-.1.42-.15Z"/>
    <path class="cls-1" d="m74.59,160.77c.14-.24.29-.47.47-.68l.51-.64.85-.87.91-.77-.71.96-.6,1.01-.09.21c.26-.27.54-.54.82-.8.93-.87,1.94-1.64,2.72-2.17.78-.53,1.33-.83,1.33-.83,0,0-.47.42-1.1,1.11-.64.68-1.41,1.64-2.09,2.65-.15.23-.29.45-.43.67.22-.14.44-.29.66-.45.98-.7,1.9-1.5,2.56-2.15.66-.64,1.06-1.11,1.06-1.11,0,0-.28.55-.78,1.34-.5.79-1.23,1.82-2.07,2.77-.24.28-.51.56-.76.83l.19-.1.97-.63.92-.73-.73.93-.83.87-.62.52c-.2.18-.43.34-.66.48l-.19.12c.17.05.34.11.51.18,1.29-.56,2.8-1.59,4.3-3.09,2.43-2.43,2.97-6.07,3.09-7.32-1.25.12-4.89.66-7.32,3.09-1.5,1.51-2.53,3.02-3.09,4.3.05.14.1.28.15.42l.08-.13Z"/>
    <path class="cls-1" d="m73.29,167.08c-.14.24-.29.46-.46.68l-.51.64-.85.87-.91.77.71-.96.6-1.01.1-.21c-.26.27-.54.54-.82.8-.94.87-1.94,1.64-2.72,2.17-.78.53-1.33.83-1.33.83,0,0,.46-.42,1.1-1.11.64-.68,1.42-1.64,2.09-2.65.15-.23.29-.45.43-.67-.22.15-.44.29-.66.46-.98.7-1.91,1.5-2.56,2.14-.66.64-1.06,1.11-1.06,1.11,0,0,.28-.55.78-1.34.5-.79,1.23-1.82,2.07-2.78.24-.28.51-.56.77-.83l-.2.1-.97.62-.92.73.73-.93.83-.86.62-.52c.2-.18.43-.34.66-.48l.19-.12c-.17-.05-.34-.11-.51-.18-1.29.56-2.8,1.59-4.3,3.09-2.43,2.43-2.97,6.07-3.09,7.32,1.24-.12,4.89-.66,7.31-3.09,1.5-1.51,2.53-3.02,3.09-4.3-.06-.14-.1-.28-.15-.42l-.08.13Z"/>
    <path class="cls-1" d="m39.35,174.59c-.42-.04-.39.79-.4,1.06-.04,1.13.21,2.26.35,3.37.17-1.05.39-2.16.38-3.19,0-.22,0-1.19-.32-1.24Z"/>
    <path class="cls-1" d="m28.72,109.86c.32-.04.31-1.04.32-1.23-.02-1.08-.2-2.14-.37-3.21-.14,1.11-.39,2.24-.35,3.37.02.27-.02,1.1.4,1.06Z"/>
    <path class="cls-1" d="m34.87,179.08c.05.33,1.04.31,1.22.32,1.08-.02,2.14-.21,3.2-.37-1.11-.14-2.24-.39-3.37-.35-.27.02-1.1-.02-1.06.4Z"/>
    <path class="cls-1" d="m39.35,183.46c.33-.04.31-1.04.32-1.23-.02-1.08-.21-2.14-.38-3.2-.14,1.12-.39,2.25-.35,3.38.01.27-.02,1.11.4,1.06Z"/>
    <path class="cls-1" d="m43.73,179.08c.03-.42-.79-.39-1.06-.4-1.13-.04-2.26.21-3.38.35,1.06.17,2.16.39,3.2.37.23,0,1.19,0,1.24-.32Z"/>
    <path class="cls-1" d="m33.1,105.48c.05-.42-.79-.39-1.06-.4-1.13-.04-2.26.21-3.37.35,1.05.17,2.16.39,3.2.37.22,0,1.2.01,1.24-.32Z"/>
    <path class="cls-1" d="m46.11,175.82c.33-.04.31-1.04.32-1.23-.02-1.08-.21-2.14-.38-3.21-.14,1.12-.38,2.24-.34,3.37.02.27-.02,1.1.4,1.06Z"/>
    <path class="cls-1" d="m31.94,175.71c.33-.05.32-1.04.32-1.23,0-1.08-.21-2.14-.37-3.21-.14,1.12-.39,2.25-.35,3.37.01.27-.02,1.1.4,1.06Z"/>
  </g>
</svg>