<?xml version="1.0" encoding="UTF-8"?>
<svg id="_ëîé_1" data-name="—ëîé_1" xmlns="http://www.w3.org/2000/svg" viewBox="0 0 217 182.02">
  <defs>
    <style>
      .cls-1 {
        fill: #c41c2b;
        stroke-width: 0px;
      }
    </style>
  </defs>
  <path class="cls-1" d="m97.5,107.32c.2.5-.2-.4,0,0h0Z"/>
  <path class="cls-1" d="m52.8,93.42c-.4.3-.2,1.5-.1,1.9.1.5.1,1,.2,1.5.1-.8.3-1.7.3-2.5,0,0-.1-1.2-.4-.9Z"/>
  <path class="cls-1" d="m56.3,96.72c-.3-.4-1.5-.2-1.9-.1-.5.1-1,.1-1.5.2.8.1,1.7.3,2.5.3,0,0,1.2-.1.9-.4Z"/>
  <path class="cls-1" d="m49.4,96.72c-.3.3.9.4.9.4.8,0,1.7-.2,2.5-.3-.5-.1-1-.1-1.5-.2-.4,0-1.6-.3-1.9.1Z"/>
  <path class="cls-1" d="m87.5,128.72c.3.3.4-.9.4-.9,0-.8-.2-1.7-.3-2.5-.1.5-.1,1-.2,1.5-.1.4-.3,1.6.1,1.9Z"/>
  <path class="cls-1" d="m58.4,94.22c.3.3.4-.9.4-.9,0-.8-.2-1.7-.3-2.5-.1.5-.1,1-.2,1.5-.1.4-.3,1.6.1,1.9Z"/>
  <path class="cls-1" d="m58.4,87.32c-.4.3-.2,1.5-.1,1.9.1.5.1,1,.2,1.5.1-.8.3-1.7.3-2.5-.1,0-.1-1.2-.4-.9Z"/>
  <path class="cls-1" d="m55,90.72c-.3.3.9.4.9.4.8,0,1.7-.2,2.5-.3-.5-.1-1-.1-1.5-.2-.4-.1-1.6-.3-1.9.1Z"/>
  <path class="cls-1" d="m56.1,83.42c-.3-.4-1.5-.2-1.9-.1-.5.1-1,.1-1.5.2.8.1,1.7.3,2.5.3.1,0,1.3-.1.9-.4Z"/>
  <path class="cls-1" d="m52.6,86.92c.3.3.4-.9.4-.9,0-.8-.2-1.7-.3-2.5-.1.5-.1,1-.2,1.5,0,.4-.3,1.6.1,1.9Z"/>
  <path class="cls-1" d="m49.3,83.42c-.3.3.9.4.9.4.8,0,1.7-.2,2.5-.3-.5-.1-1-.1-1.5-.2-.4-.1-1.6-.3-1.9.1Z"/>
  <path class="cls-1" d="m52.6,80.12c-.4.3-.2,1.5-.1,1.9.1.5.1,1,.2,1.5.1-.8.3-1.7.3-2.5,0,0-.1-1.2-.4-.9Z"/>
  <path class="cls-1" d="m61.9,90.72c-.3-.4-1.5-.2-1.9-.1-.5.1-1,.1-1.5.2.8.1,1.7.3,2.5.3,0,0,1.2-.1.9-.4Z"/>
  <path class="cls-1" d="m43.5,90.92c-.3.3.9.4.9.4.8,0,1.7-.2,2.5-.3-.5-.1-1-.1-1.5-.2-.4,0-1.7-.3-1.9.1Z"/>
  <path class="cls-1" d="m50.3,90.92c-.3-.4-1.5-.2-1.9-.1-.5.1-1,.1-1.5.2.8.1,1.7.3,2.5.3,0,0,1.2-.1.9-.4Z"/>
  <path class="cls-1" d="m46.8,87.62c-.4.3-.2,1.5-.1,1.9.1.5.1,1,.2,1.5.1-.8.3-1.7.3-2.5,0,0-.1-1.2-.4-.9Z"/>
  <path class="cls-1" d="m46.8,94.42c.3.3.4-.9.4-.9,0-.8-.2-1.7-.3-2.5-.1.5-.1,1-.2,1.5-.1.5-.3,1.7.1,1.9Z"/>
  <path class="cls-1" d="m79.6,118.02c-.3.3.9.4.9.4.8,0,1.7-.2,2.5-.3-.5-.1-1-.1-1.5-.2-.4,0-1.6-.3-1.9.1Z"/>
  <path class="cls-1" d="m93.3,121.62c.3.3.4-.9.4-.9,0-.8-.2-1.7-.3-2.5-.1.5-.1,1-.2,1.5-.1.4-.3,1.6.1,1.9Z"/>
  <path class="cls-1" d="m90,118.02c-.3.3.9.4.9.4.8,0,1.7-.2,2.5-.3-.5-.1-1-.1-1.5-.2-.4,0-1.6-.3-1.9.1Z"/>
  <path class="cls-1" d="m96.8,118.02c-.3-.4-1.5-.2-1.9-.1-.5.1-1,.1-1.5.2.8.1,1.7.3,2.5.3.1,0,1.3-.1.9-.4Z"/>
  <path class="cls-1" d="m82.9,114.72c-.4.3-.2,1.5-.1,1.9.1.5.1,1,.2,1.5.1-.8.3-1.7.3-2.5,0,0-.1-1.2-.4-.9Z"/>
  <path class="cls-1" d="m82.9,121.62c.3.3.4-.9.4-.9,0-.8-.2-1.7-.3-2.5-.1.5-.1,1-.2,1.5,0,.4-.2,1.6.1,1.9Z"/>
  <path class="cls-1" d="m86.5,118.02c-.3-.4-1.5-.2-1.9-.1-.5.1-1,.1-1.5.2.8.1,1.7.3,2.5.3,0,0,1.2-.1.9-.4Z"/>
  <path class="cls-1" d="m93.3,114.72c-.4.3-.2,1.5-.1,1.9.1.5.1,1,.2,1.5.1-.8.3-1.7.3-2.5,0,0-.1-1.2-.4-.9Z"/>
  <path class="cls-1" d="m61.4,84.22c-.3.3.9.4.9.4.8,0,1.7-.2,2.5-.3-.5-.1-1-.1-1.5-.2-.4-.1-1.6-.3-1.9.1Z"/>
  <path class="cls-1" d="m68.2,84.22c-.3-.4-1.5-.2-1.9-.1-.5.1-1,.1-1.5.2.8.1,1.7.3,2.5.3.1,0,1.3-.1.9-.4Z"/>
  <path class="cls-1" d="m64.7,80.82c-.4.3-.2,1.5-.1,1.9.1.5.1,1,.2,1.5.1-.8.3-1.7.3-2.5,0,0-.1-1.2-.4-.9Z"/>
  <path class="cls-1" d="m64.7,87.72c.3.3.4-.9.4-.9,0-.8-.2-1.7-.3-2.5-.1.5-.1,1-.2,1.5,0,.4-.3,1.6.1,1.9Z"/>
  <path class="cls-1" d="m104.5,121.62c.3.3.4-.9.4-.9,0-.8-.2-1.7-.3-2.5-.1.5-.1,1-.2,1.5-.1.4-.3,1.6.1,1.9Z"/>
  <path class="cls-1" d="m104.5,114.72c-.4.3-.2,1.5-.1,1.9.1.5.1,1,.2,1.5.1-.8.3-1.7.3-2.5-.1,0-.1-1.2-.4-.9Z"/>
  <path class="cls-1" d="m101.1,118.02c-.3.3.9.4.9.4.8,0,1.7-.2,2.5-.3-.5-.1-1-.1-1.5-.2-.4,0-1.6-.3-1.9.1Z"/>
  <path class="cls-1" d="m108,118.02c-.3-.4-1.5-.2-1.9-.1-.5.1-1,.1-1.5.2.8.1,1.7.3,2.5.3,0,0,1.2-.1.9-.4Z"/>
  <path class="cls-1" d="m52.8,100.22c.3.3.4-.9.4-.9,0-.8-.2-1.7-.3-2.5-.1.5-.1,1-.2,1.5-.1.4-.3,1.7.1,1.9Z"/>
  <path class="cls-1" d="m104,82.42c.3.3.4-.9.4-.9,0-.8-.2-1.7-.3-2.5-.1.5-.1,1-.2,1.5,0,.4-.2,1.6.1,1.9Z"/>
  <path class="cls-1" d="m100.7,78.92c-.3.3.9.4.9.4.8,0,1.7-.2,2.5-.3-.5-.1-1-.1-1.5-.2-.4-.1-1.6-.3-1.9.1Z"/>
  <path class="cls-1" d="m107.6,78.92c-.3-.4-1.5-.2-1.9-.1-.5.1-1,.1-1.5.2.8.1,1.7.3,2.5.3,0,0,1.2-.1.9-.4Z"/>
  <path class="cls-1" d="m101.3,67.22c-.3.3.9.4.9.4.8,0,1.7-.2,2.5-.3-.5-.1-1-.1-1.5-.2-.4,0-1.6-.3-1.9.1Z"/>
  <path class="cls-1" d="m104,75.62c-.4.3-.2,1.5-.1,1.9.1.5.1,1,.2,1.5.1-.8.3-1.7.3-2.5,0,0,0-1.2-.4-.9Z"/>
  <path class="cls-1" d="m103.6,94.42c.3.3.4-.9.4-.9,0-.8-.2-1.7-.3-2.5-.1.5-.1,1-.2,1.5,0,.4-.3,1.6.1,1.9Z"/>
  <path class="cls-1" d="m103.6,87.52c-.4.3-.2,1.5-.1,1.9.1.5.1,1,.2,1.5.1-.8.3-1.7.3-2.5,0,0-.1-1.2-.4-.9Z"/>
  <path class="cls-1" d="m100.3,90.92c-.3.3.9.4.9.4.8,0,1.7-.2,2.5-.3-.5-.1-1-.1-1.5-.2-.4-.1-1.6-.3-1.9.1Z"/>
  <path class="cls-1" d="m108.1,67.22c-.3-.4-1.5-.2-1.9-.1-.5.1-1,.1-1.5.2.8.1,1.7.3,2.5.3,0,0,1.3-.1.9-.4Z"/>
  <path class="cls-1" d="m113.7,60.22c-.3-.4-1.5-.2-1.9-.1-.5.1-1,.1-1.5.2.8.1,1.7.3,2.5.3,0,0,1.2-.1.9-.4Z"/>
  <path class="cls-1" d="m110.1,56.82c-.4.3-.2,1.5-.1,1.9.1.5.1,1,.2,1.5.1-.8.3-1.7.3-2.5,0,0-.1-1.2-.4-.9Z"/>
  <path class="cls-1" d="m110.1,63.72c.3.3.4-.9.4-.9,0-.8-.2-1.7-.3-2.5-.1.5-.1,1-.2,1.5,0,.4-.3,1.6.1,1.9Z"/>
  <path class="cls-1" d="m104.6,70.72c.3.3.4-.9.4-.9,0-.8-.2-1.7-.3-2.5-.1.5-.1,1-.2,1.5s-.3,1.7.1,1.9Z"/>
  <path class="cls-1" d="m106.8,60.22c-.3.3.9.4.9.4.8,0,1.7-.2,2.5-.3-.5-.1-1-.1-1.5-.2-.4-.1-1.6-.3-1.9.1Z"/>
  <path class="cls-1" d="m107.1,90.92c-.3-.4-1.5-.2-1.9-.1-.5.1-1,.1-1.5.2.8.1,1.7.3,2.5.3.1,0,1.3-.1.9-.4Z"/>
  <path class="cls-1" d="m104.6,63.92c-.4.3-.2,1.5-.1,1.9.1.5.1,1,.2,1.5.1-.8.3-1.7.3-2.5,0,0-.1-1.2-.4-.9Z"/>
  <path class="cls-1" d="m119.3,67.12c-.3-.4-1.5-.2-1.9-.1-.5.1-1,.1-1.5.2.8.1,1.7.3,2.5.3.1,0,1.3-.1.9-.4Z"/>
  <path class="cls-1" d="m115.8,63.72c-.4.3-.2,1.5-.1,1.9.1.5.1,1,.2,1.5.1-.8.3-1.7.3-2.5,0,0-.1-1.2-.4-.9Z"/>
  <path class="cls-1" d="m124.8,60.12c-.3-.4-1.5-.2-1.9-.1-.5.1-1,.1-1.5.2.8.1,1.7.3,2.5.3,0,0,1.2-.1.9-.4Z"/>
  <path class="cls-1" d="m112.5,67.12c-.3.3.9.4.9.4.8,0,1.7-.2,2.5-.3-.5-.1-1-.1-1.5-.2-.4-.1-1.6-.3-1.9.1Z"/>
  <path class="cls-1" d="m121.3,56.82c-.4.3-.2,1.5-.1,1.9.1.5.1,1,.2,1.5.1-.8.3-1.7.3-2.5,0-.1-.1-1.3-.4-.9Z"/>
  <path class="cls-1" d="m121.3,63.62c.3.3.4-.9.4-.9,0-.8-.2-1.7-.3-2.5-.1.5-.1,1-.2,1.5-.1.4-.3,1.6.1,1.9Z"/>
  <path class="cls-1" d="m115.8,70.62c.3.3.4-.9.4-.9,0-.8-.2-1.7-.3-2.5-.1.5-.1,1-.2,1.5,0,.4-.3,1.6.1,1.9Z"/>
  <path class="cls-1" d="m117.9,60.12c-.3.3.9.4.9.4.8,0,1.7-.2,2.5-.3-.5-.1-1-.1-1.5-.2-.4-.1-1.6-.3-1.9.1Z"/>
  <path class="cls-1" d="m110,82.02c-.4.3-.2,1.5-.1,1.9.1.5.1,1,.2,1.5.1-.8.3-1.7.3-2.5,0,0-.1-1.2-.4-.9Z"/>
  <path class="cls-1" d="m110,88.92c.3.3.4-.9.4-.9,0-.8-.2-1.7-.3-2.5-.1.5-.1,1-.2,1.5-.1.4-.3,1.6.1,1.9Z"/>
  <path class="cls-1" d="m106.6,85.32c-.3.3.9.4.9.4.8,0,1.7-.2,2.5-.3-.5-.1-1-.1-1.5-.2-.4,0-1.6-.3-1.9.1Z"/>
  <path class="cls-1" d="m113.5,85.32c-.3-.4-1.5-.2-1.9-.1-.5.1-1,.1-1.5.2.8.1,1.7.3,2.5.3,0,0,1.2-.1.9-.4Z"/>
  <path class="cls-1" d="m113.8,74.12c-.3-.4-1.5-.2-1.9-.1-.5.1-1,.1-1.5.2.8.1,1.7.3,2.5.3,0,0,1.2-.1.9-.4Z"/>
  <path class="cls-1" d="m110.3,77.62c.3.3.4-.9.4-.9,0-.8-.2-1.7-.3-2.5-.1.5-.1,1-.2,1.5-.1.5-.3,1.7.1,1.9Z"/>
  <path class="cls-1" d="m110.3,70.82c-.4.3-.2,1.5-.1,1.9.1.5.1,1,.2,1.5.1-.8.3-1.7.3-2.5,0,0-.1-1.2-.4-.9Z"/>
  <path class="cls-1" d="m107,74.12c-.3.3.9.4.9.4.8,0,1.7-.2,2.5-.3-.5-.1-1-.1-1.5-.2-.4,0-1.7-.3-1.9.1Z"/>
  <path class="cls-1" d="m104.8,134.72c.3.3.4-.9.4-.9,0-.8-.2-1.7-.3-2.5-.1.5-.1,1-.2,1.5,0,.4-.3,1.6.1,1.9Z"/>
  <path class="cls-1" d="m99,128.72c.3.3.4-.9.4-.9,0-.8-.2-1.7-.3-2.5-.1.5-.1,1-.2,1.5,0,.4-.2,1.6.1,1.9Z"/>
  <path class="cls-1" d="m104.8,127.92c-.4.3-.2,1.5-.1,1.9.1.5.1,1,.2,1.5.1-.8.3-1.7.3-2.5,0-.1-.1-1.3-.4-.9Z"/>
  <path class="cls-1" d="m102.6,125.22c-.3-.4-1.5-.2-1.9-.1-.5.1-1,.1-1.5.2.8.1,1.7.3,2.5.3,0,0,1.2-.1.9-.4Z"/>
  <path class="cls-1" d="m101.5,131.22c-.3.3.9.4.9.4.8,0,1.7-.2,2.5-.3-.5-.1-1-.1-1.5-.2-.4-.1-1.6-.3-1.9.1Z"/>
  <path class="cls-1" d="m97,131.22c-.3-.4-1.5-.2-1.9-.1-.5.1-1,.1-1.5.2.8.1,1.7.3,2.5.3,0,0,1.2-.1.9-.4Z"/>
  <path class="cls-1" d="m95.7,125.22c-.3.3.9.4.9.4.8,0,1.7-.2,2.5-.3-.5-.1-1-.1-1.5-.2-.4-.1-1.6-.3-1.9.1Z"/>
  <path class="cls-1" d="m93.5,127.92c-.4.3-.2,1.5-.1,1.9.1.5.1,1,.2,1.5.1-.8.3-1.7.3-2.5,0-.1-.1-1.3-.4-.9Z"/>
  <path class="cls-1" d="m99,121.82c-.4.3-.2,1.5-.1,1.9.1.5.1,1,.2,1.5.1-.8.3-1.7.3-2.5,0,0-.1-1.2-.4-.9Z"/>
  <path class="cls-1" d="m115.8,120.92c.3.3.4-.9.4-.9,0-.8-.2-1.7-.3-2.5-.1.5-.1,1-.2,1.5,0,.4-.3,1.6.1,1.9Z"/>
  <path class="cls-1" d="m113.9,125.22c-.3-.4-1.5-.2-1.9-.1-.5.1-1,.1-1.5.2.8.1,1.7.3,2.5.3.1,0,1.3-.1.9-.4Z"/>
  <path class="cls-1" d="m108.4,131.22c-.3-.4-1.5-.2-1.9-.1-.5.1-1,.1-1.5.2.8.1,1.7.3,2.5.3,0,0,1.2-.1.9-.4Z"/>
  <path class="cls-1" d="m107.1,125.22c-.3.3.9.4.9.4.8,0,1.7-.2,2.5-.3-.5-.1-1-.1-1.5-.2-.4-.1-1.6-.3-1.9.1Z"/>
  <path class="cls-1" d="m110.4,121.82c-.4.3-.2,1.5-.1,1.9.1.5.1,1,.2,1.5.1-.8.3-1.7.3-2.5,0,0-.1-1.2-.4-.9Z"/>
  <path class="cls-1" d="m115.8,114.12c-.4.3-.2,1.5-.1,1.9.1.5.1,1,.2,1.5.1-.8.3-1.7.3-2.5,0,0-.1-1.2-.4-.9Z"/>
  <path class="cls-1" d="m112.5,117.42c-.3.3.9.4.9.4.8,0,1.7-.2,2.5-.3-.5-.1-1-.1-1.5-.2-.4-.1-1.6-.3-1.9.1Z"/>
  <path class="cls-1" d="m110.4,128.72c.3.3.4-.9.4-.9,0-.8-.2-1.7-.3-2.5-.1.5-.1,1-.2,1.5,0,.4-.3,1.6.1,1.9Z"/>
  <path class="cls-1" d="m119.3,117.42c-.3-.4-1.5-.2-1.9-.1-.5.1-1,.1-1.5.2.8.1,1.7.3,2.5.3.1,0,1.3-.1.9-.4Z"/>
  <path class="cls-1" d="m87.5,121.82c-.4.3-.2,1.5-.1,1.9.1.5.1,1,.2,1.5.1-.8.3-1.7.3-2.5,0,0-.1-1.2-.4-.9Z"/>
  <path class="cls-1" d="m93.5,134.72c.3.3.4-.9.4-.9,0-.8-.2-1.7-.3-2.5-.1.5-.1,1-.2,1.5-.1.4-.3,1.6.1,1.9Z"/>
  <path class="cls-1" d="m91,125.22c-.3-.4-1.5-.2-1.9-.1-.5.1-1,.1-1.5.2.8.1,1.7.3,2.5.3,0,0,1.2-.1.9-.4Z"/>
  <path class="cls-1" d="m90.1,131.22c-.3.3.9.4.9.4.8,0,1.7-.2,2.5-.3-.5-.1-1-.1-1.5-.2-.4-.1-1.6-.3-1.9.1Z"/>
  <path class="cls-1" d="m84.2,125.22c-.3.3.9.4.9.4.8,0,1.7-.2,2.5-.3-.5-.1-1-.1-1.5-.2-.5-.1-1.7-.3-1.9.1Z"/>
  <path class="cls-1" d="m78,46.42c.1-.2.3-.6.4-.8,0,.1-.2.3-.4.8Z"/>
  <path class="cls-1" d="m67.5,20.72s3.3-3.2,3.5-5-1.3-6.6.8-8.4c1-.9,1,6.1,2,5.7.4-.1,1.7-1.2,2.1-3.2.9-4.9,2.2-9.5,3.7-9.8,2.3-.4-.5,7.1,1.2,6.3,1.7-.9,5.2-4,7.8-5.7,2.5-1.6,4.3,1.1-.5,4.5-4.8,3.4-6.6,4.7-5.1,5.1,1.5.5,7-1.8,6.9-.3-.2,2.6-7.3,3.4-10.7,3.9-3.4.4-3,1.8-1.3,1.8,1.8,0,4.3.1,3.2,1.3-.8.8-6,.4-7.3,1.6s-4.3,3.1-4.3,3.1l-2-.9Z"/>
  <path class="cls-1" d="m79.2,29.72s4.4-1.4,5.4-2.9,1.9-6.4,4.5-7.1c1.3-.3-1.9,5.8-.8,6,.4.1,2.1-.3,3.3-1.9,3-3.9,6.3-7.4,7.8-7,2.3.7-3.7,6.1-1.8,6.1s6.5-1.2,9.6-1.5c2.9-.3,3.3,2.9-2.5,3.7-5.8.8-8,1.1-6.9,2.2s7.1,1.6,6.3,2.9c-1.4,2.2-8.1-.3-11.3-1.5-3.2-1.2-3.5.2-1.9,1s3.8,2,2.3,2.6c-1,.4-5.5-2.4-7.2-1.9-1.7.4-5.3.8-5.3.8l-1.5-1.5Z"/>
  <path class="cls-1" d="m20.5,47.22c-3,0-6-1.7-7.5-4.3-1.3-2.1-1.7-5.1-.9-7.5,1.1-3.3,4.2-5.2,7.3-6.1,1.5-.4,3.1-.6,4.6-.6,1.3,0,2.5-.3,3.7-.9,4-2,5.6-6.3,6.7-10.3-.2,2.9-.7,5.7-2.3,8.2-1.6,2.6-4.4,4.6-7.5,4.8-.9.1-1.8.1-2.7.2-1.7.2-3.3.7-4.8,1.5-1.3.7-2.5,1.8-3.2,3.2-.6,1.1-.6,2.3-.7,3.6.2,1.9.7,3.7,2,5.2,1.4,1.5,3.4,2.6,5.3,3Z"/>
  <g>
    <path class="cls-1" d="m16.7,126.42c0-1.7.3-3.1.8-4.3-.3-.9-.2-2,.2-3.1.7-2.3,3.6-9.7-2.9-12,1.8,3.4.1,7.5-2,10.4-.5-7.4-5.9-10-8.5-8.7,3.1,2.5,4.2,9.5,4.2,9.5,0,0-6.5-4.4-8.5-1.3,4.5,1.3,14.1,8.2,11.5,18.8,4.5-3.2,5.3-6.5,5.3-6.5,0,0,.1,0,.2.1-.3-.9-.3-1.8-.3-2.9Z"/>
    <path class="cls-1" d="m42.7,112.72c-3.5,2.7-8.4,6.1-11.7,8.2-2.7,1.7-9.2,3.8-11.5,3.1-.4-.1-.8-.3-1.1-.5-.2.9-.4,1.8-.4,3,0,1.3.1,2.4.3,3.3,2.5.8,7.8,1.9,14.1.9,5.7-1,12.1-3.9,16.3-6.7-2.5-3.6-4.5-7.3-6-11.3Zm-19.4,13.7c-.6,0-1.1.1-1.7.1-.8,0-1.3-.1-1.3-.1-.3,0-.6-.4-.6-.7s.4-.6.7-.6h1.1c.5,0,1,0,1.6-.1.3,0,.7.2.7.6.2.5-.1.8-.5.8Zm6.6-1.3c-.9.3-1.9.6-2.8.8h-.1c-.3,0-.6-.2-.6-.5-.1-.3.1-.7.5-.8.9-.2,1.8-.4,2.7-.7.3-.1.7.1.8.4.1.3-.1.6-.5.8Zm6.2-2.7c-.8.4-1.7.8-2.6,1.2-.1,0-.2.1-.3.1-.2,0-.5-.1-.6-.4s0-.7.3-.8c.9-.4,1.7-.8,2.5-1.2.3-.2.7,0,.9.3.3.3.1.7-.2.8Zm5.7-3.6c-.7.6-1.5,1.1-2.3,1.7-.1.1-.2.1-.3.1-.2,0-.4-.1-.5-.3-.2-.3-.1-.7.2-.9.8-.5,1.6-1.1,2.2-1.6.3-.2.7-.2.9.1.1.3.1.7-.2.9Z"/>
  </g>
  <g>
    <path class="cls-1" d="m158.5,167.52c-.4,0-.7.1-1.2.1-.7.1-1.2.2-1.2.2l.2-.2c-.6,0-1.2-.1-1.9-.1-2.8-.3-4.8-1.4-6.1-2.5-3.5-1.1-10.1-2.2-14,4.1,5.8-2.4,12-.5,12-.5,0,0-10.9,1.6-11.1,6.8,3.9-1.3,12-2.3,12-2.3,0,0-8.2,3.1-8.4,8.9,7.5-5.1,19.8-12.9,28.6-11.7-3.3-2.5-6.7-2.9-8.9-2.8Z"/>
    <path class="cls-1" d="m165.4,145.12c-.5-.7-1-1.3-1.4-2-5.2,2.2-10.6,3.5-16.1,3.5-.7,0-1.5,0-2.2-.1,2.1,3.3,5.6,7.8,10.7,9.6-1.9,2.4-4.3,7.1-5.2,8.9,1,.5,2.1.9,3.6,1,1.1.1,2,.1,2.9.1,3.2-3.8,11.4-13.4,13-14.9,1.6-1.8-3.2-3.4-5.3-6.1Z"/>
  </g>
  <g>
    <path class="cls-1" d="m54.7,65.32c-.2,0-.5.1-.7,0,.3.3.6.7.8,1h.2c.1-.4.2-.9.3-1.3-.1.1-.4.2-.6.3Z"/>
    <path class="cls-1" d="m69.8,62.02c-.2.1-.4.2-.7.3-.2,0-.5.1-.7,0,.3.3.6.7.8,1h.2v.2c.1-.5.2-1,.4-1.5Z"/>
    <path class="cls-1" d="m56,69.12c0,.1,0,.2.1.3.3,1.1.9,2.2,1.7,3.1,1.7,1.7,4.1,2.5,6.4,2,1.8-.4,3.4-1.4,4.4-3,1-1.4,1.3-3.2,1-4.9,0-.1-.1-.2-.1-.3s0-.2-.1-.3c-.3-1.1-.9-2.2-1.7-3.1-1.7-1.7-4.1-2.5-6.4-2-1.8.4-3.4,1.4-4.4,3-1,1.5-1.3,3.2-1,4.9,0,0,.1.2.1.3Zm5.5-7.2c2-.4,4,.2,5.5,1.7.8.8,1.3,1.8,1.5,2.9.7,3.2-1.4,6.3-4.6,7-2,.4-4-.2-5.4-1.7-.8-.8-1.3-1.8-1.5-2.9-.7-3.2,1.4-6.3,4.5-7Z"/>
    <path class="cls-1" d="m59.2,71.12c1.2,1.2,2.9,1.8,4.6,1.4,2.7-.6,4.4-3.2,3.8-5.9-.2-.9-.6-1.8-1.3-2.4-1.2-1.2-2.9-1.8-4.6-1.4-2.7.6-4.4,3.2-3.8,5.9.2.9.6,1.7,1.3,2.4Zm.2-5.6c.6-.9,1.5-1.5,2.5-1.7,1.3-.3,2.7.1,3.7,1.1.5.5.9,1.2,1,1.9.2,1,0,2.1-.6,3s-1.5,1.5-2.5,1.7c-1.3.3-2.7-.1-3.7-1.1-.5-.5-.9-1.2-1-1.9-.1-1.1.1-2.1.6-3Z"/>
    <path class="cls-1" d="m54.5,64.42c.3-.1.5-.2.6-.4.2-.2.2-.5.1-.8,0-.2-.1-.4-.3-.5-.2-.3-.6-.4-.9-.3-.5.1-.9.7-.8,1.2.2.5.8.9,1.3.8Z"/>
    <path class="cls-1" d="m63,68.72c.6-.1.9-.7.8-1.2,0-.2-.1-.4-.3-.5-.2-.3-.6-.4-.9-.3s-.5.2-.6.4c-.2.2-.2.5-.1.8,0,.5.5.9,1.1.8Z"/>
    <path class="cls-1" d="m66.9,61.02c0-.1-.1-.2-.1-.3-.1-.5,0-1,.3-1.5.3-.4.7-.7,1.2-.8.7-.1,1.3.1,1.8.6.3.3.4.6.5,1v.3c.2-.4.5-.7.9-1-.1-.4-.3-.7-.6-1-.7-.8-1.8-1.1-2.8-.9-1.4.3-2.4,1.6-2.4,3,.4.2.8.4,1.2.6Z"/>
    <path class="cls-1" d="m69.8,60.12c0-.2-.1-.4-.3-.5-.2-.3-.6-.4-.9-.3s-.5.2-.6.4c-.1.2-.2.5-.1.8.1.5.7.9,1.2.8.4-.1.8-.6.7-1.2Z"/>
    <path class="cls-1" d="m122.4,104.02c.4-.4.9-.8,1.3-1.2-.5-.3-.9-.7-1.3-1.2-.1-.1-.2-.2-.3-.4-1.4.3-2.5,1.1-3,1.5.5.4,1.7,1.2,3,1.5.1,0,.2-.1.3-.2Z"/>
    <path class="cls-1" d="m64.7,166.82s.1,0,.2-.1c-.5-.3-.9-.7-1.4-1.1-1.4-1.2-2.3-2.5-2.9-3.7-1.5-.6-3-2.2-4-3.6-1.7-2.4-6.7-10.4-13.5-5.6,4.5.6,7.2,5.2,8.5,9.3-7.4-4.7-13.6-1.4-14.3,2,4.5-1.3,12.1,2.7,12.1,2.7,0,0-8.8,3.1-7.2,7.2,4.4-3.5,17.7-7.7,26,2.2.1-6.6-3.5-9.3-3.5-9.3Z"/>
    <path class="cls-1" d="m71,107.92h.8c1.2-1.9,1.6-4.1,1.6-5-.9.1-3.1.4-5,1.6v.8c0,1-.1,1.9-.2,2.7.9-.1,1.8-.1,2.8-.1Z"/>
    <path class="cls-1" d="m60.6,69.82c.7.8,1.8,1.1,2.8.9.8-.2,1.5-.6,1.9-1.3.4-.7.6-1.5.4-2.3-.1-.6-.4-1.1-.8-1.5-.7-.8-1.8-1.1-2.8-.9-.8.2-1.5.6-1.9,1.3-.4.7-.6,1.5-.4,2.3.1.5.4,1.1.8,1.5Zm.5-3.2c.3-.4.7-.7,1.2-.8.7-.1,1.3.1,1.8.6.3.3.4.6.5,1,.2,1.1-.5,2.1-1.5,2.3-.7.1-1.3-.1-1.8-.6-.3-.3-.4-.6-.5-1-.1-.5,0-1.1.3-1.5Z"/>
    <path class="cls-1" d="m62.1,113.62h-.1c-.2.1-.5.1-.7.1l-.7.1h-1l-1-.1,1-.1,1-.2.2-.1h-1c-1.1,0-2.1-.2-2.9-.3-.8-.2-1.3-.3-1.3-.3h1.3c.8,0,1.8-.1,2.8-.3.2,0,.4-.1.7-.1-.2,0-.4-.1-.7-.1-1-.2-2-.2-2.8-.2h-1.3s.5-.2,1.3-.3c.8-.2,1.8-.4,2.9-.4h1l-.2-.1-1-.2-1-.1,1-.1h1l.7.1c.2,0,.5.1.7.1h.2c-.1-.1-.1-.3-.2-.4-1.1-.4-2.6-.7-4.4-.7-2.9,0-5.4,1.9-6.2,2.5.8.7,3.3,2.5,6.2,2.5,1.8,0,3.3-.3,4.4-.7,0-.4,0-.5.1-.6Z"/>
    <path class="cls-1" d="m126.8,96.62c.1.1.3.2.4.3.4.4.8.9,1.2,1.3.3-.5.7-.9,1.2-1.3.1-.1.2-.2.4-.3-.3-1.4-1.1-2.5-1.5-3-.6.5-1.4,1.6-1.7,3Z"/>
    <path class="cls-1" d="m142.5,73.42c-.2,0-.4.2-.5.3-.2.3-.3.6-.2,1,.1.3.2.5.5.6.2.1.5.2.8.1.5-.2.9-.7.7-1.3-.2-.5-.8-.9-1.3-.7Z"/>
    <path class="cls-1" d="m130.2,103.32c.1.1.3.2.4.3l.4.3.3.3c.2.2.4.5.6.7-.3-.2-.5-.4-.8-.5l-.4-.2-.3-.2.6.6c.5.5,1,1.1,1.3,1.6s.5.8.5.8c0,0-.2-.3-.6-.7-.4-.4-1-.8-1.5-1.3-.2-.1-.4-.3-.6-.4.1.2.2.4.4.6.4.6.9,1.1,1.3,1.5s.7.6.7.6c0,0-.3-.2-.8-.5s-1.1-.7-1.6-1.2l-.6-.6.2.3.2.4c.2.3.4.5.6.7l-.4-.3-.3-.3-.3-.3-.3-.4c-.1-.1-.2-.3-.3-.4,0,0-.1.1-.1.2.4.8,1,1.7,1.8,2.5,1.3,1.3,3.3,1.7,4.1,1.8-.1-.8-.4-2.8-1.8-4.1-.8-.8-1.7-1.4-2.5-1.8h-.2Z"/>
    <path class="cls-1" d="m128.2,70.72c.5,1.8,1.7,3.3,3.3,4.2,1.1.6,2.2.9,3.4.9-.1-.3-.1-.7-.1-1-1,0-1.9-.3-2.8-.8-1.4-.8-2.4-2-2.8-3.6-.6-2-.1-4.1,1.3-5.6.4-.4.8-.7,1.2-1-.2-.3-.3-.6-.4-1-.6.3-1.1.8-1.5,1.3-1.7,1.8-2.2,4.3-1.6,6.6Z"/>
    <path class="cls-1" d="m196.1,138.92c1.6-1,2.6,9.8,3.1,14.6,1-.1,2.2-.4,3.4-.9,1-.4,1.8-.9,2.5-1.3.1-5.4.3-25.9-.8-27.9-1.3-2.4-4.2,1.9-7.4,2-3.8.1-7.6-1.9-10.5-6v-.1c-.6-1-1.1-2.1-1.5-3.2-.7-2.1-1.2-4.4-1.3-6.7.4,2.1,1.3,4.1,2.3,6,.4.8.9,1.5,1.4,2.1,6.6-14,6.3-30.1.8-44.6-.8-2.1-8.7-19.8-13.3-22.6-.9-1.4-2.1-3.3-3.2-5.1-2-3.4.5-8.2,3.4-12.1s10.6-5,10.6-6.5-2.3-.6-2.3-.6c0,0,.9-.6.1-2.2-.8-1.4-4-.7-8.5,1.9-1,1.2-1.9,2.5-2.6,3.8-1.5,2.6-2.7,5.4-3.6,8.3.7-2.9,1.6-5.7,2.8-8.4.6-1.3,1.3-2.6,2.1-3.8,1.8-5.8,9.7-6.6,11.5-7.5,1.9-.9,2.6-3.1.5-3.3-.4-1.1-4.9-1.4-8.7-.5-.8.2-1.6.4-2.4.7-3.3,2.7-5.3,7.1-6.6,11.1-1.4,4.1-2.3,8.4-2.8,12.7.2-5.9,1.3-12.1,3.5-17.6.6-1.6,1.4-3.2,2.4-4.6-2.3,1.3-4.4,3-6,5.3.3-3.1,6.2-7.8,5.3-8.9-.9-1-7.9,5.3-9.1,7.4-1.2,2-4.5,5.9-2.3,13.3-.9-1.8-2.4-7.9-3.7-6.2-1.3,1.7-.8,6,1.1,9.4.9,1.7,2.5,4,5.5,7.1,2.1,2.2,6.4,5.4,9.2,7.4-.4.1-.7.3-1,.6-2.6,2.3.1,5.8,2,7.4-2.7,1-.7,4.5.2,6,1.8,3.1,3.9,5.9,6.1,8.7-1.1-.6-2.8-1-3.4.5-.4,1,0,2.3.2,3.3.7,3.4,1.8,6.8,3,10.2-.9-.6-2-.6-2.7.3-.6.9-.6,2.3-.6,3.4,0,2.8.3,5.5.6,8.3-.7-.6-1.7-.6-2.4-.1-.6.5-.9,1.4-1.2,2.1-.8,2.4-1.1,5-1.3,7.5-.7-.9-1.7-1.3-2.8-1-1,.3-1.7,1.1-2.4,1.8-2,2.3-3.5,5-4.8,7.7,0-1.1-.2-2.4-1.2-3-.8-.5-1.7-.3-2.5.2-1.3.7-2.4,1.7-3.4,2.6-1.1,1-2.2,2.1-3.2,3.2.3-1.5.2-3.3-.9-4.5-1.1-1.3-2.9-1.1-4.4-.4s-2.9,1.5-4.4,2c-1.6.6-3.3,1.1-5,1.5-.2.1-.8.1-1.1.3-.2-.1-.4-.3-.7-.4-4.6,5.6-9.9,10.3-15.7,14-.1.1-.2.1-.3.2,5.6,3.6,15.4,8.2,21.4,9.6,12,3,23.9-.4,33.3-7.5-.4-.7-.7-1.5-.8-1.8-.7-1.7-1.1-3.6-1.1-5.4.4,1.7,1.2,3.4,2.1,4.9.3.5.7,1,1.2,1.5,2.2,2,5.5,4.3,9.5,5.2,7.3,1.9,11.1-.3,12.8-1.4Zm7.2,4c-.3.1-.5.2-.8.3-.1,0-.6.1-.7.2.1-.1.3-.4.3-.4.3-.3.5-.7.8-1,.2-.2.3-.5.5-.7-.1.5-.1,1-.1,1.6Zm0-3c-.6.2-1.2.5-1.8.7s-1.4.5-2,.6c1.6-1.8,3-3.6,3.8-5.8-.1,1.3,0,2.9,0,4.5Zm-6.7-12.6h.4c1.9-.1,3.5-1.1,4.8-1.9.3-.2.6-.4.9-.6.3,1.6.4,5.5.5,10.3-1.5.9-3.3,1.5-5.1,1.7,2.8-2.2,4.1-5.7,4.6-9.1-.9.9-1.6,1.9-2.6,2.7-.8.6-1.7,1.1-2.5,1.6.4-.8.8-1.5,1.2-2.3.3-.8.7-1.8.7-2.7-1.1,1.1-2.2,2.3-3.4,3.3-.6.5-1.2,1-1.7,1.4-.1.1-.9.6-.9.7.6-1.8,1.1-3.5,1.6-5.3.4.1.9.2,1.5.2Zm-12.2-26c-.1.3-.3.5-.6.5h-.2c-.3-.1-.5-.4-.5-.8.2-.9.4-1.8.6-2.7.1-.3.4-.6.7-.5s.6.4.5.7c-.1,1-.3,1.9-.5,2.8Zm1.1-6.5c0,.3-.3.6-.6.6h-.1c-.3,0-.6-.4-.6-.7.1-.9.2-1.9.2-2.8,0-.4.3-.6.7-.6s.6.3.6.7c0,.8-.1,1.8-.2,2.8Zm.2-9.6c.1,1,.1,1.9.1,2.9,0,.4-.3.6-.6.6-.4,0-.6-.3-.6-.6,0-.9-.1-1.9-.1-2.8,0-.4.2-.7.6-.7.3,0,.6.3.6.6Zm-.8-6.6c.2,1,.3,1.9.4,2.8,0,.3-.2.7-.6.7h-.1c-.3,0-.6-.2-.6-.6-.1-.9-.2-1.8-.4-2.8-.1-.3.2-.7.5-.7.5,0,.8.2.8.6Zm-2.1-7c.3-.1.7.1.8.5.2.9.5,1.9.7,2.8.1.3-.1.7-.5.8h-.1c-.3,0-.6-.2-.6-.5-.2-.9-.4-1.8-.7-2.7-.2-.5,0-.8.4-.9Zm-2-6.3c.3-.1.7.1.8.4.3.9.6,1.8.9,2.7.1.3-.1.7-.4.8h-.2c-.3,0-.5-.2-.6-.4-.3-.9-.6-1.8-.9-2.7-.1-.3.1-.7.4-.8Zm-2.4-6.2c.3-.1.7,0,.8.3.4.9.7,1.8,1.1,2.6.1.3,0,.7-.4.8h-.2c-.3,0-.5-.2-.6-.4-.3-.9-.7-1.7-1.1-2.6-.1-.1.1-.5.4-.7Zm-2.6-5.5c.3-.2.7,0,.9.3.3.7.7,1.4,1,2.1.1.3,0,.7-.3.8-.1,0-.2.1-.3.1-.2,0-.5-.1-.6-.4-.3-.7-.7-1.4-1-2.1-.1-.3,0-.6.3-.8Zm-4,.6c0-.6.4-1,.7-1.5.1.1.3.2.4.3.4,1.9,1.4,4.3,2.3,6.5-1-1.1-2.1-2.2-2.8-3.5-.4-.6-.6-1.2-.6-1.8Zm1.3,7.6c0-.1,0,0,0,0h0Zm4.4,8.1c-.5-.8-1-1.6-1.5-2.5-1-1.7-2.3-3.5-2.9-5.4.7,0,1.4.2,2,.4.3.1.7.2,1,.3.1,0,.2.1.3.1.4.9.7,1.6.8,1.9.8,2.7,1.6,5.5,2.1,8.3-.5-1.1-1.1-2.1-1.8-3.1Zm-3.8,32.6q0-.1,0,0,0-.1,0,0Zm-14.5,21.5c.9-1.3,4.8-7.1,5.9-8.6.9-1.3,1.9-2.8,3.2-3.7.7.7.9,2,1.2,3,.2.5.3,1.1.5,1.6-3.1,3.3-6.9,6.2-11,8,0-.1.1-.2.2-.3Zm8.2,2c-.8.5-1.7.9-2.6,1.3-.1,0-.2.1-.3.1-.2,0-.5-.1-.6-.4s0-.7.3-.8c.8-.4,1.7-.8,2.4-1.3.3-.2.7-.1.9.2.2.3.2.7-.1.9Zm-9.3,2c.9-.1,1.8-.3,2.7-.6.3-.1.7.1.8.4s-.1.7-.5.8c-.9.2-1.9.4-2.8.6h-.1c-.3,0-.6-.2-.6-.5-.1-.3.1-.7.5-.7Zm-10.3-2.2c.7-.5,1.4-1,2-1.5,1.3-1,2.5-2,3.8-3.1,1.2-1,2.5-2,3.8-2.9.1,1.8-.1,3.5-.1,5.3,0,.2-.1.8,0,1.3-1.1.4-2.2.6-3.3.9-1.9.4-4,.4-6.2,0h0Zm7.3,3.2c0,.4-.3.6-.6.7h-2.9c-.4,0-.6-.3-.6-.7s.3-.6.7-.6h2.8c.2-.1.5.2.6.6Zm-6.6-.2c0,.3-.3.6-.6.6h-.1c-.9-.1-1.9-.3-2.8-.4-.3-.1-.6-.4-.5-.7.1-.3.4-.6.7-.5.9.2,1.9.3,2.8.4.2-.1.5.2.5.6Zm-12-7.6c1.8-.1,3.6-.3,5.3-.8.8-.2,1.7-.5,2.5-.8.7-.3,1.5-.8,2.3-.9,1.3-.2.7,3.1.6,3.8-.1.8-.3,1.6-.6,2.4-.1.2-.2.4-.3.7-3.6-.8-7.2-2.4-10.4-4.3.1-.1.4-.1.6-.1Zm5.4,6.5c-.1.3-.3.5-.6.5h-.2c-.9-.2-1.9-.5-2.8-.8-.3-.1-.5-.5-.4-.8s.5-.5.8-.4c.9.3,1.8.5,2.7.7.4.1.6.4.5.8Zm-10.1-3.4c.1-.3.5-.5.8-.3,0,0,1,.4,2.6,1,.3.1.5.5.4.8s-.3.4-.6.4h-.2c-1.7-.6-2.6-1.1-2.7-1.1-.3-.1-.5-.5-.3-.8Zm-8.1,9.2c1.2-1,4.2-2,4.7-3.3.3,1.4.7,3.1,1.2,4.5.2-1.5.4-3.2.7-4.6.5,2.7,1.3,5.3,2.4,7.9,0-2.1.1-4,.4-5.8.8,2.7,1.9,5.3,3.4,7.7-.5-2.6-.7-5-.7-7.3,1,2.6,2.3,5.1,3.9,7.5,0-1.9.1-3.7.3-5.3.9,2.2,2.1,4.5,3.7,6.7-.6-2.6-.9-4.9-.9-7.1,1.1,2.5,2.6,5,4.6,7.4-.5-1.9-.7-3.6-.8-5.2,1.3,1.7,2.9,3.3,4.7,4.8-.6-2-.9-3.8-1-5.5,1.1,1.6,2.4,3.2,4.1,4.7-.8-2.4-1.2-4.6-1.2-6.5,1.2,1.6,2.8,3.2,4.7,4.8-.2-.4-.6-3.1-1-4.6,1,.8,3.3,3.5,3.3,3.5,0,0-.9-2.8-1.2-4,1.1.8,2.8,2.4,3.3,2.8-.3-1.4-.7-2.9-1.3-4,1.5.6,2.8,1.9,4,3.5-.5-1.4-.8-2.6-1.1-3.9,1.3,1,3.9,2,5.1,3.6-6.5,6.3-32.4,11.1-45.3-2.3Zm49-11.6c-.7.7-1.4,1.3-2.2,1.9-.1.1-.3.1-.4.1-.2,0-.4-.1-.5-.2-.2-.3-.2-.7.1-.9.7-.6,1.4-1.2,2.1-1.8.3-.2.7-.2.9,0,.2.2.2.6,0,.9Zm-1.1-7.5c.3-1.1.6-2.3.8-3.4.6-2.6,1.1-5.2,1.9-7.7.7,1.2,1.3,2.5,2,3.8,0,0,0,.1.1.1-.4.9-.9,1.7-1.4,2.6-1,1.6-2.1,3.1-3.4,4.6Zm5.5,2.5c-.6.8-1.2,1.5-1.8,2.2-.1.1-.3.2-.5.2-.1,0-.3-.1-.4-.2-.3-.2-.3-.6-.1-.9.6-.7,1.2-1.4,1.7-2.2.2-.3.6-.3.9-.1.4.3.4.7.2,1Zm.1-13.4c-.1-1.6-.2-3.2-.3-4.9-.1-1.5-.2-3-.2-4.5v-2.2c0-.7,0-1.5.3-2.1.7.3,1.2,1.2,1.7,1.8.6.8,1.1,1.6,1.6,2.4.1.1.2.2.2.3-.6,3.7-1.6,7.3-3.1,10.8-.1-.5-.2-1-.2-1.6Zm3.5,7.7c-.4.9-.9,1.7-1.4,2.5-.1.2-.3.3-.5.3-.1,0-.2,0-.3-.1-.3-.2-.4-.6-.2-.9.5-.8.9-1.6,1.4-2.4.2-.3.5-.4.9-.3.1.2.2.6.1.9Zm0-19.1c-.1-.3-.1-.6-.2-1-.3-1.3-.6-2.6-.9-3.9-.8-3.4-1.8-6.8-2.4-10.3,0-.2-.1-.4-.1-.6,1.1.4,2.2,1.1,3.2,1.7.7,4.6.9,9.4.4,14.1Zm1,16h-.2c-.3-.1-.5-.5-.3-.8.4-.9.7-1.7,1-2.6.1-.3.5-.5.8-.4s.5.5.4.8c-.3.9-.6,1.8-1,2.7-.2.2-.4.3-.7.3Zm4.9,18.6c-.4.3-.7.5-1.1.7-.2.1-.5.4-.7.4.1,0,.4-.7.5-.7.2-.4.4-.8.6-1.2.4-.9.6-1.8.8-2.7-1.3,1.3-2.7,2.3-4.1,3.5.6-1.7,1.1-3.4,1.6-5.2.1-.4.2-.9.3-1.4,2.5,3.9,6,6.3,9.8,7-.6.9-1.2,1.8-2,2.6-.5.6-1.1,1.2-1.7,1.7-.2.2-.5.4-.7.6-.1.1-.4.4-.5.4.8-2.1,1.2-4.1,1.3-6.3-1,.9-2,1.8-3.2,2.5.5-1.2.9-2.4,1.3-3.7-.7.7-1.4,1.2-2.2,1.8Z"/>
    <path class="cls-1" d="m130.1,70.22c.4,1.3,1.2,2.4,2.4,3,.7.4,1.5.6,2.3.6,0-.3.1-.7.1-1-1.7,0-3.4-1.1-3.9-2.9-.4-1.3,0-2.7.9-3.8.3-.3.6-.5.9-.7-.2-.2-.4-.5-.6-.8-.4.2-.7.5-1,.8-1.1,1.3-1.5,3.1-1.1,4.8Z"/>
    <path class="cls-1" d="m206.6,151.92c-.9.6-2,1.3-3.4,1.9-2.7,1.2-5.1,1.2-6.8.9-4.1,1.2-8.8,5.4-9.1,10.8,2.5-4.1,9.9-6.4,9.9-6.4,0,0-8.9,5.3-6.1,13.1,3-6.1,8.3-9,8.3-9,0,0-3.5,6.1-.5,10.6,1.7-7.2,9.6-21.1,18.1-21.7-4.9-1.6-8.5-.9-10.4-.2Z"/>
    <path class="cls-1" d="m134.2,101.72c-.4.4-.9.8-1.3,1.2.5.3.9.7,1.3,1.2.1.1.2.2.3.4,1.4-.3,2.5-1.1,3-1.5-.5-.4-1.7-1.2-3-1.5-.1,0-.2.1-.3.2Z"/>
    <path class="cls-1" d="m136,84.02c.4,1.4,1.8,2.3,3.2,2.2.1-.4.3-.8.5-1.2-.1.1-.2.1-.3.1-1,.3-2.1-.3-2.4-1.4-.2-.7,0-1.4.4-1.9.2-.3.6-.5.9-.6.1,0,.2,0,.3-.1l.1.1c-.4-.2-.9-.5-1.2-.9-.3.2-.7.4-.9.7-.6.9-.9,2-.6,3Z"/>
    <path class="cls-1" d="m135.3,77.22c-.6.3-1.1.8-1.5,1.3-1.6,1.8-2.2,4.3-1.6,6.6.9,3.1,3.7,5.1,6.7,5.1-.1-.3-.1-.7-.1-1-1,0-1.9-.3-2.8-.8-1.4-.8-2.4-2.1-2.8-3.6-.6-2-.1-4.1,1.3-5.6.4-.4.8-.7,1.2-1-.3-.5-.5-1.1-.7-1.6.2.1.2.4.3.6Z"/>
    <path class="cls-1" d="m136.9,69.02c.3-.3.6-.6,1-.9v-.2h.2c-.5,0-1.1-.1-1.6-.3.1.2.3.4.3.7.1.2.1.5.1.7Z"/>
    <path class="cls-1" d="m134.2,68.12c-.2.3-.3.6-.2,1,.1.3.2.5.5.6.2.1.5.2.8.1.5-.2.9-.7.7-1.3-.2-.5-.7-.9-1.3-.7-.2.1-.4.2-.5.3Z"/>
    <path class="cls-1" d="m138.2,82.52c-.2.3-.3.6-.2,1,.2.5.7.9,1.3.7.5-.2.9-.7.7-1.3-.1-.3-.2-.5-.5-.6-.2-.1-.5-.2-.8-.1-.2,0-.4.1-.5.3Z"/>
    <path class="cls-1" d="m140.9,83.32c.3-.3.6-.6,1-.9v-.2c-.4,0-.9-.1-1.3-.3.1.2.3.4.3.6v.8Z"/>
    <path class="cls-1" d="m66.6,110.32c-.1.1-.1.2-.2.3h.1c.2-.1.4-.1.7-.1l.7-.1h1l1,.1-1,.1-1,.2-.2.1h1c1.1,0,2.1.2,2.9.3.8.2,1.3.3,1.3.3h-1.3c-.8,0-1.8.1-2.8.3-.2,0-.4.1-.7.1.2,0,.4.1.7.1,1,.2,2,.2,2.8.2h1.3s-.5.2-1.3.3c-.8.2-1.8.4-2.9.4h-1l.2.1,1,.2,1,.1-1,.1h-1l-.7-.1c-.2,0-.5-.1-.7-.1h-.2c.1.1.1.3.2.4,1.1.4,2.6.7,4.4.7,2.9,0,5.4-1.9,6.2-2.5-.8-.7-3.3-2.5-6.2-2.5-1.7.3-3.2.6-4.3,1Z"/>
    <path class="cls-1" d="m134.1,84.52c.4,1.3,1.2,2.4,2.4,3,.7.4,1.5.6,2.3.6,0-.3.1-.7.1-1-1.7,0-3.4-1.1-3.9-2.9-.4-1.3,0-2.7.9-3.8.3-.3.6-.5.9-.7-.2-.3-.4-.5-.6-.8-.4.2-.7.5-1,.8-1.1,1.4-1.5,3.1-1.1,4.8Z"/>
    <path class="cls-1" d="m132,69.62c.4,1.4,1.8,2.3,3.2,2.2.1-.4.3-.8.5-1.2-.1,0-.2.1-.3.1-.5.1-1,.1-1.5-.2-.5-.3-.8-.7-.9-1.2-.2-.7,0-1.3.4-1.9.2-.3.6-.5.9-.6.1,0,.2,0,.3-.1-.4-.2-.8-.5-1.1-.8-.3.2-.7.4-.9.7-.6,1-.9,2-.6,3Z"/>
    <path class="cls-1" d="m71,116.42c-1,0-1.9-.1-2.7-.2.1.9.2,1.8.2,2.7v.8c1.9,1.2,4.1,1.6,5,1.6-.1-.9-.4-3.1-1.6-5-.4,0-.7.1-.9.1Z"/>
    <path class="cls-1" d="m126.5,102.52c-.1-.1-.3-.2-.4-.3l-.4-.3-.3-.3c-.2-.2-.4-.5-.6-.7.3.2.5.4.8.5l.4.2.3.2-.6-.6c-.5-.5-1-1.1-1.3-1.6s-.5-.8-.5-.8c0,0,.2.3.6.7.4.4,1,.8,1.5,1.2.2.1.4.2.6.4-.1-.2-.2-.4-.4-.6-.4-.6-.9-1.1-1.3-1.5s-.7-.6-.7-.6c0,0,.3.2.8.5s1.1.7,1.6,1.2l.6.6-.2-.3-.4-.6-.4-.5.5.4.5.5.3.4c.1.1.2.3.3.4,0-.1.1-.1.1-.2-.3-.7-.9-1.6-1.8-2.5-1.3-1.3-3.3-1.7-4.1-1.8.1.8.4,2.8,1.8,4.1.8.8,1.7,1.4,2.5,1.8.1.1.2.1.2.1Z"/>
    <path class="cls-1" d="m65.7,114.32v.1c.1.2.1.4.1.7l.1.7v1l-.1,1-.1-1-.2-1-.1-.2v1c0,1.1-.2,2.1-.3,2.9-.2.8-.3,1.3-.3,1.3v-1.3c0-.8-.1-1.8-.3-2.8,0-.2-.1-.4-.1-.7,0,.2-.1.4-.1.7-.2,1-.2,2-.2,2.8v1.3s-.2-.5-.3-1.3c-.2-.8-.4-1.8-.4-2.9v-1l-.1.2-.2,1-.1,1-.1-1v-1l.1-.7c0-.2.1-.5.1-.7v-.2c-.1.1-.3.1-.4.2-.4,1.1-.7,2.6-.7,4.4,0,2.9,1.9,5.4,2.5,6.2.7-.8,2.5-3.3,2.5-6.2,0-1.8-.3-3.3-.7-4.4-.4,0-.5-.1-.6-.1Z"/>
    <path class="cls-1" d="m127.5,103.92c.5.5,1.4.5,2,0,.5-.5.5-1.4,0-2-.3-.3-.6-.4-1-.4s-.7.1-1,.4c-.6.5-.6,1.4,0,2Z"/>
    <path class="cls-1" d="m57.4,116.42h-.8c-1.2,1.9-1.6,4.1-1.6,5,.9-.1,3.1-.4,5-1.6v-.8c0-.9.1-1.9.2-2.7-1,0-1.9.1-2.8.1Z"/>
    <path class="cls-1" d="m127.9,104.72c-.1.1-.2.3-.3.4l-.3.4-.3.3c-.2.2-.5.4-.7.6.2-.3.4-.5.5-.7l.2-.4.2-.3-.6.6c-.5.5-1.1,1-1.6,1.3s-.8.5-.8.5c0,0,.3-.2.7-.6.4-.4.8-1,1.2-1.5.1-.2.3-.4.4-.6-.2.1-.4.2-.5.4-.6.4-1.1.9-1.5,1.3s-.6.7-.6.7c0,0,.2-.3.5-.8s.7-1.1,1.2-1.6l.6-.6-.3.2-.4.2c-.3.2-.5.4-.7.6.2-.2.4-.5.6-.7l.3-.3.4-.3c.1-.1.3-.2.4-.3,0,0-.1-.1-.2-.1-.8.4-1.7,1-2.5,1.8-1.3,1.3-1.7,3.3-1.8,4.1.8-.1,2.8-.4,4.1-1.8.8-.8,1.4-1.7,1.8-2.5q.1-.2,0-.3Z"/>
    <path class="cls-1" d="m132.2,118.52c2.4-2.9,4.6-6,6.6-9.3,10.2-17,14.2-46-3.8-54.7-1.2-2-2.6-3.8-4.1-5.5-2.2-2.4-4.8-4.7-7.9-6-1.7-.7-4.1-1.5-5.7-.1-2.3,2.1-.3,6.2,1,8.2-3.5-2.1-8.4-4.3-12.5-2.9-1.6.5-3.1,1.9-3.6,3.5-.7,2.2.6,4.1,2.6,4.9-1.8.2-3.6.6-5.3,1-2.4.6-5.1,1.3-7,2.9-1.2,1-1.9,2.4-1.3,3.9.9,2.2,3.7,3,5.8,3.2-1.9,1.1-3.7,2.3-5.4,3.7-1.6,1.3-3.1,2.8-4.1,4.6-.6,1.1-1,2.5-.4,3.7.8,1.9,3.2,1.9,4.9,1.4-2.2,2.3-4.3,5.6-3.8,8.9.4,2.8,2.9,5.5,5.9,4.2-1,2.3-2.5,6-.8,8.4,1.3,1.7,3.4,2.6,5.5,3,.4.9.8,1.8,1.2,2.6,5.4-1.8,10.7-5.5,15.2-11,.5-.6,1-1.2,1.5-1.9-1.5-7.9-2.2-19.2,3-21.1.1,0,.2-.1.3-.1,10.3-3.4,3.1,14.6.6,18.8-1.2,1.9-2.5,3.7-3.9,5.4-4.6,5.6-10.4,10.1-17.2,11.9-.9.2-1.7.4-2.6.6.5-.6.8-1.4.9-2.1,0-.4,0-.9-.1-1.3-1-2.8-5-1.9-7.2-1.6-3.7.5-7.6.3-11.4,0,1.8-.7,4.6-2,4.7-4.3,0-2.1-2.6-2.6-4.2-3.2-1.1-.4-2.1-.9-2.9-1.7-.9-.8-1.3-1.9-1.9-2.9-.5-.9-1-1.9-1.6-2.9,1.3,1.1,2.9,2.1,4.6,2.1s3-1.4,3-3.1c0-2-.9-3.9-1.7-5.6-.9-1.8-1.9-3.5-3-5.2,1.3.8,3.1,1.3,4.6.5,1.1-.6,1.6-1.9,1.5-3.1-.1-1.7-.9-3.2-1.6-4.7-.8-1.6-1.8-3.2-2.9-4.7,1.2.7,2.7,1.3,4.1,1s2.1-1.4,2.1-2.8c0-1.5-.6-3-1.1-4.4-.7-1.7-1.4-3.3-2.2-4.9,1.2,1,2.7,2,4.3,1.6,1.7-.4,2.1-2.3,2.1-3.8,0-1.8-.5-3.6-1-5.4q0-.1-.1-.2c-.5,0-1,.1-1.5.1h-1.1c.2.7.3,1.5.5,2.2.3,1.3.6,3,.2,4.3-1.2-.3-2.3-1.5-3.3-2.2-1.2-1-3.6-3.1-3.6-3.1.3-.9.6-1.6,1-2.4-.4-.2-.8-.3-1.2-.5-2.1-1.1-4.2-3-4.4-5.5,1.1,3.6,5.4,5.1,8.8,5.5,3.2.4,7,.1,9.7-1.9-5.7-3.3-11.4-6.5-16.9-10.1,2.7,1,5.3,2.2,7.9,3.4.3-2,.3-4,0-6,.5.5,1,1,1.4,1.5,1.6,1.9,3,4.3,3.3,6.8,1,.5,2,1,3,1.6,0-1.2-.1-2.4-.5-3.5-1.2-3.9-4.2-7.1-7.8-9-.1-.3-.2-.7-.4-1,.8-.6,1.5-1.4,2.2-2.1.5-.6,1.1-1.2,1.5-1.9.6-1.1.5-2.5-.3-3.5s-2-1.5-3.2-1.7c-2.9-.6-6,0-8.9.4-3.1-1-6.5-1-10-.4-4.2.7-12.9,5.6-13.7,6.4-.4.4-.3.9-.1,1.4l.6.6c1.2.9,2.4,1.7,3.8,2.3-1.5-.3-3-.7-4.4-1.3-.1,0-.2-.1-.4-.2-.6.2-1.4.5-2,.7-.9.3-.7,2-.7,2.5.1.2.3.3.4.5,1.3,1.1,2.9,2,4.5,2.6-1.6-.2-3.2-.6-4.7-1.2-.4-.2-1.2-.5-1.8-1-2.7,1.2-8,3.7-9.9,4.3-2.5.8-7.7,3.6-9.4,4.1-1.7.5-3,2.7-3,6.3s3.3,7.5,4.2,8c.6.3-.9-2.5.2-2.7s4.5,4.5,5,3.1c.9-2.4,1.5-7,2.6-7.4s1.6,3.8,2.7,3.4,2.4-6.6,3.6-6.9c1.3-.2,0,4.3,1.1,4s2.5-4.2,2.8-3.8,1.1.3,1.8-.6c.6-.9,1.6-.4,1.5,1.3-.1,1.7.8.9,1.8-.1.9-1.1,3.1-3.8,4.2-2.4s-.3,3.9-2.5,5.5-4.9.5-5.7,1.1c-.8.6-1.9,4.1-3.6,4.4-1.8.3-1.3-2.4-2.1-2.4-.8-.1-2.3,4.2-3.4,4.5-1.1.2-1.2-1.5-1.8-1.5-.5,0-.5,1.9-1.5,3.2-1,1.3-4.1,1.5-5.5.8-1.4-.6-2.4-2-1.7,1.4.6,3.5,5.6,2.5,6.1,4.1s-5.8,2.8-6,7.5,9.3,4.2,9.3,4.2c0,0-2.5-1.7-3.9-4.1s3.8-6.3,3.8-6.3c0,0,.3,1.3.9,3.1s2.4-.5,2.7-2.7c.3-2.2,2.7-3.4,8.2-7,2.6-1.7,5.3-2.9,8-3.8.8-.4,1.6-.9,2.4-1.3,2.8-1.6,5.5-3.2,8.1-4.9.2-.1.3-.2.5-.3-1.9,1.6-3.8,3.1-5.8,4.6-1.4,1.1-2.8,2.1-4.3,3.1-.2.1-.4.3-.6.4-6.4,10.2-11.3,22-12.5,33.9-1.9,18.6,6.4,36,23,44.9.3-2.6.5-5.3.8-7.9.2,2.9.4,5.8.6,8.7.3,4.1.5,8.8.5,13.3,0,3.8-1.3,10.5-3.5,12.2-.3.3-.7.4-1,.5.5.8,1.2,1.7,2.2,2.5.7.6,1.3,1,1.9,1.4,2.6-1.4,7.9-4.7,11.1-10.2,2.5-4.3,3.4-8.9,3.6-13.2-.1-.5,0-1.1.1-1.5v-.4c.1-1.5-.1-3.1-.4-4.5-.7-2.8-2-5.8-4.2-7.7,2.5,1.6,4.1,4.4,5.2,7.2.6,1.5.9,3,1.1,4.5,0,.2,0,.4.1.6,12.3,1.3,24-2.1,34.1-8.6,5.3-3.7,10.5-8.3,14.9-13.7Zm-58.6-20.8c1.4,2.2,3.7,3.3,6.1,4.2-1,1-2.1,1.9-3.1,3-1.8-1.8-3.2-3.9-4.1-6.2-.9-2.2-1.3-4.7-1.4-7.2.3,1,.6,1.9,1,2.9.5,1.1.9,2.2,1.5,3.3Zm-8.1-11c0,.4.1,1.1-.4,1.3-.5.2-.8-.3-.9-.7-.2-1,.2-2.2.6-3.2-.8.4-1.6.6-2.5.6-.4,0-1.1.1-1.3-.4-.2-.5.3-.8.7-.9,1-.2,2.2.2,3.2.6-.5-.9-.8-2.1-.6-3.2.1-.4.4-.9.9-.7.5.2.4.9.4,1.4-.1.9-.3,1.7-.6,2.5.9-.5,2.1-.8,3.2-.6.4.1.9.4.7.9-.2.5-.9.4-1.4.4-.9-.1-1.7-.3-2.5-.6.2.9.4,1.8.5,2.6Zm-11.2,15.9v-.4h.4c.1,0,3.3.1,5.9,1.9l.2.1v.2c0,.4-.1.7-.1.9,0,1.1.1,2.1.3,3.1l.1.5-.5-.1c-.9-.2-2-.3-3.1-.3-.3,0-.6,0-.9.1h-.2l-.1-.2c-1.9-2.6-2-5.7-2-5.8Zm.8,5.4c0,.4-.3.7-.7.7s-.7-.3-.7-.7.3-.7.7-.7.7.3.7.7Zm4.3-5.8c0-.4.3-.7.7-.7s.7.3.7.7-.3.7-.7.7-.7-.3-.7-.7Zm1.5-10.8c-.9-.1-1.7-.3-2.5-.6.4.8.6,1.6.6,2.5,0,.4.1,1.1-.4,1.3-.5.2-.8-.3-.9-.7-.2-1,.2-2.2.6-3.2-.8.4-1.6.6-2.5.6-.4,0-1.1.1-1.3-.4-.2-.5.3-.8.7-.9,1-.2,2.2.2,3.2.6-.5-.9-.8-2.1-.6-3.2.1-.4.4-.9.9-.7.5.2.4.9.4,1.4-.1.9-.3,1.7-.6,2.5.9-.5,2.1-.8,3.2-.6.4.1.9.4.7.9-.3.6-1,.5-1.5.5Zm-7.5-5.4c0,.4.1,1.1-.4,1.3-.5.2-.8-.3-.9-.7-.2-1,.2-2.2.6-3.2-.8.4-1.6.6-2.5.6-.4,0-1,.1-1.3-.3s0-.8.4-.9c1.1-.3,2.4.1,3.3.6-.5-.9-.8-2.1-.6-3.2.1-.4.4-.9.9-.7.5.2.4.9.4,1.4-.1.9-.3,1.7-.6,2.5.9-.5,2.1-.8,3.2-.6.4.1.9.4.7.9-.2.5-.9.4-1.4.4-.9-.1-1.7-.3-2.5-.6.4.8.6,1.6.7,2.5Zm15.7,16.2c0,.4-.3.7-.7.7s-.7-.3-.7-.7.3-.7.7-.7c.4,0,.7.3.7.7Zm-1.3,3.2c0-.3,0-.6-.1-.9v-.2l.2-.1c2.6-1.8,5.7-1.9,5.9-1.9h.4v.4c0,.1-.1,3.3-1.9,5.9l-.1.2h-.2c-.3,0-.6-.1-.9-.1-1.1,0-2.1.1-3.1.3l-.5.1.1-.5c.1-1.1.2-2.2.2-3.2Zm6.3,1.9c.4,0,.7.3.7.7s-.3.7-.7.7-.7-.3-.7-.7.3-.7.7-.7Zm2.2-21.6c.5,1.3,1.1,2.7,1.1,4.1-1.2-.1-2.5-.8-3.6-1.3-.5-.2-.9-.5-1.4-.7-.2-.1-.7-.4-1.2-.6.2-3.5.8-7.1,1.3-10.5.3.6.5,1.3.7,1.9.4,1,.9,2,1.3,3,.7,1.3,1.2,2.7,1.8,4.1Zm-4-20.5c-.1.8-.2,1.5-.2,2.3-.3-.5-.5-1.1-.6-1.6-.3-1.5,0-3.1.8-4.4.1-.2.3-.4.4-.6-.1.8-.2,1.6-.2,2.3-.3.6-.3,1.3-.2,2Zm3.7-13.5c.1.2,2.9,7.6,3.5,9.1.5,1.3,1,2.8,1.1,4.2-1.1,0-2.4-.6-3.4-1-.7-.3-1.4-.6-2.1-.9-.2-.1-.5-.2-.7-.3.3-3.7.8-7.6,1.6-11.1Zm-1.8,13.4c.3.6,1.9,3.9,2.4,5s1,2.2,1.5,3.3c.3.7.5,1.4.7,2.2.1.4.3,1,.1,1.5-.3.2-.9,0-1.2-.1-.7-.2-1.4-.5-2-.8-.5-.2-2.4-1.1-2.9-1.3.2-.9.3-1.9.5-2.8.4-2.1.6-4.5.9-7Zm4.8-31.5c0,.3-.3.6-.6.6-.4,0-.7-.3-.6-.7v-.7c0-.3.2-.7.6-.7.3,0,.7.2.7.6-.1.5-.1.8-.1.9h0Zm-1.7-11.6c.8,0,1.6,0,2.3.1.5.1,1.5.1,1.8.6,0,.3-.2.6-.4.9-.3.6-.7,1.1-.9,1.7-.1.2-.3.4-.4.7-.9-1.6-2-3-3.1-4,.2,0,.4,0,.7,0Zm-1.4,4.1c.3-.2.7-.1.9.2.5.8,1,1.7,1.3,2.7.1.3,0,.7-.4.8h-.2c-.3,0-.5-.2-.6-.4-.3-.9-.7-1.7-1.2-2.4-.2-.3-.1-.7.2-.9Zm-5.1-4.2c.2-.3.5-.4.9-.3.9.5,1.7,1,2.5,1.6.3.2.3.6.1.9-.1.1-.3.2-.5.2-.1,0-.3,0-.4-.1-.7-.6-1.4-1.1-2.2-1.5-.4-.1-.5-.5-.4-.8Zm-5.8-1.6c1-.1,2,0,3,.1.3.1.6.4.5.7,0,.3-.3.5-.6.5h-.1c-.9-.1-1.8-.2-2.7-.1-.4,0-.7-.2-.7-.6-.1-.3.2-.6.6-.6Zm-6.6,1.5c.9-.3,1.9-.6,2.8-.9.3-.1.7.1.8.5.1.3-.1.7-.5.8-.9.2-1.7.5-2.6.8h-.2c-.3,0-.5-.2-.6-.4-.3-.3-.1-.7.3-.8Zm1.4,4.9c.5-1.7,3.2-1.9,4-.5,1.9-1.1,3.1-.5,3.6,1.5,2.3.2,1.3,3.1,1.2,3.6,0-.2-.1-.3-.1-.4-.6-1.5-1.7-2.6-3.2-3.2-.1,0-.1-.1-.2-.1-.3-.1-.7-.3-1.1-.3-1.3-.3-2.8-.3-4.2.2-2,.6-3.4,1.9-4.2,3.4-.3-3.6,2.5-5.1,4.2-4.2Zm-2.2,8.2c.2.6.7,1.1,1.3,1.3-.6.2-1.2.4-1.7.6-.1-.1-.1-.2-.2-.3-.5-1.3-.1-2.6.9-3.6-.5.6-.6,1.3-.3,2Zm5.4-1.7c-.4-1.2-1.8-1.8-3.1-1.6h.1c2.4-.8,5,.2,5.8,2.2.2.6.2,1.1.1,1.7-1,0-2.1,0-3.3.1.6-.8.8-1.6.4-2.4Zm-2.7-.2c.2.4-.1.9-.6,1-.5.2-1-.1-1.1-.5-.2-.4.1-.9.6-1,.4-.1.9.1,1.1.5Zm.9,3.8c1.6-.4,3.8-.5,5.3.2-3.2.4-6.4,1.3-9.6,1.6,1.3-1,2.8-1.5,4.3-1.8Zm2-6.7c-1-.2-1.9-.1-2.9.1-1.1.2-2.2.7-3.1,1.4-1.5,1.1-2.2,2.6-2.4,4.4-1.4-7.1,10.5-9.9,12.7-3.1-1-1.5-2.4-2.5-4.3-2.8Zm-11.1-4.5c-.2-.3-.1-.7.2-.9,0,0,1-.6,2.5-1.4.3-.2.7,0,.9.3.2.3,0,.7-.3.9-1.5.7-2.4,1.3-2.4,1.3-.1.1-.2.1-.3.1-.3,0-.5-.1-.6-.3Zm-23.8,17.1c2.4-.5-2.3,5.5-2.3,5.5,0,0-2-4.6,2.3-5.5Zm34.7,3.6c-2.3.5-4-.3-5.8-1.6-2.3-1.6-4.4-3.5-7.1-4.6-2-.8-4-1-6.1-1-1.2.1-2.4.2-3.5.7-1.7.5-3.3,1.3-4.8,2.3-2.6,1.6-4.9,3.6-7,5.7,3.4-5.2,8.7-9.6,15-10.4,2.4-.3,5,.2,7.2,1.1,1.6.7,3.1,1.6,4.4,2.7,1.4,1.1,2.6,2.3,4.1,3.3,3,2,7,.2,9.7-1.5-1.7,1.5-3.8,2.8-6.1,3.3Zm-14.4,25.3c.5-.2.8-.7.7-1.2,0-.1,0-.2-.1-.2.1-.3.3-.6.4-1h.1c.3.3.4.6.5,1,.2,1.1-.5,2.1-1.5,2.3h-.5c.2-.2.3-.5.4-.9Zm-.8,2.1c.4.1.7.1,1.1,0,1.6-.3,2.7-1.9,2.3-3.6-.1-.6-.4-1.1-.8-1.5-.1-.1-.2-.2-.4-.3.1-.3.3-.6.4-.9.2.2.4.3.6.5.5.5.9,1.2,1,1.9.4,2.1-.9,4.2-3.1,4.7-.5.1-1.1.1-1.6,0,.3-.2.4-.5.5-.8Zm-.6,1.8c.7.2,1.4.2,2.2,0,1.3-.3,2.4-1,3.1-2.1s1-2.4.7-3.7c-.2-.9-.6-1.8-1.3-2.4-.3-.3-.6-.5-.9-.8.1-.3.3-.6.4-.8.4.3.8.6,1.2.9.8.8,1.3,1.8,1.5,2.9.3,1.5,0,3.1-.8,4.4-.9,1.3-2.2,2.2-3.7,2.5-.9.2-1.8.2-2.6-.1,0-.2.1-.5.2-.8Zm-.7,1.9c1,.3,2.1.3,3.2.1,1.8-.4,3.4-1.4,4.4-3,.9-1.5,1.3-3.2,1-4.9,0-.1-.1-.2-.1-.3s0-.2-.1-.3c-.3-1.1-.9-2.2-1.7-3.1-.4-.5-.9-.8-1.5-1.1.1-.3.3-.5.4-.8.1,0,.1.1.2.1,0-.1-.1-.2-.1-.3v-.1c.4-.7.8-1.4,1.2-2.1.1,0,.2-.1.4-.1.7-.1,1.3.1,1.8.6.3.3.4.6.5,1v.3c.3-.4.5-.7.8-1-.1-.3-.3-.7-.6-.9-.6-.6-1.4-.9-2.2-.9.2-.3.4-.6.5-.9.9.1,1.7.5,2.4,1.2.3.3.5.6.7.9.3-.2.5-.4.8-.6-.2-.4-.5-.7-.8-1-.7-.7-1.6-1.2-2.5-1.4.2-.3.3-.6.5-.8,1,.3,1.9.8,2.7,1.6.4.4.7.8.9,1.3.5-.2,1.1-.4,1.7-.6-.2,0-.5.1-.7.2-.3-.6-.7-1.1-1.1-1.6-.8-.8-1.8-1.4-2.9-1.8.2-.3.3-.5.5-.8,1.1.4,2.2,1,3,1.9.4.4.7.8,1,1.3.2-1.1.6-2.2,1.2-3.2,1.1-1.8,2.9-3,5-3.4,2.3-.5,4.6.1,6.5,1.5-.1.4-.1.7-.2,1.1-1.6-1.5-3.9-2.1-6.1-1.7-1.8.4-3.4,1.4-4.4,3-.7,1-1,2.1-1.1,3.3.3,0,.7-.1,1-.1.1-1,.4-1.9.9-2.7.9-1.3,2.2-2.2,3.7-2.5,2-.4,4,.2,5.5,1.7.1.1.1.2.2.3-.1.4-.1.9-.2,1.3-.2-.3-.4-.7-.7-1-1.2-1.2-2.9-1.8-4.6-1.4-1.3.3-2.4,1-3.1,2.1-.5.7-.7,1.5-.8,2.3.3,0,.7.1,1,.2.1-1.7,1.4-3.2,3.1-3.6,1.3-.3,2.7.1,3.7,1.1.3.3.5.6.7.9.2-.2.5-.4.7-.5-.1.4-.1.8-.2,1.2-1.9,1.5-2.9,4-2.5,6.5,0,.1.1.2.1.3s0,.2.1.3c.3,1,.7,1.9,1.4,2.6,0,.4-.1.8-.2,1.2l-.2-.2c-.4-.4-.7-.8-1-1.3-.2,1.1-.6,2.2-1.2,3.2-1.2,1.8-2.9,3-5,3.4-2.7.6-5.4-.3-7.3-2.2-.4-.4-.7-.8-1-1.3-.2,1.1-.6,2.2-1.2,3.2-1.2,1.8-2.9,3-5,3.4-1.2.3-2.5.2-3.6-.1.3-.4.4-.7.5-1Zm.6,17.4c-.5.2-.8-.3-.9-.7-.2-1,.2-2.2.6-3.2-.8.4-1.6.6-2.5.6-.4,0-1.1.1-1.3-.4-.2-.5.3-.8.7-.9,1-.2,2.2.2,3.2.6-.5-.9-.8-2.1-.6-3.2.1-.4.4-.9.9-.7.5.2.4.9.4,1.4-.1.9-.3,1.7-.6,2.5.9-.5,2.1-.8,3.2-.6.4.1.9.4.7.9-.2.5-.9.4-1.4.4-.9-.1-1.7-.3-2.5-.6.4.8.6,1.6.6,2.5,0,.5,0,1.2-.5,1.4Zm1.9,2.2c-.2-.5.3-.8.7-.9,1-.2,2.2.2,3.2.6-.5-.9-.8-2.1-.6-3.2.1-.4.4-.9.9-.7.5.2.4.9.4,1.4-.1.9-.3,1.7-.6,2.5,1-.5,2.3-.9,3.3-.6.4.1.7.5.4.9-.3.4-.9.3-1.3.3-.9-.1-1.7-.3-2.5-.6.4.8.6,1.6.6,2.5,0,.4.1,1.1-.4,1.3-.5.2-.8-.3-.9-.7-.2-1,.2-2.2.6-3.2-.8.4-1.6.6-2.5.6-.3.3-1,.3-1.3-.2Zm4.6,19.2c0-.4.3-.7.7-.7s.7.3.7.7-.3.7-.7.7c-.3,0-.7-.3-.7-.7Zm6.5,6.5c-.4,0-.7-.3-.7-.7s.3-.7.7-.7.7.3.7.7c.1.4-.3.7-.7.7Zm.7-6.9c-.2,1-.3,2-.3,3.1,0,.3,0,.6.1.9v.2l-.2.1c-2.6,1.8-5.7,1.9-5.9,1.9h-.4v-.4c0-.1.1-3.3,1.9-5.9l.1-.2h.2c.3,0,.6.1.9.1,1.1,0,2.1-.1,3.1-.3l.5-.1v.6Zm13.3,5.8v.4h-.4c-.1,0-3.3-.1-5.9-1.9l-.2-.1v-.2c0-.4.1-.6.1-.9,0-1.1-.1-2.1-.3-3.1l-.1-.5.5.1c.9.2,2,.3,3.1.3.3,0,.6,0,.9-.1h.2l.1.2c1.9,2.6,2,5.7,2,5.8Zm-.7-5.4c0-.4.3-.7.7-.7s.7.3.7.7-.3.7-.7.7-.7-.3-.7-.7Zm-5,6.5c-.4,0-.7-.3-.7-.7s.3-.7.7-.7.7.3.7.7-.3.7-.7.7Zm3.3,37.2c-.3-.3-.5-.6-.8-.9-.1-.1-.4-.6-.5-.6.8.2,1.5.4,2.3.6-.3.3-.7.6-1,.9Zm1.9-2.1l-.6-.6c-.3-.4-.6-.8-.9-1.2-.1-.1-.4-.7-.5-.7,0,0,2.8.9,3.1,1-.3.6-.7,1.1-1.1,1.5Zm2.2-2.9c-.3.5-.6,1-1,1.5-1.5-1.1-2.7-2.5-3.6-4.1,1.4.8,3,1.2,4.6,1.4-.7-.5-1.4-1-2-1.6.5,0,1.1.2,1.7.2s1.2,0,1.7-.1c-.5.9-.9,1.8-1.4,2.7Zm3.3-17.5s.1,0,0,0c.2,4.5,0,9.7-1.9,14.6-1.1-.5-2.1-.9-3.1-1.5-.5-.3-1-.6-1.5-.8-.1-.1-.4-.3-.5-.3,1.8-.1,3.6-.2,5.4-.5-1.3-.3-2.6-.6-3.9-1.2-.6-.2-1.1-.5-1.7-.8-.2-.1-.7-.6-1-.6,2.2,0,4.3-.4,6.3-1.2-1.2-.6-2.4-1.2-3.5-2,1.3.1,2.6,0,3.9-.2-1.5-.7-2.8-1.6-4.1-2.7,1.7.3,3.3.3,5,0-1.6-.7-3.2-1.6-4.7-2.5,1.7.1,3.5,0,5.3-.3Zm-1.1-25c-.1.1-3.2,3-7,3-1.6,0-3-.2-4.1-.6.4,1.2.6,2.6.6,4.1,0,3.8-2.8,6.8-3,7l-.2.3-.2-.3c-.1-.1-3-3.2-3-7,0-1.6.2-3,.6-4.1-1.2.4-2.6.6-4.1.6-3.8,0-6.8-2.8-7-3l-.3-.2.3-.2c.1-.1,3.2-3,7-3,1.6,0,3,.2,4.1.6-.4-1.2-.6-2.6-.6-4.1,0-3.8,2.8-6.8,3-7l.2-.3.2.3c.1.1,3,3.2,3,7,0,1.6-.2,3-.6,4.1,1.2-.4,2.6-.6,4.1-.6,3.8,0,6.8,2.8,7,3l.3.2-.3.2Zm60.3-9.3c-.1.1-1.7,1.6-3.9,2h-.2l-.1-.2c-.2-.2-.3-.3-.4-.5-.5-.5-1.1-1-1.6-1.3l-.4-.3.4-.3c.6-.4,1.1-.8,1.6-1.3.1-.1.3-.3.4-.5l.1-.2h.2c2.2.4,3.8,1.9,3.9,2l.3.2-.3.4Zm6.8-16.9c-.2.1-.4.3-.6.5-.7.8-1,1.9-.7,2.9.1.3.3.6.4.9-.1.4-.2.8-.3,1.1-.5-.5-.9-1.1-1.1-1.8-.4-1.3,0-2.7.9-3.8.4-.4.9-.8,1.4-1,.1.4,0,.8,0,1.2Zm.3-2.3c-.9.3-1.7.8-2.3,1.4-1.2,1.3-1.6,3.1-1.1,4.7.3,1.1.9,2,1.8,2.6-.1.3-.2.6-.3,1-1.2-.8-2-2-2.4-3.3-.6-2-.1-4.1,1.3-5.6.8-.8,1.7-1.4,2.8-1.7.1,0,.2,0,.3-.1-.1.4-.1.7-.1,1Zm-.5-12.9c.1.5.2,1,.3,1.6-.3-.4-.6-.7-1-.9-.7-.4-1.5-.5-2.3-.3-.6.2-1.1.5-1.4.9-.7.8-1,1.9-.7,2.9.2.8.7,1.4,1.4,1.8s1.5.5,2.3.3c.6-.2,1.1-.5,1.4-.9.2-.3.4-.6.6-.9,0,.5.1,1,.1,1.6-.5.5-1.1.9-1.8,1.1-1,.3-2.1.2-3-.4-.9-.5-1.6-1.4-1.9-2.4-.4-1.3,0-2.7.9-3.8.5-.6,1.2-1,1.9-1.2,1-.3,2.1-.2,3,.4.1.1.1.2.2.2Zm-.7,4.7c-.2.3-.6.5-.9.6-.5.1-1,.1-1.5-.2-.5-.3-.8-.7-.9-1.2-.2-.7,0-1.4.4-1.9.3-.3.6-.5.9-.6,1-.3,2.1.3,2.4,1.4.2.7,0,1.4-.4,1.9Zm.4-6c-1-.4-2.1-.5-3.2-.2-.9.3-1.7.8-2.4,1.5-1.2,1.3-1.6,3.1-1.1,4.7.7,2.7,3.5,4.2,6.2,3.5.6-.2,1.1-.4,1.6-.8v1.1c-.4.2-.9.4-1.3.6-3.2.9-6.5-1-7.3-4.1-.6-2-.1-4.1,1.3-5.6.7-.8,1.7-1.4,2.8-1.7s2.2-.3,3.2,0c0,.3.1.7.2,1Zm-6.9-11.3c.3.2.5.4.8.7-.2.1-.4.2-.5.3-.2.3-.3.6-.2,1,.2.5.7.9,1.3.7.4-.1.6-.4.7-.8.2.3.5.5.7.8-.1.1-.1.2-.2.3-.2.3-.6.5-.9.6-1,.3-2.1-.3-2.4-1.4-.2-.7,0-1.4.4-1.9,0-.1.1-.2.3-.3Zm-1.9-1.1l.2-.2c.3.2.5.3.8.5l-.3.3c-.7.8-1,1.9-.7,2.9.2.8.7,1.4,1.4,1.8.7.4,1.5.5,2.3.3.6-.2,1.1-.5,1.4-.9l.1-.1c.2.3.4.5.6.8-.5.5-1.1.9-1.8,1.1-1,.3-2.1.2-3-.4-.9-.5-1.6-1.4-1.9-2.4-.4-1.2-.1-2.6.9-3.7Zm-.8-.7h0c-1.2,1.3-1.6,3.1-1.2,4.8.4,1.3,1.2,2.4,2.4,3,1.2.7,2.5.8,3.8.5.8-.2,1.5-.6,2.1-1.2,0,0,0,.1.1.1.1.2.3.5.4.7-.7.6-1.5,1-2.3,1.3-1.5.4-3.1.2-4.5-.5-1.4-.8-2.4-2.1-2.8-3.6-.5-1.9-.1-3.9,1.2-5.5.3.1.6.3.8.4Zm-2.7-1.2c.3.1.6.2.9.4-1.4,1.8-1.8,4-1.2,6.2,1,3.6,4.7,5.8,8.3,4.9.1,0,.2-.1.3-.1s.2-.1.3-.1c.8-.3,1.5-.7,2.2-1.2.1.3.3.6.4.9l-.1.1h.2c.1.3.3.7.4,1-.9-.2-1.8-.1-2.7.1-.1,0-.2.1-.3.1s-.2,0-.3.1c-1.1.4-2.2,1-3,1.9-1.6,1.8-2.2,4.3-1.6,6.6.5,1.8,1.7,3.3,3.3,4.2,1.5.9,3.3,1.1,5,.7.1,0,.2-.1.3-.1s.2-.1.3-.1c.2-.1.4-.2.7-.3,0,.4,0,.7-.1,1.1-.1,0-.2,0-.3.1-.1,0-.2.1-.3.1s-.2.1-.3.1c-1.1.4-2.2,1-3,1.9-1.6,1.8-2.2,4.3-1.6,6.6.5,1.7,1.6,3.2,3.1,4.1-.1.3-.2.6-.3.9-1.8-1-3.1-2.6-3.7-4.5-3.5.1-6.9-2.2-7.9-5.8-.7-2.6-.1-5.4,1.8-7.5.4-.4.8-.8,1.3-1.1-1.1-.1-2.3-.4-3.3-1-1.8-1-3.2-2.7-3.7-4.8-.7-2.6-.1-5.4,1.8-7.5.6-.6,1.2-1.1,1.9-1.6,0,.1,0,.2.1.2-.8-2.2-.3-4.7,1.1-6.6Zm-1.7,41.5l-.2.1c-.2.2-.3.3-.5.4-.5.5-1,1.1-1.3,1.6l-.3.4-.3-.4c-.4-.5-.8-1.1-1.4-1.6-.1-.1-.3-.3-.5-.4l-.2-.1v-.2c.4-2.2,1.9-3.8,2-3.9l.2-.3.2.3c.1.1,1.6,1.7,2,3.9l.3.2Zm-11.2-50.9c.1,0-.1,0,0,0-.1,0,0,0,0,0Zm-13.9,6.8c.7-1,1.9-1.4,3.1-1.4,1.7-.1,3.5.2,5.2.6.8.2,1.6.4,2.4.6-3.2.6-6,1.7-8.4,3.3-.6-.4-1.2-.9-1.7-1.4s-1-1.1-.6-1.7Zm5.4,9.9c0,.4.1,1.1-.4,1.3-.5.2-.8-.3-.9-.7-.2-1,.2-2.2.6-3.2-.8.4-1.6.6-2.5.6-.4,0-1,.1-1.3-.3s0-.8.4-.9c1.1-.3,2.4.1,3.3.6-.5-.9-.8-2.1-.6-3.2.1-.4.4-.9.9-.7.5.2.4.9.4,1.4-.1.9-.3,1.7-.6,2.5.9-.5,2.1-.8,3.2-.6.4.1.9.4.7.9-.2.5-.9.4-1.4.4-.9-.1-1.7-.3-2.5-.6.4.8.6,1.7.7,2.5Zm-6.8,1.5c.1-.4.4-.9.9-.7.5.2.4.9.4,1.4-.1.9-.3,1.7-.6,2.5.9-.5,2.1-.8,3.2-.6.4.1.9.4.7.9-.2.5-.9.4-1.4.4-.9-.1-1.7-.3-2.5-.6.4.8.6,1.6.6,2.5,0,.4.1,1.1-.4,1.3-.5.2-.8-.3-.9-.7-.2-1,.2-2.2.6-3.2-.8.4-1.6.6-2.5.6-.4,0-1.1.1-1.3-.4-.2-.5.3-.8.7-.9,1-.2,2.2.2,3.2.6-.6-.9-.9-2.1-.7-3.1Zm.7,17.3c0,.4.1,1.1-.4,1.3-.5.2-.8-.3-.9-.7-.2-1,.2-2.2.6-3.2-.8.4-1.6.6-2.5.6-.4,0-1.1.1-1.3-.4-.2-.5.3-.8.7-.9,1-.2,2.2.2,3.2.6-.5-.9-.8-2.1-.6-3.2.1-.4.4-.9.9-.7.5.2.4.9.4,1.4-.1.9-.3,1.7-.6,2.5.9-.5,2.1-.8,3.2-.6.4.1.9.4.7.9-.2.5-.9.4-1.4.4-.9-.1-1.7-.3-2.5-.6.2.9.5,1.7.5,2.6Zm-10.2-18.3q0-.1,0,0h0Zm-2.1,27.9c-.9-1-1-2.5-.6-3.8.4-1.5,1-3,1.7-4.4-.1.8-.1,1.6-.1,2.4,0,1.6.2,3.5.6,5.6-.5.2-1.3.5-1.6.2Zm1.2-12.6c-.9.1-1.8.3-2.6.3-.3,0-1.3.1-1.6-.2v-.3c0-1,.9-2,1.5-2.7,1.6-2.1,3.6-3.9,5.6-5.6-1.1,2.7-1.9,5.5-2.4,8.4-.2,0-.3,0-.5.1Zm2.2,23.6c-.9-.7-1.3-1.5-1.2-2.7.1-1.2.3-2.4.7-3.5.7,2.4,1.6,4.9,2.5,7.3-.7-.2-1.4-.6-2-1.1Zm2.5-36c-.2-.1-.3-.2-.5-.4-1-.7-2.4-1.4-3.1-2.4,1.3-1,2.9-1.6,4.4-2.2.8-.3,3.6-1.5,4.2-1.7-2.1,2-3.7,4.3-5,6.7Zm9.1,25.1c-.2.5-.9.4-1.4.4-.9-.1-1.7-.3-2.5-.6.4.8.6,1.6.6,2.5,0,.4.1,1.1-.4,1.3-.5.2-.8-.3-.9-.7-.2-1,.2-2.2.6-3.2-.8.4-1.6.6-2.5.6-.4,0-1.1.1-1.3-.4-.2-.5.3-.8.7-.9,1-.2,2.2.2,3.2.6-.5-.9-.8-2.1-.6-3.2.1-.4.4-.9.9-.7.5.2.4.9.4,1.4-.1.9-.3,1.7-.6,2.5.9-.5,2.1-.8,3.2-.6.4.2.9.5.6,1Zm6.4-5.5c-.2.5-.9.4-1.4.4-.9-.1-1.7-.3-2.5-.6.4.8.6,1.6.6,2.5,0,.4.1,1.1-.4,1.3-.5.2-.8-.3-.9-.7-.2-1,.2-2.2.6-3.2-.8.4-1.6.6-2.5.6-.4,0-1.1.1-1.3-.4-.2-.5.3-.8.7-.9,1-.2,2.2.2,3.2.6-.5-.9-.8-2.1-.6-3.2.1-.4.4-.9.9-.7.5.2.4.9.4,1.4-.1.9-.3,1.7-.6,2.5.9-.5,2.1-.8,3.2-.6.3.2.8.5.6,1Zm.3-11.3c-.2.5-.9.4-1.4.4-.9-.1-1.7-.3-2.5-.6.4.8.6,1.6.6,2.5,0,.4.1,1.1-.4,1.3-.5.2-.8-.3-.9-.7-.2-1,.2-2.2.6-3.2-.8.4-1.6.6-2.5.6-.4,0-1.1.1-1.3-.4-.2-.5.3-.8.7-.9,1-.2,2.2.2,3.2.6-.5-.9-.8-2.1-.6-3.2.1-.4.4-.9.9-.7.5.2.4.9.4,1.4-.1.9-.3,1.7-.6,2.5.9-.5,2.1-.8,3.2-.6.4.3.8.6.6,1Zm5.5-7c-.2.5-.9.4-1.4.4-.9-.1-1.7-.3-2.5-.6.4.8.6,1.6.6,2.5,0,.4.1,1.1-.4,1.3-.5.2-.8-.3-.9-.7-.2-1,.2-2.2.6-3.2-.8.4-1.6.6-2.5.6-.4,0-1.1.1-1.3-.4-.2-.5.3-.8.7-.9,1-.2,2.2.2,3.2.6-.5-.9-.8-2.1-.6-3.2.1-.4.4-.9.9-.7.5.2.4.9.4,1.4-.1.9-.3,1.7-.6,2.5.9-.5,2.1-.8,3.2-.6.4.2.9.5.6,1Zm5.5-7c-.2.5-.9.4-1.4.4-.9-.1-1.7-.3-2.5-.6.4.8.6,1.6.7,2.5,0,.4.1,1.1-.4,1.3-.5.2-.8-.3-.9-.7-.2-1,.2-2.2.6-3.2-.8.4-1.6.6-2.5.6-.4,0-1.1.1-1.3-.4-.2-.5.3-.8.7-.9,1-.2,2.2.2,3.2.6-.5-.9-.8-2.1-.6-3.2.1-.4.4-.9.9-.7.5.2.4.9.4,1.4-.1.9-.3,1.7-.7,2.5.9-.5,2.1-.8,3.2-.6.3.2.8.5.6,1Zm-2.6-8.4h-1.6c-.2-1.9-.7-3.9-.7-5.8,2.8.7,5.3,2.5,7.6,4.3.9.8,1.9,1.6,2.8,2.4-2.5-.6-5.2-.9-8.1-.9Zm-4.3,50.6c.1-.1,1.7-1.6,3.9-2h.2l.1.2c.1.2.3.3.4.5.5.5,1.1,1,1.6,1.3l.4.3-.4.3c-.6.4-1.1.8-1.6,1.3-.1.1-.3.3-.4.5l-.1.2h-.2c-2.2-.4-3.8-1.9-3.9-2l-.3-.2.3-.4Zm-16.9,14.9c1-.2,2.2.2,3.2.6-.5-.9-.8-2.1-.6-3.2.1-.4.4-.9.9-.7.5.2.4.9.4,1.4-.1.9-.3,1.7-.6,2.5.9-.5,2.1-.8,3.2-.6.4.1.9.4.7.9-.2.5-.9.4-1.4.4-.9-.1-1.7-.3-2.5-.6.4.8.6,1.6.6,2.5,0,.4.1,1.1-.4,1.3-.5.2-.8-.3-.9-.7-.2-1,.2-2.2.6-3.2-.8.4-1.6.6-2.5.6-.4,0-1.1.1-1.3-.4-.3-.4.2-.7.6-.8Zm-4.8,0c.4.1.9.4.7.9-.2.5-.9.4-1.4.4-.9-.1-1.7-.3-2.5-.6.4.8.6,1.6.6,2.5,0,.4.1,1.1-.4,1.3-.5.2-.8-.3-.9-.7-.2-1,.2-2.2.6-3.2-.8.4-1.6.6-2.5.6-.4,0-1.1.1-1.3-.4-.2-.5.3-.8.7-.9,1-.2,2.2.2,3.2.6-.5-1-.9-2.3-.6-3.3.1-.4.5-.7.9-.4.4.3.3.9.3,1.3-.1.9-.3,1.7-.6,2.5.9-.4,2.1-.8,3.2-.6Zm-6.1-9.4c.9-.1,4.7-.8,4.6.5,0,.8-.4,1.6-.6,2.3,0,0,0,.1-.1.1-2,.2-4.2.1-6.3-.3-3.1-.5-6-1.7-8.5-3.4,3.6.7,7.3,1,10.9.8Zm-7.2,13.9c-.5.2-.8-.3-.9-.7-.2-1,.2-2.2.6-3.2-.8.4-1.6.6-2.5.6-.4,0-1.1.1-1.3-.4-.2-.5.3-.8.7-.9,1-.2,2.2.2,3.2.6-.5-.9-.8-2.1-.6-3.2.1-.4.4-.9.9-.7.5.2.4.9.4,1.4-.1.9-.3,1.7-.6,2.5.9-.5,2.1-.8,3.2-.6.4.1.9.4.7.9-.2.5-.9.4-1.4.4-.9-.1-1.7-.3-2.5-.6.4.8.6,1.6.6,2.5-.1.4-.1,1.1-.5,1.4Zm4.5,7.1c-.5.2-.8-.3-.9-.7-.2-1,.2-2.2.6-3.2-.8.4-1.6.6-2.5.6-.4,0-1.1.1-1.3-.4-.2-.5.3-.8.7-.9,1-.2,2.2.2,3.2.6-.5-.9-.8-2.1-.6-3.2.1-.4.4-.9.9-.7.5.2.4.9.4,1.4-.1.9-.3,1.7-.6,2.5.9-.5,2.1-.8,3.2-.6.4.1.9.4.7.9-.2.5-.9.4-1.4.4-.9-.1-1.7-.3-2.5-.6.4.8.6,1.6.6,2.5-.1.5,0,1.2-.5,1.4Zm9.6,2.4c-.2.5-.9.4-1.4.4-.9-.1-1.7-.3-2.5-.6.4.8.6,1.6.6,2.5,0,.4.1,1.1-.4,1.3-.5.2-.8-.3-.9-.7-.2-1,.2-2.2.6-3.2-.8.4-1.6.6-2.5.6-.4,0-1.1.1-1.3-.4-.2-.5.3-.8.7-.9,1-.2,2.2.2,3.2.6-.5-.9-.8-2.1-.6-3.2.1-.4.4-.9.9-.7.5.2.4.9.4,1.4-.1.9-.3,1.7-.6,2.5.9-.5,2.1-.8,3.2-.6.3.2.8.5.6,1Zm2-2.4c-.5.2-.8-.3-.9-.7-.2-1,.2-2.2.6-3.2-.8.4-1.6.6-2.5.6-.4,0-1.1.1-1.3-.4-.2-.5.3-.8.7-.9,1-.2,2.2.2,3.2.6-.5-.9-.8-2.1-.6-3.2.1-.4.4-.9.9-.7.5.2.4.9.4,1.4-.1.9-.3,1.7-.6,2.5.9-.5,2.1-.8,3.2-.6.4.1.9.4.7.9-.2.5-.9.4-1.4.4-.9-.1-1.7-.3-2.5-.6.4.8.6,1.6.6,2.5-.1.5-.1,1.2-.5,1.4Zm9.4,2.4c-.2.5-.9.4-1.4.4-.9-.1-1.7-.3-2.5-.6.4.8.6,1.6.6,2.5,0,.4.1,1.1-.4,1.3-.5.2-.8-.3-.9-.7-.2-1,.2-2.2.6-3.2-.8.4-1.6.6-2.5.6-.4,0-1.1.1-1.3-.4-.2-.5.3-.8.7-.9,1-.2,2.2.2,3.2.6-.5-.9-.8-2.1-.6-3.2.1-.4.4-.9.9-.7.5.2.4.9.4,1.4-.1.9-.3,1.7-.6,2.5.9-.5,2.1-.8,3.2-.6.3.2.8.5.6,1Zm5.5-6c-.2.5-.9.4-1.4.4-.9-.1-1.7-.3-2.5-.6.4.8.6,1.6.6,2.5,0,.4.1,1.1-.4,1.3-.5.2-.8-.3-.9-.7-.2-1,.2-2.2.6-3.2-.8.4-1.6.6-2.5.6-.4,0-1.1.1-1.3-.4-.2-.5.3-.8.7-.9,1-.2,2.2.2,3.2.6-.5-.9-.8-2.1-.6-3.2.1-.4.4-.9.9-.7.5.2.4.9.4,1.4-.1.9-.3,1.7-.6,2.5.9-.5,2.1-.8,3.2-.6.4.2.9.5.6,1Zm5.5-7.8c-.2.5-.9.4-1.4.4-.9-.1-1.7-.3-2.5-.6.4.8.6,1.6.6,2.5,0,.4.1,1.1-.4,1.3-.5.2-.8-.3-.9-.7-.2-1,.2-2.2.6-3.2-.8.4-1.6.6-2.5.6-.4,0-1.1.1-1.3-.4-.2-.5.3-.8.7-.9,1-.2,2.2.2,3.2.6-.5-.9-.8-2.1-.6-3.2.1-.4.4-.9.9-.7.5.2.4.9.4,1.4-.1.9-.3,1.7-.6,2.5.9-.5,2.1-.8,3.2-.6.3.2.8.5.6,1Zm1.6-7.9v-.3c0-.1.1-3,2-4.9.7-.7,1.5-1.3,2.2-1.7-.7-.4-1.5-1-2.2-1.7-1.9-1.9-2-4.8-2-4.9v-.3h.3c.1,0,3,.1,4.9,2,.7.7,1.3,1.5,1.7,2.2.4-.7,1-1.4,1.7-2.2,1.9-1.9,4.8-2,4.9-2h.3v.3c0,.1-.1,3-2,4.9-.7.7-1.5,1.3-2.2,1.7.7.4,1.5,1,2.2,1.7,1.9,1.9,2,4.8,2,4.9v.3h-.3c-.1,0-3-.1-4.9-2-.7-.7-1.3-1.4-1.7-2.2-.4.7-1,1.5-1.7,2.2-1.9,1.9-4.8,2-4.9,2h-.3Zm4.7-1l.2-.1c.2-.2.3-.3.5-.4.5-.5,1-1.1,1.3-1.6l.3-.4.3.4c.4.6.8,1.1,1.3,1.6.2.2.3.3.5.4l.2.1v.2c-.4,2.2-1.9,3.8-2,3.9l-.2.3-.2-.3c-.1-.1-1.6-1.7-2-3.9l-.2-.2Z"/>
    <path class="cls-1" d="m57.4,107.92c1,0,1.9.1,2.7.2-.1-.9-.2-1.8-.2-2.7v-.8c-1.9-1.2-4.1-1.6-5-1.6.1.9.4,3.1,1.6,5,.4-.1.6-.1.9-.1Z"/>
    <path class="cls-1" d="m64.4,110.02c-1.1,0-2,.9-2,2s.9,2,2,2,2-.9,2-2-.9-2-2-2Zm0,2.9c-.5,0-.9-.4-.9-.9s.4-.9.9-.9.9.4.9.9c-.1.5-.5.9-.9.9Z"/>
    <path class="cls-1" d="m129,100.62l.3-.4.3-.3c.2-.2.5-.4.7-.6-.2.3-.4.5-.5.8l-.2.4-.2.3.6-.6c.5-.5,1.1-1,1.6-1.3s.8-.5.8-.5c0,0-.3.2-.7.6-.4.4-.8,1-1.3,1.5-.1.2-.2.4-.4.6.2-.1.4-.2.5-.4.6-.4,1.1-.9,1.5-1.3s.6-.7.6-.7c0,0-.2.3-.5.8s-.7,1.1-1.2,1.6l-.6.6.3-.2.4-.2c.3-.2.5-.4.7-.6-.2.2-.4.5-.6.7l-.3.3-.4.3c-.1.1-.3.2-.4.3.1,0,.1.1.2.1.8-.4,1.7-1,2.5-1.8,1.3-1.3,1.7-3.3,1.8-4.1-.8.1-2.8.4-4.1,1.8-.9.9-1.4,1.7-1.8,2.5q0,.1.1.2c.2-.1.2-.2.3-.4Z"/>
    <path class="cls-1" d="m62.8,110.02v-.1c-.1-.2-.1-.5-.1-.7l-.1-.7v-1l.1-1,.1,1,.2,1,.1.2v-1c0-1.1.2-2.1.3-2.9.2-.8.3-1.3.3-1.3v1.3c0,.8.1,1.8.3,2.8,0,.2.1.4.1.7,0-.2.1-.4.1-.7.2-1,.2-2,.2-2.8v-1.3s.2.5.3,1.3c.2.8.4,1.8.4,2.9v1l.1-.2.2-1,.1-1,.1,1v1l-.1.7c0,.2-.1.5-.1.7v.1h0c.1-.1.2-.1.3-.2.4-1.1.7-2.6.7-4.4,0-2.9-1.9-5.4-2.5-6.2-.7.8-2.5,3.3-2.5,6.2,0,1.8.3,3.3.7,4.4.5,0,.6.1.7.2Z"/>
    <path class="cls-1" d="m129.9,109.12c-.1-.1-.2-.2-.4-.3-.4-.4-.8-.9-1.2-1.3-.3.5-.7.9-1.2,1.3-.1.1-.2.2-.4.3.3,1.4,1.1,2.5,1.5,3,.5-.5,1.4-1.6,1.7-3Z"/>
  </g>
</svg>