<?xml version="1.0" encoding="UTF-8"?>
<svg id="_ëîé_1" data-name="—ëîé_1" xmlns="http://www.w3.org/2000/svg" viewBox="0 0 102 171.08">
  <defs>
    <style>
      .cls-1 {
        fill: #c41c2b;
        stroke-width: 0px;
      }
    </style>
  </defs>
  <g>
    <path class="cls-1" d="m37.7,81.26c.3-.4,1.5-.2,1.9-.1.5.1,1,.1,1.6.2-.8.1-1.7.3-2.5.3-.1,0-1.4-.1-1-.4Z"/>
    <path class="cls-1" d="m29.2,63.56c.4.3.2,1.5.1,1.9-.1.5-.2,1-.2,1.6-.1-.8-.3-1.7-.3-2.5,0-.1,0-1.4.4-1Z"/>
    <path class="cls-1" d="m41.3,77.86c.4.3.2,1.5.1,1.9-.1.5-.2,1-.2,1.6-.1-.8-.3-1.7-.3-2.5,0-.1.1-1.4.4-1Z"/>
    <path class="cls-1" d="m44.7,81.26c.4.3-.9.4-1,.4-.9,0-1.7-.2-2.5-.3.5-.1,1-.2,1.6-.2.4-.1,1.6-.3,1.9.1Z"/>
    <path class="cls-1" d="m25.6,66.96c.3-.4,1.5-.2,1.9-.1.5.1,1,.2,1.6.2-.8.1-1.7.3-2.5.3-.1,0-1.4-.1-1-.4Z"/>
    <path class="cls-1" d="m35.4,70.16c.4.3.2,1.5.1,1.9-.1.5-.2,1-.2,1.6-.1-.8-.3-1.7-.3-2.5-.1-.1,0-1.3.4-1Z"/>
    <path class="cls-1" d="m38.6,87.16c.4.3-.9.4-1,.4-.9,0-1.7-.2-2.5-.3.5-.1,1-.2,1.6-.2.4-.1,1.6-.3,1.9.1Z"/>
    <path class="cls-1" d="m26.6,74.36c.4.3-.9.4-1,.4-.9,0-1.7-.2-2.5-.3.5-.1,1-.2,1.6-.2.4,0,1.6-.3,1.9.1Z"/>
    <path class="cls-1" d="m41.3,84.86c-.3.4-.4-.9-.4-1,0-.9.2-1.7.3-2.5.1.5.2,1,.2,1.6.1.4.3,1.6-.1,1.9Z"/>
    <path class="cls-1" d="m35.2,90.76c-.3.4-.4-.9-.4-1,0-.9.2-1.7.3-2.5.1.5.2,1,.2,1.6.1.4.3,1.6-.1,1.9Z"/>
    <path class="cls-1" d="m35.2,83.76c.4.3.2,1.5.1,1.9-.1.5-.2,1-.2,1.6-.1-.8-.3-1.7-.3-2.5,0-.1.1-1.4.4-1Z"/>
    <path class="cls-1" d="m31.7,73.56c.3-.4,1.5-.2,1.9-.1.5.1,1,.2,1.6.2-.8.1-1.7.3-2.5.3-.1,0-1.3,0-1-.4Z"/>
    <path class="cls-1" d="m35.4,77.16c-.3.4-.4-.9-.4-1,0-.9.2-1.7.3-2.5.1.5.2,1,.2,1.6,0,.4.3,1.6-.1,1.9Z"/>
    <path class="cls-1" d="m38.7,73.56c.4.3-.9.4-1,.4-.9,0-1.7-.2-2.5-.3.5-.1,1-.2,1.6-.2.4-.1,1.6-.3,1.9.1Z"/>
    <path class="cls-1" d="m32.6,66.96c.4.3-.9.4-1,.4-.9,0-1.7-.2-2.5-.3.5-.1,1-.2,1.6-.2.3-.1,1.6-.3,1.9.1Z"/>
    <path class="cls-1" d="m47.5,78.26c-.3.4-.4-.9-.4-1,0-.9.2-1.7.3-2.5.1.5.2,1,.2,1.6,0,.4.3,1.6-.1,1.9Z"/>
    <path class="cls-1" d="m43.9,74.66c.3-.4,1.5-.2,1.9-.1.5.1,1,.2,1.6.2-.8.1-1.7.3-2.5.3-.1.1-1.4,0-1-.4Z"/>
    <path class="cls-1" d="m50.9,74.66c.4.3-.9.4-1,.4-.9,0-1.7-.2-2.5-.3.5-.1,1-.2,1.6-.2.3,0,1.5-.3,1.9.1Z"/>
    <path class="cls-1" d="m47.5,71.26c.4.3.2,1.5.1,1.9-.1.5-.2,1-.2,1.6-.1-.8-.3-1.7-.3-2.5-.1-.1,0-1.3.4-1Z"/>
    <path class="cls-1" d="m29.2,70.56c-.3.4-.4-.9-.4-1,0-.9.2-1.7.3-2.5.1.5.2,1,.2,1.6.1.4.3,1.6-.1,1.9Z"/>
    <path class="cls-1" d="m23.2,77.96c-.3.4-.4-.9-.4-1,0-.9.2-1.7.3-2.5.1.5.2,1,.2,1.6.1.4.3,1.6-.1,1.9Z"/>
    <path class="cls-1" d="m23.2,91.16c-.3.4-.4-.9-.4-1,0-.9.2-1.7.3-2.5.1.5.2,1,.2,1.6.1.4.3,1.6-.1,1.9Z"/>
    <path class="cls-1" d="m29.5,77.56c.4.3.2,1.5.1,1.9-.1.5-.2,1-.2,1.6-.1-.8-.3-1.7-.3-2.5,0-.1.1-1.3.4-1Z"/>
    <path class="cls-1" d="m23.2,84.16c.4.3.2,1.5.1,1.9-.1.5-.2,1-.2,1.6-.1-.8-.3-1.7-.3-2.5,0-.1.1-1.4.4-1Z"/>
    <path class="cls-1" d="m25.9,80.96c.3-.4,1.5-.2,1.9-.1.5.1,1,.2,1.6.2-.8.1-1.7.3-2.5.3-.1,0-1.4-.1-1-.4Z"/>
    <path class="cls-1" d="m19.6,87.56c.3-.4,1.5-.2,1.9-.1.5.1,1,.2,1.6.2-.8.1-1.7.3-2.5.3-.1,0-1.3-.1-1-.4Z"/>
    <path class="cls-1" d="m29.5,84.56c-.3.4-.4-.9-.4-1,0-.9.2-1.7.3-2.5.1.5.2,1,.2,1.6.1.4.3,1.6-.1,1.9Z"/>
    <path class="cls-1" d="m26.6,87.56c.4.3-.9.4-1,.4-.9,0-1.7-.2-2.5-.3.5-.1,1-.2,1.6-.2.4-.1,1.6-.3,1.9.1Z"/>
    <path class="cls-1" d="m31.6,87.16c.3-.4,1.5-.2,1.9-.1.5.1,1,.2,1.6.2-.8.1-1.7.3-2.5.3-.1,0-1.4-.1-1-.4Z"/>
    <path class="cls-1" d="m19.6,74.36c.3-.4,1.5-.2,1.9-.1.5.1,1,.2,1.6.2-.8.1-1.7.3-2.5.3-.1.1-1.3,0-1-.4Z"/>
    <path class="cls-1" d="m32.9,80.96c.4.3-.9.4-1,.4-.9,0-1.7-.2-2.5-.3.5-.1,1-.2,1.6-.2.4-.1,1.6-.3,1.9.1Z"/>
    <path class="cls-1" d="m23.2,70.96c.4.3.2,1.5.1,1.9-.1.5-.2,1-.2,1.6-.1-.8-.3-1.7-.3-2.5,0-.1.1-1.3.4-1Z"/>
  </g>
  <path class="cls-1" d="m41.4,22.06c-.1-.2-.2-.3-.3-.5-2.7-7.1-6.9-12.1-9.6-16.6-2.1-3.5,13.5-7.4,17.7-3,3.5,3.5-1.4,13.7-3.5,17.5-1.5.8-3,1.6-4.3,2.6Z"/>
  <path class="cls-1" d="m46.6,138.66s16.6-3.7,20.8-1.3c3,1.7,2.1,5.1,2.1,5.1,0,0-1.5-1.9-3-2.4,1.7,2.4,1.9,5.5.3,7.4-.7-4.1-3.7-4.9-3.7-4.9,0,0,1.9,3.5-.1,6-1.7-5.1-7-4.1-10.6-3.8-3.6.2-23.5,1.7-26.9.2-3.3-1.5,21.1-6.3,21.1-6.3Z"/>
  <path class="cls-1" d="m1.5,116.56s-.1.2-.1.6c-.1.4-.2,1-.3,1.7-.3,1.5-.6,3.7-.7,6.6-.2,2.8-.1,6.3.4,10.3s1.6,8.4,3.8,13c1.1,2.3,2.5,4.5,4.1,6.6,1.7,2.1,3.7,4.1,6,5.9,2.3,1.7,4.9,3.2,7.6,4.5l1,.5,1.1.4c.3.1.7.3,1.1.4l1.1.4c1.4.4,2.7.9,4.3,1.3,3,.8,6,1.4,9.1,1.8s6.3.6,9.5.5c6.4-.2,13-1.5,19-4.1,6.1-2.5,11.6-6.2,16.2-10.8,4.6-4.6,8.2-10,10.5-15.7,2.3-5.6,3.7-11.5,3.6-17.2,0-2.8-.4-5.6-1-8.2s-1.5-5-2.4-7.2-1.9-4.3-2.7-6.2c-.8-1.9-1.4-3.8-1.6-5.5,0-.4-.1-.9,0-1.3v-.7c0-.2,0-.4.1-.6.1-.8.3-1.6.6-2.3.6-1.4,1.5-2.6,2.5-3.4,2-1.7,4.1-2.4,5.5-2.8s2.2-.5,2.2-.5c0,0-.8-.1-2.3.1-.7.1-1.7.3-2.7.6-1,.3-2.2.8-3.4,1.7-1.2.8-2.4,2-3.2,3.6-.4.8-.8,1.7-1,2.6-.1.2-.1.5-.2.7,0,.2-.1.5-.1.7-.1.5-.1,1-.1,1.6,0,2.1.6,4.2,1.3,6.3.7,2.1,1.6,4.2,2.4,6.4,1.6,4.4,2.8,9.1,2.7,14.3-.1,5.2-1.4,10.5-3.7,15.8-2.2,5.2-5.6,10.1-9.8,14.2-4.3,4.1-9.4,7.5-15,9.8s-11.6,3.4-17.6,3.6c-3,.1-5.9-.1-8.9-.4-.7-.1-1.5-.2-2.2-.3-.7-.1-1.4-.2-2.1-.4-.7-.2-1.4-.3-2.1-.5-.7-.1-1.4-.4-2.1-.5-1.3-.3-2.8-.8-4.2-1.2l-.9-.3c-.3-.1-.6-.2-1-.4l-.9-.4-.9-.4c-2.5-1.1-4.7-2.4-6.8-3.9-2-1.5-3.8-3.2-5.3-5.1-1.5-1.8-2.7-3.8-3.7-5.8-2-4-3-8-3.5-11.7-.5-3.6-.6-6.9-.5-9.6s.3-4.8.5-6.2c.1-.7.2-1.2.3-1.6.1-.3.1-.5.1-.5l-3.6-.8Z"/>
  <g>
    <path class="cls-1" d="m67.2,78.86c-.4.8-.7,1.7-.8,2.8-.2,1.9.2,3.5.8,4.7-1.2.6-2.6,1.2-3.9,1.9-.1-2.7-.2-5.5-.4-8.2,1.4-.5,2.9-.9,4.3-1.2Z"/>
    <path class="cls-1" d="m74.1,82.56s-2.5,1.5-5.9,3.3c-.5-1.1-.9-2.5-.7-4.1.2-1.3.6-2.4,1.1-3.2,5-1,9.2-1.2,11.3.7,3.2,2.8,1.8,5.3.4,6.7.2-1.9-1.1-3-1.1-3,0,0-.1,4.4-3.1,5.2.9-1.9.7-3.7.7-3.7,0,0-1.4,2.7-3.8,2.7,1.6-2.2,1.1-4.6,1.1-4.6Z"/>
  </g>
  <g>
    <path class="cls-1" d="m70.5,129.96c.9-1.2,1.9-2,2.9-2.5.6,0,1.3,0,1.9.1,4.9.2,8.1,3.4,6.3,8-.1-.6-1.2-2.2-2.1-2.5,1.4,2.1-.9,5.5-.9,5.5,0,0,.2-2-1.7-4.4.6,3.2-1.5,4.7-1.5,4.7,0,0,.4-2.2-2.8-4.6-.7-.5-1.9-.8-3.4-.9.1-1,.4-2.2,1.3-3.4Z"/>
    <path class="cls-1" d="m63.4,118.56c.5-3.4.5-11.5.2-21.2,2.2,2,5.8,6.3,6.1,12.6.5,9.1-4.2,17.6-4.2,17.6,0,0,2.6-.1,5.9-.1-.6.5-1.3,1.1-1.8,1.9-1,1.3-1.4,2.8-1.5,4-3.9-.1-8.9.6-11.1,1,3.4-4.5,5.7-9.9,6.4-15.8Z"/>
  </g>
  <path class="cls-1" d="m20.6,134.86h.3l.1-.1c-.4.4-.7.8-1,1.3,0-.1.1-.1.1-.2h-.2c-.1-.4-.2-.9-.4-1.3.2.1.4.2.7.3.2,0,.3,0,.4,0Z"/>
  <path class="cls-1" d="m20.3,113.16c1.1,0,2.1-.1,3.1-.2-.2,1-.2,2-.2,3.1v.9c-2.2,1.4-4.7,1.8-5.6,1.9.1-1,.5-3.5,1.9-5.6.2-.1.5-.1.8-.1Z"/>
  <path class="cls-1" d="m20.4,133.96c-.6-.1-.9-.7-.8-1.2s.5-.8,1-.8h.2c.6.1.9.7.8,1.2s-.6.9-1.2.8Z"/>
  <path class="cls-1" d="m35.3,132.76c.2,0,.4,0,.6.1,1.5.3,2.5,1.6,2.5,3h.1c-.5.2-.9.4-1.3.7h0c0-.1.1-.2.1-.3.1-.5,0-1-.3-1.5-.3-.4-.7-.7-1.3-.8-1.1-.2-2.1.5-2.3,1.6v.3l.1.1c-.3-.4-.6-.8-1-1.2.4-1.3,1.5-2,2.8-2Z"/>
  <path class="cls-1" d="m35.3,137.76h.3l.1-.1c-.4.4-.7.8-1,1.3,0-.1.1-.1.1-.2h-.2c-.1-.4-.2-.9-.4-1.3.2.1.4.2.7.3.2,0,.3,0,.4,0Z"/>
  <path class="cls-1" d="m25.3,106.16c.1.2.1.3.2.5l-.2-.1c-.3-.1-.5-.1-.8-.2l-.8-.1h-.8c-.5,0-1,.1-1.5.1.5.1,1,.1,1.5.2l.7.2.6.2h-1.5c-1.2,0-2.4.2-3.3.3-.9.2-1.5.3-1.5.3h1.5c.9,0,2.1.1,3.2.3.4.1.8.2,1.1.2-.4.1-.8.2-1.2.2-1.1.2-2.3.2-3.2.2s-1.5-.1-1.5-.1c0,0,.6.2,1.4.4.9.2,2.1.4,3.3.4h1.5l-.6.2-.7.1c-.5.1-1,.1-1.5.2.5,0,1,.1,1.5.1h.8l.8-.1c.3,0,.5-.1.8-.1l.3-.1c-.1.2-.2.4-.3.5-1.3.5-3,.8-5,.8-3.3,0-6.2-2.1-7.1-2.9.9-.8,3.8-2.9,7.1-2.9,2.2.4,3.9.7,5.2,1.2Z"/>
  <path class="cls-1" d="m35.1,136.76c-.6-.1-.9-.7-.8-1.2s.5-.8,1-.8h.2c.6.1.9.7.8,1.2-.1.6-.6,1-1.2.8Z"/>
  <path class="cls-1" d="m35.6,113.16h.9c1.4,2.2,1.8,4.7,1.9,5.6-1-.1-3.5-.5-5.6-1.9v-.9c0-1.1-.1-2.1-.2-3.1.9.2,1.9.3,3,.3Z"/>
  <path class="cls-1" d="m35.3,128.76c.5,0,.9,0,1.4.1,3.1.6,5.4,3.3,5.6,6.3h-1.1.1c-.3-2.5-2.2-4.7-4.8-5.2-.4-.1-.8-.1-1.2-.1-2.2,0-4.2,1.3-5.3,3.2-.5-.2-1-.4-1.5-.5.2,0,.3.1.5.1,1.2-2.4,3.6-3.9,6.3-3.9Z"/>
  <path class="cls-1" d="m35.3,130.76c.3,0,.7,0,1,.1,2.2.4,3.8,2.3,4,4.4h.1c-.4.1-.8.1-1.1.2-.1-1.8-1.4-3.3-3.2-3.6-.3-.1-.5-.1-.8-.1-1.5,0-2.9.9-3.6,2.2-.3-.2-.6-.4-.9-.6.9-1.5,2.6-2.6,4.5-2.6Z"/>
  <path class="cls-1" d="m20.6,127.86c.3,0,.7,0,1,.1,2.2.4,3.8,2.3,4,4.4h.1c-.4.1-.8.1-1.1.2-.1-1.8-1.4-3.3-3.2-3.6-.3-.1-.5-.1-.8-.1-1.5,0-2.9.9-3.6,2.2-.3-.2-.6-.4-.9-.6,1-1.5,2.6-2.6,4.5-2.6Z"/>
  <path class="cls-1" d="m29.6,105.76q-.1,0,0,0v-.2c.1-.3.1-.5.2-.8l.1-.8v-.8c0-.5-.1-1-.1-1.5-.1.5-.1,1-.2,1.5l-.2.7-.2.6v-1.5c0-1.2-.2-2.4-.3-3.3-.2-.9-.3-1.5-.3-1.5v1.5c0,.9-.1,2.1-.3,3.2-.1.4-.2.8-.2,1.1-.1-.4-.2-.8-.2-1.2-.2-1.1-.2-2.3-.2-3.2s.1-1.5.1-1.5c0,0-.2.6-.4,1.4-.2.9-.4,2.1-.4,3.3v1.5l-.2-.6-.1-.7c-.1-.5-.1-1-.2-1.5,0,.5-.1,1-.1,1.5v.8l.1.8c0,.3.1.5.1.8l.1.3c-.2-.1-.4-.2-.5-.3-.5-1.3-.8-3-.8-5,0-3.3,2.1-6.2,2.9-7.1.8.9,2.9,3.8,2.9,7.1,0,2-.3,3.8-.8,5-.6.3-.7.4-.8.4Z"/>
  <path class="cls-1" d="m20.6,125.86c.5,0,.9,0,1.4.1,3.1.6,5.4,3.3,5.6,6.3h-1.1.1c-.3-2.5-2.2-4.7-4.8-5.3-.4-.1-.8-.1-1.2-.1-2.2,0-4.2,1.3-5.3,3.2-.3-.1-.6-.3-1-.4,1.2-2.2,3.6-3.8,6.3-3.8Z"/>
  <path class="cls-1" d="m1.2,106.36c1.3-5.9,6.1-15.9,12.3-21.7,7.5-22.6,15.5-39.4,22.1-51.1-6.3-2-21.5-7.2-23.5-9.4-2.4-2.9,5.2-18.7,11.6-18.6,5.4.1,14.5,14.8,17.3,19.4,5.6-5.6,15.4-6.8,25.6-8,12.2-1.4,24.4-2.2,24.2,3.7-.1,3.9-4.1,8.2-9.2,12.3-2.4-.3-4.5-2.1-5.9-4.1.9,2.2,2.3,4.1,4.3,5.3-7.2,5.4-15.9,10.1-19.5,12-.7.2-1.6.3-1.7.3-1.1.2-2.2.4-3.3.5-1.8.2-3.6.1-5.4.1,3.1.7,6.1,1.1,9.2,1,.1,2.7.4,9,.8,16.8-1.2,1.3-2.5,2.4-4.3,3.1-2.3,1-5.3,1.4-7.6.2,2.3,1.6,5.6,1.5,8.2.8.5-.1.9-.3,1.4-.5v-.1c1.3-.5,2.6-1.3,4-2.5,7.7-6.6,12.9-10.6,17.6-9.2,4.7,1.4,4.5,4.7,3.7,6.8-.7-2.1-2.6-2.6-2.6-2.6,0,0,2.1,4.7-.7,7,0-2.4-1-4.2-1-4.2,0,0-.2,3.5-2.6,4.7.5-3.1-1.2-5.4-1.2-5.4,0,0-8.3,12.4-16.4,18.7-1,.7-2.9,1.4-3.9,1.7-.1,0-.1.1-.2.1-2.5.8-5.5.7-7.7-.8,2.2,1.9,5.5,2.3,8.2,1.6,1.5-.3,2.9-1,4.3-1.6.6-.2,1.3-.5,1.9-.9.7,15.7,1.1,31.7.5,36.6-.7,4.8-2.2,9.3-4.8,13.1,0-.2.1-.4.1-.6.9-3.7,1.2-7.7.8-11.5-.6-6.5-3.8-13.7-9.5-17.4,6.1,4.5,8.7,12.9,8.4,20.2-.2,3.9-.9,7.9-2.5,11.5-.5,1.1-1.4,2.5-2.2,3.6-5.5,5.2-12.9,8.4-21.1,8.4-17,0-30.9-13.8-30.9-30.9.1-2.8.7-6.4,1.2-8.4ZM89.1,23.26c3.3-5.5-5.6-6.9-6.3-5.2-1.3,3,6.3,5.2,6.3,5.2Zm-5,.5c0-.4-.3-.7-.7-.7s-.7.3-.7.7.3.7.7.7c.4,0,.7-.4.7-.7Zm-1.7,4.5c.4,0,.7-.3.7-.7s-.3-.7-.7-.7-.7.3-.7.7.3.7.7.7Zm-3.3-2.6c.4,0,.7-.3.7-.7s-.3-.7-.7-.7-.7.3-.7.7.4.7.7.7Zm-2.4-6.5h0c2-.1,3.3-.2,3.3-.2.4,0,.7-.4.7-.8s-.4-.7-.8-.7c0,0-1.3.1-3.2.2-.4,0-.7.4-.7.8s.3.7.7.7Zm-23,80.2c2.5.5,5-1,5.6-3.5.7-2.6-.2-5.6-2.4-7.2-1.1-.8-2.5-1.2-3.9-1.2-.5,0-1.1.1-1.6.3-.2.1-.4.2-.6.4-.2.2-.1.5.2.3.1-.4,1.2-.5,1.5-.5.8,0,1.6.1,2.4.4,1.6.6,2.8,1.8,3.3,3.4.5,1.5.4,3.6-.5,4.9-.8,1.1-2.4,1.5-3.7,1.3-.7-.2-1.4-.6-1.7-1.2-.4-.7-.4-1.7.3-2.2.4-.3,1.4-.5,1.5.3,0,.5.2,1.1.9,1.1,1.4-.1.5-2.3-.1-2.8-1.1-.8-2.8-.4-3.7.6-1.9,2.2.1,5.1,2.5,5.6Zm-41.3,8.6l-.3.3.3.3c.1.1,3.6,3.4,7.9,3.4,1.8,0,3.4-.2,4.7-.7-.4,1.3-.7,2.9-.7,4.7,0,4.3,3.2,7.8,3.4,7.9l.3.3.3-.3c.1-.1,3.4-3.6,3.4-7.9,0-1.8-.2-3.4-.7-4.7,1.3.4,2.9.7,4.7.7,4.3,0,7.8-3.2,7.9-3.4l.3-.3-.3-.3c-.1-.1-3.6-3.4-7.9-3.4-1.8,0-3.4.2-4.7.7.4-1.3.7-2.9.7-4.7,0-4.3-3.2-7.8-3.4-7.9l-.3-.3-.3.3c-.1.1-3.4,3.6-3.4,7.9,0,1.8.2,3.4.7,4.7-1.3-.4-2.9-.7-4.7-.7-4.4,0-7.8,3.2-7.9,3.4Zm11.3,9.4l.2-.1v-.2c0-.4-.1-.7-.1-1.1,0-1.2.1-2.4.3-3.5l.1-.6-.6.1c-1.1.2-2.2.3-3.5.3-.3,0-.7,0-1.1-.1h-.2l-.1.2c-2,2.9-2.1,6.5-2.1,6.7v.4h.4c.2.1,3.8,0,6.7-2.1Zm-1.3,2.1c0,.5.4.8.8.8.5,0,.8-.4.8-.8s-.4-.8-.8-.8c-.4-.1-.8.3-.8.8Zm-4.9-6.6c0-.5-.4-.8-.8-.8s-.8.4-.8.8c0,.5.4.8.8.8.4,0,.8-.3.8-.8Zm14.4,4.2v.2l.2.1c2.9,2,6.5,2.1,6.7,2.1h.4v-.4c0-.1-.1-3.7-2.1-6.7l-.1-.2h-.2c-.4,0-.7.1-1.1.1-1.2,0-2.4-.1-3.5-.3l-.6-.1.1.6c.2,1.1.3,2.2.3,3.5,0,.4,0,.7-.1,1.1Zm-.2,2.4c0,.5.4.8.8.8.5,0,.8-.4.8-.8s-.4-.8-.8-.8c-.4-.1-.8.3-.8.8Zm7.4-5.8c.5,0,.8-.4.8-.8,0-.5-.4-.8-.8-.8s-.8.4-.8.8c0,.5.4.8.8.8Zm2.1-32.3c.5-1,.8-2.1.6-3.2-.1-.4-.4-.9-.9-.7-.5.2-.4.9-.4,1.4.1.8.3,1.7.7,2.5-1-.5-2.1-.8-3.2-.6-.4.1-.9.4-.7.9.2.5.9.4,1.4.4.8-.1,1.7-.4,2.5-.7-.4.8-.6,1.7-.6,2.5,0,.4-.1,1.1.4,1.4.5.2.8-.3.9-.7.1-1.1-.3-2.3-.7-3.2.8.4,1.7.6,2.5.6.4,0,1.1.1,1.4-.4.2-.5-.3-.8-.7-.9-1.1-.1-2.3.2-3.2.7Zm1.7-13.1c.1-.1,1.6-1.7,2-3.9v-.2l-.2-.1c-.2-.1-.3-.3-.5-.4-.5-.5-1-1.1-1.4-1.7l-.3-.4-.3.4c-.4.6-.8,1.1-1.4,1.7-.2.2-.3.3-.5.4l-.2.1v.2c.4,2.2,2,3.9,2,3.9l.2.2.6-.2Zm-7,2.2c-.1-.4-.4-.9-.9-.7-.5.2-.4.9-.4,1.4,0,.9.3,1.7.6,2.5-1-.5-2.1-.8-3.2-.6-.4.1-.9.4-.7.9.2.5.9.4,1.4.4.9-.1,1.7-.3,2.5-.6-.4.8-.6,1.7-.6,2.5,0,.4-.1,1.1.4,1.4.5.2.8-.3.9-.7.2-1.1-.2-2.3-.6-3.2.8.4,1.7.6,2.5.6.4,0,1.1.1,1.4-.4.2-.5-.3-.8-.7-.9-1.1-.2-2.3.2-3.2.6.4-.9.7-2.1.6-3.2Zm-5.9,7.4c-.1-.4-.4-.9-.9-.7-.5.2-.4.9-.4,1.4.1.9.3,1.7.6,2.5-1-.5-2.1-.8-3.2-.6-.4.1-.9.4-.7.9.2.5.9.4,1.4.4.9,0,1.7-.3,2.5-.6-.4.8-.6,1.7-.6,2.5,0,.4-.1,1.1.4,1.4.5.2.8-.3.9-.7.2-1.1-.2-2.3-.6-3.2.8.4,1.7.6,2.5.6.4,0,1.1.1,1.4-.4.2-.5-.3-.8-.7-.9-1.1-.2-2.3.2-3.2.6.5-.9.8-2.1.6-3.2Zm9.1,19.6v-.4h-.4c-.2,0-3.7.1-6.7,2.1l-.2.1v.2c0,.4.1.7.1,1.1,0,1.2-.1,2.4-.3,3.5l-.1.6.6-.1c1.1-.2,2.2-.3,3.5-.3.3,0,.7,0,1.1.1h.2l.1-.2c2-3,2.1-6.6,2.1-6.7Zm-.8,6.1c0,.5.4.8.8.8.5,0,.8-.4.8-.8,0-.5-.4-.8-.8-.8s-.8.3-.8.8Zm-4.9-6.6c0-.5-.4-.8-.8-.8-.5,0-.8.4-.8.8,0,.5.4.8.8.8.4.1.8-.3.8-.8Zm-.8-9.1c.9,0,1.7-.3,2.5-.6-.4.8-.6,1.7-.6,2.5,0,.4-.1,1.1.4,1.4.5.2.8-.3.9-.7.2-1.1-.2-2.3-.6-3.2.8.4,1.7.6,2.5.6.4,0,1.1.1,1.4-.4.2-.5-.3-.8-.7-.9-1.1-.2-2.3.2-3.2.6.5-1,.8-2.1.6-3.2-.1-.4-.4-.9-.9-.7-.5.2-.4.9-.4,1.4.1.9.3,1.7.6,2.5-1-.5-2.1-.8-3.2-.6-.4.1-.9.4-.7.9.2.5.9.4,1.4.4Zm-16.7,15.7c0,.5.4.8.8.8s.8-.4.8-.8c0-.5-.4-.8-.8-.8s-.8.3-.8.8Zm.8-6.5v.4c0,.2.1,3.7,2.1,6.7l.1.2h.2c.4,0,.7-.1,1.1-.1,1.2,0,2.4.1,3.5.3l.6.1-.1-.6c-.2-1.1-.3-2.2-.3-3.5,0-.3,0-.7.1-1.1v-.2l-.2-.1c-2.9-2-6.5-2.1-6.7-2.1h-.4Zm7.4-.1c0-.5-.4-.8-.8-.8-.5,0-.8.4-.8.8,0,.5.4.8.8.8.4.1.8-.3.8-.8Zm-4.9-9.1c.2.5.9.4,1.4.4.9-.1,1.7-.3,2.5-.6-.4.8-.6,1.7-.6,2.5,0,.4-.1,1.1.4,1.4.5.2.8-.3.9-.7.2-1.1-.2-2.3-.6-3.2.8.4,1.7.6,2.5.6.4,0,1.1.1,1.4-.4.2-.5-.3-.8-.7-.9-1.1-.2-2.3.2-3.2.6.5-1,.8-2.1.6-3.2-.1-.4-.4-.9-.9-.7-.5.2-.4.9-.4,1.4,0,.9.3,1.7.6,2.5-1-.5-2.1-.8-3.2-.6-.4.1-.9.4-.7.9Zm4.6-16.6c-.1-.4-.4-.9-.9-.7-.5.2-.4.9-.4,1.4,0,.9.3,1.7.6,2.5-1-.5-2.1-.8-3.2-.6-.4.1-.9.4-.7.9.2.5.9.4,1.4.4.9,0,1.7-.3,2.5-.6-.4.8-.6,1.7-.6,2.5,0,.4-.1,1.1.4,1.4.5.2.8-.3.9-.7.2-1.1-.2-2.3-.6-3.2.8.4,1.7.6,2.5.6.4,0,1.1.1,1.4-.4.2-.5-.3-.8-.7-.9-1.1-.2-2.3.2-3.2.6.4-.9.7-2.1.6-3.2Zm5.9-7.4c-.1-.4-.4-.9-.9-.7-.5.2-.4.9-.4,1.4.1.9.3,1.7.6,2.5-1-.5-2.1-.8-3.2-.6-.4.1-.9.4-.7.9.2.5.9.4,1.4.4.9,0,1.7-.3,2.5-.6-.4.8-.6,1.7-.6,2.5,0,.4-.1,1.1.4,1.4.5.2.8-.3.9-.7.2-1.1-.2-2.3-.6-3.2.8.4,1.7.6,2.5.6.4,0,1.1.1,1.4-.4.2-.5-.3-.8-.7-.9-1.1-.2-2.3.2-3.2.6.4-1,.8-2.2.6-3.2Zm2.8-6.1l-.2.2.2.2c.1.1,1.7,1.6,3.9,2h.2l.1-.2c.1-.2.3-.3.4-.5.5-.5,1.1-1,1.7-1.4l.4-.3-.4-.3c-.6-.4-1.1-.8-1.7-1.4-.1-.1-.3-.3-.4-.5l-.1-.2h-.2c-2.2.8-3.9,2.3-3.9,2.4Zm4.6-32.1c-1.3-5-12.2-16-12.2-16,0,0,2.6,4.4,5.1,7.8-1-.8-5.3-2.8-5.3-2.8,0,0,5.8,5.2,9.1,8.7-1.3-1.1-7.4-3-7.4-3,0,0,6.1,3.6,8.8,6.8-1.5-1.8-8.3-2.9-8.3-2.9,0,0,5.4,3,8.1,5-1.5-.8-10.5-2.2-10.5-2.2,0,0,8.3,3.3,10.7,3.7,1.2.1,3.2-.1,1.9-5.1Zm4.8,12.7c-.8-.9-2.1-1.5-3.3-1.5-.5,0-1,0-1.4.2-.2.1-.4.2-.6.3-.1.1,0,.4.1.2.1-.4,1.4-.4,1.8-.3.9.1,1.7.4,2.4,1,1.3,1.1,1.7,3,1.2,4.5-.4,1.5-2.3,2.3-3.6,1.5-.7-.4-1.1-1.1-.9-1.8.2-.4,1.3-1.1,1.4-.3,0,.2,0,.4.1.6.2.2.6.3.8.1.4-.4.2-1.2-.1-1.6-1-1.3-3-.4-3.4,1-.4,1.5.6,2.9,2,3.3,1,.3,2.3.1,3.1-.5,2.2-1.5,2-5,.4-6.7Zm3.1,13.3c-.4-2.2-2-3.9-2-3.9l-.2-.2-.2.2c-.1.1-1.6,1.7-2,3.9v.2l.2.1c.2.2.4.3.5.4.5.5,1,1.1,1.4,1.7l.3.4.3-.4c.4-.6.8-1.1,1.4-1.7.2-.2.3-.3.5-.4l.2-.1-.4-.2Zm5.9-29.2c-.1-.4-.5-.6-.9-.5-1.1.4-2.2.7-3.1,1.1-.4.2-.5.6-.4,1,.1.3.4.4.7.4.1,0,.2,0,.3-.1.9-.4,1.9-.7,3-1.1.3,0,.5-.4.4-.8Zm6.5-2.3c-1.1.2-2.2.4-3.2.7-.4.1-.6.5-.5.9.1.3.4.6.7.6h.2c1-.2,2-.5,3.1-.7.4-.1.6-.5.6-.8-.2-.5-.5-.8-.9-.7Zm-4.5,4.7c-3.1.5-5.4,3-5.3,6.2.4-1.4.9-2.6,2-3.6.6-.6,1.4-.9,2.1-1.3,1.5-.4,3-.5,4.4,0,1.9.7,3,2.1,3.8,3.8-.4-3.3-3.6-5.7-7-5.1Zm3.6,6.7h1.7v-.4c0-1.4-.8-2.7-2-3.4.5.5.9,1.2.9,2,.1.7-.2,1.3-.6,1.8Zm-2.2,1.5c-1.5.3-3.2.6-4.4,1.7,3-.6,6.1-.7,9-1.5-1.5-.5-3.1-.4-4.6-.2Zm1.6-4.3c0-.5-.4-.8-.8-.8-.5,0-.8.4-.8.8,0,.5.4.8.8.8s.8-.4.8-.8Zm-3,3.3c-.7-.5-1.2-1.3-1.2-2.2,0-1.3,1-2.4,2.2-2.7h-.1c-2.4,0-4.4,1.8-4.4,4.1,0,.6.2,1.2.4,1.8,1-.5,2-.8,3.1-1Zm11.9-13.1c-1.1.1-2.1.3-3.2.5-.4.1-.7.4-.6.8.1.4.4.6.7.6h.1c1.1-.2,2.1-.3,3.2-.5.4-.1.7-.4.6-.8,0-.4-.4-.7-.8-.6Zm7.5-.9c-1,.1-2.1.2-3.2.3-.4,0-.7.4-.6.8,0,.4.4.6.7.6h.1c1.1-.1,2.2-.2,3.2-.3.4,0,.7-.4.7-.8-.1-.3-.5-.6-.9-.6Zm-14.9,26.7c10.5-2.5,15.6-9.2,15.6-9.2,0,0-2,1.1-4.7,2.4-1.3-.9-2.5-2.1-3.6-3.4.3,1.5.7,3,1.4,4.5-.1,0-.2.1-.3.1-1.3-.9-2.5-2-3.6-3.3l.6,2.1.7,2.1v.1h-.1s-.1,0-.1-.1c-.2-.1-.4-.2-.5-.4-.4-.3-.7-.6-1.1-.9-.7-.7-1.4-1.5-2.2-2.2.3,1,.6,2,.9,3,.1.5.3.9.5,1.4l-4.6-3.4,1.6,3.4c-1.3-.9-2.6-1.8-3.9-2.8.6,1.3,1.2,2.7,1.9,4-.2-.1-.4-.2-.5-.3-1.4-.8-2.8-1.6-3.7-2.4l-.3-.3c-.1-.1-1.1-1.2-1.1-1.2,0,0,.4,1.5.4,1.6s.1.3.2.4c.2.4.4.9.6,1.4-1.5-.9-2.9-1.9-4.2-3,.6,1.6,1.4,3.3,2.3,4.8-1.8.1-3.1.1-3.1.1,0,0,5.5,2.8,10.9,1.5Zm-4.4,13.4l.2-.2-.2-.2c-.1-.1-1.7-1.6-3.9-2h-.2l-.1.2c-.1.2-.3.3-.4.5-.5.5-1.1,1-1.7,1.4l-.4.3.4.3c.6.4,1.1.8,1.7,1.4.1.1.3.3.4.5l.1.2h.2c2.2-.7,3.8-2.3,3.9-2.4Zm-3.5,7h.3v-.3c0-.1-.1-3.1-2-5.1-.7-.7-1.5-1.3-2.2-1.7.7-.4,1.5-1,2.2-1.7,1.9-1.9,2-4.9,2-5.1v-.3h-.3c-.1,0-3.1.1-5.1,2-.7.7-1.3,1.5-1.7,2.2-.4-.7-1-1.5-1.7-2.2-1.9-1.9-4.9-2-5.1-2h-.3v.3c0,.1.1,3.1,2,5.1.7.7,1.5,1.3,2.2,1.7-.7.4-1.5,1-2.2,1.7-1.9,1.9-2,4.9-2,5.1v.3h.3c.1,0,3.1-.1,5.1-2,.7-.7,1.3-1.5,1.7-2.2.4.7,1,1.5,1.7,2.2,1.9,1.9,4.9,2,5.1,2Zm-2.8,12.2c0,.4-.1,1.1.4,1.4.5.2.8-.3.9-.7.2-1.1-.2-2.3-.6-3.2.8.4,1.7.6,2.5.6.4,0,1.1.1,1.4-.4.2-.5-.3-.8-.7-.9-1.1-.2-2.3.2-3.2.6.5-1,.8-2.1.6-3.2-.1-.4-.4-.9-.9-.7-.5.2-.4.9-.4,1.4.1.9.3,1.7.6,2.5-1-.5-2.1-.8-3.2-.6-.4.1-.9.4-.7.9.2.5.9.4,1.4.4.9,0,1.7-.3,2.5-.6-.3.7-.5,1.6-.6,2.5Zm.4,27.9c-.9,0-1.9,0-2.4.5.8,0,2.4.7,3.3,1.5-.6-.1-1.8.1-2.9.4,2.2.3,3.2.8,4,1.3-1.7,0-3.3.2-4.8.5,2.2.5,4.4,1.2,6.5,2.2-2.1-.3-4.1-.4-6-.3,2.2.6,4.3,1.5,6.3,2.6-1.6,0-3,.2-4.3.4,1.9.6,3.8,1.4,5.6,2.4-2.1-.4-4.1-.5-5.8-.4,2.1.7,4.2,1.7,6.3,3-1.6-.3-3-.4-4.3-.4,1.4.9,2.8,1.9,4.1,3.2-1.7-.4-3.2-.5-4.5-.5,1.3.7,2.7,1.6,4.1,2.7-2-.5-3.8-.7-5.4-.7,1.4.8,2.8,1.9,4.2,3.2-.4-.1-2.6-.4-3.8-.6.7.7,3,2.2,3,2.2,0,0-2.3-.6-3.3-.7.7.7,2.1,1.9,2.5,2.3-1.2-.2-2.4-.4-3.3-.8.6,1.1,1.7,1.9,3.1,2.7-1.2-.3-2.1-.5-3.2-.7.9.9,3.3,2.8,4.7,3.6,3.3-4.3,7.8-22.4-3.7-29.6Zm-5.3,35.9c-.7-.1-1.4.1-1.8.6.6-.1,1.2-.3,1.8-.6Zm-3.2,1.1c.4-1.3,1.6-2.2,2.9-2.2.2,0,.4,0,.6.1.4.1.8.2,1.1.5.3-.1.6-.3,1-.4-.5-.5-1.2-.8-1.9-1-.3,0-.5-.1-.8-.1-1.9,0-3.6,1.4-3.9,3.2v.1c.3,0,.6-.1,1-.2Zm-2.1.5c0-.2,0-.4.1-.5.5-2.4,2.5-4.1,4.9-4.1.3,0,.7,0,1,.1,1,.2,2,.7,2.7,1.5.3-.2.6-.3.8-.5-.9-1-2-1.7-3.3-1.9-.4-.1-.8-.1-1.2-.1-2.8,0-5.3,2-5.9,4.8-.1.3-.1.6-.1.9.3-.1.7-.2,1-.2Zm-10.1-.6h.4c.9,0,1.8-.7,1.9-1.6.1-.5,0-1-.3-1.5-.3-.4-.7-.7-1.3-.8-1.1-.2-2.1.5-2.3,1.6-.1,1.1.6,2.1,1.6,2.3Zm-3.1-.1c.5.1.9.3,1.4.4-.7-.7-1.1-1.7-.9-2.8.3-1.4,1.5-2.5,3-2.5.2,0,.4,0,.6.1,1.7.3,2.7,1.9,2.4,3.6-.2,1-.9,1.8-1.7,2.2.5.1,1,.1,1.5.1.6-.6,1-1.3,1.2-2.1.4-2.2-1-4.3-3.2-4.7-.3-.1-.5-.1-.8-.1-1.9,0-3.6,1.4-3.9,3.2-.2.9,0,1.9.4,2.6Zm-2.4-.7c.3.1.7.3,1.1.4-.2-.8-.3-1.6-.1-2.4.5-2.4,2.5-4.1,4.9-4.1.3,0,.7,0,1,.1,2.7.5,4.5,3.2,4,5.9-.1.7-.4,1.4-.9,2h1.1c.3-.5.5-1.1.7-1.8.6-3.2-1.5-6.4-4.7-7-.4-.1-.8-.1-1.2-.1-2.8,0-5.3,2-5.9,4.8-.1.7-.1,1.5,0,2.2Zm-8.4-4.9c.2.1.4.2.5.4.4.3.7.6,1.1.8.1-1-.5-2-1.6-2.2-.4-.1-.7,0-1,.1.3.3.7.6,1,.9Zm-1.9-1.7c.4-.3,1-.4,1.5-.4.2,0,.4,0,.6.1,1.7.3,2.7,1.9,2.4,3.6,0,.1-.1.2-.1.3.3.2.5.4.8.5.1-.2.2-.5.2-.7.4-2.2-1-4.3-3.2-4.7-.3-.1-.5-.1-.8-.1-.8,0-1.5.2-2.2.7.4.2.6.4.8.7Zm-1.3-1.5c.8-.6,1.8-.9,2.9-.9.3,0,.7,0,1,.1,1.3.3,2.5,1,3.2,2.1s1,2.5.8,3.8c-.1.4-.2.7-.3,1,.3.2.5.3.8.5.2-.4.3-.8.4-1.3.3-1.6,0-3.2-.9-4.5s-2.2-2.2-3.8-2.5c-.4-.1-.8-.1-1.2-.1-1.3,0-2.5.4-3.5,1.1.1.2.4.5.6.7Zm-2.9-3.8h.1c.6,0,1.1-.3,1.5-.7.7-.8.6-2.1-.2-2.8-.4-.3-.8-.5-1.3-.5-.6,0-1.1.3-1.5.7-.1.1-.2.2-.2.3.5,1.1,1.1,2.1,1.6,3Zm-3.3-7.4c.5-.4,1-.8,1.4-1.2.7-.2,1.4-.3,2.1-.3,1.7,0,3.3.6,4.5,1.7,2.2,1.9,3,4.8,2.2,7.4-.4-.1-.7-.1-1.1-.1.8-2.3.1-4.8-1.8-6.5-1.1-.9-2.4-1.4-3.8-1.4-1.2,0-2.4.4-3.3,1,.1.3.2.6.3.9.9-.6,1.9-1,3-1,1.2,0,2.3.4,3.2,1.2,1.7,1.5,2.2,3.8,1.4,5.8-.4.1-.9.1-1.3.3,1.1-1.7.8-4-.7-5.3-.7-.6-1.6-.9-2.6-.9s-1.9.4-2.6,1c.1.3.2.6.4.9.6-.6,1.4-1,2.3-1,.7,0,1.4.3,2,.7,1.3,1.1,1.5,3,.4,4.3-.5.5-1.1.9-1.8,1,.3.4.6.8.9,1.2,1.2-.9,2.6-1.4,4.1-1.4.5,0,.9,0,1.4.1,1.8.4,3.4,1.4,4.5,3,1,1.5,1.4,3.2,1.1,5,0,.1-.1.2-.1.3v.3c-.1.4-.3.9-.4,1.3.4.2.9.4,1.3.6v-1.7c0-.1.1-.2.1-.3v-.3c.8-3.1,3.6-5.4,6.8-5.4.5,0,.9,0,1.4.1,1.8.4,3.4,1.4,4.5,3,1,1.5,1.4,3.2,1.1,5,0,.1-.1.2-.1.3v.3c-.1.4-.2.8-.4,1.2.4,0,.8-.1,1.3-.1,0-.3,0-.6.1-.9,0-.1.1-.2.1-.3v-.3c.8-3.1,3.6-5.4,6.8-5.4.5,0,.9,0,1.4.1,1.6.3,3,1.2,4,2.4.3-.2.5-.3.8-.5-1.1-1.4-2.7-2.3-4.4-2.7-.2-3.6-2.8-6.7-6.4-7.4-.5-.1-1-.1-1.5-.1-2.8,0-5.4,1.5-6.8,3.9-.5-3.2-2.9-5.9-6.3-6.6-.5-.1-1-.1-1.5-.1-2.4,0-4.6,1.1-6.1,2.9.1-2.4-.9-4.8-2.8-6.4-1.4-1.2-3.3-1.9-5.1-1.9-.4,0-.9,0-1.3.1,2-3.3,1.3-7.6-1.7-10.1-.4-.3-.7-.6-1.1-.8-.1.3-.1.7-.2,1,.2.2.5.3.7.5,2.9,2.5,3.3,6.8.9,9.8-.4.1-.8.3-1.2.6-.4.2-.2.7-.1,1.2Zm-.5-2.1l.5-.5c1-1.2,1.5-2.8,1.4-4.4s-.9-3-2.1-4.1c-.1,0-.1-.1-.2-.1,0,.4-.1.8-.1,1.1.8.8,1.3,1.9,1.4,3.1.1,1.3-.3,2.6-1.1,3.6,0,.5.1.9.2,1.3Zm-.5-2.7c.5-1.2.4-2.5-.2-3.6v.3c.1,1.1.1,2.2.2,3.3Z"/>
  <path class="cls-1" d="m20.6,129.86c.2,0,.4,0,.6.1,1.5.3,2.5,1.6,2.5,3h.1c-.5.2-.9.4-1.3.7h0c0-.1.1-.2.1-.3.2-1.1-.5-2.1-1.6-2.3-1.1-.2-2.1.5-2.3,1.6v.3l.1.1c-.3-.4-.6-.8-1-1.2.5-1.2,1.6-2,2.8-2Z"/>
  <path class="cls-1" d="m6.6,126.46c.2,0,.5.1.7.2.4.4.5,1,.1,1.5-.4.4-1,.5-1.5.1-.4-.4-.5-1-.1-1.5.2-.1.5-.3.8-.3Z"/>
  <path class="cls-1" d="m30.3,109.76l.2.1c.3.1.5.1.8.2l.8.1h.8c.5,0,1-.1,1.5-.1-.5-.1-1-.1-1.5-.2l-.7-.2-.6-.2h1.5c1.2,0,2.4-.2,3.3-.3.9-.2,1.5-.3,1.5-.3h-1.5c-.9,0-2.1-.1-3.2-.3-.4-.1-.8-.2-1.1-.2.4-.1.8-.2,1.2-.2,1.1-.2,2.3-.2,3.2-.2s1.5.1,1.5.1c0,0-.6-.2-1.4-.4-.9-.2-2.1-.4-3.3-.4h-1.5l.6-.2.7-.1c.5-.1,1-.1,1.5-.2-.5,0-1-.1-1.5-.1h-.8l-.8.1c-.3,0-.5.1-.8.1h-.1s0-.1-.1-.1c.1-.1.1-.3.2-.4,1.3-.5,3-.8,5-.8,3.3,0,6.2,2.1,7.1,2.9-.9.8-3.8,2.9-7.1,2.9-2,0-3.8-.3-5-.8-.2-.5-.3-.6-.4-.8Z"/>
  <path class="cls-1" d="m28.1,105.76c1.3,0,2.3,1,2.3,2.3s-1,2.3-2.3,2.3-2.3-1-2.3-2.3,1-2.3,2.3-2.3Zm0,3.3c.5,0,1-.4,1-1s-.4-1-1-1c-.5,0-1,.4-1,1s.4,1,1,1Z"/>
  <path class="cls-1" d="m26.3,110.56l-.1.2c-.1.3-.1.5-.2.8l-.1.8v.8c0,.5.1,1,.1,1.5.1-.5.1-1,.2-1.5l.2-.7.2-.6v1.5c0,1.2.2,2.4.3,3.3.2.9.3,1.5.3,1.5v-1.5c0-.9.1-2.1.3-3.2.1-.4.2-.8.2-1.1.1.4.2.8.2,1.2.2,1.1.2,2.3.2,3.2s-.1,1.5-.1,1.5c0,0,.2-.6.4-1.4.2-.9.4-2.1.4-3.3v-1.5l.2.6.1.7c.1.5.1,1,.2,1.5,0-.5.1-1,.1-1.5v-.8l-.1-.8c0-.3-.1-.5-.1-.8l-.1-.3c.2.1.3.2.5.3.5,1.3.8,3,.8,5,0,3.3-2.1,6.1-2.9,7.1-.8-.9-2.9-3.8-2.9-7.1,0-2,.3-3.8.8-5,.6-.2.8-.3.9-.4Z"/>
  <path class="cls-1" d="m42.7,53.36c-.3-.5-.7-.9-1.2-1.4l-.4-.4c.3-1.4,1.2-2.6,1.6-3.1.4.5,1.3,1.7,1.6,3.1-.1.1-.3.2-.4.4-.4.4-.8.9-1.2,1.4Z"/>
  <path class="cls-1" d="m26.8,139.26h.2c.3.1.5.2.7.4.2.2.2.5.2.8-.1.5-.6.9-1.2.8s-.9-.7-.8-1.2c0-.5.4-.8.9-.8Z"/>
  <path class="cls-1" d="m43.6,59.06c-.5.5-1.5.5-2,0-.6-.6-.6-1.5,0-2,.3-.3.6-.4,1-.4s.7.1,1,.4c.5.5.5,1.4,0,2Z"/>
  <path class="cls-1" d="m43.1,59.76c.1.2.2.3.3.5.3.4.6.8.9,1l.4.4s-.2-.2-.4-.5c-.2-.3-.5-.7-.7-1.1-.1-.2-.2-.4-.3-.6.3.4.7.8,1.1,1.2,1.1,1.1,2.3,1.9,2.3,1.9,0,0-1.2-1-2-2.1-.3-.4-.6-.8-.8-1.2.4.2.8.5,1.2.9,1.2.9,2.1,2.1,2.1,2.1,0,0-.8-1.3-1.8-2.4-.4-.4-.9-.8-1.3-1.2.2.1.4.2.7.3.4.2.8.5,1.1.7.3.2.4.4.4.4,0,0-.1-.2-.4-.4-.2-.3-.6-.6-1-.9-.2-.1-.3-.2-.5-.3.1,0,.2-.1.3-.1.8.4,1.7,1,2.5,1.8,1.4,1.4,1.7,3.4,1.8,4.2-.8-.1-2.9-.4-4.2-1.8-.8-.8-1.4-1.7-1.8-2.5.1-.1.1-.2.1-.3Z"/>
  <path class="cls-1" d="m35.6,103.46c-1.1,0-2.1.1-3.1.2.2-1,.2-2,.2-3.1v-.9c2.2-1.4,4.7-1.8,5.7-1.9-.1,1-.5,3.5-1.9,5.7-.4,0-.6,0-.9,0Z"/>
  <path class="cls-1" d="m20.3,103.46h-.9c-1.4-2.2-1.8-4.7-1.9-5.6,1,.1,3.5.5,5.6,1.9v.9c0,1.1.1,2.1.2,3.1-.9-.2-2-.3-3-.3Z"/>
  <path class="cls-1" d="m44.4,57.56c.2-.1.3-.2.5-.3.4-.3.8-.6,1-.9l.4-.4s-.2.2-.5.4c-.3.2-.7.5-1.1.7-.2.1-.4.2-.7.3.4-.3.8-.7,1.3-1.1,1.1-1.1,1.9-2.3,1.9-2.3,0,0-1,1.2-2.1,2-.4.3-.8.6-1.2.8.3-.4.5-.8.9-1.2.9-1.2,2.1-2.1,2.1-2.1,0,0-1.3.8-2.4,1.8-.4.4-.8.8-1.1,1.2.1-.2.1-.4.3-.6.2-.4.5-.8.7-1.1.2-.3.4-.4.4-.4,0,0-.2.1-.4.4-.3.2-.6.6-.9,1-.1.2-.2.3-.3.5,0-.1-.1-.2-.1-.3.4-.8,1-1.7,1.8-2.5,1.4-1.4,3.4-1.7,4.2-1.8-.1.8-.4,2.9-1.8,4.2-.8.8-1.7,1.5-2.5,1.8-.2,0-.3-.1-.4-.1Z"/>
  <path class="cls-1" d="m38.1,57.96c-.5.3-.9.7-1.4,1.2l-.4.4c-1.4-.3-2.6-1.2-3.1-1.6.5-.4,1.7-1.3,3.1-1.6.1.1.2.3.4.4.4.5.9.9,1.4,1.2Z"/>
  <path class="cls-1" d="m40.9,58.46c-.2.1-.3.2-.5.3-.4.3-.8.6-1,.9l-.4.4s.2-.2.5-.4c.3-.2.7-.5,1.1-.7.2-.1.3-.1.5-.2v.1c-.4.3-.7.6-1.1,1-1.1,1.1-1.9,2.3-1.9,2.3,0,0,1-1.2,2.1-2.1.4-.3.8-.6,1.2-.8-.2.4-.5.8-.9,1.2-.9,1.2-2.1,2.1-2.1,2.1,0,0,1.3-.8,2.4-1.8.4-.4.7-.8,1.1-1.1,0,.2-.1.4-.2.5-.2.4-.5.8-.7,1.1-.2.3-.4.4-.4.4,0,0,.2-.1.4-.4.3-.2.6-.6.9-1,.1-.2.2-.3.3-.5,0,.1.1.2.1.3-.3.8-.9,1.7-1.8,2.5-1.4,1.4-3.4,1.7-4.2,1.8.1-.8.4-2.9,1.8-4.2.8-.8,1.7-1.5,2.5-1.8.1,0,.2.1.3.1Z"/>
  <path class="cls-1" d="m41.9,55.76c-.3-.4-.6-.8-.9-1l-.4-.4s.2.2.4.5c.2.3.5.7.7,1.1.1.2.2.3.2.5h-.1c-.3-.4-.6-.8-1-1.1-1.1-1.1-2.3-1.9-2.3-1.9,0,0,1.2,1,2.1,2.1.3.4.6.8.8,1.2-.4-.2-.8-.5-1.2-.8-1.2-.9-2.1-2.1-2.1-2.1,0,0,.8,1.3,1.8,2.4.4.4.7.7,1.1,1v.1c-.2-.1-.3-.1-.5-.2-.4-.2-.8-.5-1.1-.7-.3-.2-.4-.4-.4-.4,0,0,.1.2.4.4.2.3.6.6,1,.9.2.1.3.2.5.3v.1c-.1,0-.2.1-.3.1-.8-.4-1.7-1-2.5-1.8-1.4-1.4-1.7-3.4-1.8-4.2.8.1,2.9.4,4.2,1.8.9.9,1.5,1.8,1.8,2.5,0,.1-.1.2-.1.3-.1-.4-.2-.5-.3-.7Z"/>
  <path class="cls-1" d="m41.5,64.06c.4-.4.8-.9,1.2-1.4.3.5.7.9,1.2,1.4.1.1.3.2.4.4-.3,1.4-1.2,2.6-1.6,3.1-.4-.5-1.3-1.7-1.6-3.1l.4-.4Z"/>
  <path class="cls-1" d="m47.4,57.96c.5-.3.9-.7,1.4-1.2l.4-.4c1.4.3,2.6,1.2,3.1,1.6-.5.4-1.7,1.3-3.1,1.6-.1-.1-.2-.3-.4-.4-.5-.5-1-.9-1.4-1.2Z"/>
</svg>