<?xml version="1.0" encoding="UTF-8"?>
<svg id="_ëîé_1" data-name="—ëîé_1" xmlns="http://www.w3.org/2000/svg" viewBox="0 0 101.88 170.91">
  <defs>
    <style>
      .cls-1 {
        stroke-width: 0px;
      }
    </style>
  </defs>
  <g>
    <path class="cls-1" d="m37.6,81.19c.31-.39,1.52-.17,1.93-.11.52.07,1.04.15,1.57.23-.83.15-1.7.32-2.53.32-.08,0-1.33-.08-.97-.43Z"/>
    <path class="cls-1" d="m29.09,63.51c.39.31.17,1.51.12,1.93-.07.52-.15,1.05-.23,1.57-.15-.83-.33-1.71-.32-2.53,0-.08.09-1.33.43-.97Z"/>
    <path class="cls-1" d="m41.21,77.8c.39.3.17,1.52.12,1.93-.07.52-.15,1.04-.23,1.57-.14-.83-.31-1.71-.31-2.53,0-.07.09-1.33.43-.97Z"/>
    <path class="cls-1" d="m44.59,81.19c.36.35-.91.43-.96.43-.86-.02-1.69-.17-2.54-.32.52-.08,1.05-.16,1.57-.23.41-.06,1.62-.28,1.93.11Z"/>
    <path class="cls-1" d="m25.48,66.9c.31-.39,1.52-.17,1.93-.12.52.07,1.04.15,1.57.23-.83.14-1.7.32-2.53.32-.08,0-1.33-.08-.97-.43Z"/>
    <path class="cls-1" d="m35.27,70.15c.39.31.17,1.52.11,1.93-.07.52-.15,1.05-.23,1.57-.14-.83-.32-1.71-.32-2.53,0-.08.09-1.33.43-.97Z"/>
    <path class="cls-1" d="m38.5,87.09c.36.35-.91.43-.97.43-.86-.02-1.69-.17-2.53-.32.52-.08,1.04-.16,1.57-.23.41-.06,1.62-.28,1.93.12Z"/>
    <path class="cls-1" d="m26.54,74.36c.36.34-.92.43-.96.43-.86,0-1.69-.17-2.53-.32.52-.08,1.04-.16,1.57-.23.41-.05,1.62-.28,1.93.12Z"/>
    <path class="cls-1" d="m41.21,84.8c-.34.36-.43-.92-.43-.96,0-.86.17-1.69.31-2.54.08.52.16,1.04.23,1.57.05.41.28,1.62-.12,1.93Z"/>
    <path class="cls-1" d="m35.11,90.71c-.34.36-.43-.92-.43-.96,0-.86.17-1.69.32-2.53.08.52.16,1.04.23,1.57.05.41.28,1.62-.12,1.93Z"/>
    <path class="cls-1" d="m35.11,83.71c.39.31.17,1.52.12,1.93-.07.52-.15,1.05-.23,1.57-.15-.83-.32-1.71-.32-2.53,0-.08.09-1.33.43-.97Z"/>
    <path class="cls-1" d="m31.66,73.54c.31-.39,1.52-.17,1.93-.12.52.07,1.05.15,1.57.23-.83.14-1.71.31-2.53.32-.08,0-1.33-.08-.97-.43Z"/>
    <path class="cls-1" d="m35.27,77.15c-.34.36-.43-.92-.43-.96.02-.86.17-1.69.32-2.54.08.52.16,1.04.23,1.57.05.41.28,1.62-.12,1.93Z"/>
    <path class="cls-1" d="m38.65,73.54c.36.34-.92.43-.96.43-.86-.02-1.69-.17-2.54-.32.52-.08,1.04-.16,1.57-.23.41-.05,1.63-.28,1.93.12Z"/>
    <path class="cls-1" d="m32.48,66.9c.36.35-.91.43-.96.43-.86,0-1.69-.17-2.54-.32.52-.08,1.04-.16,1.57-.23.41-.05,1.63-.28,1.93.11Z"/>
    <path class="cls-1" d="m47.38,78.28c-.34.36-.43-.92-.43-.96.02-.86.17-1.69.32-2.53.08.52.16,1.04.23,1.57.05.41.28,1.62-.12,1.93Z"/>
    <path class="cls-1" d="m43.77,74.67c.31-.39,1.52-.17,1.93-.12.52.07,1.05.15,1.57.23-.83.14-1.71.32-2.53.32-.08,0-1.33-.09-.97-.43Z"/>
    <path class="cls-1" d="m50.77,74.67c.36.35-.91.43-.96.43-.86,0-1.69-.17-2.54-.32.52-.08,1.04-.16,1.57-.23.42-.05,1.62-.28,1.93.12Z"/>
    <path class="cls-1" d="m47.38,71.28c.39.31.17,1.52.11,1.93-.07.52-.15,1.05-.23,1.57-.15-.83-.32-1.71-.32-2.53,0-.08.09-1.33.43-.97Z"/>
    <path class="cls-1" d="m29.09,70.51c-.34.36-.43-.92-.43-.96.02-.86.17-1.69.32-2.54.08.52.16,1.04.23,1.57.05.41.28,1.62-.11,1.93Z"/>
    <path class="cls-1" d="m23.15,77.97c-.34.36-.43-.92-.43-.96,0-.86.17-1.69.31-2.53.08.52.16,1.04.23,1.57.05.41.28,1.63-.11,1.93Z"/>
    <path class="cls-1" d="m23.15,91.13c-.34.36-.43-.92-.43-.96.02-.86.17-1.69.31-2.54.08.52.16,1.04.23,1.57.05.41.28,1.63-.11,1.93Z"/>
    <path class="cls-1" d="m29.43,77.55c.39.31.17,1.52.11,1.93-.07.52-.15,1.04-.23,1.57-.14-.83-.32-1.71-.32-2.53,0-.08.09-1.33.43-.97Z"/>
    <path class="cls-1" d="m23.15,84.13c.4.3.17,1.52.12,1.93-.07.53-.15,1.05-.23,1.57-.15-.83-.32-1.71-.31-2.53,0-.08.09-1.33.43-.97Z"/>
    <path class="cls-1" d="m25.81,80.94c.3-.39,1.52-.17,1.93-.12.52.07,1.04.15,1.57.23-.83.14-1.71.31-2.53.32-.07,0-1.33-.09-.97-.43Z"/>
    <path class="cls-1" d="m19.54,87.52c.31-.39,1.52-.17,1.93-.11.52.07,1.05.15,1.57.23-.83.15-1.7.33-2.53.32-.08,0-1.33-.09-.97-.43Z"/>
    <path class="cls-1" d="m29.43,84.55c-.34.36-.43-.92-.43-.96,0-.86.17-1.69.32-2.54.08.52.16,1.04.23,1.57.05.41.28,1.63-.12,1.93Z"/>
    <path class="cls-1" d="m26.54,87.52c.36.34-.92.43-.96.43-.86-.02-1.69-.17-2.53-.32.52-.08,1.04-.16,1.57-.23.41-.05,1.63-.28,1.93.12Z"/>
    <path class="cls-1" d="m31.5,87.09c.31-.4,1.52-.17,1.93-.12.52.07,1.05.15,1.57.23-.83.15-1.71.32-2.53.32-.08,0-1.33-.08-.97-.43Z"/>
    <path class="cls-1" d="m19.54,74.36c.31-.4,1.52-.17,1.93-.12.52.07,1.05.15,1.57.23-.83.14-1.7.32-2.53.32-.08,0-1.33-.09-.97-.43Z"/>
    <path class="cls-1" d="m32.81,80.94c.36.34-.92.43-.96.43-.86-.02-1.69-.17-2.54-.32.52-.08,1.04-.16,1.57-.23.42-.05,1.62-.28,1.93.12Z"/>
    <path class="cls-1" d="m23.15,70.97c.4.3.17,1.52.12,1.93-.07.52-.15,1.05-.23,1.57-.15-.83-.32-1.71-.31-2.53,0-.07.09-1.33.43-.97Z"/>
  </g>
  <path class="cls-1" d="m41.33,22.06c-.1-.17-.21-.34-.32-.51-2.69-7.14-6.92-12.06-9.63-16.58-2.09-3.48,13.46-7.42,17.75-3.02,3.46,3.55-1.43,13.71-3.47,17.53-1.56.72-3.02,1.56-4.33,2.57Z"/>
  <path class="cls-1" d="m46.51,138.63s16.59-3.71,20.82-1.28c3.04,1.75,2.09,5.1,2.09,5.1,0,0-1.51-1.85-3.02-2.44,1.74,2.44,1.86,5.51.35,7.37-.7-4.06-3.71-4.87-3.71-4.87,0,0,1.91,3.54-.12,5.98-1.68-5.11-6.96-4.06-10.56-3.83-3.6.23-23.55,1.74-26.91.23-3.36-1.51,21.06-6.26,21.06-6.26Z"/>
  <path class="cls-1" d="m1.45,116.56s-.05.21-.14.62c-.09.4-.2.98-.33,1.73-.26,1.51-.57,3.73-.72,6.57-.16,2.84-.14,6.32.39,10.29.53,3.96,1.59,8.43,3.76,12.96,1.08,2.26,2.45,4.51,4.15,6.64,1.69,2.13,3.71,4.12,6.01,5.86,2.3,1.74,4.86,3.25,7.6,4.47l1.03.45,1.05.42c.35.14.71.27,1.06.4l1.11.39c1.4.42,2.74.87,4.27,1.27,3,.78,6.01,1.4,9.14,1.79,3.12.39,6.32.57,9.54.45,6.44-.22,12.97-1.54,19.04-4.07,6.06-2.53,11.64-6.24,16.22-10.81,4.58-4.58,8.16-9.96,10.49-15.72,2.26-5.6,3.68-11.53,3.64-17.23-.02-2.84-.39-5.61-1.01-8.19-.62-2.59-1.52-4.98-2.45-7.2-.93-2.22-1.91-4.26-2.73-6.2-.82-1.93-1.41-3.78-1.58-5.52-.04-.43-.06-.88-.04-1.26.01-.23.02-.46.04-.69.02-.21.05-.4.08-.6.11-.8.33-1.58.62-2.28.59-1.4,1.48-2.56,2.48-3.4,2.01-1.71,4.11-2.42,5.5-2.82,1.41-.41,2.21-.47,2.21-.47,0,0-.79-.05-2.28.14-.74.1-1.65.27-2.7.6-1.04.33-2.23.83-3.43,1.65-1.19.82-2.39,2.01-3.24,3.6-.43.8-.76,1.67-.98,2.64-.06.24-.12.5-.16.74-.04.22-.07.45-.1.68-.08.54-.1,1.04-.1,1.57.02,2.11.6,4.23,1.3,6.32.71,2.1,1.57,4.19,2.37,6.37,1.59,4.35,2.79,9.15,2.68,14.31-.11,5.16-1.42,10.53-3.66,15.83-2.19,5.16-5.58,10.09-9.83,14.22-4.26,4.14-9.39,7.51-14.97,9.78-5.59,2.27-11.61,3.43-17.56,3.64-2.98.1-5.94-.09-8.85-.44-.73-.09-1.45-.18-2.17-.31s-1.44-.23-2.15-.38c-.71-.15-1.41-.32-2.12-.46-.71-.15-1.38-.36-2.06-.52-1.34-.32-2.78-.81-4.15-1.22l-.94-.33c-.32-.11-.65-.23-.96-.35l-.95-.37-.93-.4c-2.46-1.09-4.73-2.41-6.75-3.93-2.02-1.52-3.79-3.25-5.29-5.09-1.5-1.84-2.73-3.81-3.71-5.8-1.97-3.99-2.99-8.04-3.52-11.68-.53-3.65-.57-6.89-.49-9.55.09-2.67.34-4.75.54-6.16.1-.7.2-1.24.26-1.59.07-.34.1-.51.1-.51l-3.64-.85Z"/>
  <g>
    <path class="cls-1" d="m67.07,78.8c-.38.81-.69,1.73-.82,2.79-.24,1.88.23,3.49.81,4.69-1.23.61-2.56,1.25-3.94,1.86-.11-2.73-.24-5.49-.36-8.24,1.48-.41,2.93-.78,4.32-1.1Z"/>
    <path class="cls-1" d="m73.96,82.49s-2.45,1.5-5.95,3.3c-.5-1.05-.91-2.46-.7-4.07.16-1.28.62-2.36,1.14-3.22,5.03-1.04,9.19-1.19,11.35.71,3.19,2.8,1.85,5.33.41,6.66.21-1.89-1.1-3-1.1-3,0,0-.07,4.45-3.07,5.22.88-1.91.7-3.66.7-3.66,0,0-1.4,2.67-3.76,2.74,1.55-2.27,1-4.68,1-4.68Z"/>
  </g>
  <g>
    <path class="cls-1" d="m70.36,129.95c.85-1.19,1.91-1.98,2.88-2.5.63.02,1.28.04,1.92.07,4.9.24,8.06,3.42,6.32,7.98-.05-.64-1.17-2.2-2.08-2.47,1.39,2.15-.93,5.51-.93,5.51,0,0,.21-2.04-1.68-4.41.61,3.19-1.48,4.71-1.48,4.71,0,0,.41-2.24-2.78-4.57-.71-.52-1.95-.79-3.43-.91.12-1.06.45-2.28,1.27-3.42Z"/>
    <path class="cls-1" d="m63.28,118.53c.52-3.36.46-11.53.16-21.24,2.17,2,5.8,6.26,6.14,12.58.49,9.07-4.15,17.62-4.15,17.62,0,0,2.59-.12,5.9-.08-.65.51-1.28,1.13-1.84,1.91-.96,1.35-1.35,2.76-1.48,3.99-3.87-.1-8.86.63-11.1,1,3.39-4.48,5.66-9.86,6.37-15.78Z"/>
  </g>
  <path class="cls-1" d="m20.55,134.86c.11,0,.22,0,.33-.03.02-.02.04-.03.05-.05-.38.4-.72.84-1.01,1.32.04-.07.09-.13.13-.2-.03,0-.06,0-.09,0-.03,0-.06-.02-.08-.02-.09-.45-.21-.88-.38-1.31.2.13.42.22.67.27.13.03.26.04.38.04Z"/>
  <path class="cls-1" d="m20.16,113.13c1.08,0,2.11-.08,3.08-.24-.16.97-.24,2-.24,3.08,0,.28.01.58.05.91-2.16,1.4-4.68,1.76-5.65,1.85.09-.97.45-3.49,1.85-5.65.33.03.62.05.91.05Z"/>
  <path class="cls-1" d="m20.35,133.9c-.56-.11-.93-.65-.82-1.21.1-.48.52-.84,1.01-.84.07,0,.13,0,.2.02.56.11.93.65.82,1.21-.11.55-.64.93-1.21.82Z"/>
  <path class="cls-1" d="m35.21,132.69c.2,0,.4.02.59.06,1.47.29,2.48,1.58,2.47,3.03.03-.01.06-.02.08-.03-.47.19-.91.43-1.33.71.02-.01.03-.02.05-.04.03-.09.06-.18.08-.28.1-.52,0-1.04-.3-1.48-.29-.44-.74-.74-1.26-.84-1.09-.21-2.11.51-2.32,1.56-.02.1-.02.2-.03.3.03.04.06.07.08.11-.29-.42-.61-.81-.96-1.16.46-1.14,1.57-1.93,2.84-1.93Z"/>
  <path class="cls-1" d="m35.22,137.74c.11,0,.22-.01.33-.03.02-.02.04-.04.06-.05-.38.4-.72.84-1.01,1.32.04-.07.09-.13.13-.2-.03,0-.06,0-.09,0-.03,0-.06-.02-.08-.02-.08-.45-.21-.88-.37-1.31.2.12.42.22.67.27.13.03.26.04.38.04Z"/>
  <path class="cls-1" d="m25.2,106.13c.07.16.15.32.22.47l-.21-.05c-.25-.07-.51-.13-.77-.15l-.77-.1-.77-.02c-.51-.04-1.02.05-1.53.07.51.08,1.01.1,1.5.23l.73.17.62.22c-.49-.02-1.01-.04-1.53-.02-1.22.03-2.42.17-3.31.33-.89.16-1.47.32-1.47.32,0,0,.6-.04,1.49-.02.89.02,2.08.12,3.23.32.4.07.77.15,1.15.24-.38.08-.76.15-1.15.21-1.15.18-2.32.24-3.2.24-.88,0-1.47-.06-1.47-.06,0,0,.57.17,1.45.35.88.19,2.07.36,3.28.42.51.03,1.03.03,1.51.02l-.62.2-.72.15c-.48.12-.98.12-1.48.19.5.04,1,.14,1.51.12h.77s.77-.08.77-.08c.26-.02.51-.07.77-.13l.27-.06c-.09.17-.18.35-.26.54-1.26.49-2.98.82-5.03.82-3.31,0-6.15-2.11-7.07-2.88.92-.76,3.77-2.88,7.07-2.88,2.04,0,3.77.33,5.02.83Z"/>
  <path class="cls-1" d="m35.02,136.77c-.56-.11-.93-.65-.82-1.21.09-.49.52-.84,1.01-.84.07,0,.13,0,.2.02.56.11.93.65.82,1.21-.11.55-.64.93-1.21.82Z"/>
  <path class="cls-1" d="m35.48,113.13c.28,0,.58-.02.91-.05,1.4,2.16,1.76,4.68,1.85,5.65-.97-.09-3.49-.45-5.65-1.85.03-.33.05-.63.05-.91,0-1.08-.08-2.11-.24-3.08.97.16,2,.24,3.08.24Z"/>
  <path class="cls-1" d="m35.21,128.74c.45,0,.91.04,1.36.13,3.15.62,5.39,3.26,5.64,6.32-.27-.03-.55-.04-.82-.04-.1,0-.2,0-.29.01.02,0,.04,0,.06,0-.26-2.54-2.15-4.73-4.79-5.25-.38-.07-.77-.11-1.16-.11-2.24,0-4.24,1.26-5.26,3.17-.46-.21-.96-.37-1.46-.48.16.04.32.07.47.12,1.17-2.31,3.56-3.85,6.25-3.85Z"/>
  <path class="cls-1" d="m35.21,130.73c.33,0,.65.03.98.1,2.21.43,3.81,2.27,4.03,4.4.03,0,.06,0,.08,0-.38.05-.76.13-1.12.24-.11-1.76-1.39-3.28-3.19-3.63-.25-.05-.52-.07-.77-.07-1.54,0-2.9.9-3.57,2.22-.27-.21-.56-.41-.86-.59.86-1.6,2.54-2.66,4.42-2.66Z"/>
  <path class="cls-1" d="m20.54,127.85c.33,0,.65.03.97.1,2.22.43,3.81,2.27,4.03,4.41.03,0,.05,0,.08,0-.38.05-.76.13-1.12.24-.11-1.76-1.39-3.28-3.19-3.63-.26-.05-.51-.07-.77-.07-1.54,0-2.9.89-3.57,2.22-.27-.22-.56-.41-.86-.59.86-1.6,2.54-2.66,4.42-2.66Z"/>
  <path class="cls-1" d="m29.46,105.76s-.03-.02-.04-.02l.04-.16c.07-.25.13-.51.15-.77l.1-.77.02-.77c.04-.51-.05-1.02-.07-1.53-.08.51-.1,1.01-.23,1.5l-.17.73-.22.62c.02-.49.03-1.01.02-1.52-.03-1.22-.17-2.43-.33-3.31-.16-.89-.32-1.47-.32-1.47,0,0,.04.6.02,1.5-.02.89-.12,2.08-.32,3.23-.07.39-.15.77-.24,1.15-.08-.38-.15-.76-.21-1.16-.18-1.15-.24-2.32-.24-3.2,0-.88.06-1.47.06-1.47,0,0-.17.57-.35,1.45-.19.88-.36,2.07-.42,3.29-.03.51-.03,1.03-.02,1.51l-.2-.62-.15-.72c-.12-.48-.12-.98-.19-1.48-.04.49-.14,1-.11,1.51v.77s.08.77.08.77c.02.26.07.52.13.77l.06.27c-.17-.09-.35-.18-.54-.26-.49-1.26-.82-2.98-.82-5.02,0-3.31,2.11-6.15,2.88-7.07.76.92,2.88,3.77,2.88,7.07,0,2.04-.33,3.77-.82,5.02-.15.06-.28.13-.41.2Z"/>
  <path class="cls-1" d="m20.54,125.86c.45,0,.91.04,1.36.13,3.15.62,5.39,3.26,5.64,6.32-.27-.03-.55-.04-.82-.04-.1,0-.2,0-.3.01.02,0,.04,0,.07,0-.26-2.54-2.15-4.73-4.79-5.25-.38-.07-.77-.11-1.15-.11-2.24,0-4.24,1.26-5.26,3.17-.32-.14-.65-.27-.99-.37,1.17-2.31,3.56-3.85,6.25-3.85Z"/>
  <path class="cls-1" d="m1.1,106.33c1.33-5.9,6.09-15.86,12.32-21.73,7.48-22.61,15.53-39.35,22.06-51.12-6.32-2.05-21.55-7.16-23.47-9.45-2.44-2.9,5.22-18.68,11.6-18.56,5.38.1,14.54,14.77,17.29,19.39,5.64-5.62,15.39-6.79,25.63-7.96,12.18-1.39,24.39-2.15,24.19,3.65-.13,3.85-4.08,8.23-9.16,12.3-2.45-.33-4.51-2.13-5.9-4.08.87,2.17,2.34,4.13,4.34,5.3-7.15,5.42-15.87,10.12-19.47,12-.71.16-1.56.31-1.68.34-1.08.22-2.18.35-3.28.46-1.79.18-3.57.13-5.37.07,3.06.67,6.12,1.11,9.23,1.04.05,2.66.38,8.95.78,16.76-1.18,1.31-2.54,2.36-4.26,3.09-2.28.97-5.34,1.39-7.64.23,2.29,1.59,5.6,1.47,8.17.77.46-.12.91-.29,1.36-.47,0-.02,0-.04.01-.06,1.3-.54,2.64-1.35,4-2.52,7.66-6.61,12.88-10.61,17.57-9.22,4.7,1.39,4.52,4.7,3.65,6.79-.7-2.09-2.61-2.61-2.61-2.61,0,0,2.09,4.7-.7,6.96,0-2.44-1.04-4.18-1.04-4.18,0,0-.18,3.48-2.61,4.7.52-3.13-1.22-5.39-1.22-5.39,0,0-8.26,12.44-16.44,18.71-.98.75-2.91,1.39-3.9,1.69-.07.03-.14.06-.21.09-2.45.84-5.51.72-7.71-.77,2.18,1.86,5.48,2.28,8.18,1.61,1.5-.35,2.91-1.04,4.32-1.63.63-.25,1.27-.54,1.9-.85.71,15.67,1.15,31.69.47,36.61-.66,4.79-2.24,9.27-4.75,13.13.05-.19.1-.38.15-.57.89-3.74,1.18-7.71.81-11.53-.6-6.54-3.84-13.71-9.47-17.43,6.08,4.52,8.72,12.86,8.37,20.15-.19,3.91-.88,7.91-2.46,11.51-.5,1.13-1.38,2.52-2.17,3.58-5.52,5.18-12.93,8.35-21.09,8.35C13.81,145.48,0,131.66,0,114.62c0-2.73.64-6.25,1.1-8.29ZM88.98,23.27c3.34-5.52-5.61-6.94-6.32-5.21-1.22,2.99,6.32,5.21,6.32,5.21Zm-4.97.42c0-.39-.31-.7-.7-.7s-.7.31-.7.7.31.7.7.7.7-.31.7-.7Zm-1.66,4.53c.39,0,.7-.31.7-.7s-.31-.7-.7-.7-.7.31-.7.7c0,.39.31.7.7.7Zm-3.29-2.56c.39,0,.7-.31.7-.7s-.31-.7-.7-.7-.7.31-.7.7c0,.39.31.7.7.7Zm-2.47-6.53s.04,0,.06,0c1.97-.15,3.2-.21,3.21-.21.4-.02.71-.36.69-.76-.02-.4-.35-.71-.76-.69-.01,0-1.25.06-3.25.21-.4.03-.7.38-.67.78.03.38.35.67.72.67Zm-22.95,80.2c2.49.47,5.01-1,5.63-3.47.65-2.61-.16-5.63-2.42-7.21-1.13-.79-2.52-1.21-3.89-1.18-.54.01-1.1.1-1.6.31-.22.09-.43.21-.62.37-.18.16-.08.54.16.35.11-.37,1.23-.48,1.52-.5.8-.05,1.61.1,2.35.38,1.55.58,2.85,1.78,3.33,3.39.48,1.48.44,3.56-.51,4.86-.78,1.1-2.38,1.54-3.67,1.26-.7-.16-1.36-.6-1.74-1.22-.41-.66-.39-1.69.3-2.18.42-.3,1.4-.46,1.46.28.04.54.16,1.14.87,1.08,1.44-.12.53-2.32-.11-2.78-1.13-.82-2.81-.43-3.67.6-1.83,2.22.14,5.17,2.6,5.65Zm-41.36,8.58l-.29.27.29.27c.14.14,3.58,3.35,7.9,3.35,1.77,0,3.38-.25,4.69-.67-.42,1.31-.67,2.92-.67,4.69,0,4.32,3.22,7.76,3.35,7.9l.27.29.27-.29c.14-.15,3.35-3.58,3.35-7.9,0-1.77-.25-3.38-.67-4.69,1.31.42,2.92.67,4.69.67,4.32,0,7.76-3.22,7.9-3.35l.29-.27-.29-.27c-.14-.14-3.58-3.35-7.9-3.35-1.77,0-3.38.25-4.69.67.42-1.31.67-2.92.67-4.69,0-4.32-3.22-7.76-3.35-7.9l-.27-.29-.27.29c-.14.14-3.35,3.58-3.35,7.9,0,1.77.25,3.38.67,4.69-1.31-.42-2.92-.67-4.69-.67-4.32,0-7.76,3.22-7.9,3.36Zm11.38,9.46l.19-.13-.03-.23c-.05-.4-.07-.73-.07-1.05,0-1.23.11-2.4.33-3.48l.11-.55-.55.11c-1.07.22-2.24.33-3.47.33-.32,0-.66-.02-1.05-.07l-.22-.03-.13.19c-2.02,2.95-2.13,6.5-2.14,6.65v.39s.39,0,.39,0c.15,0,3.7-.12,6.65-2.14Zm-1.31,2.02c0,.45.37.82.82.82s.82-.37.82-.82-.37-.82-.82-.82c-.45,0-.82.37-.82.82Zm-4.92-6.56c0-.45-.37-.82-.82-.82s-.82.37-.82.82.37.82.82.82.82-.37.82-.82Zm14.4,4.19l-.03.22.19.13c2.95,2.02,6.5,2.13,6.65,2.14h.39s0-.38,0-.38c0-.15-.12-3.7-2.14-6.65l-.13-.19-.23.03c-.39.05-.73.07-1.05.07-1.23,0-2.4-.11-3.47-.33l-.55-.11.11.55c.22,1.07.33,2.24.33,3.48,0,.32-.02.65-.07,1.05Zm-.17,2.38c0,.45.37.82.82.82s.82-.37.82-.82-.37-.82-.82-.82c-.45,0-.82.37-.82.82Zm7.38-5.74c.45,0,.82-.37.82-.82s-.37-.82-.82-.82-.82.37-.82.82.37.82.82.82Zm2.06-32.35c.46-.95.8-2.14.63-3.21-.07-.42-.37-.89-.86-.68-.47.21-.43.94-.42,1.37.04.86.29,1.74.64,2.52-.95-.46-2.14-.8-3.21-.63-.42.07-.89.37-.68.86.21.48.94.44,1.37.42.87-.05,1.72-.28,2.52-.65-.36.79-.61,1.66-.64,2.53-.01.43-.06,1.15.42,1.36.49.22.79-.26.86-.68.17-1.07-.16-2.26-.63-3.21.8.36,1.66.61,2.53.65.43.02,1.15.06,1.36-.42.22-.49-.26-.79-.68-.86-1.06-.17-2.26.16-3.21.63Zm1.76-13.09c.07-.07,1.61-1.71,2.03-3.95l.04-.19-.15-.12c-.17-.13-.33-.28-.49-.43-.54-.54-1.01-1.1-1.39-1.67l-.27-.41-.27.41c-.38.57-.84,1.13-1.39,1.67-.16.16-.32.3-.49.43l-.15.12.04.19c.42,2.23,1.96,3.88,2.03,3.95l.24.25.24-.25Zm-7.07,2.23c-.07-.41-.37-.89-.86-.68-.48.21-.43.94-.42,1.37.04.86.29,1.74.65,2.52-.95-.46-2.14-.8-3.21-.63-.42.07-.89.37-.68.86.21.48.94.44,1.37.42.87-.05,1.72-.28,2.52-.65-.36.79-.61,1.66-.65,2.53-.01.43-.06,1.15.42,1.36.49.22.79-.26.86-.68.17-1.07-.16-2.26-.63-3.21.79.36,1.65.61,2.53.65.43.02,1.15.06,1.36-.42.22-.49-.26-.79-.67-.86-1.07-.17-2.26.16-3.21.63.47-.95.8-2.15.63-3.21Zm-5.84,7.4c-.07-.41-.37-.89-.86-.68-.48.21-.44.94-.42,1.37.05.87.28,1.72.65,2.52-.95-.46-2.14-.8-3.21-.63-.41.07-.89.37-.68.86.21.48.94.43,1.37.42.86-.04,1.74-.29,2.52-.65-.36.8-.61,1.65-.65,2.53-.02.43-.06,1.15.42,1.36.49.22.79-.26.86-.67.17-1.07-.16-2.26-.63-3.21.79.36,1.66.61,2.53.65.43.01,1.15.06,1.36-.42.22-.49-.26-.79-.68-.86-1.07-.17-2.26.16-3.21.63.46-.95.8-2.15.63-3.21Zm9.08,19.57v-.39s-.38.01-.38.01c-.15,0-3.7.12-6.65,2.14l-.19.13.03.22c.05.4.07.74.07,1.05,0,1.23-.11,2.4-.33,3.48l-.11.55.56-.11c1.07-.22,2.24-.33,3.47-.33.32,0,.65.02,1.05.07l.22.03.13-.19c2.02-2.95,2.13-6.5,2.14-6.65Zm-.8,6.12c0,.45.37.82.82.82s.82-.37.82-.82-.37-.82-.82-.82-.82.37-.82.82Zm-4.92-6.56c0-.45-.37-.82-.82-.82s-.82.37-.82.82.37.82.82.82c.45,0,.82-.37.82-.82Zm-.82-9.11c.87-.05,1.72-.29,2.52-.65-.36.79-.61,1.65-.65,2.53-.02.43-.06,1.15.42,1.36.49.22.79-.26.86-.68.17-1.06-.16-2.26-.63-3.21.79.36,1.65.61,2.53.65.43.02,1.15.06,1.36-.42.22-.49-.26-.79-.68-.86-1.07-.17-2.26.16-3.21.63.46-.95.8-2.14.63-3.21-.07-.41-.37-.89-.86-.68-.48.21-.44.94-.42,1.37.05.87.28,1.72.65,2.52-.95-.46-2.15-.8-3.21-.63-.41.07-.89.37-.68.86.21.48.94.44,1.36.42Zm-16.69,15.67c0,.45.37.82.82.82s.82-.37.82-.82-.37-.82-.82-.82-.82.37-.82.82Zm.82-6.51v.39c.01.15.13,3.71,2.15,6.65l.13.19.22-.03c.4-.04.73-.07,1.05-.07,1.23,0,2.4.11,3.47.33l.55.11-.11-.55c-.22-1.08-.33-2.24-.33-3.48,0-.32.02-.65.07-1.05l.03-.22-.19-.13c-2.95-2.02-6.5-2.13-6.65-2.14h-.39Zm7.37-.05c0-.45-.37-.82-.82-.82s-.82.37-.82.82.37.82.82.82c.45,0,.82-.37.82-.82Zm-4.83-9.1c.21.47.94.44,1.37.42.88-.05,1.72-.28,2.52-.65-.35.79-.61,1.66-.65,2.53-.01.43-.06,1.15.42,1.36.49.22.79-.26.86-.68.17-1.07-.16-2.26-.63-3.21.79.36,1.65.61,2.53.65.43.02,1.15.06,1.36-.42.22-.49-.26-.79-.67-.86-1.07-.17-2.26.16-3.21.63.47-.95.8-2.14.63-3.21-.06-.41-.37-.89-.86-.68-.47.21-.43.94-.42,1.37.04.86.29,1.73.65,2.52-.95-.46-2.15-.8-3.21-.63-.41.07-.89.37-.67.86Zm4.51-16.6c-.06-.41-.37-.89-.86-.68-.47.21-.43.94-.42,1.37.04.86.29,1.74.65,2.52-.95-.46-2.15-.8-3.21-.63-.41.07-.9.37-.68.86.21.47.94.43,1.37.42.86-.04,1.74-.29,2.52-.64-.35.79-.61,1.66-.65,2.53-.01.43-.06,1.15.42,1.36.49.22.79-.26.86-.68.17-1.07-.16-2.26-.63-3.21.78.36,1.66.61,2.53.64.43.01,1.15.06,1.36-.42.22-.49-.26-.79-.68-.86-1.07-.17-2.26.16-3.21.63.46-.95.8-2.14.63-3.21Zm5.94-7.46c-.07-.42-.37-.9-.86-.68-.47.21-.43.94-.42,1.37.07.87.28,1.72.65,2.52-.95-.46-2.15-.8-3.21-.63-.41.07-.89.37-.68.86.21.47.94.43,1.37.42.86-.04,1.74-.29,2.52-.64-.36.79-.61,1.65-.65,2.53-.02.43-.06,1.15.42,1.36.49.22.79-.26.86-.67.17-1.07-.16-2.26-.63-3.21.79.36,1.66.61,2.53.64.43.01,1.15.06,1.36-.42.22-.49-.26-.79-.68-.86-1.06-.17-2.26.16-3.21.63.46-.95.8-2.14.63-3.21Zm2.76-6.07l-.25.24.25.24c.07.07,1.71,1.61,3.95,2.03l.19.04.12-.15c.13-.17.27-.33.43-.49.54-.54,1.11-1.01,1.67-1.39l.41-.27-.41-.27c-.57-.38-1.14-.85-1.67-1.38-.14-.14-.27-.29-.43-.49l-.12-.15-.19.04c-2.23.42-3.88,1.96-3.95,2.02Zm4.6-32.11c-1.33-4.98-12.19-16.02-12.19-16.02,0,0,2.58,4.45,5.07,7.83-.98-.8-5.34-2.85-5.34-2.85,0,0,5.78,5.16,9.08,8.72-1.33-1.07-7.39-3.03-7.39-3.03,0,0,6.05,3.65,8.81,6.76-1.51-1.78-8.28-2.94-8.28-2.94,0,0,5.43,3.03,8.1,4.99-1.51-.8-10.5-2.22-10.5-2.22,0,0,8.26,3.27,10.68,3.74,1.31.25,3.29,0,1.96-4.99Zm4.87,12.7c-.84-.92-2.07-1.46-3.31-1.51-.47-.02-.96.03-1.4.2-.2.08-.39.18-.55.33-.13.12-.01.36.15.23.13-.44,1.44-.38,1.76-.35.86.09,1.71.45,2.38,1,1.29,1.07,1.66,2.96,1.18,4.53-.44,1.46-2.26,2.28-3.64,1.52-.66-.36-1.14-1.09-.85-1.85.16-.43,1.27-1.06,1.4-.29.04.23-.03.43.14.64.21.25.59.29.83.08.45-.37.19-1.24-.11-1.62-1.01-1.3-3.04-.43-3.42.96-.41,1.49.63,2.86,2.04,3.28,1.02.31,2.25.07,3.12-.52,2.07-1.42,1.82-4.92.27-6.63Zm3.07,13.31c-.42-2.23-1.96-3.88-2.03-3.95l-.24-.25-.24.25c-.07.07-1.61,1.72-2.03,3.95l-.04.19.16.12c.2.16.35.29.49.43.54.54,1.01,1.11,1.39,1.67l.27.41.27-.41c.37-.56.84-1.13,1.39-1.67.16-.16.32-.3.49-.43l.15-.12-.04-.19Zm5.91-29.21c-.12-.38-.53-.59-.91-.47-1.14.36-2.18.74-3.09,1.14-.37.16-.54.58-.38.95.12.27.39.44.67.44.1,0,.19-.02.29-.06.87-.37,1.86-.74,2.96-1.08.38-.12.59-.53.47-.91Zm6.46-2.3c-1.11.22-2.18.45-3.18.68-.39.09-.63.48-.54.87.08.33.38.56.7.56.06,0,.11,0,.17-.02.98-.23,2.03-.46,3.12-.67.39-.08.65-.46.57-.85-.08-.39-.46-.65-.85-.57Zm-4.49,4.7c-3.06.5-5.42,2.97-5.25,6.18.37-1.37.89-2.57,1.97-3.55.63-.58,1.36-.92,2.13-1.28,1.48-.42,2.95-.51,4.42.04,1.86.7,3.01,2.05,3.83,3.8-.44-3.4-3.7-5.74-7.09-5.19Zm3.63,6.7c.59-.02,1.17-.01,1.74.02.01-.13.02-.26.02-.4,0-1.42-.79-2.66-1.99-3.39.55.5.9,1.21.9,2.01,0,.68-.26,1.29-.66,1.76Zm-2.26,1.5c-1.48.26-3.24.64-4.37,1.71,3-.56,6.1-.67,9.05-1.5-1.52-.48-3.13-.38-4.68-.2Zm1.61-4.33c0-.47-.38-.85-.85-.85s-.85.38-.85.85.38.85.85.85.85-.38.85-.85Zm-2.97,3.29c-.7-.49-1.15-1.3-1.15-2.22,0-1.33.96-2.44,2.23-2.67-.04,0-.07,0-.11,0-2.44,0-4.41,1.82-4.41,4.06,0,.63.16,1.23.44,1.77.9-.38,1.92-.69,3.01-.93Zm11.93-13.08c-1.05.15-2.13.3-3.2.47-.39.06-.66.43-.6.83.06.36.36.61.71.61.04,0,.07,0,.11,0,1.06-.17,2.13-.32,3.17-.47.4-.06.67-.42.62-.81-.05-.4-.42-.67-.82-.62Zm7.5-.86c-1.01.1-2.09.21-3.21.33-.4.04-.68.4-.64.8.04.37.35.64.72.64.03,0,.05,0,.08,0,1.12-.12,2.19-.23,3.19-.33.4-.04.69-.39.65-.79-.04-.4-.39-.69-.79-.65Zm-14.87,26.72c10.49-2.54,15.62-9.21,15.62-9.21,0,0-2.04,1.09-4.72,2.43-1.28-.92-2.47-2.06-3.56-3.38.28,1.48.72,2.98,1.36,4.46-.09.04-.18.09-.27.13-1.27-.95-2.49-2.04-3.64-3.27l.58,2.12.75,2.12s.03.06.04.1c-.03.01-.07.03-.1.04-.03-.02-.06-.03-.09-.05-.18-.1-.36-.24-.54-.36-.36-.26-.71-.58-1.06-.91-.7-.67-1.4-1.45-2.15-2.17.34,1.01.57,2,.88,3,.15.47.32.94.52,1.41l-4.65-3.37,1.62,3.42c-1.34-.85-2.59-1.81-3.9-2.76.61,1.3,1.22,2.66,1.91,3.97-.18-.09-.37-.18-.55-.28-1.42-.76-2.78-1.65-3.71-2.44-.12-.1-.24-.19-.34-.28-.1-.1-1.13-1.16-1.13-1.16,0,0,.41,1.49.45,1.64.05.14.11.28.17.44.16.44.37.93.62,1.44-1.47-.92-2.88-1.86-4.2-2.99.61,1.64,1.45,3.26,2.34,4.84-1.83.09-3.13.07-3.13.07,0,0,5.46,2.31,10.87,1Zm-4.47,13.41l.25-.24-.25-.24c-.07-.07-1.71-1.61-3.94-2.03l-.19-.04-.12.15c-.14.17-.28.33-.43.49-.54.54-1.1,1.01-1.67,1.39l-.41.27.41.27c.57.38,1.13.84,1.67,1.39.14.14.27.29.43.49l.12.15.19-.04c2.23-.42,3.88-1.96,3.94-2.03Zm-3.52,6.93h.34s0-.33,0-.33c0-.12-.1-3.11-2.04-5.06-.72-.72-1.5-1.31-2.25-1.72.75-.41,1.53-1,2.25-1.72,1.94-1.94,2.04-4.93,2.04-5.06v-.34s-.33,0-.33,0c-.13,0-3.11.1-5.06,2.04-.71.71-1.3,1.49-1.71,2.24-.4-.73-.98-1.5-1.72-2.24-1.94-1.94-4.93-2.04-5.06-2.04h-.34s0,.33,0,.33c0,.13.1,3.11,2.04,5.06.72.72,1.5,1.31,2.25,1.72-.75.41-1.53,1-2.25,1.72-1.94,1.94-2.04,4.93-2.05,5.06v.35s.33-.01.33-.01c.13,0,3.11-.1,5.06-2.04.74-.74,1.32-1.51,1.72-2.24.41.75,1,1.52,1.71,2.24,1.94,1.94,4.93,2.04,5.06,2.04Zm-2.74,12.2c-.02.43-.06,1.15.42,1.36.49.22.79-.26.86-.68.17-1.06-.16-2.26-.63-3.21.79.36,1.66.61,2.53.64.43.01,1.15.06,1.36-.42.22-.49-.26-.79-.68-.86-1.07-.17-2.26.16-3.21.63.46-.95.79-2.15.63-3.21-.07-.42-.37-.9-.86-.68-.48.21-.44.94-.42,1.37.05.87.28,1.72.65,2.52-.95-.46-2.15-.8-3.21-.63-.41.07-.89.37-.68.86.21.48.94.43,1.37.42.86-.04,1.74-.29,2.52-.64-.36.79-.61,1.65-.65,2.53Zm.37,27.96c-.87.03-1.9.04-2.44.49.8.04,2.45.67,3.29,1.47-.62-.12-1.81.12-2.93.38,2.21.28,3.24.83,3.96,1.27-1.69.05-3.28.21-4.76.45,2.21.48,4.39,1.2,6.48,2.16-2.13-.3-4.14-.38-6.01-.32,2.18.6,4.31,1.46,6.34,2.57-1.56.03-3.01.17-4.33.38,1.87.59,3.75,1.38,5.61,2.4-2.12-.37-4.08-.48-5.83-.43,2.08.72,4.19,1.71,6.26,3.04-1.55-.27-3-.38-4.32-.4,1.44.89,2.82,1.95,4.13,3.17-1.65-.35-3.18-.52-4.55-.54,1.34.73,2.7,1.63,4.05,2.74-2-.51-3.8-.7-5.35-.69,1.37.83,2.79,1.87,4.18,3.21-.36-.12-2.56-.37-3.79-.61.73.69,2.98,2.21,2.98,2.21,0,0-2.29-.57-3.33-.71.73.73,2.12,1.87,2.45,2.27-1.17-.2-2.43-.43-3.3-.77.59,1.07,1.68,1.94,3.07,2.71-1.16-.29-2.13-.48-3.22-.68.88.86,3.29,2.78,4.68,3.56,3.68-4.03,8.21-22.19-3.33-29.31Zm-5.24,35.89c-.72-.13-1.4.14-1.84.65.62-.2,1.24-.41,1.84-.65Zm-3.28,1.06c.39-1.28,1.56-2.18,2.92-2.18.2,0,.4.02.59.06.42.08.81.25,1.15.49.32-.15.64-.29.95-.45-.54-.49-1.19-.82-1.92-.96-.25-.05-.52-.08-.78-.08-1.91,0-3.56,1.36-3.93,3.24,0,.04-.01.09-.02.13.35-.07.69-.16,1.03-.25Zm-2.09.46c.02-.18.04-.37.07-.55.46-2.35,2.53-4.06,4.93-4.06.32,0,.65.03.97.1,1.04.2,1.96.72,2.67,1.47.28-.15.56-.31.84-.48-.86-.99-2.02-1.66-3.33-1.92-.38-.07-.77-.11-1.15-.11-2.85,0-5.31,2.03-5.85,4.82-.06.29-.09.59-.1.88.32-.05.64-.1.95-.16Zm-10.04-.52c.13.02.26.04.38.04.94,0,1.76-.67,1.94-1.6.1-.52,0-1.04-.3-1.48-.29-.44-.74-.74-1.26-.84-1.09-.21-2.12.51-2.32,1.56-.21,1.07.49,2.11,1.56,2.32Zm-3.18-.11c.47.13.95.26,1.43.36-.72-.7-1.08-1.73-.88-2.78.28-1.43,1.55-2.48,3.01-2.48.19,0,.39.02.59.06,1.66.33,2.74,1.94,2.42,3.6-.19.99-.86,1.77-1.72,2.18.49.05.98.09,1.47.12.58-.56,1.01-1.28,1.18-2.12.43-2.17-.99-4.28-3.16-4.71-.26-.05-.52-.07-.77-.07-1.91,0-3.56,1.36-3.93,3.24-.18.92-.03,1.83.37,2.6Zm-2.31-.75c.35.13.7.25,1.06.37-.23-.76-.28-1.58-.12-2.41.46-2.35,2.53-4.06,4.93-4.06.32,0,.65.03.97.1,2.72.53,4.5,3.18,3.97,5.9-.14.73-.44,1.39-.85,1.96.1,0,.21,0,.31,0,.27,0,.54-.01.81-.02.31-.54.53-1.13.66-1.77.63-3.23-1.48-6.37-4.71-7.01-.38-.07-.77-.11-1.15-.11-2.84,0-5.31,2.03-5.85,4.82-.15.76-.14,1.51,0,2.22Zm-8.44-4.92c.21.08.38.22.5.4.36.28.72.56,1.09.82.14-1.03-.54-2-1.57-2.2-.36-.07-.72-.03-1.04.09.33.3.67.6,1.02.89Zm-1.87-1.7c.45-.25.96-.4,1.51-.4.2,0,.4.02.59.06,1.66.33,2.74,1.94,2.42,3.6-.02.12-.06.23-.1.34.27.18.54.36.82.53.09-.22.15-.45.2-.69.42-2.17-.99-4.28-3.16-4.7-.26-.05-.52-.08-.78-.08-.79,0-1.54.25-2.17.66.22.23.44.46.66.68Zm-1.37-1.46c.82-.57,1.81-.91,2.87-.91.32,0,.65.03.97.09,1.32.26,2.46,1.01,3.21,2.13.75,1.11,1.02,2.45.76,3.77-.07.35-.18.69-.32,1.01.27.15.55.31.83.46.18-.41.33-.84.42-1.29.31-1.57-.01-3.16-.9-4.48-.89-1.32-2.24-2.22-3.81-2.53-.38-.07-.77-.11-1.15-.11-1.29,0-2.5.42-3.49,1.14.2.24.41.48.62.71Zm-2.82-3.77s.09,0,.13,0c.58,0,1.13-.26,1.51-.7.7-.83.6-2.09-.24-2.79-.36-.3-.81-.46-1.27-.46-.59,0-1.14.26-1.51.7-.09.11-.17.22-.23.34.48,1,1.02,1.96,1.61,2.9Zm-3.34-7.43c.49-.35.96-.76,1.36-1.23.67-.21,1.38-.33,2.11-.33,1.65,0,3.26.59,4.52,1.65,2.19,1.85,2.96,4.76,2.2,7.35-.35-.05-.71-.09-1.07-.09.75-2.25.12-4.84-1.8-6.46-1.08-.91-2.44-1.41-3.85-1.41-1.2,0-2.35.37-3.33,1.02.1.31.2.62.31.93.86-.64,1.91-1,3.01-1,1.18,0,2.33.42,3.24,1.19,1.72,1.45,2.22,3.82,1.39,5.8-.44.05-.88.14-1.3.26,1.12-1.67.82-3.96-.75-5.28-.72-.61-1.64-.94-2.58-.94s-1.91.36-2.64.99c.12.32.25.63.38.94.58-.63,1.4-1,2.26-1,.72,0,1.42.26,1.97.72,1.29,1.09,1.45,3.03.37,4.32-.46.55-1.09.9-1.79,1.03.28.4.57.8.87,1.19,1.17-.86,2.6-1.36,4.13-1.36.45,0,.91.04,1.36.13,1.84.36,3.43,1.42,4.48,2.97.99,1.47,1.37,3.22,1.11,4.96-.02.1-.05.2-.07.3s-.03.21-.04.31c-.11.44-.26.86-.44,1.26.44.21.88.41,1.32.6-.05-.55-.04-1.11.05-1.67.02-.1.05-.2.07-.3s.03-.21.04-.31c.76-3.13,3.57-5.37,6.81-5.37.45,0,.91.04,1.36.13,1.84.36,3.43,1.41,4.47,2.97.99,1.47,1.37,3.21,1.11,4.95-.03.1-.06.2-.07.31-.02.1-.03.21-.04.31-.1.42-.24.82-.42,1.21.43-.03.85-.07,1.27-.12,0-.3.02-.6.07-.91.02-.1.05-.2.07-.3.02-.1.03-.21.05-.31.76-3.12,3.57-5.36,6.81-5.36.45,0,.91.04,1.36.13,1.6.31,3.01,1.15,4.04,2.39.27-.17.53-.34.79-.52-1.12-1.39-2.66-2.34-4.42-2.74-.18-3.56-2.76-6.69-6.41-7.4-.51-.1-1.03-.15-1.54-.15-2.85,0-5.4,1.53-6.81,3.87-.5-3.22-2.95-5.93-6.32-6.6-.51-.1-1.03-.15-1.54-.15-2.43,0-4.64,1.11-6.11,2.89.09-2.37-.86-4.76-2.81-6.4-1.43-1.21-3.26-1.88-5.13-1.88-.43,0-.85.05-1.27.11,1.96-3.28,1.31-7.6-1.7-10.15-.35-.3-.73-.56-1.13-.79-.05.32-.11.66-.16,1.01.24.15.47.32.68.5,2.92,2.46,3.32,6.82.93,9.77-.42.15-.82.34-1.2.56.12.5.24.99.39,1.48Zm-.53-2.12c.16-.15.31-.31.46-.49,1.03-1.22,1.52-2.77,1.39-4.35-.13-1.59-.88-3.03-2.1-4.06-.05-.04-.11-.09-.17-.13-.05.38-.08.77-.12,1.15.83.84,1.34,1.93,1.44,3.12.11,1.31-.29,2.59-1.12,3.6.06.39.13.78.21,1.16Zm-.44-2.73c.5-1.15.43-2.48-.18-3.57,0,.1,0,.2,0,.3,0,1.11.07,2.2.19,3.27Z"/>
  <path class="cls-1" d="m20.54,129.82c.2,0,.4.02.59.06,1.47.29,2.48,1.59,2.47,3.03.03-.01.05-.02.08-.03-.47.19-.91.43-1.33.7.02,0,.03-.02.04-.03.03-.09.06-.18.08-.28.21-1.07-.49-2.11-1.56-2.32-1.08-.21-2.11.51-2.32,1.56-.02.1-.02.2-.03.3.03.04.06.07.08.11-.28-.42-.61-.81-.96-1.16.46-1.14,1.57-1.93,2.84-1.93Z"/>
  <path class="cls-1" d="m6.49,126.46c.24,0,.48.09.66.24.44.37.49,1.02.12,1.46-.35.41-1.04.48-1.46.12-.44-.37-.49-1.02-.12-1.46.2-.23.48-.37.79-.37Z"/>
  <path class="cls-1" d="m30.21,109.76l.21.05c.25.07.5.13.77.15l.77.1.77.02c.51.03,1.02-.05,1.53-.07-.5-.08-1.01-.1-1.5-.23l-.73-.17-.62-.21c.49.02,1.01.04,1.52.02,1.22-.03,2.42-.17,3.31-.34.89-.16,1.47-.32,1.47-.32,0,0-.6.04-1.5.02-.89-.02-2.07-.12-3.23-.32-.39-.07-.77-.15-1.15-.24.38-.08.76-.15,1.16-.21,1.15-.18,2.32-.24,3.2-.24.88,0,1.47.06,1.47.06,0,0-.57-.17-1.44-.35-.88-.19-2.07-.36-3.29-.42-.51-.03-1.03-.03-1.51-.02l.62-.2.72-.15c.48-.12.98-.12,1.48-.19-.5-.04-1-.14-1.51-.12h-.77s-.77.08-.77.08c-.26.02-.51.07-.77.13l-.14.03s-.04-.08-.06-.11c.07-.13.13-.26.19-.4,1.26-.49,2.98-.82,5.03-.82,3.31,0,6.15,2.11,7.07,2.88-.92.76-3.76,2.88-7.07,2.88-2.04,0-3.77-.33-5.03-.82-.07-.16-.14-.32-.22-.46Z"/>
  <path class="cls-1" d="m27.97,105.78c1.26,0,2.29,1.02,2.29,2.28s-1.02,2.28-2.29,2.28-2.29-1.02-2.29-2.28c0-1.26,1.03-2.28,2.29-2.28Zm0,3.28c.55,0,1-.45,1-.99s-.44-1-1-1-1,.45-1,1c0,.55.45.99,1,.99Z"/>
  <path class="cls-1" d="m26.24,110.57l-.06.21c-.07.25-.13.51-.15.77l-.1.77-.02.77c-.04.51.05,1.02.07,1.52.08-.51.1-1.01.23-1.5l.17-.73.22-.62c-.02.49-.04,1.01-.02,1.52.03,1.22.17,2.43.33,3.31.16.89.32,1.47.32,1.47,0,0-.04-.6-.02-1.49.02-.89.12-2.07.32-3.23.07-.4.15-.77.24-1.15.08.38.15.76.21,1.16.18,1.15.24,2.32.24,3.2,0,.88-.06,1.47-.06,1.47,0,0,.17-.57.35-1.45.19-.88.36-2.07.42-3.29.03-.51.03-1.03.02-1.51l.19.62.15.72c.12.48.12.98.19,1.48.04-.5.14-1,.12-1.51v-.77l-.08-.77c-.02-.26-.07-.52-.13-.77l-.06-.27c.17.09.35.18.54.26.49,1.26.82,2.98.82,5.03,0,3.31-2.11,6.15-2.88,7.07-.76-.92-2.88-3.77-2.88-7.07,0-2.04.33-3.77.82-5.03.17-.07.32-.15.47-.22Z"/>
  <path class="cls-1" d="m42.65,53.31c-.34-.47-.75-.93-1.19-1.38-.11-.11-.24-.23-.39-.35.32-1.45,1.17-2.63,1.58-3.15.42.52,1.26,1.7,1.58,3.15-.15.13-.27.24-.39.35-.45.45-.85.92-1.19,1.38Z"/>
  <path class="cls-1" d="m26.72,139.19c.07,0,.13,0,.2.02.27.05.5.21.66.44.15.23.21.51.16.78-.11.55-.65.93-1.21.82-.56-.11-.93-.66-.82-1.22.1-.48.52-.83,1.01-.83Z"/>
  <path class="cls-1" d="m43.49,58.99c-.54.54-1.49.54-2.03,0-.56-.56-.56-1.47,0-2.03.27-.27.63-.42,1.01-.42s.74.15,1.01.42c.56.56.56,1.47,0,2.03Z"/>
  <path class="cls-1" d="m43.06,59.75c.09.17.19.33.3.49.27.4.6.76.85,1.01.25.25.44.4.44.4,0,0-.17-.17-.38-.45-.22-.28-.49-.67-.7-1.08-.11-.21-.2-.42-.27-.63.33.38.7.81,1.12,1.24,1.05,1.1,2.33,1.89,2.33,1.89,0,0-1.17-.95-2.05-2.14-.31-.4-.6-.83-.84-1.21.38.25.8.54,1.2.86,1.17.9,2.1,2.07,2.1,2.07,0,0-.77-1.28-1.85-2.35-.43-.44-.87-.82-1.25-1.15.21.08.44.18.66.3.41.22.79.49,1.06.71.27.22.44.39.44.39,0,0-.15-.19-.39-.44-.24-.26-.59-.59-.99-.86-.17-.12-.34-.23-.51-.32.11-.03.22-.08.33-.12.81.36,1.72,1.01,2.55,1.83,1.38,1.38,1.74,3.42,1.82,4.24-.82-.09-2.87-.44-4.25-1.82-.82-.82-1.45-1.71-1.82-2.54.04-.1.07-.2.1-.3Z"/>
  <path class="cls-1" d="m35.48,103.4c-1.08,0-2.11.08-3.08.24.16-.97.24-2,.24-3.08,0-.28-.02-.58-.05-.91,2.16-1.4,4.68-1.76,5.65-1.86-.09.97-.45,3.49-1.85,5.65-.33-.03-.62-.05-.91-.05Z"/>
  <path class="cls-1" d="m20.16,103.4c-.28,0-.58.02-.91.05-1.4-2.16-1.76-4.68-1.85-5.65.97.09,3.49.45,5.65,1.85-.03.33-.05.62-.05.91,0,1.08.08,2.11.24,3.08-.97-.16-2-.24-3.08-.24Z"/>
  <path class="cls-1" d="m44.35,57.53c.17-.09.34-.19.5-.3.4-.27.76-.6,1.01-.85.25-.25.4-.44.4-.44,0,0-.17.17-.45.38-.28.22-.67.49-1.08.7-.22.11-.44.21-.65.29.39-.32.83-.7,1.27-1.13,1.1-1.05,1.89-2.33,1.89-2.33,0,0-.95,1.17-2.14,2.05-.4.31-.83.6-1.21.84.25-.38.55-.8.86-1.2.9-1.17,2.07-2.09,2.07-2.09,0,0-1.29.77-2.35,1.85-.42.41-.79.83-1.11,1.2.06-.21.15-.41.25-.61.22-.41.49-.79.71-1.06.22-.27.39-.44.39-.44,0,0-.18.15-.44.39-.26.24-.59.59-.86.99-.12.16-.22.34-.32.5-.03-.11-.07-.22-.11-.33.37-.83,1-1.72,1.82-2.54,1.38-1.38,3.42-1.74,4.25-1.82-.09.82-.44,2.87-1.82,4.25-.82.82-1.74,1.47-2.55,1.83-.1-.04-.21-.08-.3-.11Z"/>
  <path class="cls-1" d="m37.98,57.97c-.47.34-.93.75-1.38,1.19-.11.12-.23.24-.35.39-1.45-.32-2.63-1.17-3.15-1.58.52-.42,1.7-1.26,3.15-1.58.12.15.24.27.35.39.45.45.91.85,1.38,1.19Z"/>
  <path class="cls-1" d="m40.82,58.45c-.16.1-.32.2-.48.31-.4.27-.76.6-1.01.85-.25.25-.4.44-.4.44,0,0,.17-.17.45-.38.28-.22.67-.49,1.08-.7.16-.08.32-.15.48-.21,0,.02.02.03.03.05-.35.29-.73.62-1.11,1-1.1,1.05-1.89,2.33-1.89,2.33,0,0,.95-1.17,2.14-2.05.4-.31.83-.59,1.21-.84-.25.38-.54.8-.86,1.2-.9,1.17-2.07,2.1-2.07,2.1,0,0,1.28-.77,2.35-1.85.39-.38.74-.78,1.05-1.13-.02.19-.1.37-.2.54-.22.41-.49.79-.71,1.06-.22.28-.39.44-.39.44,0,0,.19-.15.44-.39.26-.24.59-.59.86-.99.12-.17.22-.34.32-.51.03.11.07.22.12.33-.34.76-.94,1.66-1.82,2.54-1.38,1.38-3.42,1.74-4.25,1.82.09-.82.44-2.87,1.82-4.25.82-.82,1.74-1.47,2.54-1.83.1.04.19.08.29.11Z"/>
  <path class="cls-1" d="m41.82,55.74c-.27-.4-.6-.76-.85-1.01-.25-.25-.44-.4-.44-.4,0,0,.16.17.38.45.22.28.49.67.7,1.08.09.17.16.34.23.51-.02,0-.03.01-.05.02-.3-.36-.64-.75-1.02-1.14-1.05-1.1-2.33-1.89-2.33-1.89,0,0,1.17.95,2.05,2.14.3.4.58.82.83,1.2-.38-.24-.8-.53-1.19-.84-1.17-.9-2.09-2.07-2.09-2.07,0,0,.77,1.28,1.84,2.35.37.38.74.71,1.08,1-.01.02-.02.04-.03.06-.15-.06-.3-.13-.46-.21-.41-.22-.79-.49-1.06-.71-.27-.22-.44-.39-.44-.39,0,0,.15.19.39.44.24.26.59.59.99.86.15.11.31.21.47.29,0,.02-.01.03-.01.05-.09.03-.18.06-.28.1-.81-.36-1.72-1.01-2.54-1.83-1.38-1.38-1.74-3.42-1.82-4.25.82.09,2.87.44,4.25,1.82.88.88,1.49,1.78,1.82,2.54-.04.1-.08.21-.11.3-.09-.17-.19-.33-.3-.49Z"/>
  <path class="cls-1" d="m41.42,63.98c.45-.45.85-.91,1.19-1.38.35.47.75.94,1.2,1.38.12.12.25.24.39.35-.32,1.45-1.17,2.63-1.58,3.15-.42-.52-1.26-1.7-1.58-3.15.13-.11.26-.23.39-.35Z"/>
  <path class="cls-1" d="m47.28,57.94c.47-.35.93-.75,1.38-1.2.11-.11.23-.24.35-.39,1.45.32,2.63,1.17,3.15,1.58-.52.41-1.7,1.26-3.15,1.58-.12-.15-.24-.27-.35-.39-.45-.45-.91-.85-1.38-1.19Z"/>
</svg>