<?xml version="1.0" encoding="UTF-8"?>
<svg id="_ëîé_1" data-name="—ëîé_1" xmlns="http://www.w3.org/2000/svg" viewBox="0 0 143.31 170.99">
  <defs>
    <style>
      .cls-1 {
        stroke-width: 0px;
      }
    </style>
  </defs>
  <path class="cls-1" d="m37.19,60.43c-.19,0-.36.04-.53.13-.57.29-.79.99-.49,1.56.28.55,1.01.79,1.57.5.27-.14.48-.38.57-.68.09-.29.07-.61-.07-.89-.2-.38-.6-.63-1.03-.63Z"/>
  <path class="cls-1" d="m41.51,50.58c-.19,0-.36.04-.53.13-.57.29-.79,1-.49,1.56.28.55,1,.78,1.56.5.57-.29.79-1,.49-1.56-.2-.39-.59-.62-1.03-.62Z"/>
  <path class="cls-1" d="m83.44,103.23c.11.4.47.45.59.03.11-.35.13-.77.15-1.1-.02-1.2-.24-2.38-.44-3.56-.1.69-.21,1.38-.31,2.08-.11.83-.22,1.73,0,2.55Z"/>
  <path class="cls-1" d="m49.01,54.12c.63-2,.45-4.13-.52-5.99-1.36-2.62-4.04-4.24-6.98-4.24-1.27,0-2.48.3-3.62.89-1.86.97-3.24,2.6-3.87,4.61-.63,2-.45,4.13.52,5.99,1.36,2.62,4.03,4.24,6.98,4.24,1.25,0,2.5-.31,3.61-.89,1.86-.97,3.24-2.6,3.88-4.61Zm-4.42,3.56c-.95.49-2.01.75-3.08.75-2.51,0-4.79-1.38-5.94-3.61-1.7-3.27-.41-7.32,2.86-9.02.95-.49,2.01-.75,3.08-.75,2.51,0,4.79,1.38,5.94,3.61,1.7,3.28.42,7.32-2.86,9.02Z"/>
  <path class="cls-1" d="m34.34,29.87c-.4-.3-.8-.64-1.18-1.02-.1-.1-.2-.21-.3-.33-1.24.28-2.25.99-2.7,1.35.45.36,1.46,1.08,2.7,1.35.1-.12.2-.23.3-.33.38-.39.78-.73,1.18-1.03Z"/>
  <path class="cls-1" d="m41.51,46.11c-.91,0-1.78.21-2.59.64-2.76,1.43-3.84,4.84-2.41,7.59.97,1.88,2.89,3.04,5,3.04.91,0,1.78-.21,2.59-.64,2.76-1.43,3.84-4.83,2.41-7.59-.98-1.88-2.89-3.04-5.01-3.04Zm4.28,6.99c-.36,1.14-1.15,2.08-2.21,2.63-.64.33-1.35.5-2.06.5-1.68,0-3.21-.93-3.99-2.42-.55-1.06-.66-2.28-.29-3.42.36-1.14,1.15-2.08,2.21-2.63.64-.33,1.35-.51,2.07-.51,1.68,0,3.21.93,3.99,2.42.55,1.06.66,2.28.29,3.42Z"/>
  <path class="cls-1" d="m41.51,48.31c-.55,0-1.08.13-1.58.39-.82.42-1.42,1.14-1.69,2.01-.28.87-.2,1.8.22,2.62.59,1.14,1.76,1.85,3.05,1.85.55,0,1.08-.13,1.58-.39.81-.42,1.41-1.14,1.69-2.01.28-.88.2-1.8-.22-2.62-.59-1.14-1.76-1.85-3.05-1.85Zm1.02,5.4c-.31.16-.66.25-1.02.25-.83,0-1.59-.46-1.97-1.2-.56-1.08-.14-2.42.94-2.98.32-.16.67-.25,1.02-.25.83,0,1.59.46,1.97,1.19.56,1.08.14,2.42-.95,2.99Z"/>
  <path class="cls-1" d="m88.39,98.9c.41-.13.37-.49-.03-.6-.82-.22-1.72-.11-2.55,0-.69.09-1.39.2-2.08.3,1.17.2,2.39.46,3.55.44.37,0,.75-.04,1.11-.15Z"/>
  <path class="cls-1" d="m61.08,80.35c-.39.11-.45.47-.03.6.35.11.77.13,1.1.15,1.2-.02,2.38-.24,3.56-.44-.76-.11-1.51-.23-2.26-.33-.77-.1-1.61-.18-2.36.03Z"/>
  <path class="cls-1" d="m39.04,153.42c-.13-.42-.48-.37-.6.03-.2.76-.13,1.6-.03,2.36.1.76.22,1.51.33,2.27.2-1.17.46-2.39.44-3.55,0-.37-.04-.75-.15-1.11Z"/>
  <path class="cls-1" d="m34.12,157.77c-.4.11-.45.47-.03.6.35.11.77.13,1.1.15,1.2-.02,2.38-.24,3.56-.44-.69-.1-1.39-.21-2.08-.3-.83-.11-1.73-.22-2.55,0Z"/>
  <path class="cls-1" d="m66,75.99c-.13-.42-.49-.36-.59.03-.22.82-.11,1.72,0,2.55.09.69.2,1.39.3,2.08.2-1.17.45-2.39.44-3.55,0-.37-.03-.75-.15-1.11Z"/>
  <path class="cls-1" d="m65.41,85.28c.11.39.47.45.59.03.11-.35.14-.77.15-1.1-.03-1.2-.24-2.38-.44-3.56-.1.69-.22,1.38-.3,2.08-.11.83-.21,1.73,0,2.55Z"/>
  <path class="cls-1" d="m56.82,66.87c-.13-.42-.48-.36-.59.03-.22.82-.11,1.72,0,2.55.09.69.2,1.39.31,2.08.2-1.17.45-2.39.44-3.55,0-.37-.04-.75-.15-1.11Z"/>
  <path class="cls-1" d="m51.9,71.23c-.39.11-.45.47-.03.6.35.11.77.13,1.1.15,1.2-.03,2.38-.24,3.56-.44-.69-.1-1.39-.21-2.08-.3-.83-.11-1.73-.21-2.55,0Z"/>
  <path class="cls-1" d="m84.03,93.94c-.13-.42-.49-.36-.59.03-.22.82-.11,1.72,0,2.55.09.69.2,1.38.31,2.08.2-1.17.45-2.39.44-3.55,0-.37-.04-.75-.15-1.11Z"/>
  <path class="cls-1" d="m43.4,158.37c.41-.13.36-.49-.03-.6-.82-.22-1.72-.11-2.55,0-.69.09-1.39.2-2.08.3,1.17.2,2.39.46,3.55.44.37,0,.75-.04,1.11-.15Z"/>
  <path class="cls-1" d="m61.18,71.82c.42-.13.36-.49-.03-.6-.82-.22-1.72-.11-2.55,0-.7.09-1.39.2-2.08.3,1.17.2,2.39.46,3.55.44.37,0,.75-.04,1.11-.15Z"/>
  <path class="cls-1" d="m56.22,76.16c.11.39.47.45.6.03.11-.35.14-.77.15-1.1-.03-1.2-.24-2.38-.44-3.56-.1.69-.22,1.38-.31,2.08-.11.83-.22,1.73,0,2.55Z"/>
  <path class="cls-1" d="m39,27.93l.26-.33.29-.3c.18-.21.41-.37.61-.56-.16.23-.35.43-.48.66l-.21.34-.14.28c.17-.18.35-.38.55-.56.48-.46.99-.86,1.4-1.14.4-.28.68-.44.68-.44,0,0-.24.22-.58.57-.34.35-.75.84-1.11,1.37-.11.16-.22.33-.32.49.16-.11.33-.22.49-.34.51-.37.98-.79,1.32-1.13.34-.34.54-.58.54-.58,0,0-.15.28-.42.69-.26.41-.65.93-1.1,1.42-.17.2-.36.38-.54.56l.27-.14.34-.22c.23-.14.42-.33.64-.49-.18.21-.33.44-.53.62l-.29.3-.33.26c-.1.1-.22.17-.34.24.05.03.11.06.17.08.69-.31,1.48-.87,2.18-1.57,1.18-1.19,1.49-2.93,1.57-3.65-.72.08-2.47.39-3.65,1.57-.75.75-1.28,1.52-1.57,2.17.02.05.04.1.05.15.07-.12.14-.23.22-.34Z"/>
  <path class="cls-1" d="m75.74,121.6c-.13-.42-.49-.37-.59.03-.22.82-.11,1.72,0,2.55.09.69.2,1.39.3,2.08.2-1.17.45-2.39.44-3.55,0-.37-.04-.75-.15-1.11Z"/>
  <path class="cls-1" d="m79.92,90.07c.42-.13.36-.49-.03-.6-.82-.22-1.72-.11-2.55,0-.69.09-1.39.2-2.08.3,1.17.2,2.39.46,3.55.44.37,0,.75-.04,1.11-.15Z"/>
  <path class="cls-1" d="m74.96,94.4c.11.39.47.45.6.03.11-.35.13-.77.15-1.1-.02-1.2-.24-2.38-.44-3.56-.1.69-.21,1.38-.3,2.08-.11.83-.22,1.73,0,2.55Z"/>
  <path class="cls-1" d="m70.83,125.96c-.39.11-.45.47-.03.6.35.11.77.13,1.1.15,1.2-.03,2.38-.24,3.56-.44-.76-.11-1.51-.23-2.27-.33-.77-.1-1.6-.18-2.36.03Z"/>
  <path class="cls-1" d="m75.56,85.12c-.13-.42-.49-.36-.6.03-.22.82-.11,1.72,0,2.55.09.69.2,1.39.3,2.08.2-1.17.46-2.39.44-3.55,0-.37-.04-.75-.15-1.11Z"/>
  <path class="cls-1" d="m71.11,107.71c-.39.11-.45.47-.03.6.35.11.77.13,1.1.15,1.2-.02,2.38-.24,3.56-.44-.75-.11-1.51-.23-2.26-.33-.77-.1-1.61-.18-2.36.03Z"/>
  <path class="cls-1" d="m80.39,108.31c.42-.13.36-.49-.03-.6-.76-.2-1.59-.13-2.36-.03-.76.1-1.51.22-2.27.33,1.17.2,2.39.46,3.55.44.37,0,.75-.04,1.11-.15Z"/>
  <path class="cls-1" d="m76.03,103.36c-.13-.41-.49-.36-.59.03-.22.82-.11,1.72,0,2.55.09.69.2,1.38.3,2.08.2-1.17.46-2.39.44-3.55,0-.37-.04-.75-.15-1.11Z"/>
  <path class="cls-1" d="m70.64,89.47c-.4.11-.45.47-.03.6.35.11.77.13,1.1.15,1.2-.03,2.38-.24,3.56-.44-.69-.1-1.38-.21-2.08-.3-.83-.11-1.73-.22-2.55,0Z"/>
  <path class="cls-1" d="m80.11,126.55c.42-.13.36-.49-.03-.6-.76-.2-1.59-.13-2.36-.03-.76.1-1.51.22-2.27.33,1.17.2,2.39.46,3.55.44.37,0,.75-.04,1.11-.15Z"/>
  <path class="cls-1" d="m42.4,29.9c.4.3.8.64,1.18,1.02.1.1.2.21.3.33,1.24-.28,2.25-.99,2.7-1.35-.45-.36-1.46-1.08-2.7-1.35-.1.13-.2.24-.3.33-.38.38-.78.72-1.18,1.02Z"/>
  <path class="cls-1" d="m37.63,30.78c.47.47,1.28.47,1.75,0,.48-.48.48-1.27,0-1.75-.23-.23-.54-.36-.87-.36s-.64.13-.88.36c-.48.48-.48,1.27,0,1.75Z"/>
  <path class="cls-1" d="m36.62,29.6s.1-.03.15-.05c-.12-.07-.24-.14-.34-.23l-.33-.26-.3-.29c-.21-.18-.37-.41-.56-.62.23.16.43.35.66.48l.34.21.28.13c-.18-.17-.37-.35-.55-.55-.46-.48-.86-1-1.14-1.4-.28-.4-.44-.69-.44-.69,0,0,.22.24.57.58.35.33.84.75,1.37,1.11.16.12.33.22.5.33-.11-.17-.22-.33-.34-.49-.37-.51-.79-.99-1.13-1.32-.34-.33-.59-.54-.59-.54,0,0,.28.15.69.42.41.26.93.65,1.42,1.09.2.17.38.36.56.53l-.14-.27-.33-.5-.38-.47.48.39.44.44.27.33c.09.11.17.22.24.35.03-.05.05-.12.08-.18-.29-.65-.82-1.42-1.57-2.17-1.18-1.19-2.93-1.49-3.65-1.57.08.72.39,2.47,1.57,3.65.71.7,1.5,1.26,2.19,1.57Z"/>
  <path class="cls-1" d="m70.36,80.95c.42-.13.37-.49-.03-.59-.76-.2-1.6-.13-2.36-.03-.76.1-1.51.22-2.27.33,1.17.2,2.39.45,3.55.44.37,0,.75-.04,1.11-.15Z"/>
  <path class="cls-1" d="m79.11,98.3c-.39.11-.45.47-.03.6.35.11.77.13,1.1.15,1.2-.02,2.38-.24,3.56-.44-.69-.1-1.39-.21-2.08-.3-.83-.11-1.73-.22-2.55,0Z"/>
  <path class="cls-1" d="m38.39,33.91c-.3.4-.64.8-1.02,1.19-.1.1-.21.19-.33.3.28,1.24,1,2.25,1.35,2.7.36-.45,1.08-1.46,1.35-2.7-.1-.09-.22-.19-.33-.3-.39-.39-.73-.79-1.03-1.19Z"/>
  <path class="cls-1" d="m75.15,130.88c.11.4.47.45.59.03.11-.35.13-.77.15-1.1-.03-1.2-.24-2.38-.44-3.56-.1.69-.21,1.38-.3,2.08-.11.83-.22,1.73,0,2.55Z"/>
  <path class="cls-1" d="m40.04,30.28c.12.07.23.14.34.23l.33.26.3.29c.21.18.37.41.56.61-.23-.16-.43-.35-.66-.48l-.34-.21-.28-.13c.18.17.38.35.56.55.46.48.86,1,1.14,1.4.28.4.44.68.44.68,0,0-.22-.24-.57-.58-.35-.33-.84-.75-1.36-1.11-.16-.12-.33-.22-.5-.32.11.16.22.33.34.49.37.51.79.98,1.13,1.32.34.34.59.54.59.54,0,0-.28-.15-.69-.42-.41-.26-.93-.65-1.42-1.09-.2-.17-.38-.36-.56-.53l.14.27.22.33c.14.23.33.43.49.64l-.32-.26c-.11-.08-.21-.18-.31-.28l-.3-.29-.27-.32c-.09-.11-.17-.22-.24-.35-.03.04-.06.11-.08.17.32.71.87,1.48,1.57,2.18,1.19,1.18,2.93,1.49,3.65,1.57-.08-.72-.39-2.47-1.57-3.65-.71-.71-1.49-1.26-2.18-1.57-.05.02-.1.03-.15.05Z"/>
  <path class="cls-1" d="m38.36,25.85c.3-.4.64-.8,1.02-1.19.1-.1.21-.2.33-.3-.28-1.24-.99-2.25-1.35-2.7-.36.45-1.08,1.46-1.35,2.7.12.1.23.2.33.3.39.39.73.79,1.03,1.19Z"/>
  <path class="cls-1" d="m37.81,31.9l-.26.33-.29.31c-.18.21-.41.37-.61.56.16-.22.35-.43.48-.67l.22-.34.14-.28c-.17.18-.35.38-.55.56-.48.46-1,.86-1.4,1.14s-.68.44-.68.44c0,0,.24-.22.58-.57.33-.35.75-.84,1.11-1.36.11-.16.22-.33.32-.5-.17.11-.33.22-.49.34-.51.37-.98.79-1.32,1.13-.34.34-.54.58-.54.58,0,0,.15-.28.41-.69.26-.41.65-.93,1.09-1.43.17-.2.36-.38.53-.56l-.27.14-.33.22c-.23.14-.42.33-.64.49.18-.2.33-.44.53-.62l.29-.29.33-.26c.11-.09.22-.17.35-.24-.04-.03-.11-.06-.17-.08-.69.31-1.48.87-2.18,1.57-1.18,1.18-1.49,2.93-1.57,3.65.72-.08,2.47-.39,3.65-1.57.7-.7,1.26-1.47,1.57-2.18-.02-.05-.03-.1-.05-.14-.07.12-.14.24-.23.34Z"/>
  <path class="cls-1" d="m12.79,120.5c.3-.4.64-.8,1.02-1.19.1-.1.21-.2.33-.3-.28-1.24-.99-2.25-1.35-2.7-.36.45-1.08,1.46-1.35,2.7.12.1.23.2.33.3.39.39.73.78,1.03,1.19Z"/>
  <path class="cls-1" d="m12.06,125.43c.47.47,1.28.47,1.75,0,.48-.48.48-1.27,0-1.75-.23-.23-.54-.36-.88-.36s-.64.13-.88.36c-.48.48-.48,1.27,0,1.75Z"/>
  <path class="cls-1" d="m84.38,121.76c.11.4.47.45.59.03.11-.35.13-.77.15-1.1-.02-1.2-.24-2.38-.44-3.56-.1.69-.21,1.38-.3,2.08-.11.83-.22,1.73,0,2.55Z"/>
  <path class="cls-1" d="m11.05,124.25c.05-.02.1-.04.15-.05-.12-.07-.24-.14-.34-.23l-.33-.26-.31-.29c-.21-.18-.37-.41-.55-.61.23.16.42.35.66.48l.35.21.28.13c-.18-.17-.38-.35-.55-.55-.46-.48-.86-.99-1.14-1.4-.28-.4-.44-.68-.44-.68,0,0,.22.24.57.58.35.34.84.75,1.36,1.11.17.12.33.22.5.32-.11-.16-.22-.33-.34-.49-.37-.51-.79-.99-1.13-1.32-.34-.34-.58-.54-.58-.54,0,0,.28.15.69.42.41.26.93.65,1.42,1.09.2.18.38.36.56.54l-.14-.27-.33-.5-.38-.47.48.39.44.44.27.33c.09.11.17.22.24.35.03-.05.05-.12.08-.18-.29-.65-.82-1.42-1.57-2.17-1.18-1.19-2.93-1.49-3.65-1.57.08.72.39,2.47,1.57,3.65.71.7,1.49,1.26,2.18,1.57Z"/>
  <path class="cls-1" d="m14.48,124.93c.12.07.24.14.34.23l.34.26.3.29c.21.18.37.41.56.61-.22-.16-.43-.35-.66-.48l-.34-.21-.28-.13c.18.17.38.35.56.55.46.48.86,1,1.14,1.4.28.4.44.68.44.68,0,0-.22-.24-.57-.58-.35-.34-.84-.75-1.36-1.11-.16-.12-.33-.22-.5-.32.11.16.22.33.34.49.37.51.79.98,1.13,1.32.34.34.58.54.58.54,0,0-.28-.15-.69-.42-.41-.26-.93-.65-1.42-1.1-.2-.17-.38-.36-.56-.53l.14.27.22.33c.14.23.33.42.49.64l-.32-.26c-.11-.08-.21-.18-.31-.28l-.3-.29-.27-.32c-.09-.11-.17-.23-.24-.35-.03.04-.05.11-.08.17.32.71.87,1.48,1.57,2.18,1.18,1.18,2.93,1.49,3.65,1.57-.08-.72-.39-2.47-1.57-3.65-.71-.71-1.49-1.26-2.18-1.57-.05.02-.1.04-.15.06Z"/>
  <path class="cls-1" d="m80.06,116.84c-.4.11-.45.47-.03.6.35.11.77.13,1.1.15,1.2-.02,2.38-.24,3.56-.44-.76-.11-1.51-.23-2.27-.33-.77-.1-1.6-.18-2.36.03Z"/>
  <path class="cls-1" d="m13.44,122.58l.26-.34.29-.3c.19-.21.41-.37.61-.56-.16.23-.35.43-.48.66l-.21.35-.13.28c.17-.18.35-.38.55-.55.48-.46,1-.86,1.4-1.14.41-.28.69-.44.69-.44,0,0-.24.22-.58.57-.34.35-.75.84-1.11,1.37-.11.16-.22.33-.32.5.16-.11.33-.22.49-.34.51-.37.98-.79,1.32-1.13.34-.34.54-.59.54-.59,0,0-.15.28-.42.69-.26.41-.66.93-1.1,1.42-.17.2-.36.38-.54.56l.27-.14.33-.22c.23-.14.42-.33.64-.49-.18.21-.33.44-.53.62l-.29.3-.32.27c-.11.09-.23.17-.34.24.04.03.11.05.17.08.69-.31,1.48-.87,2.18-1.57,1.19-1.19,1.49-2.93,1.57-3.65-.72.08-2.47.39-3.65,1.57-.76.75-1.28,1.52-1.57,2.17.02.05.04.1.05.15.07-.12.14-.23.23-.34Z"/>
  <path class="cls-1" d="m88.8,135.09c.42-.13.36-.48-.03-.59-.82-.22-1.72-.11-2.55,0-.69.09-1.39.2-2.08.3,1.17.2,2.4.46,3.55.44.37,0,.75-.04,1.11-.15Z"/>
  <path class="cls-1" d="m80.64,144.79c.42-.13.36-.49-.03-.59-.76-.2-1.6-.13-2.36-.03-.76.1-1.51.22-2.27.33,1.17.2,2.39.46,3.55.44.37,0,.75-.04,1.11-.15Z"/>
  <path class="cls-1" d="m83.85,139.42c.11.39.47.45.59.03.11-.35.13-.77.15-1.1-.02-1.2-.24-2.38-.44-3.56-.1.69-.21,1.38-.3,2.08-.11.83-.22,1.73,0,2.55Z"/>
  <path class="cls-1" d="m8.77,124.51c-.4-.3-.8-.64-1.18-1.02-.1-.1-.2-.21-.3-.33-1.24.28-2.25.99-2.7,1.35.45.36,1.46,1.08,2.7,1.36.1-.12.2-.23.3-.33.38-.39.78-.73,1.19-1.03Z"/>
  <path class="cls-1" d="m84.44,130.14c-.13-.42-.48-.37-.59.03-.22.82-.11,1.72,0,2.55.09.69.2,1.39.3,2.08.2-1.17.45-2.39.44-3.55,0-.37-.04-.75-.15-1.11Z"/>
  <path class="cls-1" d="m79.52,134.49c-.39.11-.45.47-.03.6.35.11.77.13,1.1.15,1.2-.02,2.38-.24,3.56-.44-.69-.1-1.38-.21-2.08-.3-.83-.11-1.73-.22-2.55,0Z"/>
  <path class="cls-1" d="m12.82,128.56c-.3.4-.64.8-1.02,1.18-.1.1-.21.19-.33.3.28,1.24.99,2.25,1.35,2.7.36-.45,1.08-1.46,1.35-2.7-.1-.09-.22-.19-.33-.3-.39-.39-.73-.78-1.03-1.19Z"/>
  <path class="cls-1" d="m114.84,82c.29-.64.45-1.35.45-2.09,0-1.89-1.03-3.53-2.55-4.42-1.8.13-3.56.46-5.23,1.01,1.25.53,2.33,1.47,3.03,2.76.56,1.04.78,2.16.72,3.26,1.15-.32,2.36-.48,3.58-.51Z"/>
  <path class="cls-1" d="m116.35,79.91c0,.74-.14,1.45-.38,2.11,1.55.07,3.09.32,4.53.7.59-.83.94-1.85.94-2.95,0-1.52-.67-2.88-1.72-3.82-1.74-.35-3.53-.52-5.31-.52,1.19,1.13,1.94,2.72,1.94,4.48Z"/>
  <path class="cls-1" d="m76.28,139.84c-.13-.42-.48-.37-.6.03-.2.76-.12,1.6-.03,2.36.1.76.21,1.51.33,2.26.2-1.17.45-2.39.44-3.55,0-.37-.03-.75-.14-1.11Z"/>
  <path class="cls-1" d="m105.06,82.15c.93.73,1.59,1.67,1.98,2.7.26-.25.53-.49.83-.71.71-.53,1.49-.95,2.3-1.27.14-1.04-.03-2.13-.56-3.12-.79-1.47-2.2-2.39-3.73-2.63-2,.88-3.81,2.12-5.3,3.77,1.55-.17,3.16.24,4.48,1.27Z"/>
  <path class="cls-1" d="m122.5,79.76c0,1.19-.35,2.31-.94,3.26,1.33.42,2.62.96,3.85,1.61,1.01-.94,1.64-2.27,1.64-3.75,0-1.05-.32-2.03-.86-2.84-1.5-.68-3.05-1.24-4.64-1.67-.03,0-.06-.01-.08-.02.65.98,1.03,2.15,1.03,3.42Z"/>
  <path class="cls-1" d="m137.66,116.84c-4.52-6.54-11.89-10.69-18.65-14.52-4.19-2.38-8.96-4.64-12.31-8.19-1.25-1.33-1.83-2.9-1.81-4.47-1.12-1.3-2.87-2.01-4.69-1.72-1.48.24-2.71,1.09-3.47,2.25-.12,2.34.35,4.67,1.51,6.87,2.24,4.26,6.2,7.36,10,10.15,6.73,4.9,14.63,9.24,19.35,16.35,2.3,3.47,2.97,9.23,1.47,13.38-1.19,3.3-3.64,5.27-6.72,6.62.64-.31-.74.09-.74.09-1.26.15-2.54-.03-3.77-.3-2.81-.61-5.49-1.78-8.04-3.1-3.29-1.71-10.64-6.79-14.88-9.85-1.47,6.54-3.96,12.63-7.33,18.05.66.53,1.37,1.02,2.13,1.48,3.54,2.14,7.23,4.06,11.04,5.68,8.2,3.49,18.11,6.16,26.77,2.72,6.81-2.69,12.23-8.68,14.47-15.6,2.86-8.82.86-18.37-4.34-25.89Zm-33.28-18.42c-.16.15-.35.23-.56.23s-.41-.08-.56-.24c-.93-.94-1.71-1.91-2.31-2.87-.23-.37-.12-.86.25-1.09.37-.23.86-.12,1.09.25.54.86,1.24,1.74,2.09,2.6.31.31.31.81,0,1.12Zm6.62,4.86c-.15.24-.41.37-.67.37-.15,0-.29-.04-.43-.12-1.12-.71-2.08-1.36-2.96-2-.35-.26-.43-.75-.18-1.11.26-.35.75-.43,1.11-.18.85.62,1.79,1.25,2.88,1.94.37.23.48.72.24,1.09Zm7.1,4.17c-.15.25-.42.4-.69.4-.13,0-.27-.03-.4-.11,0,0-2.36-1.36-3.06-1.77-.38-.22-.51-.71-.29-1.08.22-.38.71-.5,1.08-.29.69.4,3.05,1.76,3.05,1.76.38.22.51.7.29,1.08Zm-19.74,37.19c-.16.22-.4.34-.65.34-.16,0-.31-.05-.45-.14-1.8-1.25-2.85-2.14-2.89-2.18-.33-.28-.37-.79-.08-1.12.28-.33.78-.37,1.12-.09.01,0,1.03.88,2.76,2.08.36.25.45.74.2,1.1Zm7.19,4c-.13.29-.42.46-.72.46-.11,0-.23-.02-.34-.07-1.06-.49-2.13-1.05-3.19-1.65-.38-.21-.52-.7-.3-1.08.22-.38.7-.52,1.08-.3,1.02.58,2.06,1.11,3.08,1.59.4.19.57.66.38,1.05Zm7.82,2.52c-.08.37-.41.62-.77.62-.06,0-.11,0-.17-.02-1.14-.25-2.31-.57-3.48-.96-.42-.14-.64-.59-.5-1,.14-.42.59-.64,1-.5,1.12.37,2.23.68,3.31.92.43.09.7.52.61.94Zm7.49,1.11c-.85.1-1.73.15-2.62.15-.34,0-.68,0-1.02-.02-.44-.02-.78-.39-.76-.83.02-.44.39-.79.82-.76,1.14.05,2.29,0,3.4-.12.43-.04.83.26.88.7.05.44-.26.83-.7.88Zm8.02-2.84c-1.05.67-2.15,1.23-3.27,1.68-.1.04-.19.05-.29.05-.31,0-.61-.19-.74-.5-.16-.41.04-.87.44-1.03,1.03-.4,2.03-.92,2.99-1.54.37-.24.86-.13,1.1.24.24.37.13.86-.24,1.1Zm-3.76-37.67c-.15.23-.4.35-.66.35-.15,0-.3-.04-.44-.13-.9-.6-1.86-1.21-2.95-1.87-.38-.23-.49-.72-.27-1.09s.71-.49,1.09-.26c1.11.67,2.09,1.3,3.01,1.9.36.24.46.73.22,1.1Zm5.26,5.2c-.78-.75-1.65-1.51-2.6-2.26-.34-.27-.4-.77-.13-1.11.27-.34.77-.4,1.11-.13.99.78,1.9,1.58,2.71,2.37.31.3.32.81.02,1.12-.16.16-.36.24-.57.24s-.4-.07-.55-.22Zm4.58,26.55c-.69,1.01-1.46,1.96-2.31,2.83-.16.16-.36.24-.57.24s-.4-.07-.55-.22c-.31-.3-.32-.81-.02-1.12.78-.81,1.5-1.69,2.14-2.62.25-.36.74-.46,1.1-.21.36.25.45.74.21,1.1Zm.12-20.21c-.09-.2-.19-.39-.29-.59-.4-.79-.88-1.57-1.42-2.32-.26-.36-.17-.85.18-1.11.36-.25.85-.17,1.11.18.58.82,1.1,1.66,1.54,2.52.11.21.21.42.31.63.19.4.02.87-.37,1.06-.11.05-.23.08-.34.08-.29,0-.58-.17-.72-.45Zm3.18,12.39c-.23,1.19-.58,2.37-1.03,3.51-.12.31-.42.5-.74.5-.1,0-.19-.02-.29-.05-.41-.16-.61-.62-.45-1.03.41-1.05.73-2.15.94-3.24.08-.43.5-.71.93-.62.43.09.71.5.62.93Zm-.39-4.03c-.46,0-.81-.33-.83-.76-.05-1.12-.21-2.24-.46-3.35-.1-.43.17-.85.59-.95.43-.1.85.17.95.6.27,1.2.44,2.42.5,3.63.02.44-.32.81-.76.83Z"/>
  <path class="cls-1" d="m128.11,80.88c0,1.67-.67,3.18-1.74,4.29.3.18.59.35.88.54,1.04.69,2.04,1.9,3.26,2.28,1.94.61,3.99-.86,4.04-2.89.03-1.36-.81-2.24-1.79-3.03-1.56-1.26-3.24-2.35-5.02-3.28.23.65.37,1.35.37,2.08Z"/>
  <path class="cls-1" d="m75.43,112.64c.11.4.47.45.59.03.11-.35.13-.77.15-1.1-.03-1.2-.24-2.38-.44-3.56-.1.69-.21,1.38-.3,2.08-.11.83-.22,1.73,0,2.55Z"/>
  <path class="cls-1" d="m89.34,117.43c.42-.13.36-.49-.03-.6-.76-.2-1.6-.13-2.36-.03-.76.1-1.51.22-2.26.33,1.17.2,2.39.46,3.55.44.37,0,.75-.03,1.11-.14Z"/>
  <path class="cls-1" d="m104.41,82.98c-1.44-1.12-3.28-1.35-4.88-.78-.71,1.01-1.32,2.13-1.8,3.39-.35.91-.61,1.84-.78,2.77.84-.74,1.9-1.27,3.09-1.46,1.87-.3,3.68.29,5.01,1.44.2-.9.6-1.77,1.18-2.56-.27-1.07-.88-2.06-1.81-2.79Z"/>
  <path class="cls-1" d="m89.44,94.38c-4.04-8.78-10.47-16.03-17.29-22.75-6.75-6.65-14.4-12.97-18.91-21.46-2.59-4.87-4.82-11.18-4.16-16.93,3.8,1.23,8.24,1.14,9.72,2.07,2.93,1.86,7.42,4.78,10.64,4.78.62,0,1.43-.05,2.32-.18-1.49-.61-2.93-1.35-4.27-2.31-1.88-1.35-3.95-3.72-3.71-6.19.04,2.29,2.07,4.28,3.92,5.37,2.17,1.28,4.52,1.95,6.95,2.47,3.13-.98,6.33-3,6.99-6.87.69-4.08-6.28-9.14-7.32-12.39-2.93-9.17-6.09-16.43-17.12-19.47-8.63-2.37-19.87,3.52-22.62,11.6-2.61,2.87-4.61,6.33-6.01,9.91-6.67,17.08.25,36.77,11.16,50.46,6.12,7.68,13.65,13.99,20.17,21.28,3.21,3.59,6.16,7.52,7.91,12.04,1.44,3.73,1.96,7.59,1.93,11.56-.06,5.79-1.7,12.63-5.15,17.81-4.55,6.83-12.05,10.97-20.17,11.78-6.38.64-15.7-.2-19.55-6.21-2.46-3.83-2.44-8.9-1.06-13.11.64-1.96,1.6-3.83,2.89-5.45.64-.8,1.36-1.55,2.16-2.2-.03.03.81-.6.37-.3,3.53-2.4,7.23-4.23,11.47-4.8,2.57-.35,5.16-.23,7.71.21,2.39.41,4.73,1.09,6.98,1.93,3.92,1.47,7.67,3.43,11.22,5.64.1.06.18.12.26.18.33-1.82.51-3.68.53-5.51.04-4.03-.54-7.53-1.77-10.7-.72-1.87-1.73-3.75-3.04-5.7-1.85-1.52-4.18-2.88-7.09-3.99-4.48-1.69-9.19-2.59-13.89-2.72-13.49-.39-26.93,5.49-34.7,16.97-11.11,16.44-8.97,40.36,7.85,52.14,7.4,5.18,16.66,7.36,25.59,7.6,9.83.27,19.7-2.09,28.22-7.04,16.12-9.37,24.77-26.74,25.53-45.03.35-8.41-1.11-16.85-4.64-24.52Zm-15.97-62.82c1.61.97,4.7,2.24,2.78,3.02-3.32,1.37-4.39-4-2.78-3.02Zm-2.82-14.6c.41-.16.87.03,1.03.44.48,1.19.83,2.37,1.06,3.51.08.43-.2.85-.63.93-.05.01-.1.01-.15.01-.37,0-.7-.26-.78-.64-.21-1.05-.53-2.13-.97-3.23-.16-.41.03-.87.44-1.03Zm-4.52-6.84c.33-.29.83-.25,1.12.08.79.92,1.53,1.9,2.18,2.9.24.37.14.86-.23,1.1-.13.09-.28.13-.43.13-.26,0-.51-.13-.66-.36-.62-.95-1.31-1.87-2.06-2.73-.29-.33-.25-.83.08-1.12Zm-25.82,86.46c.4,0,.8,0,1.2.02,4.55.13,8.97,1,13.14,2.57,1.57.6,3.01,1.3,4.3,2.09-1.27,1.98-2.94,4.2-3.83,5.2.23-1.67.44-3.15.81-4.93-1.08,2.15-2.34,3.88-3.92,4.84.47-1.35.73-3.28.96-5.06-.59.53-2.22,2.72-3.28,3.87.15-1.58.86-5.1.86-5.1,0,0-2.16,3.51-3.15,4.67.27-1.88.51-5.23.67-5.79-1.94,2.2-3.43,4.42-4.59,6.55-.12-2.36.06-5.1.7-8.16-1.59,2.12-2.86,4.25-3.88,6.33-.05-2.08.1-4.4.53-6.94-1.77,2.06-3.28,4.24-4.54,6.47-.07-1.97.02-4.13.3-6.45,1.23-.11,2.47-.17,3.73-.17Zm-3.79.17c-1.83,3.19-3.18,6.4-4.11,9.56-.19-2.66-.15-5.63.27-8.88-1.42,2.88-2.5,5.79-3.27,8.67-.42-2-.73-4.18-.87-6.55-1.54,3.16-2.71,6.44-3.48,9.79-.22-2.84-.22-5.89.09-9.14-1.32,3.25-2.27,6.59-2.85,9.98-.47-2.24-.82-4.64-1-7.19-.96,3.29-1.57,6.64-1.84,10.02-.46-1.68-.86-3.46-1.18-5.32-.37,1.77-.64,3.57-.81,5.37-.56-1.45-2.48-4.81-3.21-6.77,5.95-5.39,13.75-8.77,22.27-9.55Zm-14.62,27.79l-.22.21c-.06.06-1.48,1.39-3.41,1.75l-.18.03-.11-.14c-.14-.17-.25-.3-.37-.42-.47-.47-.95-.87-1.44-1.2l-.37-.24.37-.24c.49-.33.98-.73,1.44-1.2.12-.12.23-.25.37-.42l.11-.14.17.03c1.93.36,3.35,1.7,3.41,1.75l.22.21Zm-11.07-5.47c.36-1.93,1.7-3.35,1.75-3.41l.21-.22.21.22c.06.06,1.39,1.48,1.75,3.41l.03.18-.14.11c-.17.13-.3.25-.42.37-.46.46-.87.95-1.19,1.44l-.24.37-.25-.37c-.32-.49-.72-.97-1.19-1.44-.12-.12-.25-.23-.42-.37l-.14-.11.03-.17Zm-3.83-.66c.11,0,2.69.09,4.37,1.77.63.63,1.13,1.29,1.47,1.91.35-.62.84-1.28,1.48-1.91,1.68-1.68,4.26-1.77,4.37-1.77h.31s0,.3,0,.3c0,.11-.09,2.69-1.77,4.37-.62.62-1.28,1.12-1.92,1.48.64.35,1.31.86,1.92,1.48,1.68,1.68,1.77,4.27,1.77,4.38v.31s-.3,0-.3,0c-.11,0-2.69-.09-4.38-1.77-.61-.61-1.12-1.28-1.48-1.92-.35.64-.86,1.31-1.47,1.92-1.68,1.68-4.27,1.77-4.37,1.77h-.31s0-.3,0-.3c0-.11.09-2.69,1.77-4.37.62-.62,1.29-1.12,1.93-1.48-.64-.35-1.31-.86-1.93-1.48-1.68-1.68-1.76-4.27-1.77-4.37v-.31s.3,0,.3,0Zm7.83,11.4l-.03.17c-.36,1.93-1.7,3.35-1.75,3.41l-.21.22-.21-.22c-.06-.06-1.39-1.49-1.75-3.41l-.03-.17.14-.11c.17-.14.31-.25.42-.37.47-.46.87-.95,1.19-1.44l.24-.37.24.37c.32.49.73.98,1.2,1.45.15.14.3.27.42.37l.14.11Zm-11.11-5.3l.22-.21c.06-.06,1.48-1.39,3.41-1.75l.17-.03.11.14c.13.17.25.3.37.42.47.47.95.87,1.44,1.2l.37.24-.37.24c-.49.32-.98.73-1.45,1.2-.12.12-.24.25-.37.42l-.11.14-.17-.03c-1.93-.36-3.35-1.7-3.41-1.75l-.22-.21Zm28.87,28.93c-1.15.98-2.53,1.67-3.99,2-2.35.54-4.76.15-6.78-1,.47,1.27.67,2.64.55,4.03-.16,2.02-.96,3.88-2.26,5.38-.34-.17-.68-.35-1.02-.53,1.25-1.35,2.01-3.07,2.17-4.94.12-1.45-.15-2.86-.74-4.14-.34.24-.69.45-1.05.65.46,1.06.65,2.21.55,3.39-.14,1.68-.85,3.21-2.03,4.4-.33-.2-.65-.4-.97-.62,1.09-1.01,1.77-2.38,1.89-3.87.08-.99-.08-1.95-.46-2.84-.38.14-.77.27-1.17.36.87,1.89.42,4.21-1.23,5.62-.02.02-.04.03-.06.04-.32-.23-.63-.46-.94-.69.09-.07.18-.13.27-.21,1.35-1.14,1.65-3.07.81-4.56-.52.06-1.07.07-1.6.04.08.08.16.15.23.24.41.48.6,1.09.55,1.71-.05.62-.34,1.19-.82,1.59-.16.13-.33.24-.52.33-.35-.29-.7-.6-1.03-.9.29,0,.59-.08.83-.28.25-.21.4-.51.43-.83.03-.33-.07-.64-.29-.89-.3-.35-.76-.51-1.21-.4-.19.04-.37.13-.52.26-.3.26-.45.64-.42,1.01-.32-.32-.63-.65-.93-.98.14-.33.34-.63.64-.88.22-.18.47-.31.74-.41-.51-.17-1.01-.38-1.49-.64-.03.02-.06.04-.08.06-.28.24-.52.51-.71.82-.25-.3-.48-.6-.72-.91.16-.2.32-.4.51-.57-.33-.23-.65-.49-.95-.76-.11.1-.21.22-.3.33-.22-.31-.44-.63-.65-.95.06-.06.11-.12.17-.18-.02-.02-.04-.04-.06-.07-.26-.31-.49-.63-.71-.96-.02.06-.05.1-.08.13-.2-.33-.38-.67-.57-1.01.03-.03.07-.06.1-.1-.75-1.52-1.09-3.21-.95-4.94.21-2.51,1.38-4.79,3.3-6.42,1.15-.98,2.53-1.67,3.99-2,2.69-.61,5.44-.02,7.61,1.54.2-.16.42-.3.63-.45.11.37.23.74.37,1.1-.04.03-.08.05-.11.07.08.08.16.15.24.23.32.78.7,1.52,1.14,2.21.35.55.75,1.04,1.16,1.51.17.51.31,1.03.39,1.56.13-.23.3-.45.51-.63.28.26.56.52.86.75-.03.02-.07.04-.1.07-.25.21-.4.51-.43.83-.03.33.08.64.29.89.42.5,1.22.57,1.73.14.21-.18.34-.42.4-.67.33.19.66.37,1,.53-.13.37-.35.71-.67.99-.28.24-.63.42-.99.5-.85.2-1.74-.1-2.31-.77-.08-.09-.14-.19-.2-.29-.05.54-.15,1.07-.29,1.59.86.7,1.99.98,3.1.73.57-.13,1.08-.39,1.53-.77.47-.4.82-.9,1.03-1.44.35.14.69.27,1.04.4-.28.71-.73,1.36-1.35,1.89-.58.49-1.27.84-2.01,1.01-1.31.3-2.66.03-3.73-.7-.15.38-.34.74-.54,1.09,1.33.85,2.96,1.16,4.55.79.94-.21,1.78-.64,2.52-1.26.79-.66,1.37-1.51,1.72-2.44.36.1.72.2,1.08.29-.41,1.15-1.12,2.19-2.08,3.01-.86.73-1.9,1.25-2.99,1.5-1.89.43-3.83.07-5.41-.95-.25.33-.52.65-.82.95,1.88,1.27,4.22,1.73,6.5,1.21,1.31-.3,2.49-.89,3.52-1.76,1.2-1.01,2.02-2.3,2.49-3.69.37.07.74.14,1.11.2-.52,1.63-1.48,3.15-2.88,4.34Zm11.56,5.05c-.36.56-1.29.52-1.86.48-1.23-.07-2.41-.4-3.54-.91.51,1.12.82,2.32.91,3.55.01.58.08,1.49-.48,1.85-.66.43-1.19-.24-1.3-.84-.27-1.5.22-3.22.88-4.56-1.12.51-2.32.85-3.55.91-.58.03-1.49.08-1.85-.49-.43-.67.24-1.19.84-1.3,1.51-.27,3.22.22,4.56.88-.66-1.34-1.14-3.06-.88-4.56.11-.6.64-1.28,1.3-.84.56.37.51,1.29.48,1.87-.07,1.23-.4,2.42-.91,3.54,1.34-.66,3.05-1.14,4.56-.88.6.1,1.27.63.84,1.3Zm38.72-64.45c.11-.6.64-1.28,1.3-.84.56.37.5,1.29.48,1.86-.1,1.23-.4,2.41-.91,3.54,1.34-.66,3.05-1.14,4.56-.87.6.11,1.28.63.84,1.3-.36.56-1.29.52-1.86.48-1.23-.07-2.41-.4-3.54-.91.51,1.12.81,2.32.91,3.55.01.58.08,1.49-.48,1.85-.78.51-1.26-.41-1.33-1.05-.16-1.47.26-3.04.9-4.36-1.12.51-2.32.85-3.55.91-.58.03-1.49.08-1.85-.49-.43-.67.25-1.19.84-1.3,1.51-.27,3.22.22,4.56.87-.66-1.35-1.14-3.05-.88-4.56Zm-6.5,35.76c.03.58.08,1.49-.48,1.86-.78.51-1.26-.41-1.33-1.05-.16-1.47.26-3.04.9-4.36-1.12.51-2.32.85-3.55.91-.58.03-1.49.08-1.85-.49-.43-.66.24-1.19.84-1.3,1.51-.26,3.22.21,4.56.87-.66-1.34-1.14-3.05-.88-4.56.11-.6.64-1.28,1.3-.84.56.37.52,1.29.48,1.87-.07,1.23-.4,2.41-.91,3.54,1.34-.66,3.06-1.14,4.56-.87.6.11,1.28.63.84,1.3-.36.56-1.29.52-1.86.48-1.23-.07-2.42-.4-3.54-.91.51,1.12.84,2.32.91,3.55Zm.28-18.24c.03.58.08,1.49-.48,1.85-.66.44-1.19-.24-1.3-.84-.27-1.51.22-3.22.87-4.56-1.12.51-2.32.85-3.55.91-.58.03-1.49.08-1.85-.49-.43-.67.24-1.19.84-1.3,1.5-.27,3.22.21,4.56.87-.66-1.35-1.14-3.05-.87-4.56.11-.6.63-1.28,1.3-.84.56.37.52,1.29.48,1.87-.07,1.23-.4,2.41-.91,3.54,1.34-.66,3.06-1.14,4.56-.87.6.11,1.28.63.84,1.3-.37.56-1.29.52-1.87.48-1.23-.07-2.41-.4-3.54-.91.51,1.12.84,2.32.91,3.55Zm-1.38-21.79c-.66-1.34-1.14-3.06-.87-4.56.11-.6.63-1.28,1.3-.84.56.37.5,1.29.48,1.87-.1,1.23-.4,2.42-.91,3.54,1.34-.66,3.06-1.14,4.56-.87.6.11,1.28.63.84,1.3-.36.56-1.29.52-1.86.48-1.23-.07-2.42-.4-3.54-.91.51,1.12.85,2.32.91,3.55.03.58.08,1.49-.48,1.86-.67.43-1.19-.25-1.3-.85-.27-1.51.22-3.22.88-4.56-1.12.51-2.32.85-3.55.91-.58.03-1.49.08-1.85-.48-.43-.67.24-1.19.84-1.3,1.5-.26,3.21.22,4.56.88ZM53.7,23.73c-.69-.65-1.44-1.26-2.17-1.88-.68-.57-1.4-1.11-2.08-1.69-.64-.46-1.41-.89-1.78-1.62.7.42,1.53.5,2.24.87.85.44,1.61.95,2.37,1.53.7.64,1.36,1.3,1.93,2.07.47.64.74,1.41,1.31,1.98-.76-.17-1.29-.76-1.83-1.27Zm-.54-7.26c-.76.67-1.1,1.63-1.01,2.57-.99-.73-1.99-1.34-2.97-1.81.24-.62.62-1.2,1.15-1.66,1.87-1.63,4.82-1.31,6.6.72.03.03.05.07.08.1-1.12-.89-2.74-.89-3.85.09Zm3.99,1.33c.34.39.3.98-.09,1.33-.39.34-.98.3-1.32-.09-.34-.39-.3-.98.09-1.32.39-.34.98-.3,1.33.09Zm-.38,5.12c-.11.1-.23.19-.35.27-.38-.49-.8-.98-1.25-1.46.69,0,1.39-.24,1.95-.73.67-.58,1.01-1.4,1.02-2.22.27,1.53-.19,3.1-1.37,4.13Zm2.9-17.84c.22-.38.7-.51,1.08-.29,1.03.59,2.04,1.28,3.01,2.06.34.27.4.77.12,1.12-.16.19-.39.3-.62.3-.17,0-.35-.06-.49-.17-.9-.72-1.84-1.37-2.81-1.92-.38-.22-.51-.71-.29-1.08Zm-7.02-2.88c1.21.09,2.42.31,3.62.66.42.12.66.56.54.98-.1.35-.42.57-.76.57-.07,0-.15,0-.22-.03-1.09-.32-2.2-.52-3.3-.6-.44-.03-.76-.42-.73-.85.04-.44.41-.77.85-.73Zm-.18,6.53c1.69-1.71,3.19-1.78,4.25.32,1.56-.98,3.87.51,3.32,2.55,2.11-.1,3.73,2.89,1.54,6.32.19-1.95-.41-4-1.83-5.63-1.04-1.18-2.35-1.96-3.75-2.33-.41-.12-.81-.19-1.21-.22-.08,0-.16,0-.24,0-1.76-.1-3.52.44-4.91,1.66-.14.12-.27.25-.39.39.14-.61,1.01-4.04,3.22-3.05Zm5.55,5.02c1.32,1.08,2.31,2.73,2.53,4.43.26,2.01-.26,3.81-1.61,5.33.38-.87.69-1.69.83-2.64.16-1.1-.06-2.27-.44-3.3-.6-1.64-1.78-2.81-3.21-3.74-.78-.38-1.95-.8-2.98-.86-1.47-.09-2.72.33-4.03.97,2.5-2.43,6.28-2.35,8.9-.19Zm-13.76-10.05c1.14-.51,2.32-.9,3.49-1.16.43-.1.85.18.94.6.09.43-.18.85-.6.94-1.07.23-2.14.59-3.19,1.06-.1.05-.22.07-.32.07-.3,0-.59-.17-.73-.47-.18-.4,0-.87.4-1.05Zm3.19,26.2l-.22.21c-.06.06-1.48,1.39-3.41,1.75l-.17.03-.11-.14c-.14-.17-.25-.31-.37-.42-.47-.47-.95-.87-1.44-1.2l-.37-.24.37-.24c.49-.33.98-.73,1.44-1.19.12-.12.23-.25.37-.42l.11-.14.17.03c1.93.36,3.35,1.7,3.41,1.75l.22.21Zm-10.35-16.74c.42-1.71,1.77-3.02,3.45-3.5.73-.21,1.51-.27,2.26-.12.34.07.7.18,1,.38.2.12.22.37.11.4-.03.02-.09.02-.16-.03-.02-.04-.06-.08-.1-.11-.22-.11-.65-.18-.76-.19-.14-.02-.29-.03-.43-.03-.03,0-.07,0-.1,0-.11,0-.21,0-.32.01-.07,0-.14.02-.21.03-.77.1-1.53.39-2.16.85-.57.41-.99.95-1.27,1.56-.02-.02-.04-.04-.06-.07-.27.55-.43,1.16-.44,1.8-.02,1.44.39,2.96,1.95,3.38,1.13.3,3.15-.08,3-1.65-.04-.47-.81-1.44-1.33-.85-.02.01-.02.04-.03.06-.04.13,0,.29-.02.41-.01.1-.06.19-.11.28-.14.27-.42.44-.73.41-.64-.07-.72-.74-.63-1.25.13-.74.7-1.29,1.43-1.44.33-.07.66-.06.96,0,.04,0,.08.02.12.03.78.21,1.35.79,1.61,1.5.11.29.18.6.18.93,0,1.55-1.37,2.77-2.83,2.98-1.42.21-3.07-.36-3.87-1.6-.79-1.18-.83-2.8-.5-4.14Zm-.72,11.27c.36-1.93,1.7-3.35,1.75-3.41l.21-.22.21.22c.06.06,1.39,1.48,1.75,3.41l.03.17-.14.11c-.17.13-.3.25-.42.37-.47.47-.87.95-1.19,1.44l-.24.37-.24-.37c-.32-.49-.73-.97-1.2-1.44-.12-.12-.25-.23-.42-.37l-.14-.11.03-.17Zm-3.83-.66c.11,0,2.69.09,4.37,1.77.64.63,1.13,1.29,1.48,1.91.34-.62.84-1.28,1.48-1.91,1.68-1.68,4.27-1.77,4.37-1.77h.31s-.01.3-.01.3c0,.11-.09,2.69-1.77,4.37-.62.62-1.28,1.12-1.93,1.48.64.35,1.31.86,1.93,1.47,1.68,1.68,1.76,4.27,1.77,4.38v.31s-.3,0-.3,0c-.11,0-2.69-.09-4.37-1.77-.61-.61-1.12-1.28-1.48-1.92-.35.64-.86,1.31-1.48,1.92-1.68,1.68-4.27,1.77-4.37,1.77h-.31s0-.3,0-.3c0-.11.09-2.69,1.77-4.37.62-.62,1.29-1.12,1.92-1.48-.64-.35-1.31-.86-1.92-1.48-1.68-1.68-1.77-4.27-1.77-4.38v-.31s.3,0,.3,0Zm7.83,11.4l-.03.17c-.36,1.93-1.7,3.35-1.75,3.41l-.21.22-.21-.22c-.06-.06-1.39-1.48-1.75-3.41l-.03-.17.14-.11c.17-.14.31-.25.42-.37.47-.46.87-.95,1.19-1.44l.24-.37.24.37c.32.49.73.97,1.19,1.44.14.14.3.27.42.37l.14.11Zm-11.11-5.3l.23-.21c.06-.06,1.48-1.39,3.41-1.75l.17-.03.11.14c.13.17.25.3.37.42.47.47.95.87,1.44,1.19l.37.24-.37.24c-.49.33-.98.73-1.44,1.19-.12.12-.24.25-.37.42l-.11.14-.17-.03c-1.93-.36-3.35-1.7-3.41-1.75l-.23-.21Zm16.41,34.41c-.72,2.27-2.28,4.12-4.4,5.22-.23.12-.47.22-.71.32-.22-.28-.43-.57-.64-.87.29-.11.58-.24.87-.39,1.86-.97,3.24-2.6,3.88-4.6.41-1.31.47-2.66.19-3.97-.36.15-.73.27-1.11.37.2,1.07.14,2.18-.2,3.24-.54,1.7-1.71,3.09-3.3,3.92-.34.17-.69.31-1.04.42-.21-.3-.42-.6-.63-.91.41-.11.8-.25,1.19-.45,1.34-.69,2.32-1.86,2.78-3.3.28-.89.34-1.82.17-2.71-.38.05-.77.09-1.15.09.4,1.92-.49,3.96-2.32,4.91-.42.22-.88.36-1.35.44-.22-.33-.43-.66-.64-1,.53-.01,1.03-.14,1.5-.38,1.49-.77,2.17-2.49,1.7-4.04-.49-.06-1-.16-1.48-.3.06.08.12.18.17.27.27.53.32,1.12.15,1.69-.18.56-.57,1.02-1.09,1.3-.31.16-.67.25-1.02.25-.26,0-.51-.05-.74-.13-.49-.82-.96-1.66-1.42-2.51.13-.64.52-1.21,1.14-1.53.24-.12.51-.19.77-.22-.44-.26-.85-.57-1.24-.9-.03.01-.06.02-.09.04-.55.29-.99.71-1.31,1.22-.18-.35-.35-.71-.53-1.07.32-.38.7-.7,1.14-.96-.26-.29-.5-.59-.72-.91-.34.22-.66.47-.94.75-.16-.34-.31-.67-.46-1.01.27-.23.55-.45.86-.64-.01-.02-.03-.04-.04-.07-.18-.34-.32-.68-.45-1.04-.29.21-.57.41-.84.62-.14-.34-.28-.68-.41-1.01.3-.22.61-.43.95-.62-.37-1.56-.33-3.19.17-4.75.72-2.27,2.28-4.12,4.4-5.22,1.27-.66,2.68-1,4.1-1,2.6,0,5.02,1.12,6.69,3.02.14-.07.29-.12.44-.18.12.33.25.66.38.98-.05.02-.1.04-.15.06.2.29.38.58.54.89.16.37.32.73.48,1.09.13.36.24.73.32,1.11.05-.03.11-.04.17-.07.16.32.31.64.47.93-.13.05-.25.1-.37.17-.03.01-.05.03-.08.05-.02-.18-.04-.37-.08-.55.11.69.14,1.39.09,2.08.18-.2.39-.37.63-.5.13-.07.27-.11.4-.15.18.32.36.65.54.96-.16.01-.31.05-.46.12-.28.14-.48.38-.57.68-.09.29-.07.61.08.89.29.55,1.01.79,1.56.5.2-.11.36-.27.47-.45.2.31.41.62.61.92-.17.18-.36.34-.59.46-.31.16-.67.25-1.02.25-.83,0-1.59-.46-1.97-1.19-.05-.1-.09-.21-.12-.31-.17.49-.36.96-.6,1.4.64.82,1.63,1.32,2.7,1.32.55,0,1.08-.13,1.58-.39.28-.14.53-.32.75-.53.21.29.42.57.63.85-.27.24-.57.45-.9.62-.64.33-1.35.5-2.06.5-1.27,0-2.45-.53-3.29-1.43-.23.31-.47.61-.73.89,1.05,1.06,2.48,1.69,4.02,1.69.91,0,1.78-.21,2.59-.63.39-.2.74-.45,1.07-.73.22.28.44.55.66.82-.38.32-.79.61-1.25.84-.95.49-2.01.75-3.07.75-1.84,0-3.55-.75-4.78-2.02-.3.25-.61.49-.95.71,1.46,1.56,3.52,2.49,5.73,2.49,1.27,0,2.48-.3,3.61-.89.53-.28,1.02-.61,1.46-.98.23.27.46.53.69.8-.5.43-1.05.81-1.66,1.12-1.27.66-2.68,1-4.1,1-2.28,0-4.41-.86-6.03-2.34.16,1.27.06,2.57-.34,3.83Zm10.83,7.25c.51,1.12.84,2.32.91,3.55.03.58.08,1.49-.48,1.86-.66.43-1.19-.25-1.3-.84-.27-1.51.22-3.21.88-4.56-1.12.51-2.32.85-3.55.91-.58.03-1.49.08-1.85-.48-.43-.67.24-1.19.84-1.3,1.51-.26,3.22.22,4.56.87-.66-1.34-1.14-3.05-.88-4.56.11-.6.64-1.28,1.3-.84.56.37.52,1.29.48,1.87-.07,1.23-.4,2.42-.91,3.54,1.34-.66,3.05-1.14,4.56-.87.6.11,1.28.64.84,1.3-.37.56-1.29.52-1.86.48-1.23-.07-2.42-.4-3.54-.91Zm12.72,10.03c-1.23-.07-2.42-.4-3.54-.91.51,1.12.84,2.32.91,3.55.03.58.08,1.49-.48,1.85-.78.51-1.26-.41-1.33-1.05-.16-1.47.26-3.04.9-4.35-1.12.51-2.32.84-3.55.91-.58.03-1.49.08-1.85-.48-.43-.67.24-1.19.84-1.3,1.51-.26,3.22.21,4.56.88-.66-1.35-1.14-3.06-.88-4.56.1-.6.63-1.28,1.3-.84.56.36.52,1.29.48,1.86-.07,1.23-.4,2.42-.91,3.54,1.34-.66,3.06-1.14,4.56-.88.6.11,1.28.63.84,1.3-.37.56-1.29.52-1.87.48Zm-11.19,77.15c-.37.56-1.29.52-1.87.48-1.23-.07-2.42-.4-3.54-.91.51,1.12.82,2.32.91,3.55.01.58.08,1.49-.48,1.85-.67.43-1.19-.24-1.3-.84-.27-1.5.22-3.22.87-4.56-1.12.51-2.32.85-3.55.91-.58.03-1.49.08-1.85-.48-.44-.67.24-1.19.84-1.3,1.51-.27,3.22.22,4.56.87-.66-1.34-1.14-3.05-.87-4.56.1-.6.63-1.28,1.3-.84.56.37.52,1.29.48,1.87-.07,1.23-.4,2.42-.91,3.54,1.35-.66,3.06-1.14,4.56-.88.6.11,1.28.63.84,1.3Zm12.92-4.66c-.37.56-1.29.52-1.87.48-1.23-.07-2.42-.4-3.54-.91.51,1.12.82,2.32.91,3.55.01.58.08,1.49-.48,1.85-.67.44-1.19-.24-1.3-.84-.27-1.5.21-3.22.87-4.56-1.12.51-2.32.82-3.55.91-.58.01-1.49.08-1.85-.48-.44-.66.24-1.19.84-1.3,1.5-.27,3.22.21,4.56.88-.66-1.34-1.14-3.06-.87-4.56.11-.6.63-1.28,1.3-.84.56.37.52,1.29.48,1.86-.07,1.23-.4,2.42-.91,3.54,1.34-.66,3.06-1.14,4.56-.88.6.11,1.28.63.84,1.3Zm10.41-9.12c-.37.56-1.29.5-1.87.48-1.22-.1-2.41-.4-3.53-.91.51,1.12.82,2.32.91,3.55.01.58.08,1.49-.48,1.85-.67.43-1.19-.24-1.3-.84-.27-1.5.22-3.22.88-4.56-1.12.51-2.32.85-3.55.91-.58.03-1.49.08-1.85-.48-.44-.67.24-1.19.84-1.3,1.5-.27,3.22.22,4.56.87-.66-1.34-1.14-3.05-.88-4.56.1-.6.64-1.28,1.3-.84.56.37.52,1.29.48,1.87-.07,1.23-.4,2.42-.91,3.54,1.34-.66,3.05-1.14,4.56-.87.6.11,1.28.64.84,1.3Zm8.16-9.71c-.36.56-1.29.52-1.86.48-1.23-.07-2.42-.4-3.54-.91.51,1.12.84,2.32.91,3.55.03.58.08,1.49-.48,1.85-.67.43-1.19-.24-1.3-.84-.27-1.5.22-3.21.87-4.56-1.12.51-2.32.85-3.55.91-.58.03-1.49.08-1.85-.48-.51-.78.42-1.26,1.05-1.33,1.47-.16,3.05.26,4.35.9-.66-1.35-1.14-3.06-.87-4.56.1-.6.63-1.28,1.3-.84.56.37.52,1.29.48,1.87-.07,1.23-.4,2.42-.91,3.54,1.31-.64,2.89-1.07,4.35-.9.63.07,1.56.55,1.05,1.33Zm.53-17.66c-.37.56-1.29.52-1.86.48-1.23-.07-2.42-.4-3.54-.91.51,1.12.85,2.32.91,3.55.03.58.08,1.49-.48,1.85-.67.44-1.19-.24-1.3-.84-.27-1.51.22-3.21.88-4.56-1.12.51-2.32.85-3.55.91-.58.03-1.49.08-1.85-.48-.44-.67.24-1.19.84-1.3,1.5-.27,3.22.21,4.56.87-.64-1.31-1.07-2.89-.9-4.36.07-.63.55-1.56,1.33-1.05.56.37.5,1.29.48,1.87-.1,1.23-.4,2.42-.91,3.54,1.34-.66,3.06-1.14,4.56-.87.59.1,1.27.63.84,1.3Z"/>
  <path class="cls-1" d="m16.83,124.55c.4.3.8.64,1.18,1.02.1.1.2.2.3.33,1.24-.28,2.25-.99,2.7-1.35-.45-.36-1.46-1.08-2.7-1.36-.1.13-.2.24-.3.33-.38.38-.78.73-1.18,1.02Z"/>
  <path class="cls-1" d="m84.97,112.48c-.13-.42-.48-.37-.59.03-.22.82-.11,1.72,0,2.55.09.7.2,1.39.3,2.08.2-1.17.45-2.39.44-3.55,0-.37-.04-.75-.15-1.11Z"/>
  <path class="cls-1" d="m12.24,126.55l-.26.34-.29.3c-.18.21-.41.37-.61.56.16-.23.35-.43.48-.66l.21-.35.13-.28c-.17.18-.36.38-.55.56-.48.46-1,.86-1.4,1.14-.41.28-.69.44-.69.44,0,0,.24-.22.58-.57.33-.35.74-.84,1.11-1.37.11-.16.22-.33.32-.5-.16.11-.33.22-.49.34-.51.37-.98.79-1.32,1.13-.34.34-.54.59-.54.59,0,0,.15-.28.42-.69.26-.41.65-.93,1.09-1.43.17-.2.36-.38.54-.56l-.27.14-.33.22c-.23.14-.42.33-.64.49.18-.2.33-.44.53-.62l.29-.29.33-.27c.1-.09.22-.17.34-.24-.04-.03-.1-.06-.17-.08-.69.31-1.48.87-2.18,1.57-1.18,1.18-1.49,2.93-1.57,3.65.72-.08,2.47-.39,3.65-1.57.7-.7,1.25-1.47,1.57-2.18-.02-.05-.04-.1-.05-.15-.07.12-.14.24-.23.34Z"/>
  <path class="cls-1" d="m60.94,153.32c-.4.11-.45.47-.03.6.35.11.77.13,1.1.15,1.2-.03,2.38-.24,3.56-.44-.75-.11-1.51-.23-2.26-.33-.77-.1-1.61-.17-2.36.03Z"/>
  <path class="cls-1" d="m13.77,140.72c-.94.21-1.79.64-2.52,1.26-2.51,2.12-2.82,5.89-.69,8.4,1.45,1.71,3.7,2.46,5.88,1.96.93-.21,1.78-.64,2.52-1.27,2.51-2.12,2.82-5.89.7-8.4-1.45-1.71-3.7-2.46-5.88-1.96Zm6.06,6.2c-.1,1.27-.69,2.41-1.66,3.24-.58.49-1.28.84-2.01,1.01-1.74.4-3.53-.2-4.68-1.56-.82-.97-1.22-2.2-1.11-3.46.1-1.26.69-2.41,1.66-3.23.58-.49,1.27-.84,2.01-1.01,1.74-.4,3.53.2,4.68,1.56.82.97,1.22,2.2,1.11,3.46Z"/>
  <path class="cls-1" d="m52.95,153.63c-.13-.42-.49-.37-.6.03-.2.76-.13,1.59-.03,2.36.1.76.21,1.51.33,2.26.2-1.17.46-2.39.44-3.55,0-.37-.03-.75-.14-1.11Z"/>
  <path class="cls-1" d="m65.87,148.96c-.13-.42-.49-.36-.6.03-.2.76-.13,1.6-.03,2.36.1.76.22,1.51.33,2.26.2-1.17.45-2.39.44-3.55,0-.37-.03-.75-.14-1.11Z"/>
  <path class="cls-1" d="m57.31,158.58c.42-.13.36-.49-.03-.6-.82-.22-1.72-.11-2.55,0-.69.09-1.39.2-2.08.3,1.17.2,2.39.46,3.55.44.37,0,.75-.03,1.11-.14Z"/>
  <path class="cls-1" d="m21.45,141.15c-2.02-2.38-5.16-3.43-8.21-2.73-1.31.3-2.49.89-3.52,1.77-1.7,1.44-2.73,3.45-2.91,5.66-.18,2.21.51,4.37,1.95,6.06,2.02,2.38,5.16,3.43,8.21,2.73,1.29-.29,2.5-.9,3.52-1.76,1.69-1.44,2.73-3.45,2.91-5.66.18-2.21-.51-4.37-1.95-6.06Zm-1.77,10.78c-.86.73-1.9,1.25-3,1.5-2.59.59-5.27-.3-6.98-2.32-2.52-2.98-2.15-7.45.82-9.98.86-.73,1.9-1.25,2.99-1.5,2.59-.59,5.27.3,6.98,2.32,2.53,2.98,2.16,7.46-.82,9.98Z"/>
  <path class="cls-1" d="m14.29,142.99c-.57.13-1.09.39-1.54.77-.74.63-1.19,1.5-1.27,2.47-.08.97.22,1.91.85,2.65.88,1.04,2.25,1.49,3.58,1.19.57-.13,1.09-.39,1.53-.77.74-.63,1.19-1.51,1.28-2.47.08-.97-.22-1.91-.85-2.65-.88-1.04-2.26-1.5-3.58-1.19Zm2.33,5.33c-.28.24-.63.42-.99.5-.85.2-1.74-.1-2.31-.77-.84-.99-.71-2.47.27-3.3.29-.24.63-.41.99-.5.86-.2,1.74.1,2.31.77.84.99.72,2.47-.27,3.3Z"/>
  <path class="cls-1" d="m65.27,158.25c.11.4.47.45.6.03.1-.35.13-.77.15-1.1-.03-1.2-.24-2.38-.44-3.56-.11.75-.23,1.51-.33,2.26-.1.77-.18,1.61.03,2.36Z"/>
  <path class="cls-1" d="m70.23,153.92c.42-.13.36-.49-.03-.6-.75-.2-1.6-.13-2.36-.03-.76.1-1.51.22-2.27.33,1.17.2,2.4.43,3.55.44.37-.02.75-.04,1.11-.15Z"/>
  <path class="cls-1" d="m71.36,144.2c-.4.11-.45.47-.03.59.35.11.77.13,1.1.15,1.2-.02,2.38-.24,3.56-.44-.76-.11-1.51-.23-2.27-.33-.76-.1-1.6-.18-2.36.03Z"/>
  <path class="cls-1" d="m38.44,162.7c.11.39.47.45.6.03.11-.35.13-.77.15-1.1-.03-1.2-.24-2.38-.44-3.56-.11.75-.23,1.51-.33,2.26-.1.76-.18,1.6.03,2.36Z"/>
  <path class="cls-1" d="m75.68,149.13c.11.4.47.45.6.03.11-.35.13-.77.15-1.1-.03-1.2-.24-2.38-.44-3.56-.11.76-.23,1.51-.33,2.26-.1.77-.18,1.61.03,2.36Z"/>
  <path class="cls-1" d="m52.35,162.91c.11.4.47.45.6.03.1-.35.13-.77.15-1.1-.03-1.2-.24-2.38-.44-3.56-.11.76-.23,1.51-.33,2.27-.1.77-.18,1.6.03,2.36Z"/>
  <path class="cls-1" d="m14.83,145.33c-.19.04-.37.13-.52.26-.51.43-.58,1.21-.14,1.73.42.5,1.22.57,1.73.14.52-.44.58-1.21.14-1.73-.3-.35-.76-.51-1.21-.4Z"/>
  <path class="cls-1" d="m48.03,157.98c-.4.11-.45.47-.03.59.35.11.77.13,1.1.15,1.2-.02,2.38-.24,3.56-.44-.69-.1-1.38-.21-2.08-.3-.83-.11-1.73-.22-2.55,0Z"/>
</svg>