<?xml version="1.0" encoding="UTF-8"?>
<svg id="Layer_1" data-name="Layer 1" xmlns="http://www.w3.org/2000/svg" viewBox="0 0 70.03 82.22">
  <defs>
    <style>
      .cls-1 {
        stroke-width: 0px;
      }
    </style>
  </defs>
  <path class="cls-1" d="m33.33,39.98c-.6,0-1-.5-1-1,0-.6.5-1,1-1s1,.5,1,1c0,.6-.4,1-1,1Zm-10.3-3.5c.6,0,1-.5,1-1s-.5-1-1-1-1,.5-1,1,.5,1,1,1Zm38.4-12.4c-.6,0-1,.5-1,1,0,.6.5,1,1,1s1-.5,1-1c0-.6-.4-1-1-1Zm-3.6,14.8c-.6,0-1,.5-1,1,0,.6.5,1,1,1s1-.5,1-1c0-.6-.5-1-1-1Zm-39.7,8.2c.8,0,1.4-.6,1.4-1.4s-.6-1.4-1.4-1.4-1.4.6-1.4,1.4c0,.8.7,1.4,1.4,1.4Zm10-7.8c0-.6-.5-1-1-1s-1,.5-1,1c0,.6.5,1,1,1s1-.5,1-1Zm15.8,5.6c0,.6.5,1,1,1s1-.5,1-1c0-.6-.5-1-1-1s-1,.4-1,1Zm-33.6,6c.6,0,1-.5,1-1,0-.6-.5-1-1-1s-1,.5-1,1,.4,1,1,1Zm-4.6,7.3c.7,0,1.3-.6,1.3-1.3s-.6-1.3-1.3-1.3-1.3.6-1.3,1.3c0,.7.6,1.3,1.3,1.3Zm64.3,14.5c-1.2,2.2-3.9,2.2-4.9.7-.3,1.1-.5,2.4,1.4,3.6,0,0-3-.1-2.4-4.1.3-2.1-1.3-4.1-3.4-4.8l-.1.1c-2.5,1.4-6.4-2.1-7.7-4.4s-3.8-4-5,.4-8.1,7.4-12.4,7.9c2.9.1,7-.6,9.6-2.8-5.8,11.2-15.4,14-26.2,12.6S-.57,68.58.03,59.28s9.2-18.1,19.6-19.1c-2.5-5.1,1.3-21.8,8.1-26.8s10.4.3,10.4.3c-2.5-3.9-5.1-4.2-7.6-3.8-4.9.7-9.5,6.4-10.6,12.4-1.1,5.7-3.5,12.9-9.6,10.8s-3.8-12.8,1.1-18.7c3.6-4.3,3.2-9.7,1.4-13.4-.3-.7.6-1.3,1.1-.8,4.9,5.2,1.9,12.7.2,15.4-2,3.2-5.9,10.1-2.5,11.7s4.6-4.8,4.9-7.2,2-15.1,14-15.9c12-.8,14.7,8.9,14.7,8.9,0,0-1.2-5.1-3.4-6.6,6.7-2.4,14.9.9,19.1,4.3,4.1,3.4,10.3,12.3,6.1,27.9-4.1,15.1-22.8,14.5-28.4,14.1-5.6-.4-25.2-3.4-25.2,11.1s15.8,11,19.5,7.9c-4.9-.8-7.4-5.2-6.6-9.5s3.4-8.3,11.2-7.6c7.1.7,6.6,6.5,3.4,9,3.4-1.8,2.3-3.4,6.1-7.3,3.8-3.9,9.7-.5,12.6,1.9,2.5,2.1,3.9,6.6,2.3,8.9,3.8,1.1,2.3,9.3,8.1,5.5ZM35.43,6.88c0-.7-.6-1.2-1.2-1.2s-1.2.6-1.2,1.2.6,1.2,1.2,1.2c.7.1,1.2-.5,1.2-1.2Zm-1.1,50.4c0,.8.6,1.4,1.4,1.4s1.4-.6,1.4-1.4-.6-1.4-1.4-1.4-1.4.6-1.4,1.4Zm4.4,7c.2-3.3-2.4-5.1-4.8-2.9-2.4,2.1,2.8,4.9,4.8,2.9Zm-5.7.7c-.4,0-.8.3-.8.8s.3.8.8.8.8-.3.8-.8-.4-.8-.8-.8Zm-2.6-6c0,.8.7,1.5,1.5,1.5s1.5-.7,1.5-1.5-.7-1.5-1.5-1.5-1.5.7-1.5,1.5Zm-.4,4.1c0,.6.5,1,1,1,.6,0,1-.5,1-1,0-.6-.5-1-1-1s-1,.5-1,1ZM49.43,11.98c-.4-.1-1.6.1-1,1,.5.9,1.3.3,1.3.3-.6,1.2,1.1,1.8,1.5.4.8,1.2,2.1-.1,1.2-.7,1.6.1,1.1-1.6-.1-1.5,1.3-.9.1-2.1-1-1.1.1-1.8-2.1-.8-1.3.5-.2-.3-1-.8-1.5-.2-.6.6,0,1,.9,1.3Zm-2.5,4.1c1.4,5.5,2.4,17.8-4.4,23.8-6.6,5.7-10.4,5.6-14.8,5.4,0,0,8.8,2.2,15.3-4.6,13.4,1.3,15.6-11.1,14-16.1-1.7-4.9-7-8.2-10.1-8.5Zm9.2,1.1c-.4-.1-1.6.1-1,1,.5.9,1.3.3,1.3.3-.6,1.2,1.1,1.8,1.5.4.8,1.2,2.1-.1,1.2-.7,1.6.1,1.1-1.6-.1-1.5,1.3-.9.1-2.1-1-1.1.1-1.8-2.1-.8-1.3.5-.2-.3-1-.8-1.5-.2-.5.6,0,1,.9,1.3Zm6.6,15.8c1.3-.6.3-2.1-.5-1.3.4-1.5-1.4-1.4-1.5-.2-.6-1.5-2-.5-1.3.8-1.7-.5-1.2,1.9.3,1.3-.3.1-1,.8-.5,1.4s1.1.1,1.5-.7c-.2.4-.2,1.6.7,1.2,1-.4.5-1.2.5-1.2,1.2.9,2.1-.7.8-1.3Zm-4.8,4.6c-1.2,0-2.2,1-2.2,2.2s1,2.2,2.2,2.2,2.2-1,2.2-2.2-1.1-2.2-2.2-2.2Zm5.7-12.6c0-1.3-1.1-2.4-2.4-2.4s-2.4,1.1-2.4,2.4,1.1,2.4,2.4,2.4,2.4-1,2.4-2.4Zm-9.8,18.8c1.3-.6.3-2.1-.5-1.3.4-1.5-1.4-1.4-1.5-.2-.6-1.5-2-.5-1.3.8-1.7-.5-1.2,1.9.3,1.3-.3.1-1,.8-.5,1.4s1.1.1,1.5-.7c-.2.4-.2,1.6.7,1.2,1-.4.5-1.2.5-1.2,1.2.9,2-.7.8-1.3Zm-8.9-1.1c-1.2,0-2.2,1-2.2,2.2s1,2.2,2.2,2.2,2.2-1,2.2-2.2c-.1-1.3-1.1-2.2-2.2-2.2Zm-2.3-19.4c-.8,0-1.4.6-1.4,1.4s.6,1.4,1.4,1.4,1.4-.6,1.4-1.4c0-.7-.6-1.4-1.4-1.4Zm-1.9-8.9c0,.7.6,1.2,1.2,1.2s1.2-.6,1.2-1.2-.6-1.2-1.2-1.2-1.2.5-1.2,1.2Zm-2,25c-1.2,1-2.6,1.8-4,2.5-2.9,1.3-6.2,1.9-9.5,1.8,3.2.7,6.8.5,10-.7s6.1-3.4,8-6.2c1.9-2.9,2.9-6.3,3.1-9.7.1-1.7,0-3.4-.2-5-.3-1.7-.6-3.3-1-4.9.3,3.3.5,6.6.1,9.8s-1.4,6.3-3.2,8.9c-.9,1.3-2,2.5-3.3,3.5Zm-11.7,1.9c1.2,0,2.1-1,2.1-2.1s-1-2.1-2.1-2.1-2.1,1-2.1,2.1.9,2.1,2.1,2.1Zm6.2-.2c1.2,0,2.1-1,2.1-2.1s-1-2.1-2.1-2.1-2.1,1-2.1,2.1.9,2.1,2.1,2.1Zm5.1-3.8c.9,0,1.7-.7,1.7-1.7s-.8-1.6-1.7-1.6-1.7.7-1.7,1.7c0,.9.7,1.6,1.7,1.6Zm-9.5-11.4c-1.6,3.2-3.1,12.6,4.4,9.3s7.6-12.6,6.1-18.2c-7,1.1-8.9,5.8-10.5,8.9Zm-.8-10.1c0,.7.6,1.2,1.2,1.2s1.2-.6,1.2-1.2-.6-1.2-1.2-1.2c-.6,0-1.2.5-1.2,1.2Zm-1.8,18c-.1-2,.1-3.9.5-5.8.4-1.8,1.1-3.6,2.1-5.2.9-1.6,2.2-3.1,3.6-4.3,1.4-1.2,3.1-2.1,5-2.8-2,.1-4,.7-5.7,1.9-1.7,1.1-3.1,2.7-4.2,4.5-1,1.8-1.7,3.8-1.9,5.8-.3,1.9-.1,4,.6,5.9Zm-3.9-9.7c0,.8.6,1.4,1.4,1.4s1.4-.6,1.4-1.4-.6-1.4-1.4-1.4c-.7,0-1.4.6-1.4,1.4Zm-1.5,11.1c0,1.1.9,2,2,2s2-.9,2-2-.9-2-2-2-2,.9-2,2Zm-5.2,10.5c0,1.4,1.1,2.5,2.5,2.5s2.5-1.1,2.5-2.5-1.1-2.5-2.5-2.5-2.5,1.1-2.5,2.5Zm-4.8,13.9c-1.1,4.8.8,9.8,4.3,12.9-1.6-1.7-2.8-3.8-3.5-6s-.7-4.6-.1-6.8c.6-2.2,1.8-4.2,3.5-5.6,1.7-1.4,4-2,6.2-2.6,4.5-1,9.2-1.1,13.8-1.1,2.3,0,4.7.1,7,.2l3.5.2c1.2.1,2.4,0,3.6-.1,2.4-.3,4.8-.9,7-2s4.1-2.6,5.8-4.4c1.6-1.8,2.9-3.9,3.8-6.2.4-1.1.7-2.4.8-3.6s.2-2.4.2-3.5c.1-4.7-.6-9.6-2.9-13.8-2.3-4.2-6.1-7.4-10.5-9.1,2.1,1.1,4.1,2.3,5.8,3.9,1.7,1.6,3.1,3.5,4.1,5.5,2.1,4.1,2.6,8.9,2.4,13.5-.1,1.2-.2,2.3-.3,3.5-.1,1.1-.4,2.2-.8,3.3-.8,2.1-2,4-3.6,5.7-1.5,1.6-3.4,3-5.4,4s-4.2,1.6-6.5,1.8c-1.1.1-2.3.2-3.4.1l-3.5-.1c-2.3-.1-4.7-.1-7-.1-4.7.1-9.5.2-14.1,1.4-1.2.3-2.3.7-3.4,1.1-1.1.5-2.2,1-3.1,1.9-2,1.4-3.2,3.6-3.7,6Zm3.2,13.8c-.6,0-1,.4-1,1s.4,1,1,1,1-.4,1-1c0-.5-.4-1-1-1Zm-5.4-22.9c-.4.2-1.3,1-.6,1.8.7.7,1.3.1,1.9-.9-.3.5-.3,1.9.9,1.5s.6-1.5.6-1.5c1.4,1,2.4-.9.8-1.7,1.7-.7.4-2.6-.6-1.7.4-1.9-1.7-1.8-1.9-.2-.8-1.8-2.5-.6-1.6,1-2.1-.6-1.4,2.5.5,1.7Zm-3.8,8.5c-.2.4-.3,1.9.9,2s1.3-.9,1-2.2c.1.6,1.2,1.9,1.9.6.7-1.3-.6-1.8-.6-1.8,2-.1,1.4-2.6-.5-2.1.9-1.9-1.6-2.5-1.8-1-1-2-2.8-.2-1.8,1.2-2-1-2.6,1.4-.7,2.1-2.3,1.1.6,3.3,1.6,1.2Zm3.9,7.2c0-1.5-1.2-2.7-2.7-2.7s-2.7,1.2-2.7,2.7,1.2,2.7,2.7,2.7c1.5-.1,2.7-1.3,2.7-2.7Zm1.5,6.7c.9,0,1.5-.7,1.5-1.5,0-.9-.7-1.5-1.5-1.5-.9,0-1.5.7-1.5,1.5s.7,1.5,1.5,1.5Zm23.1,4.2c-2.6,1-5.3,1.8-8.1,2s-5.6,0-8.2-.8c-2.7-.8-5.2-2-7.6-3.6,2,2.1,4.5,3.7,7.3,4.7s5.8,1.4,8.7,1.1,5.8-1.1,8.5-2.4c2.6-1.3,5-3.1,6.9-5.3-2.4,1.8-4.9,3.2-7.5,4.3Zm13.6-14.5c-.4,1.2-1.2,2.1-2.1,2.9-.9.8-1.9,1.4-2.9,1.9-2.1,1-4.4,1.8-6.7,1.7-1-.1-2.3-.4-3.3-.8-1-.4-1.9-1.1-2.5-2s-.8-2-.9-3.2c0-1.2.1-2.4.3-3.6-.5,1.1-.9,2.3-1.1,3.6-.1,1.3,0,2.6.6,3.9.6,1.2,1.8,2.1,3,2.7.6.3,1.2.5,1.8.7s1.3.3,2,.3c2.7.1,5.1-.8,7.3-2.2,1.1-.7,2.1-1.5,2.9-2.4.9-1.1,1.5-2.3,1.6-3.5Zm9.8.7c-.6-.7-1.5-1-2-.5s-.4,1.3.2,2,1.5,1,2,.5c.5-.4.4-1.3-.2-2Zm-50.7,1.4c-.8,0-1.4.6-1.4,1.4s.6,1.4,1.4,1.4,1.4-.6,1.4-1.4c0-.7-.6-1.4-1.4-1.4Z"/>
</svg>